<?xml version="1.0" encoding="utf-8"?>
<!-- Generator: Adobe Illustrator 15.0.0, SVG Export Plug-In . SVG Version: 6.00 Build 0)  -->
<!DOCTYPE svg PUBLIC "-//W3C//DTD SVG 1.1//EN" "http://www.w3.org/Graphics/SVG/1.1/DTD/svg11.dtd">
<svg version="1.1" id="cat" xmlns="http://www.w3.org/2000/svg" xmlns:xlink="http://www.w3.org/1999/xlink" x="0px" y="0px"
	 width="595.3px" height="841.9px" viewBox="0 0 595.3 841.9" style="enable-background:new 0 0 595.3 841.9;" xml:space="preserve"
	>
<style type="text/css">
<![CDATA[
	.cat0{opacity:0.33;fill:#FFFFFF;}
	.cat1{opacity:0.19;fill:#3F3A37;}
	.cat2{fill:#B1AEA4;}
	.cat3{opacity:0.38;}
	.cat4{opacity:0.38;fill:#FFFFFF;}
	.cat5{fill:#8E8982;}
	.cat6{fill:#DEF01E;stroke:#7A7426;stroke-width:6;stroke-miterlimit:10;}
	.cat7{opacity:0.45;fill:#FCFCFB;}
	.cat8{fill:#262224;}
	.cat9{fill:#F7A8D2;}
	.cat10{opacity:0.38;fill:#010102;}
	.cat11{fill:#C1B17E;}
	.cat12{fill:#96928B;}
	.cat13{fill:#2D1D09;}
	.cat14{fill:#FBFDC4;}
	.cat15{opacity:0.5;fill:#78CCD3;stroke:#23429B;stroke-width:5;stroke-miterlimit:10;}
	.cat16{fill:none;}
	.cat17{fill:#DCDE38;stroke:#696219;stroke-width:4;stroke-miterlimit:10;}
	.cat18{fill:#696219;}
	.cat19{opacity:0.47;fill:#FFFFFF;}
	.cat20{fill:#DEF01E;stroke:#98870B;stroke-width:6;stroke-miterlimit:10;}
	.cat21{fill:#373333;}
	.cat22{fill:#010102;}
	.cat23{opacity:0.38;fill:#181517;}
	.cat24{fill:#726E6A;}
	.cat25{opacity:0.39;fill:#FCFCFB;}
	.cat26{opacity:0.39;fill:#FFFFFF;}
	.cat27{opacity:0.26;fill:#FFFFFF;}
]]>
</style>
<symbol  id="catsymbol" viewBox="-132 -78.4 263.9 156.7">
	<path class="cat12" d="M-97.2-2.5c0-6.4,7.9-10.3,7-15.7c-1.3-7,10.9-7.2,20.3-11c12-1.7,15.6-10.2,11.5-10.8
		c1.5-4.3-10.8-9.8-24.6-4.7c-15.4,3.1-32,16.5-33.4,24.1c-1,5.5-7.7,11.8-7.7,18.3c0,3.8-3.4,22.9-3.1,26.4
		c0.8,7.9,14.8,26.6,17,31.8c2.6,10.8,34,14,37.6,7.3c5.8-0.5,3.6-14.5,2.8-19.8c2.2-5.2-23.8-22.3-23-30.1
		C-92.5,9.8-97.2,1.1-97.2-2.5z"/>
	<path class="cat21" d="M-67.9,49.1c0-9.8-14.5-29.7-24.9-29.7c-10.4,0-28.6,7.9-28.6,17.7c0,4.9,2.7,10.6,6.1,13.8
		c3.4,3.2,15,14.5,20.2,14.5s16.4,2.6,19.9-0.6C-71.9,61.7-67.9,54-67.9,49.1z"/>
	<g>
		<g>
			<path class="cat5" d="M-94.4,22.1c8.6,7.1,16.2,17.8,15.4,29.4c-0.7,10.7-10.2,15.3-19.9,15.2c-3.2,0-3.2-5,0-5
				c8.6,0.1,15.2-3.8,14.9-13c-0.3-9.2-7.3-17.5-14-23.1C-100.4,23.5-96.9,20-94.4,22.1L-94.4,22.1z"/>
		</g>
	</g>
	<g>
		<g>
			<path class="cat5" d="M-108.6,24.5c9.4,1.8,14.6,14.3,14.5,22.9c-0.1,4.1-2,6.9-5.8,8.2c-2.9,1.1-9.8,3.4-12.7,1.3
				c-2.5-1.9-0.1-6.3,2.5-4.3c1.2,0.9,6.6-1.1,8-1.5c2.9-0.8,3.1-2.7,2.9-5.5c-0.3-6-4.4-15-10.8-16.3
				C-113,28.7-111.7,23.9-108.6,24.5L-108.6,24.5z"/>
		</g>
	</g>
	<path class="cat23" d="M-97.3-38.6c-6.9,0.1,14.5-7,24.3-7c15.5-2.2,24.2,7.9,20.1,15.3C-65.7-24.5-87.6-38.7-97.3-38.6z"/>
	<path class="cat24" d="M-117,2.3c0-3.8,14.4-10.4,20.4-10.4c-3.7,0.2,2.3,23.2,5,23.1C-97.5,15-117,6.1-117,2.3z"/>
	<g>
		<g>
			<g>
				<path d="M-43.8-28c-1.9,3.8-6.6,5.9-10.5,6.8c-2.8,0.6-5.2-0.8-6.2-3.5c0.8,2.1-1.4,0.6-3.1,0.4c-2.3-0.2-4.7-0.1-6.9,0.2
					c-4.4,0.7-8.7,2.6-12.2,5.4c-7,5.5-11.3,14.7-8.9,23.5c2.2,8.1,10.7,14.4,15.9,20.5c5.7,6.7,10.9,14.4,12.6,23.1
					c3.6,18.2-15.5,26-30.4,23.1c-17.2-3.3-28.3-20.3-34.7-35.2c-1-2.2-0.9-5.7,1.8-6.8c11.8-5.1,23.6-10.1,35.4-15.2
					c0.8,3.1,1.7,6.2,2.5,9.3c-5.9-0.4-12.4,2.4-17.7,4.7c-3,1.3-6,2.8-8.8,4.4c-1.3,0.7-2.5,1.5-3.6,2.3c-0.9,0.7-0.8,1.3-0.4,0
					c-1.5,5.1-7.9,4.4-9.6,0c-5.4-13.5-3.6-26.7-0.1-40.4c3.5-13.5,11.7-25.5,22.2-34.6c10.4-9,23.7-10.6,37-11
					c6-0.1,12.5,0.7,17.2,4.8c4.3,3.6,8.7,9.6,9.2,15.3c0.6,6.4-9.4,6.4-10,0c0.1,1-1.7-2.8-2.1-3.5c-1.5-2.4-3.3-4.6-6-5.7
					c-4.5-1.8-10.3-0.9-15-0.7c-11.2,0.6-20.2,4.3-28.1,12.4C-119-12.7-127,12.3-118.9,32.6c-3.2,0-6.4,0-9.6,0
					c1.9-6.3,11-9.8,16.4-12.3c7.1-3.2,15.8-7.2,23.8-6.6c4.4,0.3,7.5,7.2,2.5,9.3c-11.8,5.1-23.6,10.1-35.4,15.2
					c0.6-2.3,1.2-4.6,1.8-6.8c6.2,14.4,18.1,33.7,36.6,30.8c4.2-0.7,8.4-2.9,9.9-7.1c1.6-4.5-1.4-10.1-3.5-13.9
					c-4.4-8-11.3-14.1-17.2-21c-5.4-6.4-8.9-13.6-8.6-22.1c0.3-8.3,4.7-16,10.3-21.8c5.6-5.9,13.8-9.6,21.8-10.5
					c6.6-0.7,16.7-0.8,19.4,6.7c-2-1.2-4.1-2.3-6.2-3.5c1.4-0.3,3.8-0.7,4.5-2.2C-49.6-38.9-41-33.8-43.8-28z"/>
			</g>
		</g>
		<g>
			<g>
				<path d="M-60-23.1c-0.1-0.1-0.1-0.3-0.2-0.4c-0.6-1.2-0.9-2.5-0.5-3.9c0.4-1.6,1.8-3.2,3.5-3.5c0.1,0,0.1,0,0.2,0
					c1.4-0.3,2.6-0.2,3.9,0.5c1.5,0.9,2.4,2.5,2.5,4.3c0,0.6-0.1,1.2-0.2,1.8c-0.2,1.2-1.3,2.4-2.3,3c-1.2,0.7-2.6,0.9-3.9,0.5
					C-58.2-21.1-59.3-22-60-23.1c-0.2-0.4-0.3-0.8-0.5-1.2c-0.2-0.9-0.2-1.8,0-2.7c0,0,0-0.1,0-0.1c-0.1,0.4-0.1,0.9-0.2,1.3
					c0-0.1,0-0.2,0-0.3c2.1,1.6,4.2,3.2,6.3,4.8c-0.1,0-0.1,0-0.2,0c1-2.4,2-4.9,3-7.3c0.1,0.1,0.1,0.3,0.2,0.4
					c0.6,1.2,0.9,2.5,0.5,3.9c-0.3,1.3-1.2,2.3-2.3,3c-1.2,0.7-2.6,0.9-3.9,0.5C-58.2-21.1-59.4-22-60-23.1z"/>
			</g>
		</g>
	</g>
	<path class="cat20" d="M74.6-19.4c0-16.4-6.7-29.7-15-29.7c-8.3,0-15,13.3-15,29.7c0,16.4,6.7,29.7,15,29.7
		C67.9,10.2,74.6-3.1,74.6-19.4z"/>
	<path class="cat14" d="M72.8-24.1l-13.6-8.4l2,10.2L71.9-8.4C72.8-12.6,73.3-18.1,72.8-24.1z"/>
	<path class="cat1" d="M65.2-46.3l-9.8-4.6l2,10.2l14.9,5.5C73.2-39.3,69.9-45.1,65.2-46.3z"/>
	<path class="cat2" d="M-60.8-26.6c0-21.7,30.3-44.8,63.6-44.8s63.7,25.1,63.7,46.8c0,12,2.6,31.6-10.3,38.9
		C50,17.7,43.7,59.5,35.7,61.1c-4.7,0.9-9.9,10.4-15,10.6c-1,0-3.1-34.6-4.1-34.6c-4.9,0-19.4,1-24,0.3C-13,36.6-14.9,73-19.8,71.2
		c-11.6-0.2-32.5-54-33.3-60.7C-60.5,4-60.8-17.8-60.8-26.6z"/>
	<path class="cat11" d="M41.4-63.4c-33.7-26-107.6-2-94.5,34.7C-64.4,2.2,21.1,14.1,63.1,1.4C75.4-0.6,68.8-51.2,41.4-63.4z"/>
	<path class="cat27" d="M40.4,9.6C54.7,7.2,57.3-0.8,67-15.8c-2.7,7.5,0.9,8.8-10.4,28.7c-6.4,27-27.2,61.1-32.8,59.6
		c-1.5-0.4-7.1-3.3-5.9-6.8C30.9,75.3,42.6,33.1,40.4,9.6z"/>
	<path class="cat4" d="M-11,48.3c0-4.5-10.2,18.4-15.5,18.4s4.3,4.2,9.6,4.2C-14.3,67.1-11,52.8-11,48.3z"/>
	<path class="cat8" d="M44.3,26.3c2.4-4.4-16,5-18.1,8.2c-2.1,10.1-1.6,26.2,0.6,26.7C28.9,61.5,42.2,36.3,44.3,26.3z"/>
	<g>
		<g>
			<path d="M61.6,12.9c-0.5,5.4-3.2,11.1-5,16.2c-3.7,10.1-7.9,20.1-13.3,29.4c-4.6,7.9-10.6,16.2-19.4,19.3
				C8,83.5,13.1,43.2,13.5,36.5c2.1,1.6,4.2,3.2,6.3,4.8c-10.1,2.1-20,2.3-30.2,0.8c2-1.2,4.1-2.3,6.2-3.5c-1,6.3-2.3,12.6-3.7,18.9
				c-1.4,5.8-2.7,12.1-5.4,17.4c-0.8,1.5-2.7,2.6-4.3,2.5c-8-0.4-13.4-7.1-17.5-13.2C-41,55.6-45,45.7-48.6,36
				c-1.7-4.5-3.1-9-4.5-13.6c-0.6-1.9-1.1-3.8-1.5-5.7c-0.5-1.8-3.8-5.4-5.1-7.5C-66-1.6-67.8-14.3-66-26.6
				c3.2-22,20.9-38.6,40.6-46.6c21.9-8.9,48.1-6.2,68.2,6c28.7,17.4,38.5,54.8,18.2,82.6c-3.8,5.1-12.5,0.2-8.6-5
				C67.4-10.3,63.8-36.1,45.2-53C27.4-69,0.5-71.9-21.5-64c-20.9,7.5-36.4,27-35.3,49.6c0.3,6.5,2.6,12.8,5.6,18.5
				c1.5,2.8,3.8,5.1,5.4,7.8c1.1,1.9,1.4,4.6,2,6.8c2.8,9.9,6.4,19.6,10.8,28.9c2.3,4.9,5,9.7,8.3,14.1c1.6,2.1,4.5,5.5,7,5.6
				c-1.4,0.8-2.9,1.7-4.3,2.5c2.6-5,3.5-11.5,4.8-16.9c1.3-5.6,2.4-11.3,3.3-17c0.5-2.9,3.7-3.9,6.2-3.5c8.3,1.2,16.7,0.9,24.8-0.8
				c3-0.6,6.5,1.4,6.3,4.8c-0.3,5.7-0.5,11.4-0.7,17.2c-0.1,3.4-1,14,1,15.4c-1.3-0.2-2.6-0.3-3.9-0.5c5.1-1.2,8.7-5.9,11.5-10
				c4.2-6,7.5-12.7,10.4-19.4c2.7-6,4.9-12.1,7-18.3c0.7-2.2,1.4-4.3,2.1-6.5c0.2-0.8,0.9-4.3,0.6-1.5C52.2,6.5,62.2,6.5,61.6,12.9z
				"/>
		</g>
	</g>
	<g>
		<g>
			<path d="M24.4-48.1c0.1,0.1,0.1,0.3,0.2,0.4c-1.4-0.8-2.9-1.7-4.3-2.5c0.1,0,0.3,0,0.4,0c-1.4,2.5-2.9,5-4.3,7.5
				c-3.1-7.2-8.2-12.8-15.1-16.6c-5.7-3.1-0.6-11.7,5-8.6c8.3,4.5,14.9,11.6,18.7,20.2c1.3,3.1-0.1,7.9-4.3,7.5
				c-2.1-0.2-4-0.8-4.9-2.9C13.1-48.9,21.8-54,24.4-48.1L24.4-48.1z"/>
		</g>
	</g>
	<g>
		<g>
			<path d="M17.6-48.8c1.4-7.1,8.5-13.4,16-10.5c2.5,1,4.3,3.3,3.5,6.2c-0.7,2.4-3.6,4.5-6.2,3.5c-1.2-0.5-1.6-0.4-2.1,0.1
				c-1,0.8-1.3,2-1.6,3.4c-0.5,2.7-3.7,4.2-6.2,3.5C18.3-43.4,17.1-46.1,17.6-48.8L17.6-48.8z"/>
		</g>
	</g>
	<g>
		<path d="M22.3-44.9c1.6,1.3,2.8,3.8,3.6,5.4c-0.4,0.6-7.6-0.2-9.3-1.3C17.3-41.9,20.4-44.2,22.3-44.9"/>
		<g>
			<path class="cat9" d="M25.8-48.4c1.9,1.8,3.2,4.1,4.4,6.4c1,2,0.9,4.4-0.8,6.1c-2,1.9-4.7,1.8-7.3,1.5c-2.7-0.3-5.7-0.6-8.1-2.1
				c-3-1.8-3-5.3-1-7.9c2-2.4,5.1-4.2,7.9-5.4c2.5-1,5.5,1.1,6.2,3.5c0.8,2.9-1,5.1-3.5,6.2c1.2-0.5-0.2,0.2-0.4,0.3
				c-0.6,0.3-1.2,0.7-1.7,1.1c0.7-0.5-0.4,0.4-0.5,0.4c-0.3,0.3-0.7,0.6-1,1c-0.3-2.6-0.7-5.2-1-7.9c0.3,0.2,1,0.4-0.2-0.1
				c0.3,0.1,0.7,0.2,1,0.3c0.8,0.2,1.6,0.4,2.4,0.5c1.4,0.2-1-0.1,0.3,0c0.4,0,0.8,0.1,1.1,0.1c0.3,0,0.7,0,1,0c0.2,0,0.3,0,0.5,0
				c-1.1,0-2,0.4-2.8,1.3c-0.3,2-0.5,4-0.8,6.1c-0.8-1.7-1.7-3.4-2.8-4.4c-2-1.8-1.9-5.2,0-7.1C20.7-50.4,23.8-50.3,25.8-48.4
				L25.8-48.4z"/>
		</g>
	</g>
	<path class="cat22" d="M4.6-43.7c0-1.2-1-2.2-2.2-2.2c-1.2,0-2.2,1-2.2,2.2s1,2.2,2.2,2.2C3.7-41.5,4.6-42.5,4.6-43.7z"/>
	<path class="cat22" d="M39.6-38.9c0-1.2-1-2.2-2.2-2.2c-1.2,0-2.2,1-2.2,2.2s1,2.2,2.2,2.2C38.6-36.7,39.6-37.7,39.6-38.9z"/>
	<path class="cat22" d="M44.8-46.4c0-1.2-1-2.2-2.2-2.2s-2.2,1-2.2,2.2c0,1.2,1,2.2,2.2,2.2S44.8-45.2,44.8-46.4z"/>
	<path class="cat22" d="M43.6-53.2c0-1.2-1-2.2-2.2-2.2c-1.2,0-2.2,1-2.2,2.2c0,1.2,1,2.2,2.2,2.2C42.6-51,43.6-52,43.6-53.2z"/>
	<path class="cat22" d="M-4.2-49.6c0-1.2-1-2.2-2.2-2.2s-2.2,1-2.2,2.2c0,1.2,1,2.2,2.2,2.2S-4.2-48.4-4.2-49.6z"/>
	<path class="cat22" d="M-7.3-61.2c0-1.2-1-2.2-2.2-2.2s-2.2,1-2.2,2.2s1,2.2,2.2,2.2S-7.3-60-7.3-61.2z"/>
	<path class="cat13" d="M18.3,5.8c1.2,0.4,2.6-14.5-0.6-19C14.5-17.6,5,5,3.7,5.1C2.5,5.3,18.2,5.9,18.3,5.8z"/>
	<path class="cat13" d="M1,4.9C1.6,5.1,2.6-2.8,0.8-5.2s-6.4,9.5-7.2,9.3L1,4.9z"/>
	<path class="cat13" d="M28.6,5.8c0.6-0.3,1.4-7.5-0.3-9.9c-1.7-2.4-7.1,9.8-7.7,10C23.6,5.8,28.1,5.8,28.6,5.8z"/>
	<g>
		<g>
			<path d="M-22.2-37c0.1,8.1,2.6,18.2,6.7,25.2c-0.3-0.4,0.8,1,0.2,0.6c-1.7-1.3-3.3,1.2-2-0.6c1.4-1.9,2.4-4.2,3.3-6.3
				c2-4.8,3.6-9.9,4.5-15c1.1-6.3,10.8-3.6,9.6,2.7c-1.3,7.1-8,34.8-20.1,28.2c-5.2-2.9-7.2-10.5-8.7-15.7c-1.8-6-3.4-12.6-3.5-18.9
				C-32.3-43.5-22.3-43.5-22.2-37L-22.2-37z"/>
		</g>
	</g>
	<g>
		<g>
			<path d="M56.3-31.1c-1,6-3.2,11.9-5.5,17.6C49.1-9,46.3-0.2,40.7,1.2C28.1,4.3,28.2-22.9,28.3-30c0.1-6.4,10.1-6.5,10,0
				c0,4.7,0.3,9.4,1,14c0.4,2.4,0.9,4.8,1.6,7.1c0.2,0.7,0.4,1,0.7,1.5c-2.2-3.9-5.5,0.7-4.1-1.2c4.8-6.9,7.9-17,9.3-25.3
				C47.7-40.1,57.4-37.4,56.3-31.1L56.3-31.1z"/>
		</g>
	</g>
	<path class="cat3" d="M15.6-73.8C-8.6-79.6-51.5-62.5-58.1-38c-5.3,13.9-8.7,30.9,11,55.9C-72.4-31.5-17.7-74.3,15.6-73.8z"/>
	<path class="cat15" d="M40.5-68.5C9.3-80.3-36.1-75.7-50.3-50C-62-28.8-47.3-8.3-47.3-8.3C-32.2,9.2,52,11.9,68.9-0.6
		C82.1-47.5,55.4-62.3,40.5-68.5z"/>
	<path class="cat6" d="M-35.2-25.4c0-16.4-6.7-29.7-15-29.7s-15,13.3-15,29.7c0,16.4,6.7,29.7,15,29.7S-35.2-9-35.2-25.4z"/>
	<g>
		<g>
			<path class="cat21" d="M-97.3,25.2c3.2,0,3.2,5,0,5S-100.5,25.2-97.3,25.2L-97.3,25.2z"/>
		</g>
	</g>
	<path class="cat8" d="M-37.9,23.8c-0.3-7.3,23.1,6.6,23.6,12.4c0,10.3-5.3,26-8.6,26C-26.2,62.3-37.9,34.1-37.9,23.8z"/>
	<path class="cat19" d="M26.8-38.7c0.1-0.8-1.1-1.6-2.8-1.9s-3.1,0.1-3.3,0.9c-0.1,0.8,1.1,1.6,2.8,1.9
		C25.2-37.5,26.6-37.9,26.8-38.7z"/>
	<path class="cat26" d="M68.4-6.6c3.4-40.2-17.3-54.1-14.1-48.3C67.7-43.1,57.8,2.6,34.3,2.2C22.3,1.9,66.7,3.8,68.4-6.6z"/>
	<path class="cat26" d="M-38.1-37.4c-3.1-12.3-9-17.5-14.1-15.8c-4.9,10.2-4.4,19.8-2.5,29.5C-54.7-23.7-53.8-32.4-38.1-37.4z"/>
	<path class="cat26" d="M-40.7-6c1.7-3.3,2-5.3,2.5-7.1c-9.6,4.2-6.4-7.6-13.4-0.8C-51.5-14-49.7-9.5-40.7-6z"/>
	<path class="cat17" d="M-46.3-23.7c0-9.2-3.3-16.6-7.4-16.6c-4.1,0-7.4,7.4-7.4,16.6s3.3,16.6,7.4,16.6
		C-49.6-7.1-46.3-14.5-46.3-23.7z"/>
	<path class="cat18" d="M-61.1-23.7c0-8.3,5-22.5,11.8-12.7c-8.3-3.3-7.4,31.2-0.9,26.6C-54.8-4.2-62.6-11.4-61.1-23.7z"/>
	<path class="cat0" d="M-55-27.8l-6.9-0.1c-0.2,1.5-0.3,3.5-0.2,5.6l6.8-0.1C-55.4-23.9-55.3-25.8-55-27.8z"/>
	<polygon class="cat25" points="-55.3,-21.1 -62.1,-21.1 -62,-19.8 -55.3,-20 	"/>
	<path class="cat7" d="M-71.3,55.2c1-3.7,0.2-9.7-2.1-10.3c-2.3-0.6-8.7,16.9-6.4,17.5C-77.5,63.1-72.3,58.9-71.3,55.2z"/>
	<path class="cat10" d="M19.1,33.9C-2.8,33.6-8.6,29-8.6,29s-3.8,1.4-2.1,7.1C0.6,36.5,11,36.2,19.1,33.9z"/>
	<polygon class="cat16" points="132,-0.7 121.5,-0.7 121.5,9.1 132,9.1 	"/>
</symbol>
<use xlink:href="#catsymbol"  width="263.9" height="156.7" x="-132" y="-78.4" transform="translate(32786 32786)" style="overflow:visible;"/>
</svg>
