<?xml version="1.0" encoding="utf-8"?>
<!-- Generator: Adobe Illustrator 15.0.0, SVG Export Plug-In . SVG Version: 6.00 Build 0)  -->
<!DOCTYPE svg PUBLIC "-//W3C//DTD SVG 1.1//EN" "http://www.w3.org/Graphics/SVG/1.1/DTD/svg11.dtd">
<svg version="1.1" id="world" xmlns="http://www.w3.org/2000/svg" xmlns:xlink="http://www.w3.org/1999/xlink" x="0px" y="0px"
	 width="4096px" height="4096px" viewBox="0 0 4096 4096" enable-background="new 0 0 4096 4096" xml:space="preserve">
<symbol  id="flare" viewBox="-729.433 -729.433 1458.866 1458.866">
	<g>
		<line fill="none" x1="0" y1="0" x2="136.364" y2="-90.909"/>
		<path fill="none" d="M-136.574,0c0-75.428,61.146-136.574,136.574-136.574S136.574-75.428,136.574,0S75.428,136.574,0,136.574
			S-136.574,75.428-136.574,0z"/>
		<path fill="none" d="M-163.889,0c0-90.513,73.375-163.889,163.889-163.889S163.889-90.513,163.889,0S90.513,163.889,0,163.889
			S-163.889,90.513-163.889,0z"/>
		<polyline fill="none" points="0,0 55.021,-54.865 0,0 -55.021,54.865 0,0 -54.865,-55.02 0,0 54.865,55.02 0,0 270.846,53.944 
			0,0 -270.846,-53.944 0,0 53.944,-270.846 0,0 -53.944,270.846 0,0 461.76,-513.392 0,0 -461.76,513.392 0,0 -513.392,-461.759 
			0,0 513.392,461.76 0,0 227.58,-729.135 0,0 -227.58,729.135 0,0 -729.135,-227.58 0,0 729.135,227.58 0,0 517.054,-497.904 0,0 
			-517.054,497.904 0,0 -497.904,-517.053 0,0 497.904,517.054 0,0 647.845,-106.345 0,0 -647.845,106.345 0,0 -106.345,-647.845 
			0,0 106.345,647.845 0,0 46.338,-114.008 0,0 -46.338,114.008 0,0 -114.008,-46.338 0,0 114.008,46.338 0,0 276.339,60.306 0,0 
			-276.339,-60.306 0,0 60.306,-276.339 0,0 -60.306,276.339 0,0 618.966,151.805 0,0 -618.966,-151.805 0,0 151.805,-618.965 0,0 
			-151.805,618.966 0,0 60.778,-154.72 0,0 -60.778,154.72 0,0 -154.72,-60.778 0,0 154.72,60.778 0,0 221.24,34.403 0,0 
			-221.24,-34.403 0,0 34.403,-221.24 0,0 -34.403,221.24 0,0 193.218,-124.445 0,0 -193.218,124.445 0,0 -124.445,-193.218 0,0 
			124.445,193.218 0,0 242.739,-97.022 0,0 -242.739,97.022 0,0 -97.022,-242.739 0,0 97.022,242.739 0,0 297.319,-594.546 0,0 
			-297.319,594.546 0,0 -594.546,-297.319 0,0 594.546,297.319 0,0 353.044,-391.5 0,0 -353.044,391.5 0,0 -391.5,-353.044 0,0 
			391.5,353.044 		"/>
		<radialGradient id="SVGID_1_" cx="0" cy="0" r="327.7778" gradientUnits="userSpaceOnUse">
			<stop  offset="0" style="stop-color:#000000"/>
			<stop  offset="0.73" style="stop-color:#87210D"/>
			<stop  offset="1" style="stop-color:#000000"/>
		</radialGradient>
		<path opacity="0.15" fill="url(#SVGID_1_)" d="M-327.778,0c0-181.027,146.751-327.778,327.778-327.778S327.778-181.027,327.778,0
			S181.027,327.778,0,327.778S-327.778,181.027-327.778,0z"/>
		<radialGradient id="SVGID_2_" cx="0" cy="0" r="163.889" gradientUnits="userSpaceOnUse">
			<stop  offset="0.15" style="stop-color:#FFFFFF"/>
			<stop  offset="0.2134" style="stop-color:#D8BAB5"/>
			<stop  offset="0.2931" style="stop-color:#B17876"/>
			<stop  offset="0.362" style="stop-color:#985053"/>
			<stop  offset="0.4166" style="stop-color:#8A3B42"/>
			<stop  offset="0.45" style="stop-color:#85333C"/>
			<stop  offset="0.5442" style="stop-color:#671A1B"/>
			<stop  offset="0.6472" style="stop-color:#400908"/>
			<stop  offset="0.7362" style="stop-color:#1F0600"/>
			<stop  offset="0.8068" style="stop-color:#0E0000"/>
			<stop  offset="0.85" style="stop-color:#000000"/>
			<stop  offset="0.856" style="stop-color:#090000"/>
			<stop  offset="0.8623" style="stop-color:#140000"/>
			<stop  offset="0.8686" style="stop-color:#230700"/>
			<stop  offset="0.875" style="stop-color:#400402"/>
			<stop  offset="0.8815" style="stop-color:#620904"/>
			<stop  offset="0.888" style="stop-color:#891206"/>
			<stop  offset="0.8945" style="stop-color:#B4200B"/>
			<stop  offset="0.9" style="stop-color:#DA3011"/>
			<stop  offset="0.9063" style="stop-color:#BF240C"/>
			<stop  offset="0.916" style="stop-color:#971608"/>
			<stop  offset="0.9262" style="stop-color:#720C05"/>
			<stop  offset="0.9367" style="stop-color:#500703"/>
			<stop  offset="0.9475" style="stop-color:#340301"/>
			<stop  offset="0.9588" style="stop-color:#1D0500"/>
			<stop  offset="0.9707" style="stop-color:#120000"/>
			<stop  offset="0.9838" style="stop-color:#080000"/>
			<stop  offset="1" style="stop-color:#000000"/>
		</radialGradient>
		<path opacity="0.5" fill="url(#SVGID_2_)" d="M-163.889,0c0-90.513,73.375-163.889,163.889-163.889S163.889-90.513,163.889,0
			S90.513,163.889,0,163.889S-163.889,90.513-163.889,0z"/>
		<radialGradient id="SVGID_3_" cx="0" cy="0" r="136.5742" gradientUnits="userSpaceOnUse">
			<stop  offset="0.15" style="stop-color:#FFFFFF"/>
			<stop  offset="0.2824" style="stop-color:#93867E"/>
			<stop  offset="0.4253" style="stop-color:#493B37"/>
			<stop  offset="0.5636" style="stop-color:#1E1515"/>
			<stop  offset="0.6936" style="stop-color:#0A0607"/>
			<stop  offset="0.8134" style="stop-color:#020101"/>
			<stop  offset="0.9192" style="stop-color:#000000"/>
			<stop  offset="1" style="stop-color:#000000"/>
		</radialGradient>
		<path fill="url(#SVGID_3_)" d="M-136.574,0c0-75.428,61.146-136.574,136.574-136.574S136.574-75.428,136.574,0
			S75.428,136.574,0,136.574S-136.574,75.428-136.574,0z"/>
		<polyline opacity="0.03" fill="none" stroke="#FFFFFF" stroke-width="2" stroke-miterlimit="10" points="0,0 55.021,-54.865 0,0 
			-55.021,54.865 0,0 -54.865,-55.02 0,0 54.865,55.02 0,0 270.846,53.944 0,0 -270.846,-53.944 0,0 53.944,-270.846 0,0 
			-53.944,270.846 0,0 461.76,-513.392 0,0 -461.76,513.392 0,0 -513.392,-461.759 0,0 513.392,461.76 0,0 227.58,-729.135 0,0 
			-227.58,729.135 0,0 -729.135,-227.58 0,0 729.135,227.58 0,0 517.054,-497.904 0,0 -517.054,497.904 0,0 -497.904,-517.053 0,0 
			497.904,517.054 0,0 647.845,-106.345 0,0 -647.845,106.345 0,0 -106.345,-647.845 0,0 106.345,647.845 0,0 46.338,-114.008 0,0 
			-46.338,114.008 0,0 -114.008,-46.338 0,0 114.008,46.338 0,0 276.339,60.306 0,0 -276.339,-60.306 0,0 60.306,-276.339 0,0 
			-60.306,276.339 0,0 618.966,151.805 0,0 -618.966,-151.805 0,0 151.805,-618.965 0,0 -151.805,618.966 0,0 60.778,-154.72 0,0 
			-60.778,154.72 0,0 -154.72,-60.778 0,0 154.72,60.778 0,0 221.24,34.403 0,0 -221.24,-34.403 0,0 34.403,-221.24 0,0 
			-34.403,221.24 0,0 193.218,-124.445 0,0 -193.218,124.445 0,0 -124.445,-193.218 0,0 124.445,193.218 0,0 242.739,-97.022 0,0 
			-242.739,97.022 0,0 -97.022,-242.739 0,0 97.022,242.739 0,0 297.319,-594.546 0,0 -297.319,594.546 0,0 -594.546,-297.319 0,0 
			594.546,297.319 0,0 353.044,-391.5 0,0 -353.044,391.5 0,0 -391.5,-353.044 0,0 391.5,353.044 		"/>
	</g>
</symbol>
<symbol  id="star" viewBox="-122.68 -118.854 245.36 237.708">
	<polygon fill="#FFFF00" points="84.109,-110.139 5.998,-74.636 -67.531,-118.854 -57.903,-33.595 -122.68,22.671 -38.618,39.861 
		-5.123,118.854 37.202,44.219 122.68,36.773 64.776,-26.544 	"/>
</symbol>
<g id="starz">
	<rect x="-46.911" width="4189.822" height="4096"/>
	<polygon fill="#FFFF00" points="948.364,906.636 870.252,871.133 796.723,915.352 806.351,830.092 741.574,773.826 
		825.636,756.636 859.131,677.643 901.457,752.278 986.935,759.724 929.031,823.042 	"/>
	<polygon fill="#FFFF00" points="543.818,1961.182 465.707,1925.678 392.178,1969.897 401.806,1884.638 337.029,1828.372 
		421.091,1811.182 454.586,1732.188 496.911,1806.824 582.389,1814.27 524.485,1877.587 	"/>
	<polygon fill="#FFFF00" points="1766.545,668.928 1688.434,633.424 1614.905,677.643 1624.533,592.384 1559.756,536.118 
		1643.818,518.928 1677.313,439.935 1719.638,514.57 1805.116,522.016 1747.212,585.333 	"/>
	<polygon fill="#FFFF00" points="2334.727,1144.345 2256.615,1108.841 2183.086,1153.06 2192.715,1067.801 2127.938,1011.535 
		2212,994.345 2245.494,915.352 2287.82,989.987 2373.298,997.433 2315.395,1060.75 	"/>
	<polygon fill="#FFFF00" points="1643.865,1903.436 1565.753,1867.932 1492.224,1912.151 1501.853,1826.892 1437.076,1770.625 
		1521.138,1753.436 1554.632,1674.442 1596.958,1749.078 1682.436,1756.523 1624.533,1819.841 	"/>
	<polygon fill="#FFFF00" points="948.363,2698.891 870.252,2663.387 796.723,2707.605 806.352,2622.346 741.574,2566.08 
		825.637,2548.891 859.131,2469.896 901.457,2544.532 986.935,2551.979 929.031,2615.295 	"/>
	<polygon fill="#FFFF00" points="666.498,3662.527 588.387,3627.023 514.857,3671.242 524.486,3585.982 459.709,3529.717 
		543.771,3512.527 577.266,3433.533 619.592,3508.169 705.069,3515.615 647.166,3578.932 	"/>
	<polygon fill="#FFFF00" points="2039.272,3321.618 1961.161,3286.114 1887.632,3330.333 1897.261,3245.073 1832.483,3188.808 
		1916.546,3171.618 1950.04,3092.624 1992.366,3167.26 2077.844,3174.706 2019.94,3238.022 	"/>
	<polygon fill="#FFFF00" points="3321.09,3617.072 3242.979,3581.568 3169.449,3625.787 3179.078,3540.527 3114.301,3484.262 
		3198.363,3467.072 3231.857,3388.078 3274.184,3462.714 3359.662,3470.16 3301.758,3533.477 	"/>
	<polygon fill="#FFFF00" points="3671.09,2461.183 3592.979,2425.679 3519.449,2469.897 3529.078,2384.638 3464.301,2328.372 
		3548.363,2311.183 3581.857,2232.188 3624.184,2306.824 3709.662,2314.271 3651.758,2377.587 	"/>
	<polygon fill="#FFFF00" points="3548.41,1382.054 3470.299,1346.55 3396.77,1390.769 3406.398,1305.509 3341.621,1249.244 
		3425.684,1232.054 3459.178,1153.06 3501.504,1227.696 3586.982,1235.142 3529.078,1298.458 	"/>
	<polygon fill="#FFFF00" points="3175.683,600.236 3097.571,564.732 3024.042,608.951 3033.671,523.691 2968.894,467.425 
		3052.956,450.236 3086.45,371.242 3128.776,445.877 3214.255,453.324 3156.351,516.64 	"/>
	<polygon fill="#FFFF00" points="2421.042,2389.799 2342.931,2354.296 2269.401,2398.514 2279.03,2313.256 2214.253,2256.989 
		2298.315,2239.799 2331.81,2160.807 2374.136,2235.441 2459.614,2242.887 2401.71,2306.205 	"/>
	
		<use xlink:href="#star"  width="245.36" height="237.708" x="-122.68" y="-118.854" transform="matrix(1 0 0 -1 359.709 337.4063)" overflow="visible"/>
</g>
<g id="starsymbols">
	<g>
		
			<use xlink:href="#star"  width="245.36" height="237.708" x="-122.68" y="-118.854" transform="matrix(1 0 0 -1 781.1421 1051.2046)" overflow="visible"/>
		
			<use xlink:href="#star"  width="245.36" height="237.708" x="-122.68" y="-118.854" transform="matrix(1 0 0 -1 931.0293 1172.6978)" overflow="visible"/>
		
			<use xlink:href="#star"  width="245.36" height="237.708" x="-122.68" y="-118.854" transform="matrix(1 0 0 -1 1741.5591 1372.2026)" overflow="visible"/>
		
			<use xlink:href="#star"  width="245.36" height="237.708" x="-122.68" y="-118.854" transform="matrix(1 0 0 -1 1729.0142 1471.2935)" overflow="visible"/>
		
			<use xlink:href="#star"  width="245.36" height="237.708" x="-122.68" y="-118.854" transform="matrix(1 0 0 -1 1645.4365 1556.6924)" overflow="visible"/>
	</g>
	
		<use xlink:href="#flare"  width="1458.866" height="1458.866" x="-729.433" y="-729.433" transform="matrix(1 0 0 -1 2498.3633 2724.8184)" overflow="visible"/>
</g>
<g id="asteroids">
	<circle fill="#666666" cx="2157.454" cy="2241.952" r="390.909"/>
	<circle fill="#666666" cx="2823.345" cy="1193" r="390.909"/>
</g>
<ellipse id="cat" fill="#FE330A" cx="1535.091" cy="1193" rx="79.545" ry="88.637"/>
</svg>
