<?xml version="1.0" encoding="utf-8"?>
<!-- Generator: Adobe Illustrator 15.0.0, SVG Export Plug-In . SVG Version: 6.00 Build 0)  -->
<!DOCTYPE svg PUBLIC "-//W3C//DTD SVG 1.1//EN" "http://www.w3.org/Graphics/SVG/1.1/DTD/svg11.dtd">
<svg version="1.1" xmlns="http://www.w3.org/2000/svg" xmlns:xlink="http://www.w3.org/1999/xlink" x="0px" y="0px" width="274.7px"
	 height="148px" viewBox="0 0 274.7 148" style="enable-background:new 0 0 274.7 148;" xml:space="preserve">
<style type="text/css">
<![CDATA[
	.cat0{fill:#DEF01E;stroke:#7A7426;stroke-width:3;stroke-miterlimit:10;}
	.cat1{fill:#DCDE38;stroke:#696219;stroke-width:2;stroke-miterlimit:10;}
	.cat2{opacity:0.33;fill:#FFFFFF;}
	.cat3{opacity:0.19;fill:#3F3A37;}
	.cat4{fill:#B1AEA4;}
	.cat5{opacity:0.38;}
	.cat6{opacity:0.38;fill:#FFFFFF;}
	.cat7{fill:#8E8982;}
	.cat8{opacity:0.45;fill:#FCFCFB;}
	.cat9{fill:#262224;}
	.cat10{fill:#F7A8D2;}
	.cat11{opacity:0.38;fill:#010102;}
	.cat12{fill:#C1B17E;}
	.cat13{fill:#96928B;}
	.cat14{fill:#2D1D09;}
	.cat15{fill:#FBFDC4;}
	.cat16{fill:none;}
	.cat17{fill:#696219;}
	.cat18{display:inline;}
	.cat19{opacity:0.47;fill:#FFFFFF;}
	.cat20{fill:#DEF01E;stroke:#98870B;stroke-width:6;stroke-miterlimit:10;}
	.cat21{fill:#373333;}
	.cat22{fill:#010102;}
	.cat23{opacity:0.38;fill:#181517;}
	.cat24{display:none;}
	.cat25{fill:#726E6A;}
	.cat26{opacity:0.39;fill:#FCFCFB;}
	.cat27{opacity:0.39;fill:#FFFFFF;}
	.cat28{opacity:0.26;fill:#FFFFFF;}
	.cat29{opacity:0.5;fill:#78CCD3;stroke:#23429B;stroke-width:3;stroke-miterlimit:10;}
]]>
</style>
<symbol  id="catsymbol" viewBox="-131.6 -70.1 263.1 140.3">
	<g>
		<g>
			<path class="cat13" d="M-101.4-2.1c0-5.9,7.3-9.5,6.4-14.5c-1.2-6.5,10.1-6.6,18.8-10.1c11.1-1.5,14.4-9.4,10.6-10
				c1.4-3.9-9.9-9-22.7-4.3c-14.2,2.9-29.5,15.2-30.8,22.2c-0.9,5-7.1,10.8-7.1,16.9c0,3.5-3.2,21.1-2.8,24.3
				c0.8,7.2,13.6,24.6,15.7,29.3c2.4,9.9,31.3,12.9,34.7,6.7c5.4-0.5,3.3-13.4,2.6-18.3c2-4.8-21.9-20.5-21.2-27.8
				C-97,9.2-101.4,1.2-101.4-2.1z"/>
			<path class="cat21" d="M-74.4,45.5c0-9-13.4-27.4-22.9-27.4c-9.6,0-26.4,7.3-26.4,16.3c0,4.5,2.5,9.8,5.6,12.7
				c3.1,3,13.9,13.4,18.7,13.4c4.8,0,15.2,2.4,18.3-0.5C-78,57.1-74.4,50-74.4,45.5z"/>
			<g>
				<g>
					<path class="cat7" d="M-99.5,21.3c7.6,6.3,14.9,16,13.9,26.5c-0.9,9.2-8.9,12.9-17.3,12.9c-1.6,0-1.6-2.5,0-2.5
						c8.3,0.1,15.4-4,14.8-13.2c-0.5-8.8-6.7-16.5-13.2-21.9C-102.5,22-100.8,20.3-99.5,21.3L-99.5,21.3z"/>
				</g>
			</g>
			<g>
				<g>
					<path class="cat7" d="M-112.1,23.8c8.1,1.6,13.4,13.1,12.6,20.7c-0.3,3.2-1.7,4.9-4.6,6c-2.4,0.9-8.4,2.9-10.7,1.2
						c-1.3-0.9,0-3.1,1.3-2.2c1.5,1.1,6.4-0.7,7.9-1.2c3.5-1.1,4-3.4,3.6-6.8c-0.7-5.8-4.3-14.1-10.7-15.3
						C-114.4,25.9-113.7,23.5-112.1,23.8L-112.1,23.8z"/>
				</g>
			</g>
			<path class="cat23" d="M-101.5-35.4c-6.3,0.1,13.4-6.4,22.4-6.4c14.3-2,22.3,7.3,18.6,14.1C-72.4-22.4-92.5-35.5-101.5-35.4z"/>
			<path class="cat25" d="M-119.6,2.3c0-3.5,13.3-9.6,18.9-9.6c-3.4,0.2,2.1,21.4,4.6,21.3C-101.7,14-119.6,5.8-119.6,2.3z"/>
			<path class="cat8" d="M-77.5,51.1c0.9-3.4,0.2-8.9-2-9.5c-2.2-0.6-8.1,15.6-5.9,16.2C-83.2,58.4-78.4,54.5-77.5,51.1z"/>
			<g>
				<g>
					<g>
						<path d="M-53.9-26.7c-1.5,3.1-5.3,4.6-8.4,5.3c-1,0.2-2.4-0.1-2.8-1.1c-1.6-3.6-12-1.6-14.7-0.8c-4.2,1.2-8,3.3-11.1,6.3
							c-7,6.6-10.5,17.1-5.6,26c7.3,13.1,22.6,21.3,24.8,37.3c1.9,14.5-13.6,20.8-25.7,18c-15.2-3.5-24.8-18-30.6-31.4
							c-0.5-1.1-0.5-2.8,0.9-3.4c10.9-4.7,21.8-9.3,32.7-14c0.4,1.6,0.8,3.1,1.3,4.7c-5.8-0.4-12.2,2.4-17.4,4.6
							c-2.8,1.2-5.6,2.6-8.2,4.1c-1.2,0.7-4.2,2-4.7,3.4c-0.8,2.5-3.9,2.2-4.8,0c-9.1-23.1,1.7-52.6,20.6-67.7
							c9.1-7.3,20.7-8.8,32-8.9c5.1,0,10.3,0.6,14.3,3.9c3.4,2.8,7.3,8.1,7.7,12.6c0.3,3.2-4.7,3.2-5,0c-0.4-4.1-5.8-9.4-9.4-10.6
							c-4.4-1.5-9.8-0.9-14.3-0.5c-10.9,0.8-19.7,4.2-27.3,12.3c-13.7,14.8-21.5,38.3-13.8,57.7c-1.6,0-3.2,0-4.8,0
							c1.6-5.1,9.8-8.1,14.1-10c6.3-2.8,13.9-6.3,20.9-5.8c2.2,0.2,3.8,3.6,1.3,4.7c-10.9,4.7-21.8,9.3-32.7,14
							c0.3-1.1,0.6-2.3,0.9-3.4c6.1,14.2,18.8,33.7,37.2,29.2c24.6-6-2.5-33-9.9-41.9c-4.3-5.2-7.7-11.1-7.5-18
							c0.2-6.9,3.3-13.5,7.8-18.5c4.7-5.2,11.2-8.8,18.1-9.9c4.8-0.8,14.6-1.6,17.1,3.8c-0.9-0.4-1.9-0.8-2.8-1.1
							c1.8-0.4,4.6-1.2,5.5-3C-56.8-32.2-52.5-29.6-53.9-26.7z"/>
					</g>
				</g>
				<g>
					<g>
						<path d="M-65.2-22.2c-0.1-0.1-0.1-0.2-0.2-0.4c-0.4-0.7-0.5-1.5-0.1-2.2c0.3-0.7,0.9-1.3,1.6-1.4c0.1,0,0.1,0,0.2,0
							c1.6-0.3,3.1,0.7,3.2,2.4c0,0.4-0.1,0.7-0.1,1.1c-0.1,0.6-0.7,1.2-1.1,1.5c-0.5,0.3-1.3,0.4-1.9,0.3c-1.4-0.5-2-1.7-1.7-3.1
							c0,0.4-0.1,0.5-0.1,0.3c1.1,0.8,2.1,1.6,3.2,2.4c-0.1,0-0.1,0-0.2,0c0.5-1.2,1-2.4,1.5-3.7c0.1,0.1,0.1,0.2,0.2,0.4
							c0.6,1.2,0.4,2.8-0.9,3.4C-62.9-20.7-64.6-20.9-65.2-22.2z"/>
					</g>
				</g>
			</g>
			<path class="cat20" d="M57.1-17.7c0-15.1-6.2-27.4-13.9-27.4S29.3-32.9,29.3-17.7c0,15.1,6.2,27.4,13.9,27.4S57.1-2.6,57.1-17.7z"
				/>
			<path class="cat15" d="M55.4-22L43-29.8l1.9,9.4l9.8,12.8C55.4-11.4,55.9-16.5,55.4-22z"/>
			<path class="cat3" d="M48.4-42.5l-9-4.3l1.9,9.4L55-32.2C55.8-36.1,52.7-41.4,48.4-42.5z"/>
			<path class="cat4" d="M-67.8-24.3c0-20,27.9-41.4,58.7-41.4s58.7,23.1,58.7,43.2c0,11,2.4,29.2-9.5,35.8
				c-5.7,3.2-11.5,41.7-18.9,43.2c-4.3,0.9-9.1,9.6-13.8,9.8c-1,0-2.9-31.9-3.8-31.9c-4.5,0-17.9,1-22.1,0.3
				c-5.2-0.8-6.9,32.8-11.4,31.1c-10.7-0.2-30-49.8-30.7-56C-67.5,3.8-67.8-16.2-67.8-24.3z"/>
			<path class="cat12" d="M26.5-58.3c-31.1-24-99.2-1.8-87.2,32C-71.1,2.2,7.7,13.2,46.5,1.5C57.8-0.4,51.7-47.1,26.5-58.3z"/>
			<path class="cat28" d="M25.5,9c13.2-2.2,15.6-9.6,24.6-23.4c-2.4,6.9,0.8,8.1-9.6,26.5c-5.9,24.9-25.1,56.4-30.2,55
				c-1.4-0.4-6.6-3-5.5-6.3C16.8,69.6,27.6,30.7,25.5,9z"/>
			<path class="cat6" d="M-21.9,44.7c0-4.2-9.4,17-14.3,17c-4.9,0,4,3.9,8.9,3.9C-25,62.1-21.9,48.9-21.9,44.7z"/>
			<path class="cat9" d="M29.1,24.4c2.2-4-14.7,4.6-16.7,7.5c-1.9,9.3-1.5,24.2,0.5,24.6C15,56.9,27.2,33.7,29.1,24.4z"/>
			<g>
				<g>
					<path d="M43,12.1c-0.5,4.9-3,10.1-4.7,14.7c-3.3,9.1-7.1,18.1-12,26.5c-3.7,6.3-9,14.5-16.5,16.7c-11.9,3.5-7.3-30.8-7-36.1
						c1.1,0.8,2.1,1.6,3.2,2.4c-8.9,1.8-17.7,2-26.7,0.7c1-0.6,2.1-1.2,3.1-1.7c-0.9,5.9-2.1,11.7-3.5,17.5
						c-1.2,5.1-2.3,10.8-4.7,15.5c-0.4,0.7-1.3,1.3-2.2,1.2c-7.1-0.3-11.9-7.2-15.3-12.6c-5.2-8.3-9-17.7-12.3-26.9
						c-1.5-4.3-2.7-8.6-4-12.9c-1.6-5.3-5.9-9.7-8.1-15c-4.1-10.2-4.7-21.8-1.3-32.3C-55.3-73.5,5.7-81.5,36.4-52.4
						c18.4,17.5,21.3,45.1,6.2,65.7c-1.9,2.6-6.2,0.1-4.3-2.5c12.6-17.2,12.1-39.8-1.9-56c-13-15-33.7-21.4-53.1-19.3
						c-18.8,2-37.4,12.8-45.5,30.3c-4.2,8.9-5.2,19.2-2.7,28.8C-63.5,0-61,5.2-57.7,9.8c2.5,3.5,3.1,6.8,4.3,10.8
						c2.8,9.4,6.3,18.7,10.8,27.4c2.6,5.1,7.7,16.1,14.5,16.4c-0.7,0.4-1.4,0.8-2.2,1.2c2.5-4.8,3.5-10.9,4.7-16.1
						c1.2-5.2,2.2-10.4,3-15.7c0.2-1.4,1.9-1.9,3.1-1.7c8,1.2,16.1,0.9,24-0.7c1.5-0.3,3.3,0.7,3.2,2.4C7.4,41.4,7,49,7.1,56.6
						c0,2,0,4.1,0.6,6.1c0.3,0.8,0.7,1.7,1,2.5c-1,0.1-1.1,0.1-0.2-0.1c1.2-0.2,2.6-1.3,3.5-2c6-4.5,9.9-11.9,13.3-18.4
						c3.6-7,6.5-14.3,9.1-21.7c0.9-2.7,1.8-5.3,2.7-8c0.2-0.8,0.5-1.6,0.7-2.4c0.1-0.3,0.3-1.7,0.2-0.4C38.3,8.9,43.3,8.9,43,12.1z"
						/>
				</g>
			</g>
			<g>
				<g>
					<path d="M9-43.1C9-43,9.1-42.9,9.1-42.8C8.4-43.2,7.7-43.6,7-44c0.1,0,0.3,0,0.4,0c-0.7,1.3-1.4,2.5-2.2,3.8
						c-3-6.9-8-12.5-14.7-16.1c-2.8-1.5-0.3-5.9,2.5-4.3c7.3,4,13.1,10.2,16.5,17.9c0.7,1.5-0.1,4-2.2,3.8c-1.2-0.1-2.2-0.4-2.7-1.6
						C3.3-43.5,7.6-46.1,9-43.1L9-43.1z"/>
				</g>
			</g>
			<g>
				<g>
					<path d="M6.6-44.3c1.1-5.5,6.3-10.5,12.2-8.2c3,1.1,1.7,6-1.3,4.8c-3.4-1.3-5.4,1.8-6,4.8C10.7-39.8,5.9-41.1,6.6-44.3
						L6.6-44.3z"/>
				</g>
			</g>
			<g>
				<path d="M8.8-41.2c1.5,1.2,2.6,3.5,3.3,5c-0.4,0.6-7-0.2-8.6-1.2C4.2-38.4,7.1-40.6,8.8-41.2"/>
				<g>
					<path class="cat10" d="M10.6-43c1.7,1.5,2.7,3.5,3.7,5.5c0.5,1,0.5,2.2-0.4,3c-1.4,1.3-3.7,1-5.4,0.8c-2.1-0.2-4.4-0.5-6.2-1.6
						c-1.5-0.9-1.5-2.7-0.5-3.9c1.6-2,4.1-3.5,6.4-4.4c1.3-0.5,2.7,0.6,3.1,1.7c0.4,1.4-0.5,2.6-1.7,3.1C8-38.2,6.3-37,5.3-35.7
						C5.1-37,5-38.3,4.8-39.6c0.8,0.5,2.4,0.8,3.6,0.9c0.6,0.1,1.2,0.1,1.9,0.2c0.3,0,0.6,0,0.9,0c0.1,0,0.2,0,0.4,0
						c-0.4,0-0.8,0.2-1.1,0.5c-0.1,1-0.3,2-0.4,3c-0.8-1.6-1.6-3.3-2.9-4.5C4.7-41.6,8.2-45.2,10.6-43L10.6-43z"/>
				</g>
			</g>
			<path class="cat22" d="M-7.5-40.1c0-1.1-0.9-2-2-2c-1.1,0-2,0.9-2,2c0,1.1,0.9,2,2,2C-8.4-38.1-7.5-39-7.5-40.1z"/>
			<path class="cat22" d="M24.8-35.7c0-1.1-0.9-2-2-2c-1.1,0-2,0.9-2,2c0,1.1,0.9,2,2,2C23.9-33.7,24.8-34.6,24.8-35.7z"/>
			<path class="cat22" d="M29.6-42.6c0-1.1-0.9-2-2-2c-1.1,0-2,0.9-2,2c0,1.1,0.9,2,2,2C28.7-40.6,29.6-41.5,29.6-42.6z"/>
			<path class="cat22" d="M28.5-48.9c0-1.1-0.9-2-2-2c-1.1,0-2,0.9-2,2c0,1.1,0.9,2,2,2C27.6-46.9,28.5-47.8,28.5-48.9z"/>
			<path class="cat22" d="M-15.6-45.5c0-1.1-0.9-2-2-2c-1.1,0-2,0.9-2,2c0,1.1,0.9,2,2,2C-16.5-43.5-15.6-44.4-15.6-45.5z"/>
			<path class="cat22" d="M-18.5-56.2c0-1.1-0.9-2-2-2c-1.1,0-2,0.9-2,2c0,1.1,0.9,2,2,2C-19.4-54.2-18.5-55.1-18.5-56.2z"/>
			<path class="cat14" d="M5.2,5.6C6.2,5.9,7.6-7.8,4.6-11.9C1.6-16-7.1,4.8-8.3,4.9C-9.5,5.1,5.1,5.6,5.2,5.6z"/>
			<path class="cat14" d="M-10.8,4.8c0.6,0.2,1.4-7.2-0.2-9.4c-1.6-2.2-5.9,8.8-6.6,8.6L-10.8,4.8z"/>
			<path class="cat14" d="M14.7,5.5c0.6-0.3,1.3-6.9-0.3-9.1c-1.6-2.2-6.6,9.1-7.1,9.2C10.1,5.6,14.2,5.6,14.7,5.5z"/>
			<g>
				<g>
					<path d="M-34.3-34c0.1,3.9,1,7.9,2,11.8c1,4.1,2,9.4,4.6,12.9c1.1,1.5,0.9,1,2.1-0.7c1.5-2,2.6-4.8,3.5-7.1
						c1.6-4.1,2.9-8.4,3.7-12.7c0.6-3.2,5.4-1.8,4.8,1.3c-1,5.3-6.3,29.2-15.5,24.7c-4.1-2-5.7-8.8-6.9-12.6
						c-1.7-5.6-3.3-11.6-3.3-17.5C-39.4-37.2-34.4-37.2-34.3-34L-34.3-34z"/>
				</g>
			</g>
			<g>
				<g>
					<path d="M38.2-29.1c-0.9,5.7-3.1,11.4-5.3,16.8c-1.4,3.4-3.5,10.4-7.7,11.6c-8.8,2.6-8.9-22.1-8.8-26.7c0-3.2,5-3.2,5,0
						c0,4.5,0.3,9,1,13.5c0.4,2.3,0.7,4.8,1.6,6.9c0.2,0.6,0.7,1.2,0.9,1.8c-1.2,0.2-1.6,0-1-0.5c0.2-0.2,0.4-0.5,0.6-0.8
						c1.5-4.2,4.1-8.1,5.5-12.4c1.3-3.7,2.6-7.6,3.3-11.5C33.9-33.6,38.7-32.2,38.2-29.1L38.2-29.1z"/>
				</g>
			</g>
			<path class="cat5" d="M2.7-67.9c-22.4-5.3-61.9,10.4-68,33c-4.9,12.8-8,28.5,10.1,51.5C-78.5-28.8-28-68.3,2.7-67.9z"/>
			<path class="cat29" d="M25.6-63c-28.7-10.9-70.7-6.6-83.7,17c-10.8,19.6,2.7,38.5,2.7,38.5c14,16.2,91.6,18.7,107.2,7.1
				C64-43.6,39.4-57.2,25.6-63z"/>
			<path class="cat0" d="M-44.2-23.2c0-15.1-6.2-27.4-13.9-27.4c-7.7,0-13.9,12.3-13.9,27.4c0,15.1,6.2,27.4,13.9,27.4
				C-50.4,4.2-44.2-8.1-44.2-23.2z"/>
			<path class="cat9" d="M-46.7,22.2C-47,15.5-25.4,28.2-25,33.6c0,9.5-4.9,24-7.9,24C-35.9,57.6-46.7,31.6-46.7,22.2z"/>
			<path class="cat19" d="M13-35.5c0.1-0.7-1-1.5-2.6-1.8c-1.5-0.3-2.9,0.1-3,0.8c-0.1,0.7,1,1.5,2.6,1.8S12.8-34.8,13-35.5z"/>
			<path class="cat27" d="M51.4-5.9c3.1-37.1-16-49.9-13-44.6c12.3,10.9,3.2,53-18.5,52.6C8.8,2,49.8,3.7,51.4-5.9z"/>
			<path class="cat27" d="M-46.9-34.3c-2.9-11.4-8.3-16.2-13-14.5c-4.5,9.4-4.1,18.3-2.3,27.2C-62.2-21.6-61.4-29.7-46.9-34.3z"/>
			<path class="cat27" d="M-49.2-5.4c1.5-3.1,1.9-4.9,2.3-6.6c-8.9,3.9-5.9-7-12.3-0.8C-59.2-12.7-57.5-8.6-49.2-5.4z"/>
			<path class="cat1" d="M-54.4-21.6c0-8.5-3.1-15.3-6.9-15.3s-6.9,6.9-6.9,15.3S-65-6.3-61.3-6.3S-54.4-13.2-54.4-21.6z"/>
			<path class="cat17" d="M-68.1-21.6c0-7.7,4.6-20.7,10.9-11.7c-7.6-3.1-6.9,28.7-0.9,24.6C-62.3-3.7-69.5-10.3-68.1-21.6z"/>
			<path class="cat2" d="M-62.5-25.4l-6.4-0.1c-0.2,1.4-0.2,3.2-0.2,5.2l6.3-0.1C-62.8-21.8-62.7-23.6-62.5-25.4z"/>
			<polygon class="cat26" points="-62.8,-19.3 -69,-19.3 -68.9,-18.1 -62.7,-18.2 			"/>
			<path class="cat11" d="M5.9,31.5C-14.3,31.2-19.6,27-19.6,27s-3.5,1.3-1.9,6.6C-11.1,33.9-1.5,33.6,5.9,31.5z"/>
		</g>
	</g>
	<polygon class="cat16" points="131.6,-3.4 126.2,-3.4 126.2,0.8 131.6,0.8 	"/>
</symbol>
<g id="cat9" class="cat24">
	<g class="cat18">
		<g>
			<path class="cat13" d="M39.7,80.2c0,5.9,7.3,9.5,6.4,14.5c-1.2,6.5,10.1,6.6,18.8,10.1c11.1,1.5,14.4,9.4,10.6,10
				c1.4,3.9-9.9,9-22.7,4.3c-14.2-2.9-29.5-15.2-30.8-22.2c-0.9-5-7.1-10.8-7.1-16.9c0-3.5-3.2-21.1-2.8-24.3
				c0.8-7.2,13.6-24.6,15.7-29.3c2.4-9.9,31.3-12.9,34.7-6.7c5.4,0.5,3.3,13.4,2.6,18.3c2,4.8-21.9,20.5-21.2,27.8
				C44.1,68.9,39.7,76.8,39.7,80.2z"/>
			<path class="cat21" d="M66.7,32.6c0,9-13.4,27.4-22.9,27.4c-9.6,0-26.4-7.3-26.4-16.3c0-4.5,2.5-9.8,5.6-12.7
				c3.1-3,13.9-13.4,18.7-13.4s15.2-2.4,18.3,0.5C63.1,21,66.7,28.1,66.7,32.6z"/>
			<g>
				<g>
					<path class="cat7" d="M41.6,56.8c7.6-6.3,14.9-16,13.9-26.5c-0.9-9.2-8.9-12.9-17.3-12.9c-1.6,0-1.6,2.5,0,2.5
						c8.3-0.1,15.4,4,14.8,13.2c-0.5,8.8-6.7,16.5-13.2,21.9C38.6,56.1,40.4,57.8,41.6,56.8L41.6,56.8z"/>
				</g>
			</g>
			<g>
				<g>
					<path class="cat7" d="M29,54.3c8.1-1.6,13.4-13.1,12.6-20.7c-0.3-3.2-1.7-4.9-4.6-6c-2.4-0.9-8.4-2.9-10.7-1.2
						c-1.3,0.9,0,3.1,1.3,2.2c1.5-1.1,6.4,0.7,7.9,1.2c3.5,1.1,4,3.4,3.6,6.8c-0.7,5.8-4.3,14.1-10.7,15.3
						C26.7,52.2,27.4,54.6,29,54.3L29,54.3z"/>
				</g>
			</g>
			<path class="cat23" d="M39.6,113.5c-6.3-0.1,13.4,6.4,22.4,6.4c14.3,2,22.3-7.3,18.6-14.1C68.8,100.5,48.6,113.6,39.6,113.5z"/>
			<path class="cat25" d="M21.5,75.8c0,3.5,13.3,9.6,18.9,9.6C36.9,85.2,42.5,64,45,64.1C39.4,64.1,21.5,72.3,21.5,75.8z"/>
			<path class="cat8" d="M63.6,26.9c0.9,3.4,0.2,8.9-2,9.5c-2.2,0.6-8.1-15.6-5.9-16.2C57.9,19.7,62.7,23.6,63.6,26.9z"/>
			<g>
				<g>
					<g>
						<path d="M87.2,104.8c-1.5-3.1-5.3-4.6-8.4-5.3c-1-0.2-2.4,0.1-2.8,1.1c-1.6,3.6-12,1.6-14.7,0.8c-4.2-1.2-8-3.3-11.1-6.3
							c-7-6.6-10.5-17.1-5.6-26C51.9,56.2,67.2,48,69.3,31.9c1.9-14.5-13.6-20.8-25.7-18c-15.2,3.5-24.8,18-30.6,31.4
							c-0.5,1.1-0.5,2.8,0.9,3.4c10.9,4.7,21.8,9.3,32.7,14c0.4-1.6,0.8-3.1,1.3-4.7c-5.8,0.4-12.2-2.4-17.4-4.6
							c-2.8-1.2-5.6-2.6-8.2-4.1c-1.2-0.7-4.2-2-4.7-3.4c-0.8-2.5-3.9-2.2-4.8,0C3.7,69,14.6,98.6,33.5,113.7
							c9.1,7.3,20.7,8.8,32,8.9c5.1,0,10.3-0.6,14.3-3.9c3.4-2.8,7.3-8.1,7.7-12.6c0.3-3.2-4.7-3.2-5,0c-0.4,4.1-5.8,9.4-9.4,10.6
							c-4.4,1.5-9.8,0.9-14.3,0.5C47.9,116.5,39,113,31.5,105C17.7,90.2,10,66.7,17.7,47.3c-1.6,0-3.2,0-4.8,0
							c1.6,5.1,9.8,8.1,14.1,10c6.3,2.8,13.9,6.3,20.9,5.8c2.2-0.2,3.8-3.6,1.3-4.7c-10.9-4.7-21.8-9.3-32.7-14
							c0.3,1.1,0.6,2.3,0.9,3.4c6.1-14.2,18.8-33.7,37.2-29.2c24.6,6-2.5,33-9.9,41.9c-4.3,5.2-7.7,11.1-7.5,18
							c0.2,6.9,3.3,13.5,7.8,18.5c4.7,5.2,11.2,8.8,18.1,9.9c4.8,0.8,14.6,1.6,17.1-3.8c-0.9,0.4-1.9,0.8-2.8,1.1
							c1.8,0.4,4.6,1.2,5.5,3C84.3,110.2,88.6,107.7,87.2,104.8z"/>
					</g>
				</g>
				<g>
					<g>
						<path d="M75.9,100.3c-0.1,0.1-0.1,0.2-0.2,0.4c-0.4,0.7-0.5,1.5-0.1,2.2c0.3,0.7,0.9,1.3,1.6,1.4c0.1,0,0.1,0,0.2,0
							c1.6,0.3,3.1-0.7,3.2-2.4c0-0.4-0.1-0.7-0.1-1.1c-0.1-0.6-0.7-1.2-1.1-1.5c-0.5-0.3-1.3-0.4-1.9-0.3c-1.4,0.5-2,1.7-1.7,3.1
							c0-0.4-0.1-0.5-0.1-0.3c1.1-0.8,2.1-1.6,3.2-2.4c-0.1,0-0.1,0-0.2,0c0.5,1.2,1,2.4,1.5,3.7c0.1-0.1,0.1-0.2,0.2-0.4
							c0.6-1.2,0.4-2.8-0.9-3.4C78.2,98.8,76.5,99,75.9,100.3z"/>
					</g>
				</g>
			</g>
			<ellipse class="cat20" cx="184.3" cy="95.8" rx="13.9" ry="27.4"/>
			<path class="cat15" d="M196.6,100.1l-12.5,7.7l1.9-9.4l9.8-12.8C196.5,89.5,197,94.6,196.6,100.1z"/>
			<path class="cat3" d="M189.5,120.6l-9,4.3l1.9-9.4l13.7-5.1C196.9,114.2,193.8,119.5,189.5,120.6z"/>
			<path class="cat4" d="M73.3,102.4c0,20,27.9,41.4,58.7,41.4s58.7-23.1,58.7-43.2c0-11,2.4-29.2-9.5-35.8
				c-5.7-3.2-11.5-41.7-18.9-43.2c-4.3-0.9-9.1-9.6-13.8-9.8c-1,0-2.9,31.9-3.8,31.9c-4.5,0-17.9-1-22.1-0.3
				c-5.2,0.8-6.9-32.8-11.4-31.1c-10.7,0.2-30,49.8-30.7,56C73.6,74.2,73.3,94.3,73.3,102.4z"/>
			<path class="cat12" d="M167.6,136.4c-31.1,24-99.2,1.8-87.2-32C70,75.9,148.8,64.9,187.6,76.6C198.9,78.5,192.8,125.1,167.6,136.4
				z"/>
			<path class="cat28" d="M166.6,69c13.2,2.2,15.6,9.6,24.6,23.4c-2.4-6.9,0.8-8.1-9.6-26.5c-5.9-24.9-25.1-56.4-30.2-55
				c-1.4,0.4-6.6,3-5.5,6.3C157.9,8.4,168.7,47.4,166.6,69z"/>
			<path class="cat6" d="M119.2,33.3c0,4.2-9.4-17-14.3-17c-4.9,0,4-3.9,8.9-3.9C116.1,16,119.2,29.2,119.2,33.3z"/>
			<path class="cat9" d="M170.2,53.7c2.2,4-14.7-4.6-16.7-7.5c-1.9-9.3-1.5-24.2,0.5-24.6C156.1,21.1,168.3,44.4,170.2,53.7z"/>
			<g>
				<g>
					<path d="M184.1,66c-0.5-4.9-3-10.1-4.7-14.7c-3.3-9.1-7.1-18.1-12-26.5c-3.7-6.3-9-14.5-16.5-16.7c-11.9-3.5-7.3,30.8-7,36.1
						c1.1-0.8,2.1-1.6,3.2-2.4c-8.9-1.8-17.7-2-26.7-0.7c1,0.6,2.1,1.2,3.1,1.7c-0.9-5.9-2.1-11.7-3.5-17.5
						c-1.2-5.1-2.3-10.8-4.7-15.5c-0.4-0.7-1.3-1.3-2.2-1.2C106,9,101.2,15.9,97.7,21.3c-5.2,8.3-9,17.7-12.3,26.9
						c-1.5,4.3-2.7,8.6-4,12.9c-1.6,5.3-5.9,9.7-8.1,15c-4.1,10.2-4.7,21.8-1.3,32.3c13.7,43.1,74.7,51.2,105.4,22.1
						c18.4-17.5,21.3-45.1,6.2-65.7c-1.9-2.6-6.2-0.1-4.3,2.5c12.6,17.2,12.1,39.8-1.9,56c-13,15-33.7,21.4-53.1,19.3
						c-18.8-2-37.4-12.8-45.5-30.3c-4.2-8.9-5.2-19.2-2.7-28.8c1.4-5.5,3.9-10.6,7.2-15.2c2.5-3.5,3.1-6.8,4.3-10.8
						c2.8-9.4,6.3-18.7,10.8-27.4c2.6-5.1,7.7-16.1,14.5-16.4c-0.7-0.4-1.4-0.8-2.2-1.2c2.5,4.8,3.5,10.9,4.7,16.1
						c1.2,5.2,2.2,10.4,3,15.7c0.2,1.4,1.9,1.9,3.1,1.7c8-1.2,16.1-0.9,24,0.7c1.5,0.3,3.3-0.7,3.2-2.4c-0.4-7.6-0.8-15.2-0.8-22.8
						c0-2,0-4.1,0.6-6.1c0.3-0.8,0.7-1.7,1-2.5c-1-0.1-1.1-0.1-0.2,0.1c1.2,0.2,2.6,1.3,3.5,2c6,4.5,9.9,11.9,13.3,18.4
						c3.6,7,6.5,14.3,9.1,21.7c0.9,2.7,1.8,5.3,2.7,8c0.2,0.8,0.5,1.6,0.7,2.4c0.1,0.3,0.3,1.7,0.2,0.4
						C179.4,69.2,184.4,69.2,184.1,66z"/>
				</g>
			</g>
			<g>
				<g>
					<path d="M150.1,121.2c0.1-0.1,0.1-0.2,0.2-0.4c-0.7,0.4-1.4,0.8-2.2,1.2c0.1,0,0.3,0,0.4,0c-0.7-1.3-1.4-2.5-2.2-3.8
						c-3,6.9-8,12.5-14.7,16.1c-2.8,1.5-0.3,5.9,2.5,4.3c7.3-4,13.1-10.2,16.5-17.9c0.7-1.5-0.1-4-2.2-3.8c-1.2,0.1-2.2,0.4-2.7,1.6
						C144.4,121.6,148.7,124.1,150.1,121.2L150.1,121.2z"/>
				</g>
			</g>
			<g>
				<g>
					<path d="M147.7,122.3c1.1,5.5,6.3,10.5,12.2,8.2c3-1.1,1.7-6-1.3-4.8c-3.4,1.3-5.4-1.8-6-4.8
						C151.8,117.9,147,119.2,147.7,122.3L147.7,122.3z"/>
				</g>
			</g>
			<g>
				<path d="M149.9,119.3c1.5-1.2,2.6-3.5,3.3-5c-0.4-0.6-7,0.2-8.6,1.2C145.3,116.5,148.2,118.7,149.9,119.3"/>
				<g>
					<path class="cat10" d="M151.7,121.1c1.7-1.5,2.7-3.5,3.7-5.5c0.5-1,0.5-2.2-0.4-3c-1.4-1.3-3.7-1-5.4-0.8
						c-2.1,0.2-4.4,0.5-6.2,1.6c-1.5,0.9-1.5,2.7-0.5,3.9c1.6,2,4.1,3.5,6.4,4.4c1.3,0.5,2.7-0.6,3.1-1.7c0.4-1.4-0.5-2.6-1.7-3.1
						c-1.5-0.6-3.2-1.9-4.2-3.1c-0.2,1.3-0.3,2.6-0.5,3.9c0.8-0.5,2.4-0.8,3.6-0.9c0.6-0.1,1.2-0.1,1.9-0.2c0.3,0,0.6,0,0.9,0
						c0.1,0,0.2,0,0.4,0c-0.4,0-0.8-0.2-1.1-0.5c-0.1-1-0.3-2-0.4-3c-0.8,1.6-1.6,3.3-2.9,4.5C145.8,119.7,149.3,123.3,151.7,121.1
						L151.7,121.1z"/>
				</g>
			</g>
			<circle class="cat22" cx="131.6" cy="118.2" r="2"/>
			<circle class="cat22" cx="163.9" cy="113.8" r="2"/>
			<circle class="cat22" cx="168.7" cy="120.7" r="2"/>
			<circle class="cat22" cx="167.6" cy="127" r="2"/>
			<circle class="cat22" cx="123.5" cy="123.6" r="2"/>
			<circle class="cat22" cx="120.6" cy="134.3" r="2"/>
			<path class="cat14" d="M146.3,72.5c1.1-0.4,2.4,13.4-0.6,17.5c-3,4.1-11.7-16.7-12.9-16.8C131.6,73,146.2,72.4,146.3,72.5z"/>
			<path class="cat14" d="M130.3,73.3c0.6-0.2,1.4,7.2-0.2,9.4c-1.6,2.2-5.9-8.8-6.6-8.6L130.3,73.3z"/>
			<path class="cat14" d="M155.8,72.6c0.6,0.3,1.3,6.9-0.3,9.1c-1.6,2.2-6.6-9.1-7.1-9.2C151.2,72.5,155.3,72.5,155.8,72.6z"/>
			<g>
				<g>
					<path d="M106.8,112c0.1-3.9,1-7.9,2-11.8c1-4.1,2-9.4,4.6-12.9c1.1-1.5,0.9-1,2.1,0.7c1.5,2,2.6,4.8,3.5,7.1
						c1.6,4.1,2.9,8.4,3.7,12.7c0.6,3.2,5.4,1.8,4.8-1.3c-1-5.3-6.3-29.2-15.5-24.7c-4.1,2-5.7,8.8-6.9,12.6
						c-1.7,5.6-3.3,11.6-3.3,17.5C101.7,115.3,106.7,115.3,106.8,112L106.8,112z"/>
				</g>
			</g>
			<g>
				<g>
					<path d="M179.3,107.2c-0.9-5.7-3.1-11.4-5.3-16.8c-1.4-3.4-3.5-10.4-7.7-11.6c-8.8-2.6-8.9,22.1-8.8,26.7c0,3.2,5,3.2,5,0
						c0-4.5,0.3-9,1-13.5c0.4-2.3,0.7-4.8,1.6-6.9c0.2-0.6,0.7-1.2,0.9-1.8c-1.2-0.2-1.6,0-1,0.5c0.2,0.2,0.4,0.5,0.6,0.8
						c1.5,4.2,4.1,8.1,5.5,12.4c1.3,3.7,2.6,7.6,3.3,11.5C175,111.7,179.8,110.3,179.3,107.2L179.3,107.2z"/>
				</g>
			</g>
			<path class="cat5" d="M143.8,146c-22.4,5.3-61.9-10.4-68-33c-4.9-12.8-8-28.5,10.1-51.5C62.6,106.9,113.1,146.4,143.8,146z"/>
			<path class="cat29" d="M166.7,141c-28.7,10.9-70.7,6.6-83.7-17c-10.8-19.6,2.7-38.5,2.7-38.5c14-16.2,91.6-18.7,107.2-7.1
				C205.1,121.7,180.5,135.3,166.7,141z"/>
			<ellipse class="cat0" cx="83" cy="101.3" rx="13.9" ry="27.4"/>
			<path class="cat9" d="M94.4,55.9c-0.3,6.7,21.3-6.1,21.8-11.5c0-9.5-4.9-24-7.9-24C105.2,20.5,94.4,46.5,94.4,55.9z"/>
			
				<ellipse transform="matrix(0.9858 -0.1677 0.1677 0.9858 -16.9804 26.9795)" class="cat19" cx="151.3" cy="114" rx="2.8" ry="1.3"/>
			<path class="cat27" d="M192.5,83.9c3.1,37.1-16,49.9-13,44.6c12.3-10.9,3.2-53-18.5-52.6C149.9,76.1,190.9,74.4,192.5,83.9z"/>
			<path class="cat27" d="M94.2,112.4c-2.9,11.4-8.3,16.2-13,14.5c-4.5-9.4-4.1-18.3-2.3-27.2C78.9,99.7,79.7,107.8,94.2,112.4z"/>
			<path class="cat27" d="M91.9,83.4c1.5,3.1,1.9,4.9,2.3,6.6c-8.9-3.9-5.9,7-12.3,0.8C81.9,90.8,83.6,86.6,91.9,83.4z"/>
			<ellipse class="cat1" cx="79.9" cy="99.7" rx="6.9" ry="15.3"/>
			<path class="cat17" d="M73,99.7c0,7.7,4.6,20.7,10.9,11.7c-7.6,3.1-6.9-28.7-0.9-24.6C78.8,81.8,71.6,88.4,73,99.7z"/>
			<path class="cat2" d="M78.6,103.5l-6.4,0.1c-0.2-1.4-0.2-3.2-0.2-5.2l6.3,0.1C78.3,99.9,78.4,101.7,78.6,103.5z"/>
			<polygon class="cat26" points="78.3,97.4 72.1,97.4 72.2,96.2 78.4,96.3 			"/>
			<path class="cat11" d="M147,46.6c-20.2,0.3-25.5,4.5-25.5,4.5s-3.5-1.3-1.9-6.6C130,44.2,139.6,44.5,147,46.6z"/>
			<rect class="cat16" width="201" height="148"/>
		</g>
	</g>
</g>
<g id="cat8" class="cat24">
	<g class="cat18">
		<g>
			<path class="cat13" d="M46.7,72.8c-1.3,5.8,5.1,10.8,3.1,15.5c-2.6,6.1,8.4,8.6,16.1,14c10.5,3.9,12,12.3,8.1,12.1
				c0.5,4.1-11.6,6.6-23.1-0.7c-13.2-5.9-25.5-21.2-25.2-28.4c0.2-5.1-4.6-12.1-3.3-18C23.2,63.8,24,46,25,42.9
				c2.3-6.9,18.6-21,21.7-25.2c4.5-9.2,33.4-5.8,35.4,1c5.1,1.7,0.3,13.8-1.5,18.4c1,5.1-25.9,15.3-26.7,22.5
				C53.5,62.7,47.5,69.5,46.7,72.8z"/>
			<path class="cat21" d="M83.4,32.2c-2,8.8-19,23.8-28.3,21.7C45.8,51.8,30.9,41,32.9,32.2c1-4.4,4.5-9,8.2-11.2
				c3.7-2.2,16.4-10,21.1-9c4.7,1,15.3,0.9,17.8,4.5S84.4,27.8,83.4,32.2z"/>
			<g>
				<g>
					<path class="cat7" d="M53.6,50.4C62.4,45.9,71.7,38,73,27.5c1.1-9.1-5.8-14.5-14-16.3c-1.6-0.3-2.2,2.1-0.7,2.4
						c8.2,1.8,14.1,7.3,11.7,16.1c-2.4,8.5-10.1,14.7-17.6,18.5C50.9,49,52.2,51.1,53.6,50.4L53.6,50.4z"/>
				</g>
			</g>
			<g>
				<g>
					<path class="cat7" d="M41.8,45.2c8.3,0.2,16-9.9,16.8-17.6c0.4-3.6-1-5.5-4-7.2c-2.3-1.3-7-4.2-9.7-3c-1.5,0.6-0.2,2.8,1.3,2.2
						c1.4-0.6,5.9,2.3,7.2,3c2.9,1.7,3.2,3.7,2.3,6.9c-1.7,5.7-7.3,13.3-13.9,13.2C40.2,42.6,40.2,45.1,41.8,45.2L41.8,45.2z"/>
				</g>
			</g>
			<path class="cat23" d="M39.4,105.3c-6.2-1.4,11.7,9.2,20.5,11.1c13.5,5.1,23.4-2.2,21.2-9.7C70.6,99,48.2,107.4,39.4,105.3z"/>
			<path class="cat25" d="M29.9,64.6C29.1,68,40.8,76.8,46.2,78c-3.3-0.9,6.7-20.4,9.2-19.8C49.9,57,30.7,61.1,29.9,64.6z"/>
			<path class="cat8" d="M81.6,26c0.1,3.5-1.8,8.7-4,8.8c-2.2,0.1-4.5-17-2.2-17.1S81.5,22.5,81.6,26z"/>
			<g>
				<g>
					<g>
						<path d="M87.7,107.3c-0.8-3.3-4.1-5.7-7-7.1c-1.3-0.6-2.5-0.3-3.4,0.9c-0.9,1.2-6,0-7-0.2c-2.5-0.5-4.9-1.4-7.2-2.6
							c-3.8-2-7.1-5-9.5-8.5c-5.4-8-6.6-19,0.1-26.6c10.1-11.4,27.3-16,32.6-31.7C91.2,17,75.5,8,62.9,9
							c-15,1.2-26.6,12.8-34.9,24.4c-0.8,1.2-0.1,2.7,0.9,3.4c9.6,6.9,19.2,13.8,28.8,20.8c0.6-1.5,1.3-3,1.9-4.6
							c-5.7-0.8-11-4.7-15.5-8c-2.6-1.8-11.2-7.4-11.4-10.4c-0.2-2.5-3.2-3.4-4.7-1.3c-13.8,20.3-9.9,50.8,4.7,69.8
							c7.4,9.6,18.4,13.8,29.9,16.5c4.9,1.1,10.2,1.8,14.9-0.6c3.9-2,9-6.2,10.3-10.5c1-3.1-3.8-4.4-4.8-1.3
							c-1.5,4.7-8.6,8.5-13.1,8.5c-4.7,0-9.7-1.7-14.1-3.1c-10.2-3.2-17.5-8.8-22.8-18.1C23.1,77.2,20.7,53,32.3,35.9
							c-1.6-0.4-3.1-0.8-4.7-1.3c0.4,5.3,7.4,9.8,11.1,12.6c5.5,4.2,12.4,9.5,19.5,10.5c2.8,0.4,4.3-2.9,1.9-4.6
							C50.6,46.4,41,39.4,31.4,32.5c0.3,1.1,0.6,2.3,0.9,3.4C41.3,23.5,58,7.7,74.7,16C97.8,27.4,63.9,48.3,55,55.3
							C43.4,64.5,40.9,79,48.9,91.7c3.6,5.7,9,10.2,15.3,12.6c5,1.9,13.6,4.3,17.4-0.7c-1.1,0.3-2.3,0.6-3.4,0.9
							c1.7,0.8,4.2,2,4.7,4.1C83.7,111.7,88.5,110.4,87.7,107.3z"/>
					</g>
				</g>
				<g>
					<g>
						<path d="M77.7,100.2c-0.1,0.1-0.2,0.2-0.2,0.3c-0.5,0.6-0.8,1.3-0.7,2.1c0.1,0.7,0.5,1.5,1.2,1.8c0.1,0,0.1,0.1,0.2,0.1
							c0.8,0.3,1.4,0.5,2.2,0.1c0.7-0.3,1.3-0.9,1.4-1.6c0.1-0.3,0.1-0.7,0.1-1.1c0.1-1.3-1.2-2.6-2.5-2.5c-1.4,0.1-2.4,1.1-2.5,2.5
							c0.1-0.4,0.1-0.5,0-0.3c1.2-0.5,2.4-1,3.7-1.5c-0.1,0-0.1-0.1-0.2-0.1c0.2,1.3,0.3,2.6,0.5,3.9c0.1-0.1,0.2-0.2,0.2-0.3
							c0.4-0.5,0.7-1.1,0.7-1.8c0-0.6-0.3-1.3-0.7-1.8C80.4,99.4,78.6,99.1,77.7,100.2z"/>
					</g>
				</g>
			</g>
			<ellipse class="cat20" cx="184.3" cy="95.8" rx="13.9" ry="27.4"/>
			<path class="cat15" d="M196.6,100.1l-12.5,7.7l1.9-9.4l9.8-12.8C196.5,89.5,197,94.6,196.6,100.1z"/>
			<path class="cat3" d="M189.5,120.6l-9,4.3l1.9-9.4l13.7-5.1C196.9,114.2,193.8,119.5,189.5,120.6z"/>
			<path class="cat4" d="M73.3,102.4c0,20,27.9,41.4,58.7,41.4s58.7-23.1,58.7-43.2c0-11,2.4-29.2-9.5-35.8
				c-5.7-3.2-11.5-41.7-18.9-43.2c-4.3-0.9-9.1-9.6-13.8-9.8c-1,0-2.9,31.9-3.8,31.9c-4.5,0-17.9-1-22.1-0.3
				c-5.2,0.8-6.9-32.8-11.4-31.1c-10.7,0.2-30,49.8-30.7,56C73.6,74.2,73.3,94.3,73.3,102.4z"/>
			<path class="cat12" d="M167.6,136.4c-31.1,24-99.2,1.8-87.2-32C70,75.9,148.8,64.9,187.6,76.6C198.9,78.5,192.8,125.1,167.6,136.4
				z"/>
			<path class="cat28" d="M166.6,69c13.2,2.2,15.6,9.6,24.6,23.4c-2.4-6.9,0.8-8.1-9.6-26.5c-5.9-24.9-25.1-56.4-30.2-55
				c-1.4,0.4-6.6,3-5.5,6.3C157.9,8.4,168.7,47.4,166.6,69z"/>
			<path class="cat6" d="M119.2,33.3c0,4.2-9.4-17-14.3-17c-4.9,0,4-3.9,8.9-3.9C116.1,16,119.2,29.2,119.2,33.3z"/>
			<path class="cat9" d="M170.2,53.7c2.2,4-14.7-4.6-16.7-7.5c-1.9-9.3-1.5-24.2,0.5-24.6C156.1,21.1,168.3,44.4,170.2,53.7z"/>
			<g>
				<g>
					<path d="M184.1,66c-0.5-4.9-3-10.1-4.7-14.7c-3.3-9.1-7.1-18.1-12-26.5c-3.7-6.3-9-14.5-16.5-16.7c-11.9-3.5-7.3,30.8-7,36.1
						c1.1-0.8,2.1-1.6,3.2-2.4c-8.9-1.8-17.7-2-26.7-0.7c1,0.6,2.1,1.2,3.1,1.7c-0.9-5.9-2.1-11.7-3.5-17.5
						c-1.2-5.1-2.3-10.8-4.7-15.5c-0.4-0.7-1.3-1.3-2.2-1.2C106,9,101.2,15.9,97.7,21.3c-5.2,8.3-9,17.7-12.3,26.9
						c-1.5,4.3-2.7,8.6-4,12.9c-1.6,5.3-5.9,9.7-8.1,15c-4.1,10.2-4.7,21.8-1.3,32.3c13.7,43.1,74.7,51.2,105.4,22.1
						c18.4-17.5,21.3-45.1,6.2-65.7c-1.9-2.6-6.2-0.1-4.3,2.5c12.6,17.2,12.1,39.8-1.9,56c-13,15-33.7,21.4-53.1,19.3
						c-18.8-2-37.4-12.8-45.5-30.3c-4.2-8.9-5.2-19.2-2.7-28.8c1.4-5.5,3.9-10.6,7.2-15.2c2.5-3.5,3.1-6.8,4.3-10.8
						c2.8-9.4,6.3-18.7,10.8-27.4c2.6-5.1,7.7-16.1,14.5-16.4c-0.7-0.4-1.4-0.8-2.2-1.2c2.5,4.8,3.5,10.9,4.7,16.1
						c1.2,5.2,2.2,10.4,3,15.7c0.2,1.4,1.9,1.9,3.1,1.7c8-1.2,16.1-0.9,24,0.7c1.5,0.3,3.3-0.7,3.2-2.4c-0.4-7.6-0.8-15.2-0.8-22.8
						c0-2,0-4.1,0.6-6.1c0.3-0.8,0.7-1.7,1-2.5c-1-0.1-1.1-0.1-0.2,0.1c1.2,0.2,2.6,1.3,3.5,2c6,4.5,9.9,11.9,13.3,18.4
						c3.6,7,6.5,14.3,9.1,21.7c0.9,2.7,1.8,5.3,2.7,8c0.2,0.8,0.5,1.6,0.7,2.4c0.1,0.3,0.3,1.7,0.2,0.4
						C179.4,69.2,184.4,69.2,184.1,66z"/>
				</g>
			</g>
			<g>
				<g>
					<path d="M150.1,121.2c0.1-0.1,0.1-0.2,0.2-0.4c-0.7,0.4-1.4,0.8-2.2,1.2c0.1,0,0.3,0,0.4,0c-0.7-1.3-1.4-2.5-2.2-3.8
						c-3,6.9-8,12.5-14.7,16.1c-2.8,1.5-0.3,5.9,2.5,4.3c7.3-4,13.1-10.2,16.5-17.9c0.7-1.5-0.1-4-2.2-3.8c-1.2,0.1-2.2,0.4-2.7,1.6
						C144.4,121.6,148.7,124.1,150.1,121.2L150.1,121.2z"/>
				</g>
			</g>
			<g>
				<g>
					<path d="M147.7,122.3c1.1,5.5,6.3,10.5,12.2,8.2c3-1.1,1.7-6-1.3-4.8c-3.4,1.3-5.4-1.8-6-4.8
						C151.8,117.9,147,119.2,147.7,122.3L147.7,122.3z"/>
				</g>
			</g>
			<g>
				<path d="M149.9,119.3c1.5-1.2,2.6-3.5,3.3-5c-0.4-0.6-7,0.2-8.6,1.2C145.3,116.5,148.2,118.7,149.9,119.3"/>
				<g>
					<path class="cat10" d="M151.7,121.1c1.7-1.5,2.7-3.5,3.7-5.5c0.5-1,0.5-2.2-0.4-3c-1.4-1.3-3.7-1-5.4-0.8
						c-2.1,0.2-4.4,0.5-6.2,1.6c-1.5,0.9-1.5,2.7-0.5,3.9c1.6,2,4.1,3.5,6.4,4.4c1.3,0.5,2.7-0.6,3.1-1.7c0.4-1.4-0.5-2.6-1.7-3.1
						c-1.5-0.6-3.2-1.9-4.2-3.1c-0.2,1.3-0.3,2.6-0.5,3.9c0.8-0.5,2.4-0.8,3.6-0.9c0.6-0.1,1.2-0.1,1.9-0.2c0.3,0,0.6,0,0.9,0
						c0.1,0,0.2,0,0.4,0c-0.4,0-0.8-0.2-1.1-0.5c-0.1-1-0.3-2-0.4-3c-0.8,1.6-1.6,3.3-2.9,4.5C145.8,119.7,149.3,123.3,151.7,121.1
						L151.7,121.1z"/>
				</g>
			</g>
			<circle class="cat22" cx="131.6" cy="118.2" r="2"/>
			<circle class="cat22" cx="163.9" cy="113.8" r="2"/>
			<circle class="cat22" cx="168.7" cy="120.7" r="2"/>
			<circle class="cat22" cx="167.6" cy="127" r="2"/>
			<circle class="cat22" cx="123.5" cy="123.6" r="2"/>
			<circle class="cat22" cx="120.6" cy="134.3" r="2"/>
			<path class="cat14" d="M146.3,72.5c1.1-0.4,2.4,13.4-0.6,17.5c-3,4.1-11.7-16.7-12.9-16.8C131.6,73,146.2,72.4,146.3,72.5z"/>
			<path class="cat14" d="M130.3,73.3c0.6-0.2,1.4,7.2-0.2,9.4c-1.6,2.2-5.9-8.8-6.6-8.6L130.3,73.3z"/>
			<path class="cat14" d="M155.8,72.6c0.6,0.3,1.3,6.9-0.3,9.1c-1.6,2.2-6.6-9.1-7.1-9.2C151.2,72.5,155.3,72.5,155.8,72.6z"/>
			<g>
				<g>
					<path d="M106.8,112c0.1-3.9,1-7.9,2-11.8c1-4.1,2-9.4,4.6-12.9c1.1-1.5,0.9-1,2.1,0.7c1.5,2,2.6,4.8,3.5,7.1
						c1.6,4.1,2.9,8.4,3.7,12.7c0.6,3.2,5.4,1.8,4.8-1.3c-1-5.3-6.3-29.2-15.5-24.7c-4.1,2-5.7,8.8-6.9,12.6
						c-1.7,5.6-3.3,11.6-3.3,17.5C101.7,115.3,106.7,115.3,106.8,112L106.8,112z"/>
				</g>
			</g>
			<g>
				<g>
					<path d="M179.3,107.2c-0.9-5.7-3.1-11.4-5.3-16.8c-1.4-3.4-3.5-10.4-7.7-11.6c-8.8-2.6-8.9,22.1-8.8,26.7c0,3.2,5,3.2,5,0
						c0-4.5,0.3-9,1-13.5c0.4-2.3,0.7-4.8,1.6-6.9c0.2-0.6,0.7-1.2,0.9-1.8c-1.2-0.2-1.6,0-1,0.5c0.2,0.2,0.4,0.5,0.6,0.8
						c1.5,4.2,4.1,8.1,5.5,12.4c1.3,3.7,2.6,7.6,3.3,11.5C175,111.7,179.8,110.3,179.3,107.2L179.3,107.2z"/>
				</g>
			</g>
			<path class="cat5" d="M143.8,146c-22.4,5.3-61.9-10.4-68-33c-4.9-12.8-8-28.5,10.1-51.5C62.6,106.9,113.1,146.4,143.8,146z"/>
			<path class="cat29" d="M166.7,141c-28.7,10.9-70.7,6.6-83.7-17c-10.8-19.6,2.7-38.5,2.7-38.5c14-16.2,91.6-18.7,107.2-7.1
				C205.1,121.7,180.5,135.3,166.7,141z"/>
			<ellipse class="cat0" cx="83" cy="101.3" rx="13.9" ry="27.4"/>
			<path class="cat9" d="M94.4,55.9c-0.3,6.7,21.3-6.1,21.8-11.5c0-9.5-4.9-24-7.9-24C105.2,20.5,94.4,46.5,94.4,55.9z"/>
			
				<ellipse transform="matrix(0.9858 -0.1677 0.1677 0.9858 -16.9804 26.9795)" class="cat19" cx="151.3" cy="114" rx="2.8" ry="1.3"/>
			<path class="cat27" d="M192.5,83.9c3.1,37.1-16,49.9-13,44.6c12.3-10.9,3.2-53-18.5-52.6C149.9,76.1,190.9,74.4,192.5,83.9z"/>
			<path class="cat27" d="M94.2,112.4c-2.9,11.4-8.3,16.2-13,14.5c-4.5-9.4-4.1-18.3-2.3-27.2C78.9,99.7,79.7,107.8,94.2,112.4z"/>
			<path class="cat27" d="M91.9,83.4c1.5,3.1,1.9,4.9,2.3,6.6c-8.9-3.9-5.9,7-12.3,0.8C81.9,90.8,83.6,86.6,91.9,83.4z"/>
			<ellipse class="cat1" cx="79.9" cy="99.7" rx="6.9" ry="15.3"/>
			<path class="cat17" d="M73,99.7c0,7.7,4.6,20.7,10.9,11.7c-7.6,3.1-6.9-28.7-0.9-24.6C78.8,81.8,71.6,88.4,73,99.7z"/>
			<path class="cat2" d="M78.6,103.5l-6.4,0.1c-0.2-1.4-0.2-3.2-0.2-5.2l6.3,0.1C78.3,99.9,78.4,101.7,78.6,103.5z"/>
			<polygon class="cat26" points="78.3,97.4 72.1,97.4 72.2,96.2 78.4,96.3 			"/>
			<path class="cat11" d="M147,46.6c-20.2,0.3-25.5,4.5-25.5,4.5s-3.5-1.3-1.9-6.6C130,44.2,139.6,44.5,147,46.6z"/>
			<rect class="cat16" width="201" height="148"/>
		</g>
	</g>
</g>
<g id="cat7" class="cat24">
	<g class="cat18">
		<g>
			<path class="cat13" d="M52.2,68.8c-2.1,5.6,3.5,11.5,0.8,15.8c-3.4,5.6,7.1,9.8,13.9,16.1c9.8,5.4,10.1,13.9,6.3,13.1
				c-0.1,4.2-12.5,4.9-22.8-4c-12.2-7.7-22.2-24.7-20.9-31.7c0.9-5.1-2.8-12.7-0.7-18.3c1.3-3.3,4.5-20.9,6-23.8
				c3.3-6.5,21.5-18.1,25.1-21.8c5.8-8.4,33.9-1,34.8,6.1c4.9,2.4-1.7,13.7-4.1,18C91,43.5,63,49.7,61.1,56.7
				C60.3,59.7,53.4,65.7,52.2,68.8z"/>
			<path class="cat21" d="M94.3,33.9c-3.2,8.4-22.2,20.8-31.2,17.4c-8.9-3.4-22.1-16.2-18.9-24.7c1.6-4.2,5.8-8.2,9.8-9.9
				c4-1.6,17.7-7.6,22.2-5.9c4.5,1.7,15,3.1,16.9,7C95,21.8,95.9,29.7,94.3,33.9z"/>
			<g>
				<g>
					<path class="cat7" d="M62,47.7c9.3-3.2,19.6-9.5,22.5-19.6C87.2,19,81,12.6,72.9,9.6c-1.5-0.6-2.2,1.9-0.7,2.4
						c8,3,12.9,9.6,8.9,17.9c-3.7,7.8-11.9,12.7-19.8,15.4C59.8,45.8,60.5,48.2,62,47.7L62,47.7z"/>
				</g>
			</g>
			<g>
				<g>
					<path class="cat7" d="M51.1,40.7c8.2,1.4,17.1-7.1,19.3-14.6c1-3.5,0.1-5.8-2.7-7.9c-2.1-1.7-6.2-5.3-9.2-4.5
						c-1.6,0.4-0.9,2.8,0.7,2.4c1.4-0.4,5.1,2.7,6.2,3.5c2.9,2.1,3.5,4,2,7.4c-2.4,5.4-9.1,12.4-15.6,11.3
						C50.2,38,49.5,40.4,51.1,40.7L51.1,40.7z"/>
				</g>
			</g>
			<path class="cat23" d="M40.2,99.9c-5.9-2.3,10.2,10.8,18.7,14c12.7,7,23.5,1.1,22.4-6.5C72.1,98.1,48.6,103.2,40.2,99.9z"/>
			<path class="cat25" d="M36.7,58.2c-1.3,3.3,9,13.7,14.2,15.7c-3.1-1.4,9.6-19.3,11.9-18.2C57.6,53.6,37.9,54.9,36.7,58.2z"/>
			<path class="cat8" d="M93.4,27.5c-0.4,3.5-3,8.4-5.2,8.2s-2-17.5,0.2-17.2S93.8,24,93.4,27.5z"/>
			<g>
				<g>
					<g>
						<path d="M87.8,109.1c-0.3-3.8-3.3-6.5-6.3-8.5c-0.9-0.6-2.3-0.4-3,0.4c-2.4,2.4-11.1-2.7-13.1-4.1c-3.4-2.4-6.3-5.5-8.3-9.2
							c-4.5-8.3-4.8-19.7,2.5-26.6c5.7-5.3,13.5-7.8,20.2-11.6c6.4-3.6,13.3-8.4,17-14.9c7.4-13.1-5.1-24.7-17.6-26.4
							c-15.5-2-29.5,8.1-39.7,18.7c-0.9,1-1,2.6,0,3.5c8.5,8.2,17,16.5,25.5,24.7c0.8-1.4,1.6-2.8,2.4-4.2
							c-5.6-1.7-10.5-6.7-14.5-10.6c-2.2-2.1-4.3-4.4-6.2-6.8c-0.9-1.1-3-3.3-3-4.9c0.1-2.1-2.8-3.3-4.3-1.8
							c-16.6,18.2-17.2,48.6-5.8,69.7c5.7,10.4,15.5,16,26.2,20.3c5,2.1,10.3,3.8,15.7,2.1c4-1.2,10-4.9,11.9-8.7
							c1.4-2.9-2.9-5.4-4.3-2.5c-2,4.1-8.8,7.1-13,6.9c-5-0.2-10.4-3.1-14.8-5.3c-9.4-4.6-16-11.1-19.8-20.9
							c-7.2-18.5-6.4-42.9,7.5-58.1c-1.4-0.6-2.8-1.2-4.3-1.8c-0.3,5.2,6.6,11.2,9.8,14.4c4.9,4.9,10.8,10.7,17.6,12.7
							c2.4,0.7,4.2-2.5,2.4-4.2C60,43.4,51.5,35.2,43,26.9c0,1.2,0,2.4,0,3.5C53.8,19.4,72.9,5.7,88.3,16.8
							c20.8,15-16.4,30.4-26.1,36.3c-12.6,7.5-16.4,21.7-10.4,35c2.8,6.2,7.7,11.4,13.7,14.7c4.4,2.4,12.4,5.9,16.6,1.7
							c-1,0.1-2,0.3-3,0.4c1.2,0.8,3.6,2.5,3.8,4.2C83.1,112.3,88.1,112.3,87.8,109.1z"/>
					</g>
				</g>
				<g>
					<g>
						<path d="M78.6,100.6c-0.1,0.1-0.2,0.2-0.3,0.3c-1.2,1.1-0.8,3.1,0.5,3.9c0.1,0,0.1,0.1,0.2,0.1c0.7,0.4,1.5,0.4,2.2,0.1
							c0.8-0.3,1.1-0.9,1.4-1.6c0.1-0.1,0.1-0.2,0.1-0.4c0.3-1.3-0.4-2.8-1.7-3.1c-1.2-0.3-2.8,0.4-3.1,1.7c0,0.1-0.1,0.3-0.1,0.4
							c1.2-0.5,2.4-1,3.7-1.5c-0.1,0-0.1-0.1-0.2-0.1c0.2,1.3,0.3,2.6,0.5,3.9c0.1-0.1,0.2-0.2,0.3-0.3c1-0.9,1-2.6,0-3.5
							C81.1,99.7,79.6,99.6,78.6,100.6z"/>
					</g>
				</g>
			</g>
			<rect class="cat16" width="201" height="148"/>
			<ellipse class="cat20" cx="184.3" cy="95.8" rx="13.9" ry="27.4"/>
			<path class="cat15" d="M196.6,100.1l-12.5,7.7l1.9-9.4l9.8-12.8C196.5,89.5,197,94.6,196.6,100.1z"/>
			<path class="cat3" d="M189.5,120.6l-9,4.3l1.9-9.4l13.7-5.1C196.9,114.2,193.8,119.5,189.5,120.6z"/>
			<path class="cat4" d="M73.3,102.4c0,20,27.9,41.4,58.7,41.4s58.7-23.1,58.7-43.2c0-11,2.4-29.2-9.5-35.8
				c-5.7-3.2-11.5-41.7-18.9-43.2c-4.3-0.9-9.1-9.6-13.8-9.8c-1,0-2.9,31.9-3.8,31.9c-4.5,0-17.9-1-22.1-0.3
				c-5.2,0.8-6.9-32.8-11.4-31.1c-10.7,0.2-30,49.8-30.7,56C73.6,74.2,73.3,94.3,73.3,102.4z"/>
			<path class="cat12" d="M167.6,136.4c-31.1,24-99.2,1.8-87.2-32C70,75.9,148.8,64.9,187.6,76.6C198.9,78.5,192.8,125.1,167.6,136.4
				z"/>
			<path class="cat28" d="M166.6,69c13.2,2.2,15.6,9.6,24.6,23.4c-2.4-6.9,0.8-8.1-9.6-26.5c-5.9-24.9-25.1-56.4-30.2-55
				c-1.4,0.4-6.6,3-5.5,6.3C157.9,8.4,168.7,47.4,166.6,69z"/>
			<path class="cat6" d="M119.2,33.3c0,4.2-9.4-17-14.3-17c-4.9,0,4-3.9,8.9-3.9C116.1,16,119.2,29.2,119.2,33.3z"/>
			<path class="cat9" d="M170.2,53.7c2.2,4-14.7-4.6-16.7-7.5c-1.9-9.3-1.5-24.2,0.5-24.6C156.1,21.1,168.3,44.4,170.2,53.7z"/>
			<g>
				<g>
					<path d="M184.1,66c-0.5-4.9-3-10.1-4.7-14.7c-3.3-9.1-7.1-18.1-12-26.5c-3.7-6.3-9-14.5-16.5-16.7c-11.9-3.5-7.3,30.8-7,36.1
						c1.1-0.8,2.1-1.6,3.2-2.4c-8.9-1.8-17.7-2-26.7-0.7c1,0.6,2.1,1.2,3.1,1.7c-0.9-5.9-2.1-11.7-3.5-17.5
						c-1.2-5.1-2.3-10.8-4.7-15.5c-0.4-0.7-1.3-1.3-2.2-1.2C106,9,101.2,15.9,97.7,21.3c-5.2,8.3-9,17.7-12.3,26.9
						c-1.5,4.3-2.7,8.6-4,12.9c-1.6,5.3-5.9,9.7-8.1,15c-4.1,10.2-4.7,21.8-1.3,32.3c13.7,43.1,74.7,51.2,105.4,22.1
						c18.4-17.5,21.3-45.1,6.2-65.7c-1.9-2.6-6.2-0.1-4.3,2.5c12.6,17.2,12.1,39.8-1.9,56c-13,15-33.7,21.4-53.1,19.3
						c-18.8-2-37.4-12.8-45.5-30.3c-4.2-8.9-5.2-19.2-2.7-28.8c1.4-5.5,3.9-10.6,7.2-15.2c2.5-3.5,3.1-6.8,4.3-10.8
						c2.8-9.4,6.3-18.7,10.8-27.4c2.6-5.1,7.7-16.1,14.5-16.4c-0.7-0.4-1.4-0.8-2.2-1.2c2.5,4.8,3.5,10.9,4.7,16.1
						c1.2,5.2,2.2,10.4,3,15.7c0.2,1.4,1.9,1.9,3.1,1.7c8-1.2,16.1-0.9,24,0.7c1.5,0.3,3.3-0.7,3.2-2.4c-0.4-7.6-0.8-15.2-0.8-22.8
						c0-2,0-4.1,0.6-6.1c0.3-0.8,0.7-1.7,1-2.5c-1-0.1-1.1-0.1-0.2,0.1c1.2,0.2,2.6,1.3,3.5,2c6,4.5,9.9,11.9,13.3,18.4
						c3.6,7,6.5,14.3,9.1,21.7c0.9,2.7,1.8,5.3,2.7,8c0.2,0.8,0.5,1.6,0.7,2.4c0.1,0.3,0.3,1.7,0.2,0.4
						C179.4,69.2,184.4,69.2,184.1,66z"/>
				</g>
			</g>
			<g>
				<g>
					<path d="M150.1,121.2c0.1-0.1,0.1-0.2,0.2-0.4c-0.7,0.4-1.4,0.8-2.2,1.2c0.1,0,0.3,0,0.4,0c-0.7-1.3-1.4-2.5-2.2-3.8
						c-3,6.9-8,12.5-14.7,16.1c-2.8,1.5-0.3,5.9,2.5,4.3c7.3-4,13.1-10.2,16.5-17.9c0.7-1.5-0.1-4-2.2-3.8c-1.2,0.1-2.2,0.4-2.7,1.6
						C144.4,121.6,148.7,124.1,150.1,121.2L150.1,121.2z"/>
				</g>
			</g>
			<g>
				<g>
					<path d="M147.7,122.3c1.1,5.5,6.3,10.5,12.2,8.2c3-1.1,1.7-6-1.3-4.8c-3.4,1.3-5.4-1.8-6-4.8
						C151.8,117.9,147,119.2,147.7,122.3L147.7,122.3z"/>
				</g>
			</g>
			<g>
				<path d="M149.9,119.3c1.5-1.2,2.6-3.5,3.3-5c-0.4-0.6-7,0.2-8.6,1.2C145.3,116.5,148.2,118.7,149.9,119.3"/>
				<g>
					<path class="cat10" d="M151.7,121.1c1.7-1.5,2.7-3.5,3.7-5.5c0.5-1,0.5-2.2-0.4-3c-1.4-1.3-3.7-1-5.4-0.8
						c-2.1,0.2-4.4,0.5-6.2,1.6c-1.5,0.9-1.5,2.7-0.5,3.9c1.6,2,4.1,3.5,6.4,4.4c1.3,0.5,2.7-0.6,3.1-1.7c0.4-1.4-0.5-2.6-1.7-3.1
						c-1.5-0.6-3.2-1.9-4.2-3.1c-0.2,1.3-0.3,2.6-0.5,3.9c0.8-0.5,2.4-0.8,3.6-0.9c0.6-0.1,1.2-0.1,1.9-0.2c0.3,0,0.6,0,0.9,0
						c0.1,0,0.2,0,0.4,0c-0.4,0-0.8-0.2-1.1-0.5c-0.1-1-0.3-2-0.4-3c-0.8,1.6-1.6,3.3-2.9,4.5C145.8,119.7,149.3,123.3,151.7,121.1
						L151.7,121.1z"/>
				</g>
			</g>
			<circle class="cat22" cx="131.6" cy="118.2" r="2"/>
			<circle class="cat22" cx="163.9" cy="113.8" r="2"/>
			<circle class="cat22" cx="168.7" cy="120.7" r="2"/>
			<circle class="cat22" cx="167.6" cy="127" r="2"/>
			<circle class="cat22" cx="123.5" cy="123.6" r="2"/>
			<circle class="cat22" cx="120.6" cy="134.3" r="2"/>
			<path class="cat14" d="M146.3,72.5c1.1-0.4,2.4,13.4-0.6,17.5c-3,4.1-11.7-16.7-12.9-16.8C131.6,73,146.2,72.4,146.3,72.5z"/>
			<path class="cat14" d="M130.3,73.3c0.6-0.2,1.4,7.2-0.2,9.4c-1.6,2.2-5.9-8.8-6.6-8.6L130.3,73.3z"/>
			<path class="cat14" d="M155.8,72.6c0.6,0.3,1.3,6.9-0.3,9.1c-1.6,2.2-6.6-9.1-7.1-9.2C151.2,72.5,155.3,72.5,155.8,72.6z"/>
			<g>
				<g>
					<path d="M106.8,112c0.1-3.9,1-7.9,2-11.8c1-4.1,2-9.4,4.6-12.9c1.1-1.5,0.9-1,2.1,0.7c1.5,2,2.6,4.8,3.5,7.1
						c1.6,4.1,2.9,8.4,3.7,12.7c0.6,3.2,5.4,1.8,4.8-1.3c-1-5.3-6.3-29.2-15.5-24.7c-4.1,2-5.7,8.8-6.9,12.6
						c-1.7,5.6-3.3,11.6-3.3,17.5C101.7,115.3,106.7,115.3,106.8,112L106.8,112z"/>
				</g>
			</g>
			<g>
				<g>
					<path d="M179.3,107.2c-0.9-5.7-3.1-11.4-5.3-16.8c-1.4-3.4-3.5-10.4-7.7-11.6c-8.8-2.6-8.9,22.1-8.8,26.7c0,3.2,5,3.2,5,0
						c0-4.5,0.3-9,1-13.5c0.4-2.3,0.7-4.8,1.6-6.9c0.2-0.6,0.7-1.2,0.9-1.8c-1.2-0.2-1.6,0-1,0.5c0.2,0.2,0.4,0.5,0.6,0.8
						c1.5,4.2,4.1,8.1,5.5,12.4c1.3,3.7,2.6,7.6,3.3,11.5C175,111.7,179.8,110.3,179.3,107.2L179.3,107.2z"/>
				</g>
			</g>
			<path class="cat5" d="M143.8,146c-22.4,5.3-61.9-10.4-68-33c-4.9-12.8-8-28.5,10.1-51.5C62.6,106.9,113.1,146.4,143.8,146z"/>
			<path class="cat29" d="M166.7,141c-28.7,10.9-70.7,6.6-83.7-17c-10.8-19.6,2.7-38.5,2.7-38.5c14-16.2,91.6-18.7,107.2-7.1
				C205.1,121.7,180.5,135.3,166.7,141z"/>
			<ellipse class="cat0" cx="83" cy="101.3" rx="13.9" ry="27.4"/>
			<path class="cat9" d="M94.4,55.9c-0.3,6.7,21.3-6.1,21.8-11.5c0-9.5-4.9-24-7.9-24C105.2,20.5,94.4,46.5,94.4,55.9z"/>
			
				<ellipse transform="matrix(0.9858 -0.1677 0.1677 0.9858 -16.9804 26.9795)" class="cat19" cx="151.3" cy="114" rx="2.8" ry="1.3"/>
			<path class="cat27" d="M192.5,83.9c3.1,37.1-16,49.9-13,44.6c12.3-10.9,3.2-53-18.5-52.6C149.9,76.1,190.9,74.4,192.5,83.9z"/>
			<path class="cat27" d="M94.2,112.4c-2.9,11.4-8.3,16.2-13,14.5c-4.5-9.4-4.1-18.3-2.3-27.2C78.9,99.7,79.7,107.8,94.2,112.4z"/>
			<path class="cat27" d="M91.9,83.4c1.5,3.1,1.9,4.9,2.3,6.6c-8.9-3.9-5.9,7-12.3,0.8C81.9,90.8,83.6,86.6,91.9,83.4z"/>
			<ellipse class="cat1" cx="79.9" cy="99.7" rx="6.9" ry="15.3"/>
			<path class="cat17" d="M73,99.7c0,7.7,4.6,20.7,10.9,11.7c-7.6,3.1-6.9-28.7-0.9-24.6C78.8,81.8,71.6,88.4,73,99.7z"/>
			<path class="cat2" d="M78.6,103.5l-6.4,0.1c-0.2-1.4-0.2-3.2-0.2-5.2l6.3,0.1C78.3,99.9,78.4,101.7,78.6,103.5z"/>
			<polygon class="cat26" points="78.3,97.4 72.1,97.4 72.2,96.2 78.4,96.3 			"/>
			<path class="cat11" d="M147,46.6c-20.2,0.3-25.5,4.5-25.5,4.5s-3.5-1.3-1.9-6.6C130,44.2,139.6,44.5,147,46.6z"/>
		</g>
	</g>
</g>
<g id="cat6" class="cat24">
	<g class="cat18">
		<g>
			<path class="cat13" d="M46.7,72.8c-1.3,5.8,5.1,10.8,3.1,15.5c-2.6,6.1,8.4,8.6,16.1,14c10.5,3.9,12,12.3,8.1,12.1
				c0.5,4.1-11.6,6.6-23.1-0.7c-13.2-5.9-25.5-21.2-25.2-28.4c0.2-5.1-4.6-12.1-3.3-18C23.2,63.8,24,46,25,42.9
				c2.3-6.9,18.6-21,21.7-25.2c4.5-9.2,33.4-5.8,35.4,1c5.1,1.7,0.3,13.8-1.5,18.4c1,5.1-25.9,15.3-26.7,22.5
				C53.5,62.7,47.5,69.5,46.7,72.8z"/>
			<path class="cat21" d="M83.4,32.2c-2,8.8-19,23.8-28.3,21.7C45.8,51.8,30.9,41,32.9,32.2c1-4.4,4.5-9,8.2-11.2
				c3.7-2.2,16.4-10,21.1-9c4.7,1,15.3,0.9,17.8,4.5S84.4,27.8,83.4,32.2z"/>
			<g>
				<g>
					<path class="cat7" d="M53.6,50.4C62.4,45.9,71.7,38,73,27.5c1.1-9.1-5.8-14.5-14-16.3c-1.6-0.3-2.2,2.1-0.7,2.4
						c8.2,1.8,14.1,7.3,11.7,16.1c-2.4,8.5-10.1,14.7-17.6,18.5C50.9,49,52.2,51.1,53.6,50.4L53.6,50.4z"/>
				</g>
			</g>
			<g>
				<g>
					<path class="cat7" d="M41.8,45.2c8.3,0.2,16-9.9,16.8-17.6c0.4-3.6-1-5.5-4-7.2c-2.3-1.3-7-4.2-9.7-3c-1.5,0.6-0.2,2.8,1.3,2.2
						c1.4-0.6,5.9,2.3,7.2,3c2.9,1.7,3.2,3.7,2.3,6.9c-1.7,5.7-7.3,13.3-13.9,13.2C40.2,42.6,40.2,45.1,41.8,45.2L41.8,45.2z"/>
				</g>
			</g>
			<path class="cat23" d="M39.4,105.3c-6.2-1.4,11.7,9.2,20.5,11.1c13.5,5.1,23.4-2.2,21.2-9.7C70.6,99,48.2,107.4,39.4,105.3z"/>
			<path class="cat25" d="M29.9,64.6C29.1,68,40.8,76.8,46.2,78c-3.3-0.9,6.7-20.4,9.2-19.8C49.9,57,30.7,61.1,29.9,64.6z"/>
			<path class="cat8" d="M81.6,26c0.1,3.5-1.8,8.7-4,8.8c-2.2,0.1-4.5-17-2.2-17.1S81.5,22.5,81.6,26z"/>
			<g>
				<g>
					<g>
						<path d="M87.7,107.3c-0.8-3.3-4.1-5.7-7-7.1c-1.3-0.6-2.5-0.3-3.4,0.9c-0.9,1.2-6,0-7-0.2c-2.5-0.5-4.9-1.4-7.2-2.6
							c-3.8-2-7.1-5-9.5-8.5c-5.4-8-6.6-19,0.1-26.6c10.1-11.4,27.3-16,32.6-31.7C91.2,17,75.5,8,62.9,9
							c-15,1.2-26.6,12.8-34.9,24.4c-0.8,1.2-0.1,2.7,0.9,3.4c9.6,6.9,19.2,13.8,28.8,20.8c0.6-1.5,1.3-3,1.9-4.6
							c-5.7-0.8-11-4.7-15.5-8c-2.6-1.8-11.2-7.4-11.4-10.4c-0.2-2.5-3.2-3.4-4.7-1.3c-13.8,20.3-9.9,50.8,4.7,69.8
							c7.4,9.6,18.4,13.8,29.9,16.5c4.9,1.1,10.2,1.8,14.9-0.6c3.9-2,9-6.2,10.3-10.5c1-3.1-3.8-4.4-4.8-1.3
							c-1.5,4.7-8.6,8.5-13.1,8.5c-4.7,0-9.7-1.7-14.1-3.1c-10.2-3.2-17.5-8.8-22.8-18.1C23.1,77.2,20.7,53,32.3,35.9
							c-1.6-0.4-3.1-0.8-4.7-1.3c0.4,5.3,7.4,9.8,11.1,12.6c5.5,4.2,12.4,9.5,19.5,10.5c2.8,0.4,4.3-2.9,1.9-4.6
							C50.6,46.4,41,39.4,31.4,32.5c0.3,1.1,0.6,2.3,0.9,3.4C41.3,23.5,58,7.7,74.7,16C97.8,27.4,63.9,48.3,55,55.3
							C43.4,64.5,40.9,79,48.9,91.7c3.6,5.7,9,10.2,15.3,12.6c5,1.9,13.6,4.3,17.4-0.7c-1.1,0.3-2.3,0.6-3.4,0.9
							c1.7,0.8,4.2,2,4.7,4.1C83.7,111.7,88.5,110.4,87.7,107.3z"/>
					</g>
				</g>
				<g>
					<g>
						<path d="M77.7,100.2c-0.1,0.1-0.2,0.2-0.2,0.3c-0.5,0.6-0.8,1.3-0.7,2.1c0.1,0.7,0.5,1.5,1.2,1.8c0.1,0,0.1,0.1,0.2,0.1
							c0.8,0.3,1.4,0.5,2.2,0.1c0.7-0.3,1.3-0.9,1.4-1.6c0.1-0.3,0.1-0.7,0.1-1.1c0.1-1.3-1.2-2.6-2.5-2.5c-1.4,0.1-2.4,1.1-2.5,2.5
							c0.1-0.4,0.1-0.5,0-0.3c1.2-0.5,2.4-1,3.7-1.5c-0.1,0-0.1-0.1-0.2-0.1c0.2,1.3,0.3,2.6,0.5,3.9c0.1-0.1,0.2-0.2,0.2-0.3
							c0.4-0.5,0.7-1.1,0.7-1.8c0-0.6-0.3-1.3-0.7-1.8C80.4,99.4,78.6,99.1,77.7,100.2z"/>
					</g>
				</g>
			</g>
			<rect class="cat16" width="201" height="148"/>
			<ellipse class="cat20" cx="184.3" cy="95.8" rx="13.9" ry="27.4"/>
			<path class="cat15" d="M196.6,100.1l-12.5,7.7l1.9-9.4l9.8-12.8C196.5,89.5,197,94.6,196.6,100.1z"/>
			<path class="cat3" d="M189.5,120.6l-9,4.3l1.9-9.4l13.7-5.1C196.9,114.2,193.8,119.5,189.5,120.6z"/>
			<path class="cat4" d="M73.3,102.4c0,20,27.9,41.4,58.7,41.4s58.7-23.1,58.7-43.2c0-11,2.4-29.2-9.5-35.8
				c-5.7-3.2-11.5-41.7-18.9-43.2c-4.3-0.9-9.1-9.6-13.8-9.8c-1,0-2.9,31.9-3.8,31.9c-4.5,0-17.9-1-22.1-0.3
				c-5.2,0.8-6.9-32.8-11.4-31.1c-10.7,0.2-30,49.8-30.7,56C73.6,74.2,73.3,94.3,73.3,102.4z"/>
			<path class="cat12" d="M167.6,136.4c-31.1,24-99.2,1.8-87.2-32C70,75.9,148.8,64.9,187.6,76.6C198.9,78.5,192.8,125.1,167.6,136.4
				z"/>
			<path class="cat28" d="M166.6,69c13.2,2.2,15.6,9.6,24.6,23.4c-2.4-6.9,0.8-8.1-9.6-26.5c-5.9-24.9-25.1-56.4-30.2-55
				c-1.4,0.4-6.6,3-5.5,6.3C157.9,8.4,168.7,47.4,166.6,69z"/>
			<path class="cat6" d="M119.2,33.3c0,4.2-9.4-17-14.3-17c-4.9,0,4-3.9,8.9-3.9C116.1,16,119.2,29.2,119.2,33.3z"/>
			<path class="cat9" d="M170.2,53.7c2.2,4-14.7-4.6-16.7-7.5c-1.9-9.3-1.5-24.2,0.5-24.6C156.1,21.1,168.3,44.4,170.2,53.7z"/>
			<g>
				<g>
					<path d="M184.1,66c-0.5-4.9-3-10.1-4.7-14.7c-3.3-9.1-7.1-18.1-12-26.5c-3.7-6.3-9-14.5-16.5-16.7c-11.9-3.5-7.3,30.8-7,36.1
						c1.1-0.8,2.1-1.6,3.2-2.4c-8.9-1.8-17.7-2-26.7-0.7c1,0.6,2.1,1.2,3.1,1.7c-0.9-5.9-2.1-11.7-3.5-17.5
						c-1.2-5.1-2.3-10.8-4.7-15.5c-0.4-0.7-1.3-1.3-2.2-1.2C106,9,101.2,15.9,97.7,21.3c-5.2,8.3-9,17.7-12.3,26.9
						c-1.5,4.3-2.7,8.6-4,12.9c-1.6,5.3-5.9,9.7-8.1,15c-4.1,10.2-4.7,21.8-1.3,32.3c13.7,43.1,74.7,51.2,105.4,22.1
						c18.4-17.5,21.3-45.1,6.2-65.7c-1.9-2.6-6.2-0.1-4.3,2.5c12.6,17.2,12.1,39.8-1.9,56c-13,15-33.7,21.4-53.1,19.3
						c-18.8-2-37.4-12.8-45.5-30.3c-4.2-8.9-5.2-19.2-2.7-28.8c1.4-5.5,3.9-10.6,7.2-15.2c2.5-3.5,3.1-6.8,4.3-10.8
						c2.8-9.4,6.3-18.7,10.8-27.4c2.6-5.1,7.7-16.1,14.5-16.4c-0.7-0.4-1.4-0.8-2.2-1.2c2.5,4.8,3.5,10.9,4.7,16.1
						c1.2,5.2,2.2,10.4,3,15.7c0.2,1.4,1.9,1.9,3.1,1.7c8-1.2,16.1-0.9,24,0.7c1.5,0.3,3.3-0.7,3.2-2.4c-0.4-7.6-0.8-15.2-0.8-22.8
						c0-2,0-4.1,0.6-6.1c0.3-0.8,0.7-1.7,1-2.5c-1-0.1-1.1-0.1-0.2,0.1c1.2,0.2,2.6,1.3,3.5,2c6,4.5,9.9,11.9,13.3,18.4
						c3.6,7,6.5,14.3,9.1,21.7c0.9,2.7,1.8,5.3,2.7,8c0.2,0.8,0.5,1.6,0.7,2.4c0.1,0.3,0.3,1.7,0.2,0.4
						C179.4,69.2,184.4,69.2,184.1,66z"/>
				</g>
			</g>
			<g>
				<g>
					<path d="M150.1,121.2c0.1-0.1,0.1-0.2,0.2-0.4c-0.7,0.4-1.4,0.8-2.2,1.2c0.1,0,0.3,0,0.4,0c-0.7-1.3-1.4-2.5-2.2-3.8
						c-3,6.9-8,12.5-14.7,16.1c-2.8,1.5-0.3,5.9,2.5,4.3c7.3-4,13.1-10.2,16.5-17.9c0.7-1.5-0.1-4-2.2-3.8c-1.2,0.1-2.2,0.4-2.7,1.6
						C144.4,121.6,148.7,124.1,150.1,121.2L150.1,121.2z"/>
				</g>
			</g>
			<g>
				<g>
					<path d="M147.7,122.3c1.1,5.5,6.3,10.5,12.2,8.2c3-1.1,1.7-6-1.3-4.8c-3.4,1.3-5.4-1.8-6-4.8
						C151.8,117.9,147,119.2,147.7,122.3L147.7,122.3z"/>
				</g>
			</g>
			<g>
				<path d="M149.9,119.3c1.5-1.2,2.6-3.5,3.3-5c-0.4-0.6-7,0.2-8.6,1.2C145.3,116.5,148.2,118.7,149.9,119.3"/>
				<g>
					<path class="cat10" d="M151.7,121.1c1.7-1.5,2.7-3.5,3.7-5.5c0.5-1,0.5-2.2-0.4-3c-1.4-1.3-3.7-1-5.4-0.8
						c-2.1,0.2-4.4,0.5-6.2,1.6c-1.5,0.9-1.5,2.7-0.5,3.9c1.6,2,4.1,3.5,6.4,4.4c1.3,0.5,2.7-0.6,3.1-1.7c0.4-1.4-0.5-2.6-1.7-3.1
						c-1.5-0.6-3.2-1.9-4.2-3.1c-0.2,1.3-0.3,2.6-0.5,3.9c0.8-0.5,2.4-0.8,3.6-0.9c0.6-0.1,1.2-0.1,1.9-0.2c0.3,0,0.6,0,0.9,0
						c0.1,0,0.2,0,0.4,0c-0.4,0-0.8-0.2-1.1-0.5c-0.1-1-0.3-2-0.4-3c-0.8,1.6-1.6,3.3-2.9,4.5C145.8,119.7,149.3,123.3,151.7,121.1
						L151.7,121.1z"/>
				</g>
			</g>
			<circle class="cat22" cx="131.6" cy="118.2" r="2"/>
			<circle class="cat22" cx="163.9" cy="113.8" r="2"/>
			<circle class="cat22" cx="168.7" cy="120.7" r="2"/>
			<circle class="cat22" cx="167.6" cy="127" r="2"/>
			<circle class="cat22" cx="123.5" cy="123.6" r="2"/>
			<circle class="cat22" cx="120.6" cy="134.3" r="2"/>
			<path class="cat14" d="M146.3,72.5c1.1-0.4,2.4,13.4-0.6,17.5c-3,4.1-11.7-16.7-12.9-16.8C131.6,73,146.2,72.4,146.3,72.5z"/>
			<path class="cat14" d="M130.3,73.3c0.6-0.2,1.4,7.2-0.2,9.4c-1.6,2.2-5.9-8.8-6.6-8.6L130.3,73.3z"/>
			<path class="cat14" d="M155.8,72.6c0.6,0.3,1.3,6.9-0.3,9.1c-1.6,2.2-6.6-9.1-7.1-9.2C151.2,72.5,155.3,72.5,155.8,72.6z"/>
			<g>
				<g>
					<path d="M106.8,112c0.1-3.9,1-7.9,2-11.8c1-4.1,2-9.4,4.6-12.9c1.1-1.5,0.9-1,2.1,0.7c1.5,2,2.6,4.8,3.5,7.1
						c1.6,4.1,2.9,8.4,3.7,12.7c0.6,3.2,5.4,1.8,4.8-1.3c-1-5.3-6.3-29.2-15.5-24.7c-4.1,2-5.7,8.8-6.9,12.6
						c-1.7,5.6-3.3,11.6-3.3,17.5C101.7,115.3,106.7,115.3,106.8,112L106.8,112z"/>
				</g>
			</g>
			<g>
				<g>
					<path d="M179.3,107.2c-0.9-5.7-3.1-11.4-5.3-16.8c-1.4-3.4-3.5-10.4-7.7-11.6c-8.8-2.6-8.9,22.1-8.8,26.7c0,3.2,5,3.2,5,0
						c0-4.5,0.3-9,1-13.5c0.4-2.3,0.7-4.8,1.6-6.9c0.2-0.6,0.7-1.2,0.9-1.8c-1.2-0.2-1.6,0-1,0.5c0.2,0.2,0.4,0.5,0.6,0.8
						c1.5,4.2,4.1,8.1,5.5,12.4c1.3,3.7,2.6,7.6,3.3,11.5C175,111.7,179.8,110.3,179.3,107.2L179.3,107.2z"/>
				</g>
			</g>
			<path class="cat5" d="M143.8,146c-22.4,5.3-61.9-10.4-68-33c-4.9-12.8-8-28.5,10.1-51.5C62.6,106.9,113.1,146.4,143.8,146z"/>
			<path class="cat29" d="M166.7,141c-28.7,10.9-70.7,6.6-83.7-17c-10.8-19.6,2.7-38.5,2.7-38.5c14-16.2,91.6-18.7,107.2-7.1
				C205.1,121.7,180.5,135.3,166.7,141z"/>
			<ellipse class="cat0" cx="83" cy="101.3" rx="13.9" ry="27.4"/>
			<path class="cat9" d="M94.4,55.9c-0.3,6.7,21.3-6.1,21.8-11.5c0-9.5-4.9-24-7.9-24C105.2,20.5,94.4,46.5,94.4,55.9z"/>
			
				<ellipse transform="matrix(0.9858 -0.1677 0.1677 0.9858 -16.9804 26.9795)" class="cat19" cx="151.3" cy="114" rx="2.8" ry="1.3"/>
			<path class="cat27" d="M192.5,83.9c3.1,37.1-16,49.9-13,44.6c12.3-10.9,3.2-53-18.5-52.6C149.9,76.1,190.9,74.4,192.5,83.9z"/>
			<path class="cat27" d="M94.2,112.4c-2.9,11.4-8.3,16.2-13,14.5c-4.5-9.4-4.1-18.3-2.3-27.2C78.9,99.7,79.7,107.8,94.2,112.4z"/>
			<path class="cat27" d="M91.9,83.4c1.5,3.1,1.9,4.9,2.3,6.6c-8.9-3.9-5.9,7-12.3,0.8C81.9,90.8,83.6,86.6,91.9,83.4z"/>
			<ellipse class="cat1" cx="79.9" cy="99.7" rx="6.9" ry="15.3"/>
			<path class="cat17" d="M73,99.7c0,7.7,4.6,20.7,10.9,11.7c-7.6,3.1-6.9-28.7-0.9-24.6C78.8,81.8,71.6,88.4,73,99.7z"/>
			<path class="cat2" d="M78.6,103.5l-6.4,0.1c-0.2-1.4-0.2-3.2-0.2-5.2l6.3,0.1C78.3,99.9,78.4,101.7,78.6,103.5z"/>
			<polygon class="cat26" points="78.3,97.4 72.1,97.4 72.2,96.2 78.4,96.3 			"/>
			<path class="cat11" d="M147,46.6c-20.2,0.3-25.5,4.5-25.5,4.5s-3.5-1.3-1.9-6.6C130,44.2,139.6,44.5,147,46.6z"/>
		</g>
	</g>
</g>
<g id="at5" class="cat24">
	<g class="cat18">
		<g>
			<path class="cat13" d="M39.7,80.2c0,5.9,7.3,9.5,6.4,14.5c-1.2,6.5,10.1,6.6,18.8,10.1c11.1,1.5,14.4,9.4,10.6,10
				c1.4,3.9-9.9,9-22.7,4.3c-14.2-2.9-29.5-15.2-30.8-22.2c-0.9-5-7.1-10.8-7.1-16.9c0-3.5-3.2-21.1-2.8-24.3
				c0.8-7.2,13.6-24.6,15.7-29.3c2.4-9.9,31.3-12.9,34.7-6.7c5.4,0.5,3.3,13.4,2.6,18.3c2,4.8-21.9,20.5-21.2,27.8
				C44.1,68.9,39.7,76.8,39.7,80.2z"/>
			<path class="cat21" d="M66.7,32.6c0,9-13.4,27.4-22.9,27.4c-9.6,0-26.4-7.3-26.4-16.3c0-4.5,2.5-9.8,5.6-12.7
				c3.1-3,13.9-13.4,18.7-13.4s15.2-2.4,18.3,0.5C63.1,21,66.7,28.1,66.7,32.6z"/>
			<g>
				<g>
					<path class="cat7" d="M41.6,56.8c7.6-6.3,14.9-16,13.9-26.5c-0.9-9.2-8.9-12.9-17.3-12.9c-1.6,0-1.6,2.5,0,2.5
						c8.3-0.1,15.4,4,14.8,13.2c-0.5,8.8-6.7,16.5-13.2,21.9C38.6,56.1,40.4,57.8,41.6,56.8L41.6,56.8z"/>
				</g>
			</g>
			<g>
				<g>
					<path class="cat7" d="M29,54.3c8.1-1.6,13.4-13.1,12.6-20.7c-0.3-3.2-1.7-4.9-4.6-6c-2.4-0.9-8.4-2.9-10.7-1.2
						c-1.3,0.9,0,3.1,1.3,2.2c1.5-1.1,6.4,0.7,7.9,1.2c3.5,1.1,4,3.4,3.6,6.8c-0.7,5.8-4.3,14.1-10.7,15.3
						C26.7,52.2,27.4,54.6,29,54.3L29,54.3z"/>
				</g>
			</g>
			<path class="cat23" d="M39.6,113.5c-6.3-0.1,13.4,6.4,22.4,6.4c14.3,2,22.3-7.3,18.6-14.1C68.8,100.5,48.6,113.6,39.6,113.5z"/>
			<path class="cat25" d="M21.5,75.8c0,3.5,13.3,9.6,18.9,9.6C36.9,85.2,42.5,64,45,64.1C39.4,64.1,21.5,72.3,21.5,75.8z"/>
			<path class="cat8" d="M63.6,26.9c0.9,3.4,0.2,8.9-2,9.5c-2.2,0.6-8.1-15.6-5.9-16.2C57.9,19.7,62.7,23.6,63.6,26.9z"/>
			<g>
				<g>
					<g>
						<path d="M87.2,104.8c-1.5-3.1-5.3-4.6-8.4-5.3c-1-0.2-2.4,0.1-2.8,1.1c-1.6,3.6-12,1.6-14.7,0.8c-4.2-1.2-8-3.3-11.1-6.3
							c-7-6.6-10.5-17.1-5.6-26C51.9,56.2,67.2,48,69.3,31.9c1.9-14.5-13.6-20.8-25.7-18c-15.2,3.5-24.8,18-30.6,31.4
							c-0.5,1.1-0.5,2.8,0.9,3.4c10.9,4.7,21.8,9.3,32.7,14c0.4-1.6,0.8-3.1,1.3-4.7c-5.8,0.4-12.2-2.4-17.4-4.6
							c-2.8-1.2-5.6-2.6-8.2-4.1c-1.2-0.7-4.2-2-4.7-3.4c-0.8-2.5-3.9-2.2-4.8,0C3.7,69,14.6,98.6,33.5,113.7
							c9.1,7.3,20.7,8.8,32,8.9c5.1,0,10.3-0.6,14.3-3.9c3.4-2.8,7.3-8.1,7.7-12.6c0.3-3.2-4.7-3.2-5,0c-0.4,4.1-5.8,9.4-9.4,10.6
							c-4.4,1.5-9.8,0.9-14.3,0.5C47.9,116.5,39,113,31.5,105C17.7,90.2,10,66.7,17.7,47.3c-1.6,0-3.2,0-4.8,0
							c1.6,5.1,9.8,8.1,14.1,10c6.3,2.8,13.9,6.3,20.9,5.8c2.2-0.2,3.8-3.6,1.3-4.7c-10.9-4.7-21.8-9.3-32.7-14
							c0.3,1.1,0.6,2.3,0.9,3.4c6.1-14.2,18.8-33.7,37.2-29.2c24.6,6-2.5,33-9.9,41.9c-4.3,5.2-7.7,11.1-7.5,18
							c0.2,6.9,3.3,13.5,7.8,18.5c4.7,5.2,11.2,8.8,18.1,9.9c4.8,0.8,14.6,1.6,17.1-3.8c-0.9,0.4-1.9,0.8-2.8,1.1
							c1.8,0.4,4.6,1.2,5.5,3C84.3,110.2,88.6,107.7,87.2,104.8z"/>
					</g>
				</g>
				<g>
					<g>
						<path d="M75.9,100.3c-0.1,0.1-0.1,0.2-0.2,0.4c-0.4,0.7-0.5,1.5-0.1,2.2c0.3,0.7,0.9,1.3,1.6,1.4c0.1,0,0.1,0,0.2,0
							c1.6,0.3,3.1-0.7,3.2-2.4c0-0.4-0.1-0.7-0.1-1.1c-0.1-0.6-0.7-1.2-1.1-1.5c-0.5-0.3-1.3-0.4-1.9-0.3c-1.4,0.5-2,1.7-1.7,3.1
							c0-0.4-0.1-0.5-0.1-0.3c1.1-0.8,2.1-1.6,3.2-2.4c-0.1,0-0.1,0-0.2,0c0.5,1.2,1,2.4,1.5,3.7c0.1-0.1,0.1-0.2,0.2-0.4
							c0.6-1.2,0.4-2.8-0.9-3.4C78.2,98.8,76.5,99,75.9,100.3z"/>
					</g>
				</g>
			</g>
			<rect class="cat16" width="201" height="148"/>
			<ellipse class="cat20" cx="184.3" cy="95.8" rx="13.9" ry="27.4"/>
			<path class="cat15" d="M196.6,100.1l-12.5,7.7l1.9-9.4l9.8-12.8C196.5,89.5,197,94.6,196.6,100.1z"/>
			<path class="cat3" d="M189.5,120.6l-9,4.3l1.9-9.4l13.7-5.1C196.9,114.2,193.8,119.5,189.5,120.6z"/>
			<path class="cat4" d="M73.3,102.4c0,20,27.9,41.4,58.7,41.4s58.7-23.1,58.7-43.2c0-11,2.4-29.2-9.5-35.8
				c-5.7-3.2-11.5-41.7-18.9-43.2c-4.3-0.9-9.1-9.6-13.8-9.8c-1,0-2.9,31.9-3.8,31.9c-4.5,0-17.9-1-22.1-0.3
				c-5.2,0.8-6.9-32.8-11.4-31.1c-10.7,0.2-30,49.8-30.7,56C73.6,74.2,73.3,94.3,73.3,102.4z"/>
			<path class="cat12" d="M167.6,136.4c-31.1,24-99.2,1.8-87.2-32C70,75.9,148.8,64.9,187.6,76.6C198.9,78.5,192.8,125.1,167.6,136.4
				z"/>
			<path class="cat28" d="M166.6,69c13.2,2.2,15.6,9.6,24.6,23.4c-2.4-6.9,0.8-8.1-9.6-26.5c-5.9-24.9-25.1-56.4-30.2-55
				c-1.4,0.4-6.6,3-5.5,6.3C157.9,8.4,168.7,47.4,166.6,69z"/>
			<path class="cat6" d="M119.2,33.3c0,4.2-9.4-17-14.3-17c-4.9,0,4-3.9,8.9-3.9C116.1,16,119.2,29.2,119.2,33.3z"/>
			<path class="cat9" d="M170.2,53.7c2.2,4-14.7-4.6-16.7-7.5c-1.9-9.3-1.5-24.2,0.5-24.6C156.1,21.1,168.3,44.4,170.2,53.7z"/>
			<g>
				<g>
					<path d="M184.1,66c-0.5-4.9-3-10.1-4.7-14.7c-3.3-9.1-7.1-18.1-12-26.5c-3.7-6.3-9-14.5-16.5-16.7c-11.9-3.5-7.3,30.8-7,36.1
						c1.1-0.8,2.1-1.6,3.2-2.4c-8.9-1.8-17.7-2-26.7-0.7c1,0.6,2.1,1.2,3.1,1.7c-0.9-5.9-2.1-11.7-3.5-17.5
						c-1.2-5.1-2.3-10.8-4.7-15.5c-0.4-0.7-1.3-1.3-2.2-1.2C106,9,101.2,15.9,97.7,21.3c-5.2,8.3-9,17.7-12.3,26.9
						c-1.5,4.3-2.7,8.6-4,12.9c-1.6,5.3-5.9,9.7-8.1,15c-4.1,10.2-4.7,21.8-1.3,32.3c13.7,43.1,74.7,51.2,105.4,22.1
						c18.4-17.5,21.3-45.1,6.2-65.7c-1.9-2.6-6.2-0.1-4.3,2.5c12.6,17.2,12.1,39.8-1.9,56c-13,15-33.7,21.4-53.1,19.3
						c-18.8-2-37.4-12.8-45.5-30.3c-4.2-8.9-5.2-19.2-2.7-28.8c1.4-5.5,3.9-10.6,7.2-15.2c2.5-3.5,3.1-6.8,4.3-10.8
						c2.8-9.4,6.3-18.7,10.8-27.4c2.6-5.1,7.7-16.1,14.5-16.4c-0.7-0.4-1.4-0.8-2.2-1.2c2.5,4.8,3.5,10.9,4.7,16.1
						c1.2,5.2,2.2,10.4,3,15.7c0.2,1.4,1.9,1.9,3.1,1.7c8-1.2,16.1-0.9,24,0.7c1.5,0.3,3.3-0.7,3.2-2.4c-0.4-7.6-0.8-15.2-0.8-22.8
						c0-2,0-4.1,0.6-6.1c0.3-0.8,0.7-1.7,1-2.5c-1-0.1-1.1-0.1-0.2,0.1c1.2,0.2,2.6,1.3,3.5,2c6,4.5,9.9,11.9,13.3,18.4
						c3.6,7,6.5,14.3,9.1,21.7c0.9,2.7,1.8,5.3,2.7,8c0.2,0.8,0.5,1.6,0.7,2.4c0.1,0.3,0.3,1.7,0.2,0.4
						C179.4,69.2,184.4,69.2,184.1,66z"/>
				</g>
			</g>
			<g>
				<g>
					<path d="M150.1,121.2c0.1-0.1,0.1-0.2,0.2-0.4c-0.7,0.4-1.4,0.8-2.2,1.2c0.1,0,0.3,0,0.4,0c-0.7-1.3-1.4-2.5-2.2-3.8
						c-3,6.9-8,12.5-14.7,16.1c-2.8,1.5-0.3,5.9,2.5,4.3c7.3-4,13.1-10.2,16.5-17.9c0.7-1.5-0.1-4-2.2-3.8c-1.2,0.1-2.2,0.4-2.7,1.6
						C144.4,121.6,148.7,124.1,150.1,121.2L150.1,121.2z"/>
				</g>
			</g>
			<g>
				<g>
					<path d="M147.7,122.3c1.1,5.5,6.3,10.5,12.2,8.2c3-1.1,1.7-6-1.3-4.8c-3.4,1.3-5.4-1.8-6-4.8
						C151.8,117.9,147,119.2,147.7,122.3L147.7,122.3z"/>
				</g>
			</g>
			<g>
				<path d="M149.9,119.3c1.5-1.2,2.6-3.5,3.3-5c-0.4-0.6-7,0.2-8.6,1.2C145.3,116.5,148.2,118.7,149.9,119.3"/>
				<g>
					<path class="cat10" d="M151.7,121.1c1.7-1.5,2.7-3.5,3.7-5.5c0.5-1,0.5-2.2-0.4-3c-1.4-1.3-3.7-1-5.4-0.8
						c-2.1,0.2-4.4,0.5-6.2,1.6c-1.5,0.9-1.5,2.7-0.5,3.9c1.6,2,4.1,3.5,6.4,4.4c1.3,0.5,2.7-0.6,3.1-1.7c0.4-1.4-0.5-2.6-1.7-3.1
						c-1.5-0.6-3.2-1.9-4.2-3.1c-0.2,1.3-0.3,2.6-0.5,3.9c0.8-0.5,2.4-0.8,3.6-0.9c0.6-0.1,1.2-0.1,1.9-0.2c0.3,0,0.6,0,0.9,0
						c0.1,0,0.2,0,0.4,0c-0.4,0-0.8-0.2-1.1-0.5c-0.1-1-0.3-2-0.4-3c-0.8,1.6-1.6,3.3-2.9,4.5C145.8,119.7,149.3,123.3,151.7,121.1
						L151.7,121.1z"/>
				</g>
			</g>
			<circle class="cat22" cx="131.6" cy="118.2" r="2"/>
			<circle class="cat22" cx="163.9" cy="113.8" r="2"/>
			<circle class="cat22" cx="168.7" cy="120.7" r="2"/>
			<circle class="cat22" cx="167.6" cy="127" r="2"/>
			<circle class="cat22" cx="123.5" cy="123.6" r="2"/>
			<circle class="cat22" cx="120.6" cy="134.3" r="2"/>
			<path class="cat14" d="M146.3,72.5c1.1-0.4,2.4,13.4-0.6,17.5c-3,4.1-11.7-16.7-12.9-16.8C131.6,73,146.2,72.4,146.3,72.5z"/>
			<path class="cat14" d="M130.3,73.3c0.6-0.2,1.4,7.2-0.2,9.4c-1.6,2.2-5.9-8.8-6.6-8.6L130.3,73.3z"/>
			<path class="cat14" d="M155.8,72.6c0.6,0.3,1.3,6.9-0.3,9.1c-1.6,2.2-6.6-9.1-7.1-9.2C151.2,72.5,155.3,72.5,155.8,72.6z"/>
			<g>
				<g>
					<path d="M106.8,112c0.1-3.9,1-7.9,2-11.8c1-4.1,2-9.4,4.6-12.9c1.1-1.5,0.9-1,2.1,0.7c1.5,2,2.6,4.8,3.5,7.1
						c1.6,4.1,2.9,8.4,3.7,12.7c0.6,3.2,5.4,1.8,4.8-1.3c-1-5.3-6.3-29.2-15.5-24.7c-4.1,2-5.7,8.8-6.9,12.6
						c-1.7,5.6-3.3,11.6-3.3,17.5C101.7,115.3,106.7,115.3,106.8,112L106.8,112z"/>
				</g>
			</g>
			<g>
				<g>
					<path d="M179.3,107.2c-0.9-5.7-3.1-11.4-5.3-16.8c-1.4-3.4-3.5-10.4-7.7-11.6c-8.8-2.6-8.9,22.1-8.8,26.7c0,3.2,5,3.2,5,0
						c0-4.5,0.3-9,1-13.5c0.4-2.3,0.7-4.8,1.6-6.9c0.2-0.6,0.7-1.2,0.9-1.8c-1.2-0.2-1.6,0-1,0.5c0.2,0.2,0.4,0.5,0.6,0.8
						c1.5,4.2,4.1,8.1,5.5,12.4c1.3,3.7,2.6,7.6,3.3,11.5C175,111.7,179.8,110.3,179.3,107.2L179.3,107.2z"/>
				</g>
			</g>
			<path class="cat5" d="M143.8,146c-22.4,5.3-61.9-10.4-68-33c-4.9-12.8-8-28.5,10.1-51.5C62.6,106.9,113.1,146.4,143.8,146z"/>
			<path class="cat29" d="M166.7,141c-28.7,10.9-70.7,6.6-83.7-17c-10.8-19.6,2.7-38.5,2.7-38.5c14-16.2,91.6-18.7,107.2-7.1
				C205.1,121.7,180.5,135.3,166.7,141z"/>
			<ellipse class="cat0" cx="83" cy="101.3" rx="13.9" ry="27.4"/>
			<path class="cat9" d="M94.4,55.9c-0.3,6.7,21.3-6.1,21.8-11.5c0-9.5-4.9-24-7.9-24C105.2,20.5,94.4,46.5,94.4,55.9z"/>
			
				<ellipse transform="matrix(0.9858 -0.1677 0.1677 0.9858 -16.9804 26.9795)" class="cat19" cx="151.3" cy="114" rx="2.8" ry="1.3"/>
			<path class="cat27" d="M192.5,83.9c3.1,37.1-16,49.9-13,44.6c12.3-10.9,3.2-53-18.5-52.6C149.9,76.1,190.9,74.4,192.5,83.9z"/>
			<path class="cat27" d="M94.2,112.4c-2.9,11.4-8.3,16.2-13,14.5c-4.5-9.4-4.1-18.3-2.3-27.2C78.9,99.7,79.7,107.8,94.2,112.4z"/>
			<path class="cat27" d="M91.9,83.4c1.5,3.1,1.9,4.9,2.3,6.6c-8.9-3.9-5.9,7-12.3,0.8C81.9,90.8,83.6,86.6,91.9,83.4z"/>
			<ellipse class="cat1" cx="79.9" cy="99.7" rx="6.9" ry="15.3"/>
			<path class="cat17" d="M73,99.7c0,7.7,4.6,20.7,10.9,11.7c-7.6,3.1-6.9-28.7-0.9-24.6C78.8,81.8,71.6,88.4,73,99.7z"/>
			<path class="cat2" d="M78.6,103.5l-6.4,0.1c-0.2-1.4-0.2-3.2-0.2-5.2l6.3,0.1C78.3,99.9,78.4,101.7,78.6,103.5z"/>
			<polygon class="cat26" points="78.3,97.4 72.1,97.4 72.2,96.2 78.4,96.3 			"/>
			<path class="cat11" d="M147,46.6c-20.2,0.3-25.5,4.5-25.5,4.5s-3.5-1.3-1.9-6.6C130,44.2,139.6,44.5,147,46.6z"/>
		</g>
	</g>
</g>
<g id="cat4" class="cat24">
	<g class="cat18">
		<g>
			<path class="cat13" d="M36,85.8c0.9,5.9,8.6,8.3,8.4,13.4c-0.2,6.6,10.9,5.1,20,7.3c11.2-0.1,15.6,7.2,11.9,8.4
				c2,3.7-8.5,10.4-21.9,7.6c-14.5-0.8-31.4-10.8-33.7-17.5c-1.7-4.9-8.6-9.7-9.5-15.7C10.8,85.8,5.1,68.8,5,65.6
				c-0.3-7.3,9.9-26.3,11.3-31.2C17.3,24.1,45.5,17,49.7,22.7c5.4-0.3,5.2,12.8,5.2,17.7c2.7,4.4-18.8,23.5-17,30.6
				C38.6,74,35.5,82.5,36,85.8z"/>
			<path class="cat21" d="M55.8,34.8c1.3,8.9-9.3,29-18.7,30.4c-9.5,1.4-27.2-3.4-28.5-12.4c-0.6-4.5,1-10,3.7-13.4
				c2.7-3.4,11.8-15.2,16.5-15.9c4.7-0.7,14.7-4.6,18.2-2.1C50.6,23.9,55.2,30.3,55.8,34.8z"/>
			<g>
				<g>
					<path class="cat7" d="M34.3,62.5c6.6-7.3,12.5-17.9,10.1-28.1c-2.1-9.2-10.7-11.8-19.2-10.5c-1.6,0.2-0.9,2.6,0.7,2.4
						c8.3-1.3,15.8,2.1,16.4,11.3c0.6,8.6-4.2,17-9.8,23.1C31.5,62,33.2,63.7,34.3,62.5L34.3,62.5z"/>
				</g>
			</g>
			<g>
				<g>
					<path class="cat7" d="M21.4,61.8c7.8-2.8,11.3-14.4,9.7-21.9c-0.7-3.4-2.5-5.1-5.8-5.7c-2.6-0.5-8.4-1.7-10.6,0.5
						c-1.2,1.1,0.6,2.9,1.8,1.8c1.2-1.2,6.4-0.1,7.9,0.1c3.4,0.5,4.4,2.5,4.6,5.9c0.3,5.8-2.1,14.8-8.2,17
						C19.3,59.9,19.9,62.3,21.4,61.8L21.4,61.8z"/>
				</g>
			</g>
			<path class="cat23" d="M40.7,118.8c-6.3,0.8,14.2,4.4,23.1,3.1c14.5,0,21.1-10.4,16.4-16.6C67.6,101.8,49.6,117.6,40.7,118.8z"/>
			<path class="cat25" d="M17.3,84.1c0.5,3.5,14.5,7.6,20,6.8c-3.4,0.3-1-21.5,1.5-21.7C33.4,69.9,16.8,80.6,17.3,84.1z"/>
			<path class="cat8" d="M51.9,29.7c1.4,3.2,1.5,8.8-0.6,9.7c-2.1,0.9-10.2-14.3-8.2-15.2C45.2,23.3,50.5,26.5,51.9,29.7z"/>
			<g>
				<g>
					<g>
						<path d="M86.7,103.7c-2.1-3.1-6.1-4-9.6-4.4c-1.1-0.1-2.1,0.9-2.4,1.8c-0.6,1.9-6.6,2.6-8,2.8c-2.5,0.3-5.1,0.2-7.6-0.3
							c-3.9-0.7-7.6-2.3-10.8-4.6c-7.5-5.4-12.4-14.8-9.3-24c2.8-8.2,9.4-14.9,13.6-22.5c3.3-6,6.3-13,5.8-20
							c-1-14.8-18.6-17.4-29.7-12.2C15,26.7,8.2,41.7,4.5,55.4c-0.3,1.3,0.4,2.7,1.7,3.1c11.4,3.1,22.9,6.1,34.3,9.2
							c0-1.6,0-3.2,0-4.8c-5.7,1.2-12.4-0.8-17.8-2.3c-3.2-0.9-12.1-2.4-13.7-5.8c-0.9-1.9-4.1-1.4-4.6,0.6
							c-5.7,24,8.6,50.9,28.9,63.7c10.4,6.6,22.5,6.5,34.3,4.8c4.9-0.7,9.7-1.9,13.3-5.6c2.9-3.1,6.3-9.1,6.1-13.5
							c-0.2-3.2-5.2-3.2-5,0c0.2,4.3-4.1,10.4-7.7,12.2c-4.2,2.2-9.6,2.3-14.2,2.6c-11,0.8-20.5-1.4-29.1-8.5
							C15.7,98.6,4.6,76.8,9.3,56.8c-1.5,0.2-3,0.4-4.6,0.6C7,62,16,63.8,20.3,65.1C27,67,35,69.2,41.9,67.7c2.5-0.5,2.3-4.2,0-4.8
							C30.5,59.8,19,56.7,7.6,53.7c0.6,1,1.2,2.1,1.7,3.1c4-14.9,14-36,32.8-33.9c25.1,2.8,1.3,33.8-4.6,43.6
							c-7.6,12.6-4.9,26.9,6.9,36c5.4,4.2,12,6.5,18.9,6.6c5.1,0.1,14.5-0.7,16.2-6.6c-0.8,0.6-1.6,1.2-2.4,1.8
							c1.2,0.1,4.4,0.6,5.3,1.9C84.2,108.8,88.5,106.3,86.7,103.7z"/>
					</g>
				</g>
				<g>
					<g>
						<path d="M74.6,100.7c0,0.1-0.1,0.3-0.1,0.4c-0.5,1.6,0.9,3.1,2.4,3.2c0.1,0,0.1,0,0.2,0c1.2,0.1,2.7-1.2,2.5-2.5
							c0-0.4-0.1-0.7-0.2-1.1c-0.4-1.2-1.8-2.2-3.1-1.7c-1.3,0.4-2.2,1.7-1.7,3.1c0.1,0.3,0.1,0.2,0-0.3c0.8-0.8,1.7-1.7,2.5-2.5
							c-0.1,0-0.1,0-0.2,0c0.8,1.1,1.6,2.1,2.4,3.2c0-0.1,0.1-0.3,0.1-0.4c0.4-1.2-0.5-2.8-1.7-3.1C76.3,98.7,75,99.4,74.6,100.7z"
							/>
					</g>
				</g>
			</g>
			<rect class="cat16" width="201" height="148"/>
			<ellipse class="cat20" cx="184.3" cy="95.8" rx="13.9" ry="27.4"/>
			<path class="cat15" d="M196.6,100.1l-12.5,7.7l1.9-9.4l9.8-12.8C196.5,89.5,197,94.6,196.6,100.1z"/>
			<path class="cat3" d="M189.5,120.6l-9,4.3l1.9-9.4l13.7-5.1C196.9,114.2,193.8,119.5,189.5,120.6z"/>
			<path class="cat4" d="M73.3,102.4c0,20,27.9,41.4,58.7,41.4s58.7-23.1,58.7-43.2c0-11,2.4-29.2-9.5-35.8
				c-5.7-3.2-11.5-41.7-18.9-43.2c-4.3-0.9-9.1-9.6-13.8-9.8c-1,0-2.9,31.9-3.8,31.9c-4.5,0-17.9-1-22.1-0.3
				c-5.2,0.8-6.9-32.8-11.4-31.1c-10.7,0.2-30,49.8-30.7,56C73.6,74.2,73.3,94.3,73.3,102.4z"/>
			<path class="cat12" d="M167.6,136.4c-31.1,24-99.2,1.8-87.2-32C70,75.9,148.8,64.9,187.6,76.6C198.9,78.5,192.8,125.1,167.6,136.4
				z"/>
			<path class="cat28" d="M166.6,69c13.2,2.2,15.6,9.6,24.6,23.4c-2.4-6.9,0.8-8.1-9.6-26.5c-5.9-24.9-25.1-56.4-30.2-55
				c-1.4,0.4-6.6,3-5.5,6.3C157.9,8.4,168.7,47.4,166.6,69z"/>
			<path class="cat6" d="M119.2,33.3c0,4.2-9.4-17-14.3-17c-4.9,0,4-3.9,8.9-3.9C116.1,16,119.2,29.2,119.2,33.3z"/>
			<path class="cat9" d="M170.2,53.7c2.2,4-14.7-4.6-16.7-7.5c-1.9-9.3-1.5-24.2,0.5-24.6C156.1,21.1,168.3,44.4,170.2,53.7z"/>
			<g>
				<g>
					<path d="M184.1,66c-0.5-4.9-3-10.1-4.7-14.7c-3.3-9.1-7.1-18.1-12-26.5c-3.7-6.3-9-14.5-16.5-16.7c-11.9-3.5-7.3,30.8-7,36.1
						c1.1-0.8,2.1-1.6,3.2-2.4c-8.9-1.8-17.7-2-26.7-0.7c1,0.6,2.1,1.2,3.1,1.7c-0.9-5.9-2.1-11.7-3.5-17.5
						c-1.2-5.1-2.3-10.8-4.7-15.5c-0.4-0.7-1.3-1.3-2.2-1.2C106,9,101.2,15.9,97.7,21.3c-5.2,8.3-9,17.7-12.3,26.9
						c-1.5,4.3-2.7,8.6-4,12.9c-1.6,5.3-5.9,9.7-8.1,15c-4.1,10.2-4.7,21.8-1.3,32.3c13.7,43.1,74.7,51.2,105.4,22.1
						c18.4-17.5,21.3-45.1,6.2-65.7c-1.9-2.6-6.2-0.1-4.3,2.5c12.6,17.2,12.1,39.8-1.9,56c-13,15-33.7,21.4-53.1,19.3
						c-18.8-2-37.4-12.8-45.5-30.3c-4.2-8.9-5.2-19.2-2.7-28.8c1.4-5.5,3.9-10.6,7.2-15.2c2.5-3.5,3.1-6.8,4.3-10.8
						c2.8-9.4,6.3-18.7,10.8-27.4c2.6-5.1,7.7-16.1,14.5-16.4c-0.7-0.4-1.4-0.8-2.2-1.2c2.5,4.8,3.5,10.9,4.7,16.1
						c1.2,5.2,2.2,10.4,3,15.7c0.2,1.4,1.9,1.9,3.1,1.7c8-1.2,16.1-0.9,24,0.7c1.5,0.3,3.3-0.7,3.2-2.4c-0.4-7.6-0.8-15.2-0.8-22.8
						c0-2,0-4.1,0.6-6.1c0.3-0.8,0.7-1.7,1-2.5c-1-0.1-1.1-0.1-0.2,0.1c1.2,0.2,2.6,1.3,3.5,2c6,4.5,9.9,11.9,13.3,18.4
						c3.6,7,6.5,14.3,9.1,21.7c0.9,2.7,1.8,5.3,2.7,8c0.2,0.8,0.5,1.6,0.7,2.4c0.1,0.3,0.3,1.7,0.2,0.4
						C179.4,69.2,184.4,69.2,184.1,66z"/>
				</g>
			</g>
			<g>
				<g>
					<path d="M150.1,121.2c0.1-0.1,0.1-0.2,0.2-0.4c-0.7,0.4-1.4,0.8-2.2,1.2c0.1,0,0.3,0,0.4,0c-0.7-1.3-1.4-2.5-2.2-3.8
						c-3,6.9-8,12.5-14.7,16.1c-2.8,1.5-0.3,5.9,2.5,4.3c7.3-4,13.1-10.2,16.5-17.9c0.7-1.5-0.1-4-2.2-3.8c-1.2,0.1-2.2,0.4-2.7,1.6
						C144.4,121.6,148.7,124.1,150.1,121.2L150.1,121.2z"/>
				</g>
			</g>
			<g>
				<g>
					<path d="M147.7,122.3c1.1,5.5,6.3,10.5,12.2,8.2c3-1.1,1.7-6-1.3-4.8c-3.4,1.3-5.4-1.8-6-4.8
						C151.8,117.9,147,119.2,147.7,122.3L147.7,122.3z"/>
				</g>
			</g>
			<g>
				<path d="M149.9,119.3c1.5-1.2,2.6-3.5,3.3-5c-0.4-0.6-7,0.2-8.6,1.2C145.3,116.5,148.2,118.7,149.9,119.3"/>
				<g>
					<path class="cat10" d="M151.7,121.1c1.7-1.5,2.7-3.5,3.7-5.5c0.5-1,0.5-2.2-0.4-3c-1.4-1.3-3.7-1-5.4-0.8
						c-2.1,0.2-4.4,0.5-6.2,1.6c-1.5,0.9-1.5,2.7-0.5,3.9c1.6,2,4.1,3.5,6.4,4.4c1.3,0.5,2.7-0.6,3.1-1.7c0.4-1.4-0.5-2.6-1.7-3.1
						c-1.5-0.6-3.2-1.9-4.2-3.1c-0.2,1.3-0.3,2.6-0.5,3.9c0.8-0.5,2.4-0.8,3.6-0.9c0.6-0.1,1.2-0.1,1.9-0.2c0.3,0,0.6,0,0.9,0
						c0.1,0,0.2,0,0.4,0c-0.4,0-0.8-0.2-1.1-0.5c-0.1-1-0.3-2-0.4-3c-0.8,1.6-1.6,3.3-2.9,4.5C145.8,119.7,149.3,123.3,151.7,121.1
						L151.7,121.1z"/>
				</g>
			</g>
			<circle class="cat22" cx="131.6" cy="118.2" r="2"/>
			<circle class="cat22" cx="163.9" cy="113.8" r="2"/>
			<circle class="cat22" cx="168.7" cy="120.7" r="2"/>
			<circle class="cat22" cx="167.6" cy="127" r="2"/>
			<circle class="cat22" cx="123.5" cy="123.6" r="2"/>
			<circle class="cat22" cx="120.6" cy="134.3" r="2"/>
			<path class="cat14" d="M146.3,72.5c1.1-0.4,2.4,13.4-0.6,17.5c-3,4.1-11.7-16.7-12.9-16.8C131.6,73,146.2,72.4,146.3,72.5z"/>
			<path class="cat14" d="M130.3,73.3c0.6-0.2,1.4,7.2-0.2,9.4c-1.6,2.2-5.9-8.8-6.6-8.6L130.3,73.3z"/>
			<path class="cat14" d="M155.8,72.6c0.6,0.3,1.3,6.9-0.3,9.1c-1.6,2.2-6.6-9.1-7.1-9.2C151.2,72.5,155.3,72.5,155.8,72.6z"/>
			<g>
				<g>
					<path d="M106.8,112c0.1-3.9,1-7.9,2-11.8c1-4.1,2-9.4,4.6-12.9c1.1-1.5,0.9-1,2.1,0.7c1.5,2,2.6,4.8,3.5,7.1
						c1.6,4.1,2.9,8.4,3.7,12.7c0.6,3.2,5.4,1.8,4.8-1.3c-1-5.3-6.3-29.2-15.5-24.7c-4.1,2-5.7,8.8-6.9,12.6
						c-1.7,5.6-3.3,11.6-3.3,17.5C101.7,115.3,106.7,115.3,106.8,112L106.8,112z"/>
				</g>
			</g>
			<g>
				<g>
					<path d="M179.3,107.2c-0.9-5.7-3.1-11.4-5.3-16.8c-1.4-3.4-3.5-10.4-7.7-11.6c-8.8-2.6-8.9,22.1-8.8,26.7c0,3.2,5,3.2,5,0
						c0-4.5,0.3-9,1-13.5c0.4-2.3,0.7-4.8,1.6-6.9c0.2-0.6,0.7-1.2,0.9-1.8c-1.2-0.2-1.6,0-1,0.5c0.2,0.2,0.4,0.5,0.6,0.8
						c1.5,4.2,4.1,8.1,5.5,12.4c1.3,3.7,2.6,7.6,3.3,11.5C175,111.7,179.8,110.3,179.3,107.2L179.3,107.2z"/>
				</g>
			</g>
			<path class="cat5" d="M143.8,146c-22.4,5.3-61.9-10.4-68-33c-4.9-12.8-8-28.5,10.1-51.5C62.6,106.9,113.1,146.4,143.8,146z"/>
			<path class="cat29" d="M166.7,141c-28.7,10.9-70.7,6.6-83.7-17c-10.8-19.6,2.7-38.5,2.7-38.5c14-16.2,91.6-18.7,107.2-7.1
				C205.1,121.7,180.5,135.3,166.7,141z"/>
			<ellipse class="cat0" cx="83" cy="101.3" rx="13.9" ry="27.4"/>
			<path class="cat9" d="M94.4,55.9c-0.3,6.7,21.3-6.1,21.8-11.5c0-9.5-4.9-24-7.9-24C105.2,20.5,94.4,46.5,94.4,55.9z"/>
			
				<ellipse transform="matrix(0.9858 -0.1677 0.1677 0.9858 -16.9804 26.9795)" class="cat19" cx="151.3" cy="114" rx="2.8" ry="1.3"/>
			<path class="cat27" d="M192.5,83.9c3.1,37.1-16,49.9-13,44.6c12.3-10.9,3.2-53-18.5-52.6C149.9,76.1,190.9,74.4,192.5,83.9z"/>
			<path class="cat27" d="M94.2,112.4c-2.9,11.4-8.3,16.2-13,14.5c-4.5-9.4-4.1-18.3-2.3-27.2C78.9,99.7,79.7,107.8,94.2,112.4z"/>
			<path class="cat27" d="M91.9,83.4c1.5,3.1,1.9,4.9,2.3,6.6c-8.9-3.9-5.9,7-12.3,0.8C81.9,90.8,83.6,86.6,91.9,83.4z"/>
			<ellipse class="cat1" cx="79.9" cy="99.7" rx="6.9" ry="15.3"/>
			<path class="cat17" d="M73,99.7c0,7.7,4.6,20.7,10.9,11.7c-7.6,3.1-6.9-28.7-0.9-24.6C78.8,81.8,71.6,88.4,73,99.7z"/>
			<path class="cat2" d="M78.6,103.5l-6.4,0.1c-0.2-1.4-0.2-3.2-0.2-5.2l6.3,0.1C78.3,99.9,78.4,101.7,78.6,103.5z"/>
			<polygon class="cat26" points="78.3,97.4 72.1,97.4 72.2,96.2 78.4,96.3 			"/>
			<path class="cat11" d="M147,46.6c-20.2,0.3-25.5,4.5-25.5,4.5s-3.5-1.3-1.9-6.6C130,44.2,139.6,44.5,147,46.6z"/>
		</g>
	</g>
</g>
<g id="cat3" class="cat24">
	<g class="cat18">
		<g>
			<path class="cat13" d="M33.7,90.3c1.5,5.8,9.5,7.4,9.8,12.4c0.5,6.6,11.4,3.9,20.7,5.1c11.1-1.3,16.3,5.5,12.7,7
				c2.3,3.5-7.4,11.2-20.9,9.9c-14.5,0.8-32.3-7.3-35.4-13.8c-2.2-4.6-9.6-8.7-11.1-14.6C8.7,93,1.2,76.7,0.8,73.5
				c-1.1-7.2,7.1-27.2,7.9-32.3C8.5,31,35.8,20.9,40.6,26.1c5.3-0.9,6.5,12.2,7,17.1c3.2,4.1-16.1,25.4-13.6,32.2
				C35.1,78.3,32.9,87.1,33.7,90.3z"/>
			<path class="cat21" d="M48,37.5c2.3,8.7-6.1,29.9-15.4,32.2c-9.3,2.4-27.4-0.5-29.7-9.2c-1.1-4.4,0-10.1,2.3-13.7
				s10.1-16.4,14.7-17.6C24.6,28,34,23,37.8,25.1S46.8,33.1,48,37.5z"/>
			<g>
				<g>
					<path class="cat7" d="M29.7,67.2c5.8-8,10.5-19.3,6.8-29.2c-3.2-8.6-11.8-10.2-19.9-8.1c-1.6,0.4-0.9,2.8,0.7,2.4
						c8.1-2.1,15.9,0.1,17.6,9.1c1.7,8.7-2.4,17.6-7.4,24.5C26.6,67.2,28.7,68.5,29.7,67.2L29.7,67.2z"/>
				</g>
			</g>
			<g>
				<g>
					<path class="cat7" d="M16.8,67.9c7.4-3.6,9.6-15.9,7-23c-1.1-3-2.9-4.5-6.1-4.8c-2.6-0.2-8.8-0.8-10.7,1.5c-1,1.2,0.7,3,1.8,1.8
						c1.2-1.4,6.8-0.9,8.5-0.8c3.5,0.3,4.4,2.9,4.8,6.1c0.6,5.7-0.9,14.3-6.6,17C14.1,66.4,15.4,68.6,16.8,67.9L16.8,67.9z"/>
				</g>
			</g>
			<path class="cat23" d="M41.9,122.6c-6.2,1.5,14.6,2.9,23.3,0.6c14.4-1.6,19.8-12.6,14.5-18.3C66.9,102.8,50.7,120.5,41.9,122.6z"
				/>
			<path class="cat25" d="M15,90.6c0.9,3.4,15.3,6,20.6,4.6c-3.3,0.7-3.3-21.3-0.8-21.8C29.4,74.8,14.1,87.2,15,90.6z"/>
			<path class="cat8" d="M43.5,32.8c1.7,3,2.4,8.6,0.4,9.7s-11.7-13.1-9.8-14.2S41.8,29.8,43.5,32.8z"/>
			<g>
				<g>
					<g>
						<path d="M85.8,102.3c-2.2-2.6-6.3-3.1-9.5-3c-1,0-2.2,0.8-2.4,1.8c-0.7,3.9-11.2,4.5-14.1,4.5c-4.3-0.1-8.5-1.2-12.3-3.3
							C40.4,98.3,34.4,90.7,35,82.2c0.6-8.9,7.2-16.9,10.7-24.9c2.8-6.3,5.3-13.5,4.7-20.5c-1.3-15-18.2-17.5-29.5-11.7
							C7.1,32.3,1.5,48.7-0.8,63.2C-1,64.4-0.5,66.1,1,66.3c11.7,1.8,23.4,3.6,35.1,5.4c0-1.6,0-3.2,0-4.8
							c-5.5,1.8-12.4,0.7-17.9-0.2c-3-0.5-6.1-1.1-9-1.9c-1.3-0.4-4.6-0.9-5.4-2.1c-1.4-2.3-4.4-1.1-4.7,1.3
							C-2.5,77.2,2.2,88.7,8.7,100c6.1,10.5,16.1,19.3,27.3,24.3c11,4.9,23.3,3.4,34.5,0.3c4.5-1.2,8.8-3.2,11.6-7
							c2.6-3.6,5.1-9.6,4.3-14.1c-0.5-3.2-5.3-1.8-4.8,1.3c0.6,3.9-3.2,10.4-6.2,12.4c-3.6,2.4-8.5,3.2-12.7,4
							c-11.2,2.2-21.1,1.4-30.8-4.8c-17-10.9-30.4-31.7-27.8-52.5c-1.6,0.4-3.1,0.8-4.7,1.3c2.8,4.5,11.6,5.4,16.2,6.2
							c6.8,1.2,15,2.6,21.7,0.4c2.1-0.7,2.6-4.4,0-4.8C25.7,65.1,14,63.3,2.3,61.5c0.6,1,1.2,2.1,1.7,3.1
							c2.4-15.5,10.6-39,30.3-37.5c24.1,1.8,2.7,34.8-1.7,45.1c-5.6,13-0.9,26.2,11,33.6c5.8,3.6,12.7,5.3,19.4,4.7
							c4.8-0.4,14.5-2.1,15.6-8c-0.8,0.6-1.6,1.2-2.4,1.8c1.8,0,4.7,0,6,1.6C84.4,108.3,87.9,104.8,85.8,102.3z"/>
					</g>
				</g>
				<g>
					<g>
						<path d="M73.7,100.8c0,0.1-0.1,0.3-0.1,0.4c-0.2,0.8-0.1,1.5,0.4,2.2c0.5,0.6,1.2,1,2,1c0.1,0,0.1,0,0.2,0
							c1.7-0.1,2.8-1.5,2.4-3.2c-0.1-0.3-0.2-0.7-0.4-1c-0.2-0.5-1-1-1.5-1.1c-0.6-0.2-1.4-0.1-1.9,0.3
							C74.3,99.6,73.9,100.1,73.7,100.8c-0.2,0.7,0,1.3,0.3,1.9c-0.2-0.4-0.2-0.5-0.1-0.2c0.8-1.1,1.6-2.1,2.4-3.2
							c-0.1,0-0.1,0-0.2,0c0.8,1.1,1.6,2.1,2.4,3.2c0-0.1,0.1-0.3,0.1-0.4c0.3-1.3-0.4-2.8-1.7-3.1C75.6,98.7,74,99.4,73.7,100.8z"
							/>
					</g>
				</g>
			</g>
			<rect class="cat16" width="201" height="148"/>
			<ellipse class="cat20" cx="184.3" cy="95.8" rx="13.9" ry="27.4"/>
			<path class="cat15" d="M196.6,100.1l-12.5,7.7l1.9-9.4l9.8-12.8C196.5,89.5,197,94.6,196.6,100.1z"/>
			<path class="cat3" d="M189.5,120.6l-9,4.3l1.9-9.4l13.7-5.1C196.9,114.2,193.8,119.5,189.5,120.6z"/>
			<path class="cat4" d="M73.3,102.4c0,20,27.9,41.4,58.7,41.4s58.7-23.1,58.7-43.2c0-11,2.4-29.2-9.5-35.8
				c-5.7-3.2-11.5-41.7-18.9-43.2c-4.3-0.9-9.1-9.6-13.8-9.8c-1,0-2.9,31.9-3.8,31.9c-4.5,0-17.9-1-22.1-0.3
				c-5.2,0.8-6.9-32.8-11.4-31.1c-10.7,0.2-30,49.8-30.7,56C73.6,74.2,73.3,94.3,73.3,102.4z"/>
			<path class="cat12" d="M167.6,136.4c-31.1,24-99.2,1.8-87.2-32C70,75.9,148.8,64.9,187.6,76.6C198.9,78.5,192.8,125.1,167.6,136.4
				z"/>
			<path class="cat28" d="M166.6,69c13.2,2.2,15.6,9.6,24.6,23.4c-2.4-6.9,0.8-8.1-9.6-26.5c-5.9-24.9-25.1-56.4-30.2-55
				c-1.4,0.4-6.6,3-5.5,6.3C157.9,8.4,168.7,47.4,166.6,69z"/>
			<path class="cat6" d="M119.2,33.3c0,4.2-9.4-17-14.3-17c-4.9,0,4-3.9,8.9-3.9C116.1,16,119.2,29.2,119.2,33.3z"/>
			<path class="cat9" d="M170.2,53.7c2.2,4-14.7-4.6-16.7-7.5c-1.9-9.3-1.5-24.2,0.5-24.6C156.1,21.1,168.3,44.4,170.2,53.7z"/>
			<g>
				<g>
					<path d="M184.1,66c-0.5-4.9-3-10.1-4.7-14.7c-3.3-9.1-7.1-18.1-12-26.5c-3.7-6.3-9-14.5-16.5-16.7c-11.9-3.5-7.3,30.8-7,36.1
						c1.1-0.8,2.1-1.6,3.2-2.4c-8.9-1.8-17.7-2-26.7-0.7c1,0.6,2.1,1.2,3.1,1.7c-0.9-5.9-2.1-11.7-3.5-17.5
						c-1.2-5.1-2.3-10.8-4.7-15.5c-0.4-0.7-1.3-1.3-2.2-1.2C106,9,101.2,15.9,97.7,21.3c-5.2,8.3-9,17.7-12.3,26.9
						c-1.5,4.3-2.7,8.6-4,12.9c-1.6,5.3-5.9,9.7-8.1,15c-4.1,10.2-4.7,21.8-1.3,32.3c13.7,43.1,74.7,51.2,105.4,22.1
						c18.4-17.5,21.3-45.1,6.2-65.7c-1.9-2.6-6.2-0.1-4.3,2.5c12.6,17.2,12.1,39.8-1.9,56c-13,15-33.7,21.4-53.1,19.3
						c-18.8-2-37.4-12.8-45.5-30.3c-4.2-8.9-5.2-19.2-2.7-28.8c1.4-5.5,3.9-10.6,7.2-15.2c2.5-3.5,3.1-6.8,4.3-10.8
						c2.8-9.4,6.3-18.7,10.8-27.4c2.6-5.1,7.7-16.1,14.5-16.4c-0.7-0.4-1.4-0.8-2.2-1.2c2.5,4.8,3.5,10.9,4.7,16.1
						c1.2,5.2,2.2,10.4,3,15.7c0.2,1.4,1.9,1.9,3.1,1.7c8-1.2,16.1-0.9,24,0.7c1.5,0.3,3.3-0.7,3.2-2.4c-0.4-7.6-0.8-15.2-0.8-22.8
						c0-2,0-4.1,0.6-6.1c0.3-0.8,0.7-1.7,1-2.5c-1-0.1-1.1-0.1-0.2,0.1c1.2,0.2,2.6,1.3,3.5,2c6,4.5,9.9,11.9,13.3,18.4
						c3.6,7,6.5,14.3,9.1,21.7c0.9,2.7,1.8,5.3,2.7,8c0.2,0.8,0.5,1.6,0.7,2.4c0.1,0.3,0.3,1.7,0.2,0.4
						C179.4,69.2,184.4,69.2,184.1,66z"/>
				</g>
			</g>
			<g>
				<g>
					<path d="M150.1,121.2c0.1-0.1,0.1-0.2,0.2-0.4c-0.7,0.4-1.4,0.8-2.2,1.2c0.1,0,0.3,0,0.4,0c-0.7-1.3-1.4-2.5-2.2-3.8
						c-3,6.9-8,12.5-14.7,16.1c-2.8,1.5-0.3,5.9,2.5,4.3c7.3-4,13.1-10.2,16.5-17.9c0.7-1.5-0.1-4-2.2-3.8c-1.2,0.1-2.2,0.4-2.7,1.6
						C144.4,121.6,148.7,124.1,150.1,121.2L150.1,121.2z"/>
				</g>
			</g>
			<g>
				<g>
					<path d="M147.7,122.3c1.1,5.5,6.3,10.5,12.2,8.2c3-1.1,1.7-6-1.3-4.8c-3.4,1.3-5.4-1.8-6-4.8
						C151.8,117.9,147,119.2,147.7,122.3L147.7,122.3z"/>
				</g>
			</g>
			<g>
				<path d="M149.9,119.3c1.5-1.2,2.6-3.5,3.3-5c-0.4-0.6-7,0.2-8.6,1.2C145.3,116.5,148.2,118.7,149.9,119.3"/>
				<g>
					<path class="cat10" d="M151.7,121.1c1.7-1.5,2.7-3.5,3.7-5.5c0.5-1,0.5-2.2-0.4-3c-1.4-1.3-3.7-1-5.4-0.8
						c-2.1,0.2-4.4,0.5-6.2,1.6c-1.5,0.9-1.5,2.7-0.5,3.9c1.6,2,4.1,3.5,6.4,4.4c1.3,0.5,2.7-0.6,3.1-1.7c0.4-1.4-0.5-2.6-1.7-3.1
						c-1.5-0.6-3.2-1.9-4.2-3.1c-0.2,1.3-0.3,2.6-0.5,3.9c0.8-0.5,2.4-0.8,3.6-0.9c0.6-0.1,1.2-0.1,1.9-0.2c0.3,0,0.6,0,0.9,0
						c0.1,0,0.2,0,0.4,0c-0.4,0-0.8-0.2-1.1-0.5c-0.1-1-0.3-2-0.4-3c-0.8,1.6-1.6,3.3-2.9,4.5C145.8,119.7,149.3,123.3,151.7,121.1
						L151.7,121.1z"/>
				</g>
			</g>
			<circle class="cat22" cx="131.6" cy="118.2" r="2"/>
			<circle class="cat22" cx="163.9" cy="113.8" r="2"/>
			<circle class="cat22" cx="168.7" cy="120.7" r="2"/>
			<circle class="cat22" cx="167.6" cy="127" r="2"/>
			<circle class="cat22" cx="123.5" cy="123.6" r="2"/>
			<circle class="cat22" cx="120.6" cy="134.3" r="2"/>
			<path class="cat14" d="M146.3,72.5c1.1-0.4,2.4,13.4-0.6,17.5c-3,4.1-11.7-16.7-12.9-16.8C131.6,73,146.2,72.4,146.3,72.5z"/>
			<path class="cat14" d="M130.3,73.3c0.6-0.2,1.4,7.2-0.2,9.4c-1.6,2.2-5.9-8.8-6.6-8.6L130.3,73.3z"/>
			<path class="cat14" d="M155.8,72.6c0.6,0.3,1.3,6.9-0.3,9.1c-1.6,2.2-6.6-9.1-7.1-9.2C151.2,72.5,155.3,72.5,155.8,72.6z"/>
			<g>
				<g>
					<path d="M106.8,112c0.1-3.9,1-7.9,2-11.8c1-4.1,2-9.4,4.6-12.9c1.1-1.5,0.9-1,2.1,0.7c1.5,2,2.6,4.8,3.5,7.1
						c1.6,4.1,2.9,8.4,3.7,12.7c0.6,3.2,5.4,1.8,4.8-1.3c-1-5.3-6.3-29.2-15.5-24.7c-4.1,2-5.7,8.8-6.9,12.6
						c-1.7,5.6-3.3,11.6-3.3,17.5C101.7,115.3,106.7,115.3,106.8,112L106.8,112z"/>
				</g>
			</g>
			<g>
				<g>
					<path d="M179.3,107.2c-0.9-5.7-3.1-11.4-5.3-16.8c-1.4-3.4-3.5-10.4-7.7-11.6c-8.8-2.6-8.9,22.1-8.8,26.7c0,3.2,5,3.2,5,0
						c0-4.5,0.3-9,1-13.5c0.4-2.3,0.7-4.8,1.6-6.9c0.2-0.6,0.7-1.2,0.9-1.8c-1.2-0.2-1.6,0-1,0.5c0.2,0.2,0.4,0.5,0.6,0.8
						c1.5,4.2,4.1,8.1,5.5,12.4c1.3,3.7,2.6,7.6,3.3,11.5C175,111.7,179.8,110.3,179.3,107.2L179.3,107.2z"/>
				</g>
			</g>
			<path class="cat5" d="M143.8,146c-22.4,5.3-61.9-10.4-68-33c-4.9-12.8-8-28.5,10.1-51.5C62.6,106.9,113.1,146.4,143.8,146z"/>
			<path class="cat29" d="M166.7,141c-28.7,10.9-70.7,6.6-83.7-17c-10.8-19.6,2.7-38.5,2.7-38.5c14-16.2,91.6-18.7,107.2-7.1
				C205.1,121.7,180.5,135.3,166.7,141z"/>
			<ellipse class="cat0" cx="83" cy="101.3" rx="13.9" ry="27.4"/>
			<path class="cat9" d="M94.4,55.9c-0.3,6.7,21.3-6.1,21.8-11.5c0-9.5-4.9-24-7.9-24C105.2,20.5,94.4,46.5,94.4,55.9z"/>
			
				<ellipse transform="matrix(0.9858 -0.1677 0.1677 0.9858 -16.9804 26.9795)" class="cat19" cx="151.3" cy="114" rx="2.8" ry="1.3"/>
			<path class="cat27" d="M192.5,83.9c3.1,37.1-16,49.9-13,44.6c12.3-10.9,3.2-53-18.5-52.6C149.9,76.1,190.9,74.4,192.5,83.9z"/>
			<path class="cat27" d="M94.2,112.4c-2.9,11.4-8.3,16.2-13,14.5c-4.5-9.4-4.1-18.3-2.3-27.2C78.9,99.7,79.7,107.8,94.2,112.4z"/>
			<path class="cat27" d="M91.9,83.4c1.5,3.1,1.9,4.9,2.3,6.6c-8.9-3.9-5.9,7-12.3,0.8C81.9,90.8,83.6,86.6,91.9,83.4z"/>
			<ellipse class="cat1" cx="79.9" cy="99.7" rx="6.9" ry="15.3"/>
			<path class="cat17" d="M73,99.7c0,7.7,4.6,20.7,10.9,11.7c-7.6,3.1-6.9-28.7-0.9-24.6C78.8,81.8,71.6,88.4,73,99.7z"/>
			<path class="cat2" d="M78.6,103.5l-6.4,0.1c-0.2-1.4-0.2-3.2-0.2-5.2l6.3,0.1C78.3,99.9,78.4,101.7,78.6,103.5z"/>
			<polygon class="cat26" points="78.3,97.4 72.1,97.4 72.2,96.2 78.4,96.3 			"/>
			<path class="cat11" d="M147,46.6c-20.2,0.3-25.5,4.5-25.5,4.5s-3.5-1.3-1.9-6.6C130,44.2,139.6,44.5,147,46.6z"/>
		</g>
	</g>
</g>
<g id="cat2" class="cat24">
	<g class="cat18">
		<g>
			<path class="cat13" d="M36,85.8c0.9,5.9,8.6,8.3,8.4,13.4c-0.2,6.6,10.9,5.1,20,7.3c11.2-0.1,15.6,7.2,11.9,8.4
				c2,3.7-8.5,10.4-21.9,7.6c-14.5-0.8-31.4-10.8-33.7-17.5c-1.7-4.9-8.6-9.7-9.5-15.7C10.8,85.8,5.1,68.8,5,65.6
				c-0.3-7.3,9.9-26.3,11.3-31.2C17.3,24.1,45.5,17,49.7,22.7c5.4-0.3,5.2,12.8,5.2,17.7c2.7,4.4-18.8,23.5-17,30.6
				C38.6,74,35.5,82.5,36,85.8z"/>
			<path class="cat21" d="M55.8,34.8c1.3,8.9-9.3,29-18.7,30.4c-9.5,1.4-27.2-3.4-28.5-12.4c-0.6-4.5,1-10,3.7-13.4
				c2.7-3.4,11.8-15.2,16.5-15.9c4.7-0.7,14.7-4.6,18.2-2.1C50.6,23.9,55.2,30.3,55.8,34.8z"/>
			<g>
				<g>
					<path class="cat7" d="M34.3,62.5c6.6-7.3,12.5-17.9,10.1-28.1c-2.1-9.2-10.7-11.8-19.2-10.5c-1.6,0.2-0.9,2.6,0.7,2.4
						c8.3-1.3,15.8,2.1,16.4,11.3c0.6,8.6-4.2,17-9.8,23.1C31.5,62,33.2,63.7,34.3,62.5L34.3,62.5z"/>
				</g>
			</g>
			<g>
				<g>
					<path class="cat7" d="M21.4,61.8c7.8-2.8,11.3-14.4,9.7-21.9c-0.7-3.4-2.5-5.1-5.8-5.7c-2.6-0.5-8.4-1.7-10.6,0.5
						c-1.2,1.1,0.6,2.9,1.8,1.8c1.2-1.2,6.4-0.1,7.9,0.1c3.4,0.5,4.4,2.5,4.6,5.9c0.3,5.8-2.1,14.8-8.2,17
						C19.3,59.9,19.9,62.3,21.4,61.8L21.4,61.8z"/>
				</g>
			</g>
			<path class="cat23" d="M40.7,118.8c-6.3,0.8,14.2,4.4,23.1,3.1c14.5,0,21.1-10.4,16.4-16.6C67.6,101.8,49.6,117.6,40.7,118.8z"/>
			<path class="cat25" d="M17.3,84.1c0.5,3.5,14.5,7.6,20,6.8c-3.4,0.3-1-21.5,1.5-21.7C33.4,69.9,16.8,80.6,17.3,84.1z"/>
			<path class="cat8" d="M51.9,29.7c1.4,3.2,1.5,8.8-0.6,9.7c-2.1,0.9-10.2-14.3-8.2-15.2C45.2,23.3,50.5,26.5,51.9,29.7z"/>
			<g>
				<g>
					<g>
						<path d="M86.7,103.7c-2.1-3.1-6.1-4-9.6-4.4c-1.1-0.1-2.1,0.9-2.4,1.8c-0.6,1.9-6.6,2.6-8,2.8c-2.5,0.3-5.1,0.2-7.6-0.3
							c-3.9-0.7-7.6-2.3-10.8-4.6c-7.5-5.4-12.4-14.8-9.3-24c2.8-8.2,9.4-14.9,13.6-22.5c3.3-6,6.3-13,5.8-20
							c-1-14.8-18.6-17.4-29.7-12.2C15,26.7,8.2,41.7,4.5,55.4c-0.3,1.3,0.4,2.7,1.7,3.1c11.4,3.1,22.9,6.1,34.3,9.2
							c0-1.6,0-3.2,0-4.8c-5.7,1.2-12.4-0.8-17.8-2.3c-3.2-0.9-12.1-2.4-13.7-5.8c-0.9-1.9-4.1-1.4-4.6,0.6
							c-5.7,24,8.6,50.9,28.9,63.7c10.4,6.6,22.5,6.5,34.3,4.8c4.9-0.7,9.7-1.9,13.3-5.6c2.9-3.1,6.3-9.1,6.1-13.5
							c-0.2-3.2-5.2-3.2-5,0c0.2,4.3-4.1,10.4-7.7,12.2c-4.2,2.2-9.6,2.3-14.2,2.6c-11,0.8-20.5-1.4-29.1-8.5
							C15.7,98.6,4.6,76.8,9.3,56.8c-1.5,0.2-3,0.4-4.6,0.6C7,62,16,63.8,20.3,65.1C27,67,35,69.2,41.9,67.7c2.5-0.5,2.3-4.2,0-4.8
							C30.5,59.8,19,56.7,7.6,53.7c0.6,1,1.2,2.1,1.7,3.1c4-14.9,14-36,32.8-33.9c25.1,2.8,1.3,33.8-4.6,43.6
							c-7.6,12.6-4.9,26.9,6.9,36c5.4,4.2,12,6.5,18.9,6.6c5.1,0.1,14.5-0.7,16.2-6.6c-0.8,0.6-1.6,1.2-2.4,1.8
							c1.2,0.1,4.4,0.6,5.3,1.9C84.2,108.8,88.5,106.3,86.7,103.7z"/>
					</g>
				</g>
				<g>
					<g>
						<path d="M74.6,100.7c0,0.1-0.1,0.3-0.1,0.4c-0.5,1.6,0.9,3.1,2.4,3.2c0.1,0,0.1,0,0.2,0c1.2,0.1,2.7-1.2,2.5-2.5
							c0-0.4-0.1-0.7-0.2-1.1c-0.4-1.2-1.8-2.2-3.1-1.7c-1.3,0.4-2.2,1.7-1.7,3.1c0.1,0.3,0.1,0.2,0-0.3c0.8-0.8,1.7-1.7,2.5-2.5
							c-0.1,0-0.1,0-0.2,0c0.8,1.1,1.6,2.1,2.4,3.2c0-0.1,0.1-0.3,0.1-0.4c0.4-1.2-0.5-2.8-1.7-3.1C76.3,98.7,75,99.4,74.6,100.7z"
							/>
					</g>
				</g>
			</g>
			<ellipse class="cat20" cx="184.3" cy="95.8" rx="13.9" ry="27.4"/>
			<path class="cat15" d="M196.6,100.1l-12.5,7.7l1.9-9.4l9.8-12.8C196.5,89.5,197,94.6,196.6,100.1z"/>
			<path class="cat3" d="M189.5,120.6l-9,4.3l1.9-9.4l13.7-5.1C196.9,114.2,193.8,119.5,189.5,120.6z"/>
			<path class="cat4" d="M73.3,102.4c0,20,27.9,41.4,58.7,41.4s58.7-23.1,58.7-43.2c0-11,2.4-29.2-9.5-35.8
				c-5.7-3.2-11.5-41.7-18.9-43.2c-4.3-0.9-9.1-9.6-13.8-9.8c-1,0-2.9,31.9-3.8,31.9c-4.5,0-17.9-1-22.1-0.3
				c-5.2,0.8-6.9-32.8-11.4-31.1c-10.7,0.2-30,49.8-30.7,56C73.6,74.2,73.3,94.3,73.3,102.4z"/>
			<path class="cat12" d="M167.6,136.4c-31.1,24-99.2,1.8-87.2-32C70,75.9,148.8,64.9,187.6,76.6C198.9,78.5,192.8,125.1,167.6,136.4
				z"/>
			<path class="cat28" d="M166.6,69c13.2,2.2,15.6,9.6,24.6,23.4c-2.4-6.9,0.8-8.1-9.6-26.5c-5.9-24.9-25.1-56.4-30.2-55
				c-1.4,0.4-6.6,3-5.5,6.3C157.9,8.4,168.7,47.4,166.6,69z"/>
			<path class="cat6" d="M119.2,33.3c0,4.2-9.4-17-14.3-17c-4.9,0,4-3.9,8.9-3.9C116.1,16,119.2,29.2,119.2,33.3z"/>
			<path class="cat9" d="M170.2,53.7c2.2,4-14.7-4.6-16.7-7.5c-1.9-9.3-1.5-24.2,0.5-24.6C156.1,21.1,168.3,44.4,170.2,53.7z"/>
			<g>
				<g>
					<path d="M184.1,66c-0.5-4.9-3-10.1-4.7-14.7c-3.3-9.1-7.1-18.1-12-26.5c-3.7-6.3-9-14.5-16.5-16.7c-11.9-3.5-7.3,30.8-7,36.1
						c1.1-0.8,2.1-1.6,3.2-2.4c-8.9-1.8-17.7-2-26.7-0.7c1,0.6,2.1,1.2,3.1,1.7c-0.9-5.9-2.1-11.7-3.5-17.5
						c-1.2-5.1-2.3-10.8-4.7-15.5c-0.4-0.7-1.3-1.3-2.2-1.2C106,9,101.2,15.9,97.7,21.3c-5.2,8.3-9,17.7-12.3,26.9
						c-1.5,4.3-2.7,8.6-4,12.9c-1.6,5.3-5.9,9.7-8.1,15c-4.1,10.2-4.7,21.8-1.3,32.3c13.7,43.1,74.7,51.2,105.4,22.1
						c18.4-17.5,21.3-45.1,6.2-65.7c-1.9-2.6-6.2-0.1-4.3,2.5c12.6,17.2,12.1,39.8-1.9,56c-13,15-33.7,21.4-53.1,19.3
						c-18.8-2-37.4-12.8-45.5-30.3c-4.2-8.9-5.2-19.2-2.7-28.8c1.4-5.5,3.9-10.6,7.2-15.2c2.5-3.5,3.1-6.8,4.3-10.8
						c2.8-9.4,6.3-18.7,10.8-27.4c2.6-5.1,7.7-16.1,14.5-16.4c-0.7-0.4-1.4-0.8-2.2-1.2c2.5,4.8,3.5,10.9,4.7,16.1
						c1.2,5.2,2.2,10.4,3,15.7c0.2,1.4,1.9,1.9,3.1,1.7c8-1.2,16.1-0.9,24,0.7c1.5,0.3,3.3-0.7,3.2-2.4c-0.4-7.6-0.8-15.2-0.8-22.8
						c0-2,0-4.1,0.6-6.1c0.3-0.8,0.7-1.7,1-2.5c-1-0.1-1.1-0.1-0.2,0.1c1.2,0.2,2.6,1.3,3.5,2c6,4.5,9.9,11.9,13.3,18.4
						c3.6,7,6.5,14.3,9.1,21.7c0.9,2.7,1.8,5.3,2.7,8c0.2,0.8,0.5,1.6,0.7,2.4c0.1,0.3,0.3,1.7,0.2,0.4
						C179.4,69.2,184.4,69.2,184.1,66z"/>
				</g>
			</g>
			<g>
				<g>
					<path d="M150.1,121.2c0.1-0.1,0.1-0.2,0.2-0.4c-0.7,0.4-1.4,0.8-2.2,1.2c0.1,0,0.3,0,0.4,0c-0.7-1.3-1.4-2.5-2.2-3.8
						c-3,6.9-8,12.5-14.7,16.1c-2.8,1.5-0.3,5.9,2.5,4.3c7.3-4,13.1-10.2,16.5-17.9c0.7-1.5-0.1-4-2.2-3.8c-1.2,0.1-2.2,0.4-2.7,1.6
						C144.4,121.6,148.7,124.1,150.1,121.2L150.1,121.2z"/>
				</g>
			</g>
			<g>
				<g>
					<path d="M147.7,122.3c1.1,5.5,6.3,10.5,12.2,8.2c3-1.1,1.7-6-1.3-4.8c-3.4,1.3-5.4-1.8-6-4.8
						C151.8,117.9,147,119.2,147.7,122.3L147.7,122.3z"/>
				</g>
			</g>
			<g>
				<path d="M149.9,119.3c1.5-1.2,2.6-3.5,3.3-5c-0.4-0.6-7,0.2-8.6,1.2C145.3,116.5,148.2,118.7,149.9,119.3"/>
				<g>
					<path class="cat10" d="M151.7,121.1c1.7-1.5,2.7-3.5,3.7-5.5c0.5-1,0.5-2.2-0.4-3c-1.4-1.3-3.7-1-5.4-0.8
						c-2.1,0.2-4.4,0.5-6.2,1.6c-1.5,0.9-1.5,2.7-0.5,3.9c1.6,2,4.1,3.5,6.4,4.4c1.3,0.5,2.7-0.6,3.1-1.7c0.4-1.4-0.5-2.6-1.7-3.1
						c-1.5-0.6-3.2-1.9-4.2-3.1c-0.2,1.3-0.3,2.6-0.5,3.9c0.8-0.5,2.4-0.8,3.6-0.9c0.6-0.1,1.2-0.1,1.9-0.2c0.3,0,0.6,0,0.9,0
						c0.1,0,0.2,0,0.4,0c-0.4,0-0.8-0.2-1.1-0.5c-0.1-1-0.3-2-0.4-3c-0.8,1.6-1.6,3.3-2.9,4.5C145.8,119.7,149.3,123.3,151.7,121.1
						L151.7,121.1z"/>
				</g>
			</g>
			<circle class="cat22" cx="131.6" cy="118.2" r="2"/>
			<circle class="cat22" cx="163.9" cy="113.8" r="2"/>
			<circle class="cat22" cx="168.7" cy="120.7" r="2"/>
			<circle class="cat22" cx="167.6" cy="127" r="2"/>
			<circle class="cat22" cx="123.5" cy="123.6" r="2"/>
			<circle class="cat22" cx="120.6" cy="134.3" r="2"/>
			<path class="cat14" d="M146.3,72.5c1.1-0.4,2.4,13.4-0.6,17.5c-3,4.1-11.7-16.7-12.9-16.8C131.6,73,146.2,72.4,146.3,72.5z"/>
			<path class="cat14" d="M130.3,73.3c0.6-0.2,1.4,7.2-0.2,9.4c-1.6,2.2-5.9-8.8-6.6-8.6L130.3,73.3z"/>
			<path class="cat14" d="M155.8,72.6c0.6,0.3,1.3,6.9-0.3,9.1c-1.6,2.2-6.6-9.1-7.1-9.2C151.2,72.5,155.3,72.5,155.8,72.6z"/>
			<g>
				<g>
					<path d="M106.8,112c0.1-3.9,1-7.9,2-11.8c1-4.1,2-9.4,4.6-12.9c1.1-1.5,0.9-1,2.1,0.7c1.5,2,2.6,4.8,3.5,7.1
						c1.6,4.1,2.9,8.4,3.7,12.7c0.6,3.2,5.4,1.8,4.8-1.3c-1-5.3-6.3-29.2-15.5-24.7c-4.1,2-5.7,8.8-6.9,12.6
						c-1.7,5.6-3.3,11.6-3.3,17.5C101.7,115.3,106.7,115.3,106.8,112L106.8,112z"/>
				</g>
			</g>
			<g>
				<g>
					<path d="M179.3,107.2c-0.9-5.7-3.1-11.4-5.3-16.8c-1.4-3.4-3.5-10.4-7.7-11.6c-8.8-2.6-8.9,22.1-8.8,26.7c0,3.2,5,3.2,5,0
						c0-4.5,0.3-9,1-13.5c0.4-2.3,0.7-4.8,1.6-6.9c0.2-0.6,0.7-1.2,0.9-1.8c-1.2-0.2-1.6,0-1,0.5c0.2,0.2,0.4,0.5,0.6,0.8
						c1.5,4.2,4.1,8.1,5.5,12.4c1.3,3.7,2.6,7.6,3.3,11.5C175,111.7,179.8,110.3,179.3,107.2L179.3,107.2z"/>
				</g>
			</g>
			<path class="cat5" d="M143.8,146c-22.4,5.3-61.9-10.4-68-33c-4.9-12.8-8-28.5,10.1-51.5C62.6,106.9,113.1,146.4,143.8,146z"/>
			<path class="cat29" d="M166.7,141c-28.7,10.9-70.7,6.6-83.7-17c-10.8-19.6,2.7-38.5,2.7-38.5c14-16.2,91.6-18.7,107.2-7.1
				C205.1,121.7,180.5,135.3,166.7,141z"/>
			<ellipse class="cat0" cx="83" cy="101.3" rx="13.9" ry="27.4"/>
			<path class="cat9" d="M94.4,55.9c-0.3,6.7,21.3-6.1,21.8-11.5c0-9.5-4.9-24-7.9-24C105.2,20.5,94.4,46.5,94.4,55.9z"/>
			
				<ellipse transform="matrix(0.9858 -0.1677 0.1677 0.9858 -16.9804 26.9795)" class="cat19" cx="151.3" cy="114" rx="2.8" ry="1.3"/>
			<path class="cat27" d="M192.5,83.9c3.1,37.1-16,49.9-13,44.6c12.3-10.9,3.2-53-18.5-52.6C149.9,76.1,190.9,74.4,192.5,83.9z"/>
			<path class="cat27" d="M94.2,112.4c-2.9,11.4-8.3,16.2-13,14.5c-4.5-9.4-4.1-18.3-2.3-27.2C78.9,99.7,79.7,107.8,94.2,112.4z"/>
			<path class="cat27" d="M91.9,83.4c1.5,3.1,1.9,4.9,2.3,6.6c-8.9-3.9-5.9,7-12.3,0.8C81.9,90.8,83.6,86.6,91.9,83.4z"/>
			<ellipse class="cat1" cx="79.9" cy="99.7" rx="6.9" ry="15.3"/>
			<path class="cat17" d="M73,99.7c0,7.7,4.6,20.7,10.9,11.7c-7.6,3.1-6.9-28.7-0.9-24.6C78.8,81.8,71.6,88.4,73,99.7z"/>
			<path class="cat2" d="M78.6,103.5l-6.4,0.1c-0.2-1.4-0.2-3.2-0.2-5.2l6.3,0.1C78.3,99.9,78.4,101.7,78.6,103.5z"/>
			<polygon class="cat26" points="78.3,97.4 72.1,97.4 72.2,96.2 78.4,96.3 			"/>
			<path class="cat11" d="M147,46.6c-20.2,0.3-25.5,4.5-25.5,4.5s-3.5-1.3-1.9-6.6C130,44.2,139.6,44.5,147,46.6z"/>
			<rect class="cat16" width="201" height="148"/>
		</g>
	</g>
</g>
<g id="cat1">
	
		<use xlink:href="#cat1_1_"  width="263.1" height="140.3" x="-131.6" y="-70.1" transform="matrix(1 0 0 -1 141.1104 78.0869)" style="overflow:visible;"/>
</g>
</svg>
