<?xml version="1.0" encoding="utf-8"?>
<!-- Generator: Adobe Illustrator 15.0.0, SVG Export Plug-In . SVG Version: 6.00 Build 0)  -->
<!DOCTYPE svg PUBLIC "-//W3C//DTD SVG 1.1//EN" "http://www.w3.org/Graphics/SVG/1.1/DTD/svg11.dtd">
<svg version="1.1" id="Layer_1" xmlns="http://www.w3.org/2000/svg" xmlns:xlink="http://www.w3.org/1999/xlink" x="0px" y="0px"
	 width="600px" height="600px" viewBox="0 0 600 600" style="enable-background:new 0 0 600 600;" xml:space="preserve">
<style type="text/css">
<![CDATA[
	.st0{fill:#24469D;stroke:#0B1E64;stroke-width:10;stroke-miterlimit:10;}
	.st1{fill:#FCFCFB;stroke:#FEFEFD;stroke-miterlimit:10;}
	.st2{fill:#FCFCFB;}
	.st3{fill:#62BA54;}
	.st4{fill:#71C15F;}
]]>
</style>
<circle class="st0" cx="300" cy="300" r="295"/>
<path class="st3" d="M469.9,85.3c0.6-5.2,5.2-9.8,7-10.7c62.4,36.3,114.9,153.6,110,218.2c-6.1,3-7.9-8.6-27.4-16.2
	c-9.8-3.8-22.4-8.6-30.7-3.2c-8.4,5.5-4,16-11.3,26.6c-8.2,11.9-23.8,13.6-47.6,16.1c-21.7,2.3-42.6,4.6-67-3.2
	c-8.6-2.8-16.5-6.4-19.4-3.2c-3.5,3.9,2.4,16.4,9.7,25c15.9,18.8,35.1,15.4,41.2,31.5c1.8,4.7,3.1,12.7-0.8,16.9
	c-3.9,4.3-9.7,1.3-13.7,5.6c-4.4,4.8,0.5,10.9-2.4,20.2c-3.2,10.2-13.8,18.1-17.8,16.1c-3.1-1.5-0.3-8.4-0.8-21
	c-0.1-3.9-1.2-24.1-13.7-42c-5.6-8-11.9-16.9-23.4-19.4c-10.9-2.3-23.5,1.6-30.7,10.5c-5.5,6.9-6.1,14.6-6.5,20.2
	c-1.4,22.6,11.8,28.8,9.7,42.8c-2.8,18-28.5,31.2-49.2,33.1c-7.9,0.7-29.9,2.8-43.6-13.7c-11-13.3-12.3-33.4-4.8-45.2
	c3.7-5.9,6.6-4.9,16.1-16.1c6.7-7.8,11-12.9,12.9-21c0.8-3.5,3.5-14.5-3.2-24.2c-4.3-6.2-12-11.3-20.2-11.3
	c-11.5-0.1-16.1,9.9-24.2,7.3c-4.5-1.5-8.5-6.4-8.1-10.5c0.6-6.2,10.2-5.8,16.1-13.7c7.3-9.7-1.6-17.8,3.2-34.7
	c4.6-16.2,17.7-26.3,20.2-28.2c9.8-7.6,14.6-6,22.6-13.7c8.8-8.5,11.3-18.4,12.9-23.4c10-30.5,50.9-64.9,88-67.8
	c17.9-1.4,21.5,5.6,42,1.6c8.4-1.6,26.7-5.4,40.4-21C460,108.3,468.3,98.9,469.9,85.3z"/>
<path class="st4" d="M17.3,235c7.2-4.7,14.2,6.8,32.7,12.9c15.4,5.1,28.6,4,38.1,3.2c20.4-1.7,35.6-8.5,41.3-11.3
	c23.2-11.3,29.8-24.2,37.4-21c7.7,3.3,10.3,20.6,7.8,34.7c-5.8,32.6-37.2,38.8-38.1,67c-0.3,9.9,3.6,8.3,7,25.8
	c1.5,7.7,9.7,49.8-10.9,73.4c-13.4,15.4-27.2,9.3-35,25.8c-4.6,9.8-3.6,19.8-12.5,26.6c-4.6,3.5-9.9,4-12.5,4.8
	C17.4,432.8,5,300,17.3,235z"/>
<path class="st4" d="M183.4,171c3.3,7.3-2.4,11.5,0,18.6c3.4,9.8,16.3,7,21,16.7c4.2,8.7-4.5,14.5-1.1,28.5
	c0.7,2.7,3.2,12.9,10.2,15.6c10.4,3.9,26.6-10,33.1-24.8c7.3-16.5,1.7-32.4,0.3-36.3c-7.5-20.1-25-28.3-29.6-30.4
	c-1.7-0.8-14.2-6.4-30.1-4.8c-1.8,0.2-13.6,1.4-14.3,5.4C172.4,162.7,180.1,163.8,183.4,171z"/>
<path class="st4" d="M161.6,172.3c0-0.2-2-0.7-2.4,0c-1,1.5,7.6,5.9,10.2,13.7c1.9,5.7,0.9,14.5-5.4,19.4c-6.5,5-16.5,4.1-21.5-1.1
	c-2.8-2.9-3.4-6.4-4-10c-0.4-2.4-2.3-13.9,3.8-19.4C148.8,169.2,161.6,172.7,161.6,172.3z"/>
<path class="st2" d="M329.9,412.2c-25.5,9.3-55.5,18.9-85.2,28.5c6.1-8.2-0.4-45.3-52.6-24.4c-52.3,21-20.8,48.3-13.1,46.3
	s20.8,11-9.7,7.5c-30.5-3.5-71.8,25.6-67.6,37.2c9,24.7,170.7,27.4,261-5.5c90.3-32.9,160.9-140.6,151.9-165.3
	C505.4,311.7,420.2,379.3,329.9,412.2z"/>
<path class="st2" d="M362.5,92c-41.7,20.4-114.2,38.6-102.2,63c12,24.5,103.9,46,145.6,25.6c41.7-20.4,51.4-114,39.5-138.5
	S404.3,71.5,362.5,92z"/>
<path class="st2" d="M281.1,104.3c-31.5-16-102.9,39.3-154.2,57c-4.7,1.6-14.5,4.7-22.6,0.2c-8.9-5-11.2-16.6-12.7-24.3
	c-1-5-3.4-18.3,3-33.1c2.6-5.8,9.6-21.8,22.2-23.9c10.6-1.8,13.2,8.2,31.7,10.9c5.3,0.8,17.2,2.3,26.5-4.4c4.2-3,5.3-6,9.8-12.9
	c5.3-8.3,12.8-20,20.7-26c15.3-11.6,43.1-9.6,49.7,1.7c4.9,8.5-5.5,16.4-0.3,26.2c5.9,11.1,26.5,14.4,41.3,9.6
	c5.1-1.6,4.8-2.7,12.2-6.4c5.7-2.8,25.6-12.5,49.8-10c12.4,1.3,26.6,2.7,29.2,10.2c6.1,17.4-51.7,66.2-83,52.8
	C289.5,125.5,294.6,111.2,281.1,104.3z"/>
<path class="st2" d="M362.4,515c-6.4,2.8-14.7,5-14.1,1.4c0.5-2.5,5.2-7.4,14-15.3c31-27.7,49-36,53.2-45.1c2.1-4.6-0.4-7-2.7-9.3
	c-5.2-5.1-13.4-0.1-13.2-4.7c0.3-6.7,26.1-15.2,28-17.1c3.5-3.3,8.3-24.6,21-28.2c3-0.9,12.7-3.6,13.5,2.7
	c0.8,6.3-7.8,17.1-5.6,18.1c2.3,1,11.7-11.3,19.6-13.8c8.6-2.7,20.7,0.1,31.3-4.6c6.5-2.9,10-5.5,38-26.2
	c32.1-23.7-4.9-68.1,0.7-68.9c8.2-1.2,36.1,24.9,32.2,32.8c-1.5,3,13.5,31.3-70.1,82.7c-12.9,7.9-0.3,46.1-8,58.9
	c-6.1,10.1-31-14.3-38.3-4.3c-7.7,10.5-20,16.8-26.7,20.1c-7.1,3.6-13.8,7-16.4,3.9c-2.3-2.7-1-9.8,3.6-16.4
	c6.6-9.4,15.1-10.7,22.2-20.6c4-5.5,6.7-12.7,4.7-14.3C444.6,443,387.3,504,362.4,515z"/>
<path class="st0" d="M571.6,280.2"/>
<path class="st1" d="M51.8,435.5c-34.2-9.7,16-2.8,25-15.3c4.2-5.8,8.9-16.3,4.8-22.6c-3.7-5.8-11.2-2.2-25-8.9
	c-5.8-2.8-13.1-6.3-16.1-13.7c-4-9.7,1.8-20,3.2-22.6c8.6-15.4,30.2-25.5,43.6-19.4c14.1,6.4,14.5,28.7,25.8,29.1
	c2.8,0.1,2.6-1.3,9.7-3.2c6.2-1.6,14.3-3.8,21-0.8c6.8,3,5.2,8.2,12.1,12.9c3.1,2.1,8,4.2,23.4,3.2c19-1.2,30.4-5.6,30.7-4.8
	C211.1,372,86,445.2,51.8,435.5z"/>
</svg>
