<?xml version="1.0" encoding="utf-8"?>
<!-- Generator: Adobe Illustrator 15.0.0, SVG Export Plug-In . SVG Version: 6.00 Build 0)  -->
<!DOCTYPE svg PUBLIC "-//W3C//DTD SVG 1.1//EN" "http://www.w3.org/Graphics/SVG/1.1/DTD/svg11.dtd">
<svg version="1.1" xmlns="http://www.w3.org/2000/svg" xmlns:xlink="http://www.w3.org/1999/xlink" x="0px" y="0px" width="201px"
	 height="148px" viewBox="0 0 201 148" style="enable-background:new 0 0 201 148;" xml:space="preserve">
<style type="text/css">
<![CDATA[
	.st0{fill:#DEF01E;stroke:#7A7426;stroke-width:3;stroke-miterlimit:10;}
	.st1{fill:#DCDE38;stroke:#696219;stroke-width:2;stroke-miterlimit:10;}
	.st2{opacity:0.33;fill:#FFFFFF;}
	.st3{opacity:0.19;fill:#3F3A37;}
	.st4{fill:#B1AEA4;}
	.st5{opacity:0.38;}
	.st6{opacity:0.38;fill:#FFFFFF;}
	.st7{fill:#8E8982;}
	.st8{opacity:0.45;fill:#FCFCFB;}
	.st9{fill:#262224;}
	.st10{fill:#F7A8D2;}
	.st11{opacity:0.38;fill:#010102;}
	.st12{fill:#C1B17E;}
	.st13{fill:#96928B;}
	.st14{fill:#2D1D09;}
	.st15{fill:#FBFDC4;}
	.st16{fill:none;}
	.st17{fill:#696219;}
	.st18{opacity:0.47;fill:#FFFFFF;}
	.st19{fill:#DEF01E;stroke:#98870B;stroke-width:6;stroke-miterlimit:10;}
	.st20{fill:#373333;}
	.st21{fill:#010102;}
	.st22{opacity:0.38;fill:#181517;}
	.st23{fill:#726E6A;}
	.st24{opacity:0.39;fill:#FCFCFB;}
	.st25{opacity:0.39;fill:#FFFFFF;}
	.st26{opacity:0.26;fill:#FFFFFF;}
	.st27{opacity:0.5;fill:#78CCD3;stroke:#23429B;stroke-width:3;stroke-miterlimit:10;}
]]>
</style>
<g id="Layer_1">
</g>
<g id="Layer_3">
	<g>
		<g>
			<ellipse class="st19" cx="184.3" cy="95.8" rx="13.9" ry="27.4"/>
			<path class="st15" d="M196.6,100.1l-12.5,7.7l1.9-9.4l9.8-12.8C196.5,89.5,197,94.6,196.6,100.1z"/>
			<path class="st3" d="M189.5,120.6l-9,4.3l1.9-9.4l13.7-5.1C196.9,114.2,193.8,119.5,189.5,120.6z"/>
			<path class="st4" d="M73.3,102.4c0,20,27.9,41.4,58.7,41.4s58.7-23.1,58.7-43.2c0-11,2.4-29.2-9.5-35.8
				c-5.7-3.2-11.5-41.7-18.9-43.2c-4.3-0.9-9.1-9.6-13.8-9.8c-1,0-2.9,31.9-3.8,31.9c-4.5,0-17.9-1-22.1-0.3
				c-5.2,0.8-6.9-32.8-11.4-31.1c-10.7,0.2-30,49.8-30.7,56C73.6,74.2,73.3,94.3,73.3,102.4z"/>
			<path class="st12" d="M167.6,136.4c-31.1,24-99.2,1.8-87.2-32C70,75.9,148.8,64.9,187.6,76.6C198.9,78.5,192.8,125.1,167.6,136.4
				z"/>
			<path class="st26" d="M166.6,69c13.2,2.2,15.6,9.6,24.6,23.4c-2.4-6.9,0.8-8.1-9.6-26.5c-5.9-24.9-25.1-56.4-30.2-55
				c-1.4,0.4-6.6,3-5.5,6.3C157.9,8.4,168.7,47.4,166.6,69z"/>
			<path class="st6" d="M119.2,33.3c0,4.2-9.4-17-14.3-17c-4.9,0,4-3.9,8.9-3.9C116.1,16,119.2,29.2,119.2,33.3z"/>
			<path class="st9" d="M170.2,53.7c2.2,4-14.7-4.6-16.7-7.5c-1.9-9.3-1.5-24.2,0.5-24.6C156.1,21.1,168.3,44.4,170.2,53.7z"/>
			<g>
				<g>
					<path d="M184.1,66c-0.5-4.9-3-10.1-4.7-14.7c-3.3-9.1-7.1-18.1-12-26.5c-3.7-6.3-9-14.5-16.5-16.7c-11.9-3.5-7.3,30.8-7,36.1
						c1.1-0.8,2.1-1.6,3.2-2.4c-8.9-1.8-17.7-2-26.7-0.7c1,0.6,2.1,1.2,3.1,1.7c-0.9-5.9-2.1-11.7-3.5-17.5
						c-1.2-5.1-2.3-10.8-4.7-15.5c-0.4-0.7-1.3-1.3-2.2-1.2C106,9,101.2,15.9,97.7,21.3c-5.2,8.3-9,17.7-12.3,26.9
						c-1.5,4.3-2.7,8.6-4,12.9c-1.6,5.3-5.9,9.7-8.1,15c-4.1,10.2-4.7,21.8-1.3,32.3c13.7,43.1,74.7,51.2,105.4,22.1
						c18.4-17.5,21.3-45.1,6.2-65.7c-1.9-2.6-6.2-0.1-4.3,2.5c12.6,17.2,12.1,39.8-1.9,56c-13,15-33.7,21.4-53.1,19.3
						c-18.8-2-37.4-12.8-45.5-30.3c-4.2-8.9-5.2-19.2-2.7-28.8c1.4-5.5,3.9-10.6,7.2-15.2c2.5-3.5,3.1-6.8,4.3-10.8
						c2.8-9.4,6.3-18.7,10.8-27.4c2.6-5.1,7.7-16.1,14.5-16.4c-0.7-0.4-1.4-0.8-2.2-1.2c2.5,4.8,3.5,10.9,4.7,16.1
						c1.2,5.2,2.2,10.4,3,15.7c0.2,1.4,1.9,1.9,3.1,1.7c8-1.2,16.1-0.9,24,0.7c1.5,0.3,3.3-0.7,3.2-2.4c-0.4-7.6-0.8-15.2-0.8-22.8
						c0-2,0-4.1,0.6-6.1c0.3-0.8,0.7-1.7,1-2.5c-1-0.1-1.1-0.1-0.2,0.1c1.2,0.2,2.6,1.3,3.5,2c6,4.5,9.9,11.9,13.3,18.4
						c3.6,7,6.5,14.3,9.1,21.7c0.9,2.7,1.8,5.3,2.7,8c0.2,0.8,0.5,1.6,0.7,2.4c0.1,0.3,0.3,1.7,0.2,0.4
						C179.4,69.2,184.4,69.2,184.1,66z"/>
				</g>
			</g>
			<g>
				<g>
					<path d="M150.1,121.2c0.1-0.1,0.1-0.2,0.2-0.4c-0.7,0.4-1.4,0.8-2.2,1.2c0.1,0,0.3,0,0.4,0c-0.7-1.3-1.4-2.5-2.2-3.8
						c-3,6.9-8,12.5-14.7,16.1c-2.8,1.5-0.3,5.9,2.5,4.3c7.3-4,13.1-10.2,16.5-17.9c0.7-1.5-0.1-4-2.2-3.8c-1.2,0.1-2.2,0.4-2.7,1.6
						C144.4,121.6,148.7,124.1,150.1,121.2L150.1,121.2z"/>
				</g>
			</g>
			<g>
				<g>
					<path d="M147.7,122.3c1.1,5.5,6.3,10.5,12.2,8.2c3-1.1,1.7-6-1.3-4.8c-3.4,1.3-5.4-1.8-6-4.8
						C151.8,117.9,147,119.2,147.7,122.3L147.7,122.3z"/>
				</g>
			</g>
			<g>
				<path d="M149.9,119.3c1.5-1.2,2.6-3.5,3.3-5c-0.4-0.6-7,0.2-8.6,1.2C145.3,116.5,148.2,118.7,149.9,119.3"/>
				<g>
					<path class="st10" d="M151.7,121.1c1.7-1.5,2.7-3.5,3.7-5.5c0.5-1,0.5-2.2-0.4-3c-1.4-1.3-3.7-1-5.4-0.8
						c-2.1,0.2-4.4,0.5-6.2,1.6c-1.5,0.9-1.5,2.7-0.5,3.9c1.6,2,4.1,3.5,6.4,4.4c1.3,0.5,2.7-0.6,3.1-1.7c0.4-1.4-0.5-2.6-1.7-3.1
						c-1.5-0.6-3.2-1.9-4.2-3.1c-0.2,1.3-0.3,2.6-0.5,3.9c0.8-0.5,2.4-0.8,3.6-0.9c0.6-0.1,1.2-0.1,1.9-0.2c0.3,0,0.6,0,0.9,0
						c0.1,0,0.2,0,0.4,0c-0.4,0-0.8-0.2-1.1-0.5c-0.1-1-0.3-2-0.4-3c-0.8,1.6-1.6,3.3-2.9,4.5C145.8,119.7,149.3,123.3,151.7,121.1
						L151.7,121.1z"/>
				</g>
			</g>
			<circle class="st21" cx="131.6" cy="118.2" r="2"/>
			<circle class="st21" cx="163.9" cy="113.8" r="2"/>
			<circle class="st21" cx="168.7" cy="120.7" r="2"/>
			<circle class="st21" cx="167.6" cy="127" r="2"/>
			<circle class="st21" cx="123.5" cy="123.6" r="2"/>
			<circle class="st21" cx="120.6" cy="134.3" r="2"/>
			<path class="st14" d="M146.3,72.5c1.1-0.4,2.4,13.4-0.6,17.5c-3,4.1-11.7-16.7-12.9-16.8C131.6,73,146.2,72.4,146.3,72.5z"/>
			<path class="st14" d="M130.3,73.3c0.6-0.2,1.4,7.2-0.2,9.4c-1.6,2.2-5.9-8.8-6.6-8.6L130.3,73.3z"/>
			<path class="st14" d="M155.8,72.6c0.6,0.3,1.3,6.9-0.3,9.1c-1.6,2.2-6.6-9.1-7.1-9.2C151.2,72.5,155.3,72.5,155.8,72.6z"/>
			<g>
				<g>
					<path d="M106.8,112c0.1-3.9,1-7.9,2-11.8c1-4.1,2-9.4,4.6-12.9c1.1-1.5,0.9-1,2.1,0.7c1.5,2,2.6,4.8,3.5,7.1
						c1.6,4.1,2.9,8.4,3.7,12.7c0.6,3.2,5.4,1.8,4.8-1.3c-1-5.3-6.3-29.2-15.5-24.7c-4.1,2-5.7,8.8-6.9,12.6
						c-1.7,5.6-3.3,11.6-3.3,17.5C101.7,115.3,106.7,115.3,106.8,112L106.8,112z"/>
				</g>
			</g>
			<g>
				<g>
					<path d="M179.3,107.2c-0.9-5.7-3.1-11.4-5.3-16.8c-1.4-3.4-3.5-10.4-7.7-11.6c-8.8-2.6-8.9,22.1-8.8,26.7c0,3.2,5,3.2,5,0
						c0-4.5,0.3-9,1-13.5c0.4-2.3,0.7-4.8,1.6-6.9c0.2-0.6,0.7-1.2,0.9-1.8c-1.2-0.2-1.6,0-1,0.5c0.2,0.2,0.4,0.5,0.6,0.8
						c1.5,4.2,4.1,8.1,5.5,12.4c1.3,3.7,2.6,7.6,3.3,11.5C175,111.7,179.8,110.3,179.3,107.2L179.3,107.2z"/>
				</g>
			</g>
			<path class="st5" d="M143.8,146c-22.4,5.3-61.9-10.4-68-33c-4.9-12.8-8-28.5,10.1-51.5C62.6,106.9,113.1,146.4,143.8,146z"/>
			<path class="st27" d="M166.7,141c-28.7,10.9-70.7,6.6-83.7-17c-10.8-19.6,2.7-38.5,2.7-38.5c14-16.2,91.6-18.7,107.2-7.1
				C205.1,121.7,180.5,135.3,166.7,141z"/>
			<ellipse class="st0" cx="83" cy="101.3" rx="13.9" ry="27.4"/>
			<path class="st9" d="M94.4,55.9c-0.3,6.7,21.3-6.1,21.8-11.5c0-9.5-4.9-24-7.9-24C105.2,20.5,94.4,46.5,94.4,55.9z"/>
			
				<ellipse transform="matrix(0.9858 -0.1677 0.1677 0.9858 -16.9804 26.9795)" class="st18" cx="151.3" cy="114" rx="2.8" ry="1.3"/>
			<path class="st25" d="M192.5,83.9c3.1,37.1-16,49.9-13,44.6c12.3-10.9,3.2-53-18.5-52.6C149.9,76.1,190.9,74.4,192.5,83.9z"/>
			<path class="st25" d="M94.2,112.4c-2.9,11.4-8.3,16.2-13,14.5c-4.5-9.4-4.1-18.3-2.3-27.2C78.9,99.7,79.7,107.8,94.2,112.4z"/>
			<path class="st25" d="M91.9,83.4c1.5,3.1,1.9,4.9,2.3,6.6c-8.9-3.9-5.9,7-12.3,0.8C81.9,90.8,83.6,86.6,91.9,83.4z"/>
			<ellipse class="st1" cx="79.9" cy="99.7" rx="6.9" ry="15.3"/>
			<path class="st17" d="M73,99.7c0,7.7,4.6,20.7,10.9,11.7c-7.6,3.1-6.9-28.7-0.9-24.6C78.8,81.8,71.6,88.4,73,99.7z"/>
			<path class="st2" d="M78.6,103.5l-6.4,0.1c-0.2-1.4-0.2-3.2-0.2-5.2l6.3,0.1C78.3,99.9,78.4,101.7,78.6,103.5z"/>
			<polygon class="st24" points="78.3,97.4 72.1,97.4 72.2,96.2 78.4,96.3 			"/>
			<path class="st11" d="M147,46.6c-20.2,0.3-25.5,4.5-25.5,4.5s-3.5-1.3-1.9-6.6C130,44.2,139.6,44.5,147,46.6z"/>
			<g id="sprite_9_2_">
				<path class="st13" d="M39.7,80.2c0,5.9,7.3,9.5,6.4,14.5c-1.2,6.5,10.1,6.6,18.8,10.1c11.1,1.5,14.4,9.4,10.6,10
					c1.4,3.9-9.9,9-22.7,4.3c-14.2-2.9-29.5-15.2-30.8-22.2c-0.9-5-7.1-10.8-7.1-16.9c0-3.5-3.2-21.1-2.8-24.3
					c0.8-7.2,13.6-24.6,15.7-29.3c2.4-9.9,31.3-12.9,34.7-6.7c5.4,0.5,3.3,13.4,2.6,18.3c2,4.8-21.9,20.5-21.2,27.8
					C44.1,68.9,39.7,76.8,39.7,80.2z"/>
				<path class="st20" d="M66.7,32.6c0,9-13.4,27.4-22.9,27.4c-9.6,0-26.4-7.3-26.4-16.3c0-4.5,2.5-9.8,5.6-12.7
					c3.1-3,13.9-13.4,18.7-13.4s15.2-2.4,18.3,0.5C63.1,21,66.7,28.1,66.7,32.6z"/>
				<g>
					<g>
						<path class="st7" d="M41.6,56.8c7.6-6.3,14.9-16,13.9-26.5c-0.9-9.2-8.9-12.9-17.3-12.9c-1.6,0-1.6,2.5,0,2.5
							c8.3-0.1,15.4,4,14.8,13.2c-0.5,8.8-6.7,16.5-13.2,21.9C38.6,56.1,40.4,57.8,41.6,56.8L41.6,56.8z"/>
					</g>
				</g>
				<g>
					<g>
						<path class="st7" d="M29,54.3c8.1-1.6,13.4-13.1,12.6-20.7c-0.3-3.2-1.7-4.9-4.6-6c-2.4-0.9-8.4-2.9-10.7-1.2
							c-1.3,0.9,0,3.1,1.3,2.2c1.5-1.1,6.4,0.7,7.9,1.2c3.5,1.1,4,3.4,3.6,6.8c-0.7,5.8-4.3,14.1-10.7,15.3
							C26.7,52.2,27.4,54.6,29,54.3L29,54.3z"/>
					</g>
				</g>
				<path class="st22" d="M39.6,113.5c-6.3-0.1,13.4,6.4,22.4,6.4c14.3,2,22.3-7.3,18.6-14.1C68.8,100.5,48.6,113.6,39.6,113.5z"/>
				<path class="st23" d="M21.5,75.8c0,3.5,13.3,9.6,18.9,9.6C36.9,85.2,42.5,64,45,64.1C39.4,64.1,21.5,72.3,21.5,75.8z"/>
				<path class="st8" d="M63.6,26.9c0.9,3.4,0.2,8.9-2,9.5c-2.2,0.6-8.1-15.6-5.9-16.2C57.9,19.7,62.7,23.6,63.6,26.9z"/>
				<g>
					<g>
						<g>
							<path d="M87.2,104.8c-1.5-3.1-5.3-4.6-8.4-5.3c-1-0.2-2.4,0.1-2.8,1.1c-1.6,3.6-12,1.6-14.7,0.8c-4.2-1.2-8-3.3-11.1-6.3
								c-7-6.6-10.5-17.1-5.6-26C51.9,56.2,67.2,48,69.3,31.9c1.9-14.5-13.6-20.8-25.7-18c-15.2,3.5-24.8,18-30.6,31.4
								c-0.5,1.1-0.5,2.8,0.9,3.4c10.9,4.7,21.8,9.3,32.7,14c0.4-1.6,0.8-3.1,1.3-4.7c-5.8,0.4-12.2-2.4-17.4-4.6
								c-2.8-1.2-5.6-2.6-8.2-4.1c-1.2-0.7-4.2-2-4.7-3.4c-0.8-2.5-3.9-2.2-4.8,0C3.7,69,14.6,98.6,33.5,113.7
								c9.1,7.3,20.7,8.8,32,8.9c5.1,0,10.3-0.6,14.3-3.9c3.4-2.8,7.3-8.1,7.7-12.6c0.3-3.2-4.7-3.2-5,0c-0.4,4.1-5.8,9.4-9.4,10.6
								c-4.4,1.5-9.8,0.9-14.3,0.5C47.9,116.5,39,113,31.5,105C17.7,90.2,10,66.7,17.7,47.3c-1.6,0-3.2,0-4.8,0
								c1.6,5.1,9.8,8.1,14.1,10c6.3,2.8,13.9,6.3,20.9,5.8c2.2-0.2,3.8-3.6,1.3-4.7c-10.9-4.7-21.8-9.3-32.7-14
								c0.3,1.1,0.6,2.3,0.9,3.4c6.1-14.2,18.8-33.7,37.2-29.2c24.6,6-2.5,33-9.9,41.9c-4.3,5.2-7.7,11.1-7.5,18
								c0.2,6.9,3.3,13.5,7.8,18.5c4.7,5.2,11.2,8.8,18.1,9.9c4.8,0.8,14.6,1.6,17.1-3.8c-0.9,0.4-1.9,0.8-2.8,1.1
								c1.8,0.4,4.6,1.2,5.5,3C84.3,110.2,88.6,107.7,87.2,104.8z"/>
						</g>
					</g>
					<g>
						<g>
							<path d="M75.9,100.3c-0.1,0.1-0.1,0.2-0.2,0.4c-0.4,0.7-0.5,1.5-0.1,2.2c0.3,0.7,0.9,1.3,1.6,1.4c0.1,0,0.1,0,0.2,0
								c1.6,0.3,3.1-0.7,3.2-2.4c0-0.4-0.1-0.7-0.1-1.1c-0.1-0.6-0.7-1.2-1.1-1.5c-0.5-0.3-1.3-0.4-1.9-0.3c-1.4,0.5-2,1.7-1.7,3.1
								c0-0.4-0.1-0.5-0.1-0.3c1.1-0.8,2.1-1.6,3.2-2.4c-0.1,0-0.1,0-0.2,0c0.5,1.2,1,2.4,1.5,3.7c0.1-0.1,0.1-0.2,0.2-0.4
								c0.6-1.2,0.4-2.8-0.9-3.4C78.2,98.8,76.5,99,75.9,100.3z"/>
						</g>
					</g>
				</g>
			</g>
			<rect class="st16" width="201" height="148"/>
		</g>
	</g>
</g>
</svg>
