<?xml version="1.0" encoding="utf-8"?>
<!-- Generator: Adobe Illustrator 15.0.0, SVG Export Plug-In . SVG Version: 6.00 Build 0)  -->
<!DOCTYPE svg PUBLIC "-//W3C//DTD SVG 1.1//EN" "http://www.w3.org/Graphics/SVG/1.1/DTD/svg11.dtd">
<svg version="1.1" id="earth" xmlns="http://www.w3.org/2000/svg" xmlns:xlink="http://www.w3.org/1999/xlink" x="0px" y="0px"
	 width="600px" height="600px" viewBox="0 0 600 600" style="enable-background:new 0 0 600 600;" xml:space="preserve">
<style type="text/css">
<![CDATA[
	.st0{fill:#24469D;stroke:#0B1E64;stroke-width:10;stroke-miterlimit:10;}
	.st1{fill:#FCFCFB;stroke:#FEFEFD;stroke-miterlimit:10;}
	.st2{fill:#FCFCFB;}
	.st3{fill:#62BA54;}
	.st4{opacity:0.57;fill:#FFFFFF;}
	.st5{fill:#71C15F;}
]]>
</style>
<symbol  id="earth_1_" viewBox="-450.4 -512 900.8 1024">
	<path id="milkyway_2_" class="st4" d="M443.4,217.2c-10.8,23.4-34.1,38.5-49.4,59.2c-23.7,32.1-28.3,77.2-58.2,103.6
		c-19.9,17.6-47.5,23.5-73.8,27.6c-21.9,3.5-44.7,6.2-66.1,0.2c-47.4-13.3-72.8-63.4-92.6-108.5c-12.7-28.9-25.4-57.8-38.1-86.7
		c-5.9-13.4-12-27.1-22.6-37.2c-11-10.6-26.2-16.5-36.1-28.2c-21.4-25.5-9.9-68.2-32.1-93c-2.8,29.8-5.8,60.6-20.7,86.6
		c-17.3,30.3-49.6,52-59.2,85.6c-3.9,13.7-3.6,28.2-2.9,42.4c0.6,13.6,1.7,27.6,7.7,39.9c6,12.2,18.1,22.5,31.7,22.2
		c7.4-0.1,15.1-3.3,22.1-0.8c6.9,2.5,10.8,9.5,16,14.7c13.8,13.9,37.5,13.6,54.4,3.7c16.9-9.9,27.9-27.4,35.9-45.3
		c2.3,40.5-24.4,80.9-62.5,94.7c-42.3,15.3-88.9-0.7-130.9-16.6c-17.7-6.7-36.8-14.5-46.2-31c-15-26,1.5-59.5-5.6-88.7
		c-2.1-8.9-6.4-17.2-7.9-26.2c-4.5-27.2,17-51.2,36.8-70.4c21.1-20.5,42.1-41,63.2-61.4c17-16.5,34.6-34,42.2-56.5
		c-39.3,24.4-78.6,48.8-117.9,73.1c-21.4,13.3-43.3,27-58.5,47c-34.6,45.3-28.4,113-65.2,156.4c-8.4,9.9-19.6,21.8-14.5,33.7
		c4.3,10.2,17.5,12.3,27.3,17.5c18.1,9.8,24.8,31.7,33.2,50.4c8.4,18.7,24.8,38.5,45,35.1c8.7-1.4,16.1-7,24.2-10.6
		c21.6-9.7,46.8-5.1,69.6,1.4c22.8,6.5,46,14.8,69.6,11.9c16.2-2,32.5-11.5,40.7-25c-12.5,27.6-43.9,46.4-74.8,53
		c-37.9,8.2-77.6,3.9-115.8,11.2c-17.8,3.4-35.4,9.3-53.5,9.6c-39.2,0.7-77-28.2-86.6-66.2c-3.9-15.5-4.3-33.4-15.9-44.5
		c-9.9-9.4-27-12.8-30.2-26c-2.5-10.3,5.4-20,8-30.3c7.1-28.3-26.6-54-22-82.9c5.7-35.8,61.5-41.3,74.3-75.3
		c5.2-13.7,1.9-29.5,6.5-43.4c6-18.2,24.1-29.8,42.1-36.3c18-6.6,37.4-9.8,54.3-19c34.4-18.8,55.9-61.3,94.7-66.9
		C-92.6,17.7-60,27.3-48,5.6c-49.6,1.1-99.9,2-147.9-10.2c-18.4-4.7-36.5-11.4-55.5-13c-18.9-1.6-39.6,2.7-52.5,16.7
		c-11,11.9-14.9,29.3-26.8,40.2c-10.2,9.4-24.8,12.9-34.5,22.8c-21.4,22-6.6,58.4,9,84.7c-23.2-20.3-41.8-47.1-47.8-77.4
		c-6-30.3,1.9-64,24.3-85.3c11.3-10.8,25.6-18,37.8-27.9c26.9-22,47.2-59.3,82-60.2c39.8-1,65.8,48,105.5,51
		c7.7,0.6,15.9-0.6,23,2.5c6.6,2.9,11.2,8.9,16.4,13.9c16.4,15.7,88.7,26.1,59.1-4.2c-25.2-25.9-53.3-45-62.8-82.2
		c-4.7-18.4-3.8-38.3-11.5-55.8c-18-41.1-75.4-53.5-93-94.7c-10.6-24.7-5.5-57-25.2-75.2c-15.4-14.2-40.8-12.7-58-0.7
		c-17.2,11.9-27.2,31.8-32.8,52c-1.4,5.1-2.7,10.4-6.3,14.3c-4.7,5.1-12.1,6.4-18.7,8.5c-29.7,9.5-48.5,40.1-53.2,70.9
		c-4.7,30.8,2.1,62,8.8,92.4c-37.4-28-44.2-81.2-41.3-127.8c0.9-13.6,2.4-27.7,8.8-39.7c12.6-24,41.2-35.4,56.9-57.4
		c8.7-12.2,12.9-26.8,19.1-40.4c17.8-38.6,54.8-69.1,97-73.7c42.2-4.5,87.4,20.4,101.3,60.6c13,37.6-0.6,82.9,21.3,116
		c20.9,31.7,68.9,42.7,79.3,79.3c8.7,30.6-13.5,68.1,6.4,93c6.1,7.6,15,12.2,22.8,18C-19.1-70.2-7.2-49.2-4.8-27.1
		c6.9-41.3-15.1-85.1-1.3-124.6c13.5-38.8,59.5-67.2,53.5-107.9c-1.7-11.2-7.4-21.5-14.2-30.5C17.1-311.4-7.2-328-33.9-328.5
		c-26.7-0.6-54.2,18.4-57.7,44.9c0.5-34.7,13.9-69.7,39.5-93.1c25.6-23.4,63.8-33.5,96.6-22c26.9,9.4,47.4,31.4,63.7,54.7
		c5.1,7.3,10.1,15.2,11.5,24c1.9,12.3-3.3,24.5-4.4,36.9c-2.5,28,16.1,55.1,11.6,82.9C120.1-158.7,67-139.9,53-100.1
		C43.6-73.3,52.8-39,33-18.6c44-42.1,88-84.1,132.1-126.2c12.2-11.7,24.6-23.6,32.6-38.6c5.5-10.4,8.7-22.1,16-31.4
		c13.4-17,36.6-21.6,57-28.7c49.1-17.2,91.8-59.6,97.3-111.4c5.5-51.7-36.3-107.2-88.3-105.9c-29.8,0.7-56.2,17.9-83.8,28.9
		c-27.7,11-63.4,14.3-83.5-7.7c-10.1-11.1-14.9-27.3-28-34.6c-21.9-12.2-46.9,8.7-63.2,27.7c9.4-15.4,19.2-31.1,33.3-42.3
		c14.1-11.2,33.7-17.3,50.5-10.9c10.6,4.1,18.9,12.5,28.8,18c27.3,15.3,61.5,6.4,90.3-5.7c28.8-12.1,58.4-27.5,89.5-24.3
		c34,3.5,62.4,29.6,77.7,60.1s19.6,65.3,22.8,99.3c4.3,46.2,4.1,99.6-30.7,130.4c-26.9,23.9-67.5,26.8-95.1,49.9
		c-18.6,15.6-29.2,38.6-42.9,58.6c-20.9,30.6-50.4,55.4-84.1,70.7C123.5-25.3,79.9-19,49.2,8.5c15.5,10.4,39.6-7.9,54.2,3.8
		c13.6,10.8,7,39.3,23.7,43.9c8.6,2.4,17.1-4.3,26.1-4.4c17.4-0.1,24.3,21.7,33.9,36.2c15.2,23,46.8,31.5,73.5,24.8
		c26.8-6.7,48.8-26.2,64.8-48.7c8.5-12,15.6-27.7,8.9-40.8c-4.9-9.6-15.9-14.5-22.4-23c-10.9-14.4-6.8-34.6-8.7-52.6
		c-2-18-19.8-38.1-35.1-28.6c14.8-18,45.7-5.8,58.3,13.8c12.6,19.6,15.9,44.3,29.9,63c6.4,8.5,14.8,15.4,20.9,24.1
		c24.4,34.4,3.9,86.4-32.7,107.3c-13.3,7.6-28.1,12.1-41.7,19.2c-12.9,6.7-24.5,15.7-37.7,21.7c-43.5,19.8-100.8,0.2-123-42.1
		c-4-7.6-7.1-16-13.6-21.6c-12-10.5-31.1-8-43.9-17.5C70.1,76.6,67.4,53.8,51.2,46.1c-16.8-8-37.7,8.5-39.1,27.1
		c-1.4,18.6,11.3,35.7,26.7,46.4c15.3,10.6,33.4,16.5,50,25c16.6,8.5,32.7,20.8,38.7,38.5c9.6,28.2-6.2,67.7,18.6,84
		c9.4,6.2,21.8,6.1,31.5,11.7c24.6,14.2,21.7,56.4,47.5,68.3c19.7,9.1,42.5-7,53.5-25.7c11-18.8,16-41.1,30.1-57.6
		c25.3-29.3,73-32.4,95.6-63.8c24.9-34.7,9.1-90.6,40.9-119.1C435.3,125.8,462.6,175.5,443.4,217.2z M-72.6,374.5
		c1.3,11.5,15.8,19.1,26.7,16c7.7-2.2,15.1-10.1,13.9-17.1c-0.7-4-4-6.4-8.5-9.6c-6.4-4.6-14.1-10.1-21.8-7
		C-69,359.4-73.4,367.4-72.6,374.5z M-156.9,347.8c5.7,8.1,9.6,10.1,10.7,10.7c7.1,3.5,18.3,3.8,22.4-2.1c4.5-6.5-1.7-17.3-2.1-18.2
		c-5.7-9.8-14.6-9.6-17.1-18.2c-0.6-2.2-0.6-4.2,1.1-11.7c5.2-23,10.5-29,7.5-33.1c-3.9-5.2-19-3.4-22.4,3.2
		c-2.2,4.3,2.3,7.4,2.1,14.9c-0.3,12.1-11.9,13.6-13.9,25.6C-170.3,328.8-164.1,337.6-156.9,347.8z M-110,173.8
		c-5.6-4.5-20.4,0.4-23.5,8.5c-2.4,6.3,4,9.8,2.1,17.1c-1.3,4.9-5,6.4-22.4,18.2c-11.8,7.9-13.7,9.7-14.9,12.8
		c-2.7,7-1,18.1,6.4,21.4c5.2,2.3,12.8,0.5,14.7-3.6c2.7-5.9-7.6-13.6-5.1-17.8c2.4-3.8,12.1,2.7,21.4-2.1
		c7.7-4,11.1-10.5,14.9-18.2C-115.1,207.5-101.6,180.6-110,173.8z M-208.2,494.1c1,2,9.8-0.3,21.4-3.2c12.8-3.2,12.6-4.4,19.2-5.3
		c12.6-1.8,15,2.2,25.6,0c8.2-1.7,19.3-6.5,19.2-11.7c-0.1-5.1-10.7-8.6-20.3-11.7c-10.2-3.4-17.1-5.7-24.6-3.2
		c-5.9,1.9-6.8,5-16,13.9C-198.5,487.1-209.3,491.8-208.2,494.1z M-299,415.1c2.6,5,3.8,7.5,4.3,10.7c1,7.4-2.9,10-2.1,14.9
		c1.4,9.5,18.1,18.3,24.6,13.9c3.4-2.3,2.6-10.1,1.1-25.6c-2-19.7-5.4-24.4-7.5-26.7c-1.5-1.6-6.3-6.9-13.9-7.5
		c-5.2-0.4-12.6,1.3-13.9,5.3C-307.4,403.2-304.1,405-299,415.1z M-335.8,6.7c-1.4-4.1-5.1-7-8.8-8c-6.1-1.7-12.5,1.6-16,5.6
		c-6,6.9-3.1,15.6-8,17.6c-3,1.2-4.9-1.8-10.4-0.8c-2.5,0.4-7.5,2-8,4.8c-1,4.9,12.2,10.9,14.8,13.5c-3.1,0-5.2-0.3-5.2,0.1
		c0,0.6,5.2,1.8,5.6,0.8c0.1-0.2-0.1-0.5-0.4-0.9c3.8,0,9.2-0.2,14.8-2.3c10.9-4,16.5-12.6,18.4-16C-336.7,17-333.9,12-335.8,6.7z
		 M-239.7-83.8c-4.7-0.9-6,1-17.6,4c-14.7,3.8-16.6,1.9-24.8,5.6c-6.1,2.7-14.9,6.7-16,14.4c-0.9,6.3,3.3,13.8,8.8,15.2
		c3.8,0.9,5.9-1.6,18.4-8.8c14.5-8.3,17.7-8.5,20-8c6,1.1,6.5,6,12,6.4c6.3,0.5,14.3-4.9,15.2-12C-222.5-75.6-232.3-82.5-239.7-83.8
		z M-356.6-329.7c-1.8,0.2-1.4,5.5-6.4,13.6c-0.9,1.5-1.5,2.2-4.8,6.4c-9.1,11.5-13.6,17.3-12.8,20c0.9,2.8,4.3,4.1,6.4,4.8
		c6.6,2.4,14.1-0.4,18.6-4.7c5.7-5.4,6-12.7,6.2-17.8C-348.9-318.9-353.9-330-356.6-329.7z M-194.9-402.6
		c-5.4-8.2-12.9-11.5-16-12.8c-9.9-4.2-19.2-3.1-24.8-2.4c-16.2,2.1-19.9,9.2-28.8,6.4c-7.6-2.3-7.5-8.2-15.2-9.6
		c-6.5-1.2-15.1,1.4-19.2,8c-4.5,7.2-2,16.4,1.6,21.6c8.3,12.1,30,14.7,43.2,7.2c8.4-4.8,9.2-11.2,16.8-12c8.1-0.8,17.6,5.4,18.4,12
		c0.7,5.2-4.4,6.8-4.8,12.8c-0.7,9.3,10.2,21.3,19.2,20c11.2-1.6,14-22.7,14.4-25.6C-189.5-381.2-188-392.2-194.9-402.6z M30-385.6
		c-6-4-14.6-3.8-20.4-0.2c-8.3,5.2-5.9,14.2-12.8,17.1c-8.4,3.5-17.4-7.8-22.4-4.3c-4,2.8-1.3,11.9-1.1,18.4c-6.4,0-11.6,1.5-11.7,3
		c-0.2,1.7,6.3,5.2,9.6,3.2c1.7-1,2.1-3.4,2.1-6.2c2.8,0,5.7,0.2,8.6,0.8c8.2,1.7,9.6,5.2,16,7.5c12.6,4.5,32.6,0.3,38.4-12.8
		C39.9-367.2,38.5-379.9,30-385.6z M112.6-223.5c1.4-2.6-0.7-5.4-5.5-17.3c-2.9-7-4.3-10.6-4.8-12.8c-2.5-11.4,3.1-15,1.6-24.8
		c-1.7-11.2-11.1-21.3-16-20c-4.6,1.2-5.5,12.5-5.6,14.4c-1.1,14.3,6.7,20,3.2,28c-3,6.8-9.7,5.4-11.2,11.2
		c-2.2,8.5,10,21.4,23.2,24C102-219.9,110.4-219.5,112.6-223.5z M61.4-199.9c0.5,6.1,4,16.9,12,18.4c5.8,1.1,11.6-3.2,14.4-7.2
		c2.9-4.1,5-11,2.1-15.1c-3-4.1-8.6-1.5-11.7-5.7c-2.4-3.3,0.1-5.9-1.6-13.6c-0.9-4-2-8.8-5.6-10.4c-4.6-2.1-12.2,1.6-13.6,6.4
		c-1.3,4.5,3.7,6.6,4.8,15.2C63-206.1,60.9-205.6,61.4-199.9z M181.5-455.1c-0.7-3.2-9.7-1.7-36.3-5.3c-8.3-1.1-16.1-2.2-22.5-3.4
		c-1.7-5.8-1.8-10.4-5.3-11.6c-3.9-1.3-9.8,2.6-9.6,5.3c0.2,2.7,6.1,4.6,14.9,6.2c0.7,2.4,1.7,5,3.3,7.7c7.3,12,21.7,14.8,22.4,14.9
		C165.3-438.3,182.6-450.5,181.5-455.1z M350.5-453.8c-4.5-3.6-12.1-4.5-15.2-0.8c-2.5,3-0.9,7.7-0.8,8c2.8,8,16.2,11.9,20,8
		C357.4-441.5,355.6-449.7,350.5-453.8z M368.4-305.7c3.7,3.5,20.1-0.9,21.4-11.7c0.7-6.4-4-13.8-8.5-13.9
		C373.3-331.5,363.9-310,368.4-305.7z M278.7-198.9c2.1,0.7,4.6-12,14.9-18.2c10.6-6.3,18.1,0.9,29.9-3.2
		c17-5.9,27.6-30.2,22.4-36.3c-5.4-6.4-29.3,6.1-38.4,11.7c-7.5,4.6-22.3,13.9-27.8,31C277.5-206.8,277.1-199.4,278.7-198.9z
		 M129.5-83c1.7,7.4,11.5,11.5,13.6,9.6c1.8-1.6-3-6.7-0.8-10.4c2.4-3.9,9.5-0.6,18.4-4c7.8-2.9,12.1-9.1,13.6-11.2
		c6.1-8.6,9.2-22.6,4-26.4c-0.9-0.6-4.2-2.7-12.8,1.6c0.7,2.6,1.5,7.4-0.8,12c-2.4,4.9-7.1,7-12.8,9.6c-10.2,4.6-14,2.7-18.4,7.2
		C133.1-94.6,128-89.3,129.5-83z M323.3,97.2c3,2.4,11.9-4,17.6-8c6.1-4.3,9.3-6.6,12-11.2c0.4-0.7,7.2-12.6,1.8-23.1
		c-0.5-1-4.3-8.4-9.8-8.1c-4.4,0.2-7.6,5.4-8.8,8.8c-2,5.7,1,8-0.8,13.6c-1.6,4.8-4.3,4.7-8,10.4C323.3,85.7,320.5,94.9,323.3,97.2z
		 M166.6,133.2c3.9,7.8,12.2,12,28.8,20.3c15.8,7.9,19.5,7.1,21.4,6.4c9-3.2,14.7-17.1,10.7-24.6c-3.5-6.6-11.8-3.5-26.7-9.6
		c-20.7-8.5-26.1-23.4-32.4-20.7C162.6,107.5,161.3,122.6,166.6,133.2z M27.8-119.9c4.4-4.7-3.8-19.8-3.2-20
		c0.4-0.2,3.2,9.7,6.4,9.6c2.8-0.1,4.6-7.7,8-22.4c2.4-10.3,2.4-13,1.6-16c-1.8-6.4-7.3-12.8-11.2-12c-0.9,0.2-2.3,0.9-4.8,6.4
		c-3.9,8.7-2.6,11.9-4.8,16.8c-4.2,9.4-13.3,7.2-16,15.2c-2.2,6.6,1.6,14.8,7.2,19.2C16.1-119,24.7-116.6,27.8-119.9z M177.3,300.8
		c-9.1-9.3-25.4-17.3-37.4-11.7c-4.4,2-9.3,6.4-8.5,9.6c1.1,4.9,13.6,0.9,22.4,8.5c8.2,7.1,3.3,15.6,13.9,29.9
		c2.9,3.9,7.7,10.4,12.8,9.6c5.5-0.9,8-9.8,8.5-11.7C192.3,322.5,185.3,309,177.3,300.8z M349.2,266.7c-4.1-5-14.8-2.4-20.3-1.1
		c-4.3,1-17.5,4.3-23.5,14.9c-4.6,8.2-0.4,12.9-1.1,26.7c-1.3,25.6-17.2,36.9-11.7,43.8c4.1,5.2,17.5,4.4,23.5-2.1
		c6.5-7.1-1-15.4,4.3-28.8c4.6-11.7,12.2-10.3,21.8-25.6C344,291.5,355.1,273.7,349.2,266.7z M398.3,243.2
		c-0.5-6.7-8.9-10.4-14.9-10.7c-7-0.3-15.3,3.9-16,9.6c-0.9,6.8,9,15.1,18.2,13.9C391.7,255.1,398.8,249.6,398.3,243.2z"/>
	<g id="earthgrp_2_">
		<g id="earthdisk_2_">
			<path class="st0" d="M295,0c0-162.9-132.1-295-295-295S-295-162.9-295,0S-162.9,295,0,295S295,162.9,295,0z"/>
			<path class="st3" d="M169.9,214.7c0.6,5.2,5.2,9.8,7,10.7c62.4-36.3,114.9-153.6,110-218.2c-6.1-3-7.9,8.6-27.4,16.2
				c-9.8,3.8-22.4,8.6-30.7,3.2c-8.4-5.5-4-16-11.3-26.6c-8.2-11.9-23.8-13.6-47.6-16.1c-21.7-2.3-42.6-4.6-67,3.2
				c-8.6,2.8-16.5,6.4-19.4,3.2c-3.5-3.9,2.4-16.4,9.7-25c15.9-18.8,35.1-15.4,41.2-31.5c1.8-4.7,3.1-12.7-0.8-16.9
				c-3.9-4.3-9.7-1.3-13.7-5.6c-4.4-4.8,0.5-10.9-2.4-20.2c-3.2-10.2-13.8-18.1-17.8-16.1c-3.1,1.5-0.3,8.4-0.8,21
				c-0.1,3.9-1.2,24.1-13.7,42c-5.6,8-11.9,16.9-23.4,19.4c-10.9,2.3-23.5-1.6-30.7-10.5c-5.5-6.9-6.1-14.6-6.5-20.2
				c-1.4-22.6,11.8-28.8,9.7-42.8c-2.8-18-28.5-31.2-49.2-33.1c-7.9-0.7-29.9-2.8-43.6,13.7c-11,13.3-12.3,33.4-4.8,45.2
				c3.7,5.9,6.6,4.9,16.1,16.1c6.7,7.8,11,12.9,12.9,21c0.8,3.5,3.5,14.5-3.2,24.2c-4.3,6.2-12,11.3-20.2,11.3
				c-11.5,0.1-16.1-9.9-24.2-7.3c-4.5,1.5-8.5,6.4-8.1,10.5c0.6,6.2,10.2,5.8,16.1,13.7c7.3,9.7-1.6,17.8,3.2,34.7
				c4.6,16.2,17.7,26.3,20.2,28.2c9.8,7.6,14.6,6,22.6,13.7c8.8,8.5,11.3,18.4,12.9,23.4c10,30.5,50.9,64.9,88,67.8
				c17.9,1.4,21.5-5.6,42-1.6c8.4,1.6,26.7,5.4,40.4,21C160,191.7,168.3,201.1,169.9,214.7z"/>
			<path class="st5" d="M-282.7,65c7.2,4.7,14.2-6.8,32.7-12.9c15.4-5.1,28.6-4,38.1-3.2c20.4,1.7,35.6,8.5,41.3,11.3
				c23.2,11.3,29.8,24.2,37.4,21c7.7-3.3,10.3-20.6,7.8-34.7c-5.8-32.6-37.2-38.8-38.1-67c-0.3-9.9,3.6-8.3,7-25.8
				c1.5-7.7,9.7-49.8-10.9-73.4c-13.4-15.4-27.2-9.3-35-25.8c-4.6-9.8-3.6-19.8-12.5-26.6c-4.6-3.5-9.9-4-12.5-4.8
				C-282.6-132.8-295,0-282.7,65z"/>
			<path class="st5" d="M-116.6,129c3.3-7.3-2.4-11.5,0-18.6c3.4-9.8,16.3-7,21-16.7c4.2-8.7-4.5-14.5-1.1-28.5
				c0.7-2.7,3.2-12.9,10.2-15.6c10.4-3.9,26.6,10,33.1,24.8c7.3,16.5,1.7,32.4,0.3,36.3c-7.5,20.1-25,28.3-29.6,30.4
				c-1.7,0.8-14.2,6.4-30.1,4.8c-1.8-0.2-13.6-1.4-14.3-5.4C-127.6,137.3-119.9,136.2-116.6,129z"/>
			<path class="st5" d="M-138.4,127.7c0,0.2-2,0.7-2.4,0c-1-1.5,7.6-5.9,10.2-13.7c1.9-5.7,0.9-14.5-5.4-19.4
				c-6.5-5-16.5-4.1-21.5,1.1c-2.8,2.9-3.4,6.4-4,10c-0.4,2.4-2.3,13.9,3.8,19.4C-151.2,130.8-138.4,127.3-138.4,127.7z"/>
			<path class="st2" d="M29.9-112.2c-25.5-9.3-55.5-18.9-85.2-28.5c6.1,8.2-0.4,45.3-52.6,24.4c-52.3-21-20.8-48.3-13.1-46.3
				s20.8-11-9.7-7.5c-30.5,3.5-71.8-25.6-67.6-37.2c9-24.7,170.7-27.4,261,5.5c90.3,32.9,160.9,140.6,151.9,165.3
				C205.4-11.7,120.2-79.3,29.9-112.2z"/>
			<path class="st2" d="M62.5,208c-41.7-20.4-114.2-38.6-102.2-63c12-24.5,103.9-46,145.6-25.6c41.7,20.4,51.4,114,39.5,138.5
				S104.3,228.5,62.5,208z"/>
			<path class="st2" d="M-18.9,195.7c-31.5,16-102.9-39.3-154.2-57c-4.7-1.6-14.5-4.7-22.6-0.2c-8.9,5-11.2,16.6-12.7,24.3
				c-1,5-3.4,18.3,3,33.1c2.6,5.8,9.6,21.8,22.2,23.9c10.6,1.8,13.2-8.2,31.7-10.9c5.3-0.8,17.2-2.3,26.5,4.4c4.2,3,5.3,6,9.8,12.9
				c5.3,8.3,12.8,20,20.7,26c15.3,11.6,43.1,9.6,49.7-1.7c4.9-8.5-5.5-16.4-0.3-26.2c5.9-11.1,26.5-14.4,41.3-9.6
				c5.1,1.6,4.8,2.7,12.2,6.4c5.7,2.8,25.6,12.5,49.8,10c12.4-1.3,26.6-2.7,29.2-10.2c6.1-17.4-51.7-66.2-83-52.8
				C-10.5,174.5-5.4,188.8-18.9,195.7z"/>
			<path class="st2" d="M62.4-215c-6.4-2.8-14.7-5-14.1-1.4c0.5,2.5,5.2,7.4,14,15.3c31,27.7,49,36,53.2,45.1c2.1,4.6-0.4,7-2.7,9.3
				c-5.2,5.1-13.4,0.1-13.2,4.7c0.3,6.7,26.1,15.2,28,17.1c3.5,3.3,8.3,24.6,21,28.2c3,0.9,12.7,3.6,13.5-2.7
				c0.8-6.3-7.8-17.1-5.6-18.1c2.3-1,11.7,11.3,19.6,13.8c8.6,2.7,20.7-0.1,31.3,4.6c6.5,2.9,10,5.5,38,26.2
				c32.1,23.7-4.9,68.1,0.7,68.9c8.2,1.2,36.1-24.9,32.2-32.8c-1.5-3,13.5-31.3-70.1-82.7c-12.9-7.9-0.3-46.1-8-58.9
				c-6.1-10.1-31,14.3-38.3,4.3c-7.7-10.5-20-16.8-26.7-20.1c-7.1-3.6-13.8-7-16.4-3.9c-2.3,2.7-1,9.8,3.6,16.4
				c6.6,9.4,15.1,10.7,22.2,20.6c4,5.5,6.7,12.7,4.7,14.3C144.6-143,87.3-204,62.4-215z"/>
			<path class="st0" d="M271.6,19.8"/>
			<path class="st1" d="M-248.2-135.5c-34.2,9.7,16,2.8,25,15.3c4.2,5.8,8.9,16.3,4.8,22.6c-3.7,5.8-11.2,2.2-25,8.9
				c-5.8,2.8-13.1,6.3-16.1,13.7c-4,9.7,1.8,20,3.2,22.6c8.6,15.4,30.2,25.5,43.6,19.4c14.1-6.4,14.5-28.7,25.8-29.1
				c2.8-0.1,2.6,1.3,9.7,3.2c6.2,1.6,14.3,3.8,21,0.8c6.8-3,5.2-8.2,12.1-12.9c3.1-2.1,8-4.2,23.4-3.2c19,1.2,30.4,5.6,30.7,4.8
				C-88.9-72-214-145.2-248.2-135.5z"/>
		</g>
	</g>
</symbol>
<use xlink:href="#earth_1_"  width="900.8" height="1024" x="-450.4" y="-512" transform="matrix(1 0 0 -1 0 0)" style="overflow:visible;"/>
</svg>
