<?xml version="1.0" encoding="utf-8"?>
<!-- Generator: Adobe Illustrator 15.0.0, SVG Export Plug-In . SVG Version: 6.00 Build 0)  -->
<!DOCTYPE svg PUBLIC "-//W3C//DTD SVG 1.1//EN" "http://www.w3.org/Graphics/SVG/1.1/DTD/svg11.dtd">
<svg version="1.1" xmlns="http://www.w3.org/2000/svg" xmlns:xlink="http://www.w3.org/1999/xlink" x="0px" y="0px" width="2000px"
	 height="2000px" viewBox="0 0 2000 2000" style="enable-background:new 0 0 2000 2000;" xml:space="preserve">
<style type="text/css">
<![CDATA[
	.st0{opacity:0.33;fill:#FFFFFF;}
	.st1{fill:#080738;stroke:#FFFFFF;stroke-width:59;stroke-miterlimit:10;}
	.st2{opacity:0.19;fill:#3F3A37;}
	.st3{fill:#B1AEA4;}
	.st4{opacity:0.38;}
	.st5{fill:#FFFFFF;stroke:#FFFFFF;stroke-width:4;stroke-linecap:round;stroke-linejoin:round;stroke-miterlimit:10;}
	.st6{opacity:0.38;fill:#FFFFFF;}
	.st7{fill:#8E8982;}
	.st8{fill:#DEF01E;stroke:#7A7426;stroke-width:6;stroke-miterlimit:10;}
	.st9{opacity:0.45;fill:#FCFCFB;}
	.st10{fill:#262224;}
	.st11{fill:#F7A8D2;}
	.st12{opacity:0.38;fill:#010102;}
	.st13{fill:#C1B17E;}
	.st14{fill:#96928B;}
	.st15{fill:#2D1D09;}
	.st16{fill:#FBFDC4;}
	.st17{opacity:0.5;fill:#78CCD3;stroke:#23429B;stroke-width:5;stroke-miterlimit:10;}
	.st18{fill:#FFFFFF;}
	.st19{fill:none;}
	.st20{fill:#DCDE38;stroke:#696219;stroke-width:4;stroke-miterlimit:10;}
	.st21{fill:#696219;}
	.st22{opacity:0.47;fill:#FFFFFF;}
	.st23{fill:#DEF01E;stroke:#98870B;stroke-width:6;stroke-miterlimit:10;}
	.st24{fill:#373333;}
	.st25{fill:#010102;}
	.st26{fill:#FEBA3E;stroke:#FFFFFF;stroke-width:59;stroke-miterlimit:10;}
	.st27{opacity:0.38;fill:#181517;}
	.st28{fill:#726E6A;}
	.st29{opacity:0.39;fill:#FCFCFB;}
	.st30{fill:#FF8000;stroke:#FFFFFF;stroke-width:9;stroke-miterlimit:10;}
	.st31{opacity:0.39;fill:#FFFFFF;}
	.st32{opacity:0.26;fill:#FFFFFF;}
]]>
</style>
<g id="bg">
	<polygon class="st1" points="1732.7,1779.9 306.7,1779.9 -184.9,307.2 2184.9,307.2 	"/>
	<g>
		<polygon class="st18" points="1346.2,1114.6 1084.2,1081 907.9,1277.8 858.9,1018.2 617.3,911.5 849,784.6 875.9,521.8 
			1068.1,703 1326.4,647.4 1213.5,886.2 		"/>
		<g>
			<path class="st18" d="M1346.2,1084.6c-29.9-3.8-59.7-7.7-89.6-11.5c-47-6-93.9-12-140.9-18.1c-10.4-1.3-20.8-3.2-31.2-4
				c-15.9-1.2-25.7,13.4-34.9,23.7c-30.1,33.6-60.2,67.2-90.3,100.9c-23.8,26.6-48,52.8-71.4,79.7c-0.4,0.4-0.8,0.9-1.2,1.3
				c16.7,4.4,33.4,8.8,50.1,13.2c-5.6-29.6-11.2-59.2-16.8-88.7c-8.8-46.5-17.6-93-26.4-139.6c-1.9-10.3-3.5-20.8-5.8-31
				c-3.8-16.5-19-20.5-32.2-26.3c-41.3-18.2-82.6-36.5-123.8-54.7c-32.6-14.4-65-29.3-97.9-43.2c-0.5-0.2-1.1-0.5-1.6-0.7
				c0,17.3,0,34.5,0,51.8c26.4-14.5,52.8-28.9,79.2-43.4c41.7-22.8,83.5-45.7,125.2-68.5c9-4.9,18.2-9.6,27.1-14.8
				c10.1-6,13.9-15.3,15.1-26.4c0.1-1.1,0.2-2.2,0.3-3.3c0.5-5.3,1.1-10.7,1.6-16c4.6-45,9.2-90,13.8-135
				c3.6-35.5,7.8-70.9,10.9-106.4c0.1-0.6,0.1-1.2,0.2-1.7c-17.1,7.1-34.1,14.1-51.2,21.2c21.9,20.6,43.8,41.3,65.7,61.9
				c34.6,32.6,69.2,65.3,103.9,97.9c7.5,7.1,14.8,14.3,22.5,21.2c8.7,7.9,18.4,10,29.7,7.8c1.1-0.2,2.2-0.5,3.2-0.7
				c5.3-1.1,10.5-2.3,15.8-3.4c44.2-9.5,88.4-19.1,132.6-28.6c34.8-7.5,69.8-14.5,104.6-22.5c0.6-0.1,1.1-0.2,1.7-0.4
				c-11.3-14.7-22.6-29.4-33.9-44.1c-12.9,27.2-25.7,54.4-38.6,81.6c-20.3,43-40.7,86-61,129c-4.4,9.3-8.9,18.6-13.2,27.9
				c-4.9,10.5-5.4,20.5,0,30.8c0.5,1,1.1,1.9,1.7,2.9c2.7,4.6,5.4,9.3,8.1,13.9c22.7,39.1,45.4,78.2,68.2,117.3
				c17.9,30.8,35.5,61.9,53.7,92.5c0.3,0.5,0.6,1,0.9,1.5c7.9,13.6,27.5,19.5,41,10.8c13.7-8.8,19.2-26.5,10.8-41
				c-15-25.8-29.9-51.5-44.9-77.3c-23.8-41-47.7-82-71.5-123c-5.4-9.4-10.9-18.7-16.3-28.1c0,10.1,0,20.2,0,30.3
				c12.7-26.9,25.5-53.9,38.2-80.8c20.3-42.9,40.6-85.8,60.8-128.7c4.6-9.8,9.3-19.6,13.9-29.4c5.3-11.2,5.5-23.1-2.3-33.3
				c-7.6-9.8-19.5-13.3-31.5-10.8c-29.1,6.3-58.2,12.5-87.4,18.8c-46.4,10-92.7,20-139.1,30c-10.6,2.3-21.2,4.6-31.8,6.8
				c9.7,2.6,19.5,5.1,29.2,7.7c-21.7-20.4-43.4-40.9-65-61.3c-34.5-32.5-69-65.1-103.6-97.6c-7.9-7.4-15.8-14.9-23.6-22.3
				c-8.9-8.4-21.5-11-32.8-6.2c-11.7,5-17.2,15.1-18.4,27.4c-3,29.6-6.1,59.3-9.1,88.9c-4.8,47.2-9.7,94.4-14.5,141.6
				c-1.1,10.8-2.2,21.6-3.3,32.3c5-8.6,9.9-17.3,14.9-25.9c-26.1,14.3-52.3,28.6-78.4,42.9c-41.6,22.8-83.2,45.6-124.8,68.3
				c-9.5,5.2-19,10.4-28.5,15.6c-9.2,5-14.9,15.6-14.9,25.9c0,9.6,5.5,21.8,14.9,25.9c27.2,12,54.5,24.1,81.7,36.1
				c43.4,19.2,86.8,38.3,130.2,57.5c9.9,4.4,19.8,8.8,29.7,13.1c-4.6-6-9.2-12-13.8-17.9c5.5,29.3,11.1,58.5,16.6,87.8
				c8.8,46.6,17.6,93.2,26.4,139.8c2,10.6,4,21.3,6,31.9c4.1,21.8,35.7,29.3,50.1,13.2c19.9-22.2,39.7-44.4,59.6-66.6
				c31.6-35.3,63.3-70.7,94.9-106c7.2-8.1,14.5-16.1,21.7-24.2c-7.1,2.9-14.1,5.9-21.2,8.8c29.5,3.8,59.1,7.6,88.6,11.4
				c47.1,6,94.1,12.1,141.2,18.1c10.7,1.4,21.5,2.8,32.2,4.1c7.1,0.9,16.4-4,21.2-8.8c5.2-5.2,9.1-13.7,8.8-21.2
				c-0.3-7.8-2.9-15.8-8.8-21.2C1361.1,1087.6,1354.5,1085.7,1346.2,1084.6z"/>
		</g>
	</g>
	<g>
		<polygon class="st18" points="178.7,817.2 193.7,747.6 144.8,695.8 215.7,688.5 249.8,626.1 278.6,691.2 348.6,704.4 295.5,751.9 
			304.6,822.5 243,786.8 		"/>
		<g>
			<path class="st18" d="M193.1,821.2c4.5-20.7,8.9-41.3,13.4-62c0.5-2.5,1.2-5.1,1.6-7.6c1.5-8.1-2.2-12.9-7.2-18.1
				c-8.3-8.8-16.6-17.6-24.9-26.4c-6.9-7.3-13.8-14.6-20.7-21.9c-3.5,8.5-7.1,17.1-10.6,25.6c21-2.2,42.1-4.3,63.1-6.5
				c2.6-0.3,5.2-0.5,7.7-0.8c8.3-0.9,11.8-5.3,15.3-11.7c5.8-10.6,11.6-21.2,17.4-31.8c4.8-8.8,9.6-17.6,14.5-26.4
				c-8.6,0-17.3,0-25.9,0c8.5,19.3,17.1,38.7,25.6,58c1,2.3,1.9,4.9,3.1,7.1c3.1,5.6,8.2,6.8,13.7,7.8c11.9,2.2,23.7,4.5,35.6,6.7
				c9.9,1.9,19.7,3.7,29.6,5.6c-2.2-8.4-4.4-16.7-6.6-25.1c-15.7,14.1-31.5,28.2-47.2,42.3c-1.9,1.7-4,3.3-5.8,5.2
				c-4.6,4.7-4.5,9.7-3.8,15.4c1.5,12,3.1,24,4.6,36c1.3,10,2.6,19.9,3.8,29.9c7.5-4.3,15-8.6,22.6-13
				c-18.3-10.6-36.6-21.2-54.8-31.9c-2.2-1.3-4.4-2.7-6.7-3.9c-7.2-3.7-13.1-1-19.5,2.1c-10.9,5.2-21.8,10.3-32.8,15.5
				c-9.1,4.3-18.2,8.6-27.2,12.9c-7.3,3.5-9.2,14-5.4,20.5c4.4,7.5,13.2,8.9,20.5,5.4c21.5-10.1,42.9-20.3,64.4-30.4
				c-5,0-10.1,0-15.1,0c20.5,11.9,41,23.8,61.6,35.8c8.9,5.2,24.1-1.2,22.6-13c-3-23.5-6-47.1-9.1-70.6c-1.5,3.5-2.9,7.1-4.4,10.6
				c17.7-15.8,35.4-31.7,53-47.5c8-7.2,4.3-23-6.6-25.1c-23.3-4.4-46.6-8.8-70-13.2c3,2.3,6,4.6,9,6.9
				c-9.6-21.7-19.2-43.4-28.8-65.1c-4.6-10.4-20.9-9.1-25.9,0c-11.4,20.8-22.8,41.6-34.2,62.5c4.3-2.5,8.6-5,13-7.4
				c-23.6,2.4-47.2,4.8-70.8,7.2c-6,0.6-11.3,3.3-13.7,9.2c-2.3,5.7-1.1,11.9,3.1,16.4c16.3,17.3,32.6,34.5,48.8,51.8
				c-1.3-4.9-2.6-9.7-3.9-14.6c-5,23.2-10,46.4-15,69.6c-1.6,7.7,2.3,16.6,10.5,18.5C182.2,833.4,191.4,829.4,193.1,821.2z"/>
		</g>
	</g>
	<g>
		<polygon class="st18" points="347.2,1389.9 362.2,1320.3 313.4,1268.4 384.2,1261.2 418.4,1198.7 447.2,1263.9 517.1,1277.1 
			464.1,1324.6 473.1,1395.2 411.6,1359.4 		"/>
		<g>
			<path class="st18" d="M361.7,1393.9c4.5-20.7,8.9-41.3,13.4-62c0.5-2.5,1.2-5.1,1.6-7.6c1.5-8.1-2.2-12.9-7.2-18.1
				c-8.3-8.8-16.6-17.6-24.9-26.4c-6.9-7.3-13.8-14.6-20.7-21.9c-3.5,8.5-7.1,17.1-10.6,25.6c21-2.2,42.1-4.3,63.1-6.5
				c2.6-0.3,5.2-0.5,7.7-0.8c8.3-0.9,11.8-5.3,15.3-11.7c5.8-10.6,11.6-21.2,17.4-31.8c4.8-8.8,9.6-17.6,14.5-26.4
				c-8.6,0-17.3,0-25.9,0c8.5,19.3,17.1,38.7,25.6,58c1,2.3,1.9,4.9,3.1,7.1c3.1,5.6,8.2,6.8,13.7,7.8c11.9,2.2,23.7,4.5,35.6,6.7
				c9.9,1.9,19.7,3.7,29.6,5.6c-2.2-8.4-4.4-16.7-6.6-25.1c-15.7,14.1-31.5,28.2-47.2,42.3c-1.9,1.7-4,3.3-5.8,5.2
				c-4.6,4.7-4.5,9.7-3.8,15.4c1.5,12,3.1,24,4.6,36c1.3,10,2.6,19.9,3.8,29.9c7.5-4.3,15-8.6,22.6-13
				c-18.3-10.6-36.6-21.2-54.8-31.9c-2.2-1.3-4.4-2.7-6.7-3.9c-7.2-3.7-13.1-1-19.5,2.1c-10.9,5.2-21.8,10.3-32.8,15.5
				c-9.1,4.3-18.2,8.6-27.2,12.9c-7.3,3.5-9.2,14-5.4,20.5c4.4,7.5,13.2,8.9,20.5,5.4c21.5-10.1,42.9-20.3,64.4-30.4
				c-5,0-10.1,0-15.1,0c20.5,11.9,41,23.8,61.6,35.8c8.9,5.2,24.1-1.2,22.6-13c-3-23.5-6-47.1-9.1-70.6c-1.5,3.5-2.9,7.1-4.4,10.6
				c17.7-15.8,35.4-31.7,53-47.5c8-7.2,4.3-23-6.6-25.1c-23.3-4.4-46.6-8.8-70-13.2c3,2.3,6,4.6,9,6.9
				c-9.6-21.7-19.2-43.4-28.8-65.1c-4.6-10.4-20.9-9.1-25.9,0c-11.4,20.8-22.8,41.6-34.2,62.5c4.3-2.5,8.6-5,13-7.4
				c-23.6,2.4-47.2,4.8-70.8,7.2c-6,0.6-11.3,3.3-13.7,9.2c-2.3,5.7-1.1,11.9,3.1,16.4c16.3,17.3,32.6,34.5,48.8,51.8
				c-1.3-4.9-2.6-9.7-3.9-14.6c-5,23.2-10,46.4-15,69.6c-1.6,7.7,2.3,16.6,10.5,18.5C350.8,1406.1,359.9,1402.1,361.7,1393.9z"/>
		</g>
	</g>
	<g>
		<polygon class="st18" points="1598.1,854.3 1580.3,823 1544.3,819.9 1568.6,793.3 1560.4,758.1 1593.3,773 1624.1,754.3 
			1620.2,790.2 1647.4,813.7 1612.1,821.1 		"/>
		<g>
			<path class="st18" d="M1611.1,846.7c-3.2-5.6-6.4-11.3-9.7-16.9c-3.5-6.1-7.2-16-13.6-19.8c-6.1-3.6-17.2-2.9-24.1-3.4
				c-6.5-0.5-13-1.1-19.4-1.6c3.5,8.5,7.1,17.1,10.6,25.6c4.4-4.8,8.8-9.6,13.1-14.4c4.7-5.1,13.1-11.9,15-18.9
				c1.9-7-2.2-17.3-3.8-24.1c-1.5-6.3-3-12.7-4.4-19c-7.3,5.6-14.7,11.3-22,16.9c5.9,2.7,11.9,5.4,17.8,8c6.3,2.8,15.6,8.9,22.7,8.9
				c7.5,0,15.7-6.9,21.7-10.6c5.6-3.4,11.1-6.7,16.7-10.1c-7.5-4.3-15-8.6-22.6-13c-0.7,6.1-1.4,12.3-2,18.4
				c-0.8,7-3.5,16.4-0.6,23.2c2.8,6.6,10.8,11.5,16,16c4.8,4.1,9.6,8.3,14.4,12.4c2.2-8.4,4.4-16.7,6.6-25.1
				c-6.4,1.3-12.7,2.6-19.1,4c-7,1.4-17.5,1.9-22.8,7.2c-2.8,2.8-4,7.1-5.6,10.7c-1.6,3.7-3.1,7.5-4.7,11.2c-2.5,6-5,12-7.6,18
				c-3.1,7.3,3.3,16.8,10.5,18.5c8.8,2,15.2-2.7,18.5-10.5c4.7-11.1,9.3-22.2,14-33.2c-3.5,3.5-7,7-10.5,10.5
				c11.8-2.4,23.5-4.9,35.3-7.3c10.7-2.2,14.9-17.9,6.6-25.1c-9.1-7.9-18.2-15.7-27.3-23.6c1.5,3.5,2.9,7.1,4.4,10.6
				c1.3-11.9,2.6-23.9,4-35.8c1.3-11.6-13.6-18.4-22.6-13c-10.3,6.2-20.6,12.4-30.9,18.7c5,0,10.1,0,15.1,0
				c-11-4.9-21.9-9.9-32.9-14.8c-5.6-2.5-11.6-2.9-16.7,1.2c-4.8,3.8-6.8,9.7-5.4,15.8c2.7,11.7,5.5,23.4,8.2,35.1
				c1.3-4.9,2.6-9.7,3.9-14.6c-8.1,8.9-16.2,17.8-24.3,26.7c-9.2,10.1-2.4,24.5,10.6,25.6c12,1,24,2,35.9,3c-4.3-2.5-8.6-5-13-7.4
				c6,10.4,11.9,20.9,17.9,31.3c4,7,13.6,9.4,20.5,5.4C1612.8,863.1,1615.1,853.8,1611.1,846.7z"/>
		</g>
	</g>
	<g>
		<polygon class="st18" points="1495.1,1335.7 1512.1,1303.9 1495.6,1271.8 1531.1,1278.2 1556.5,1252.6 1561.4,1288.3 
			1593.6,1304.5 1561.1,1320.2 1555.6,1355.9 1530.7,1329.8 		"/>
		<g>
			<path class="st18" d="M1508,1343.2c3.1-5.7,6.1-11.5,9.2-17.2c3.3-6.2,9.9-14.9,9.9-22.2c0-7.2-6.4-16.1-9.6-22.3
				c-3-5.8-6-11.6-8.9-17.3c-5.6,7.3-11.3,14.7-16.9,22c6.4,1.2,12.8,2.3,19.2,3.5c6.8,1.2,17.4,4.8,24.3,2.9
				c7.1-2,13.3-10.6,18.3-15.6c4.6-4.6,9.2-9.2,13.7-13.9c-8.4-2.2-16.7-4.4-25.1-6.6c0.8,6.1,1.7,12.2,2.5,18.4
				c1,7,0.6,16.7,5.1,22.5c4.4,5.6,13.3,8.4,19.4,11.5c5.7,2.9,11.3,5.7,17,8.6c0-8.6,0-17.3,0-25.9c-5.6,2.7-11.1,5.4-16.7,8.1
				c-6.3,3.1-15.6,5.7-20,11.5c-4.4,5.7-4.2,15.1-5.3,22c-1,6.3-1.9,12.5-2.9,18.8c8.4-2.2,16.7-4.4,25.1-6.6
				c-4.5-4.7-9-9.4-13.5-14.1c-4.9-5.1-10.9-13.8-18.1-15.8c-6.8-1.9-17.5,1.6-24.3,2.7c-6.4,1-12.8,2.1-19.3,3.1
				c-8,1.3-12.5,11.2-10.5,18.5c2.3,8.5,10.4,11.8,18.5,10.5c11.9-1.9,23.7-3.9,35.6-5.8c-4.9-1.3-9.7-2.6-14.6-3.9
				c8.3,8.7,16.6,17.4,25,26c7.2,7.5,23.3,4.8,25.1-6.6c1.8-11.9,3.6-23.8,5.5-35.6c-2.3,3-4.6,6-6.9,9
				c10.8-5.2,21.6-10.5,32.5-15.7c9.9-4.8,9.7-21,0-25.9c-10.7-5.4-21.5-10.8-32.2-16.2c2.3,3,4.6,6,6.9,9
				c-1.6-11.9-3.3-23.8-4.9-35.7c-1.6-11.6-17.9-13.8-25.1-6.6c-8.5,8.5-16.9,17.1-25.4,25.6c4.9-1.3,9.7-2.6,14.6-3.9
				c-11.8-2.1-23.7-4.3-35.5-6.4c-12.9-2.3-23.2,9.9-16.9,22c5.5,10.7,11,21.4,16.5,32.1c0-5,0-10.1,0-15.1
				c-5.7,10.6-11.4,21.2-17,31.8c-3.8,7.1-1.8,16.3,5.4,20.5C1494.3,1352.6,1504.2,1350.4,1508,1343.2z"/>
		</g>
	</g>
	<g>
		<polygon class="st18" points="1254.4,499 1198.6,488 1157.9,527.8 1151.1,471.3 1100.7,444.9 1152.3,421 1161.9,365 1200.6,406.6 
			1256.8,398.4 1229.2,448.1 		"/>
		<g>
			<path class="st18" d="M1258.4,484.6c-16.7-3.3-33.4-6.6-50.1-9.9c-1.9-0.4-3.8-0.8-5.7-1.1c-7.3-1.2-12.3,1.6-17.1,6.3
				c-6.9,6.7-13.8,13.5-20.7,20.2c-5.8,5.7-11.7,11.4-17.5,17.1c8.5,3.5,17.1,7.1,25.6,10.6c-2-16.9-4.1-33.8-6.1-50.7
				c-0.2-1.9-0.4-3.8-0.7-5.7c-0.9-7.3-4.5-11.4-10.5-14.6c-8.5-4.5-17.1-8.9-25.6-13.4c-7.2-3.8-14.5-7.6-21.7-11.4
				c0,8.6,0,17.3,0,25.9c15.3-7.1,30.5-14.1,45.8-21.2c1.9-0.9,4-1.7,5.8-2.7c5-2.8,6.6-7.4,7.5-12.4c1.6-9.7,3.3-19.3,4.9-29
				c1.3-7.9,2.7-15.8,4-23.6c-8.4,2.2-16.7,4.4-25.1,6.6c11.6,12.5,23.2,25,34.8,37.4c1.3,1.4,2.5,2.9,3.9,4.2
				c5.4,5.1,11.6,4.3,18.1,3.3c9.5-1.4,19.1-2.8,28.6-4.2c8.1-1.2,16.1-2.4,24.2-3.6c-5.6-7.3-11.3-14.7-16.9-22
				c-8.3,14.9-16.6,29.7-24.9,44.6c-0.9,1.7-2,3.3-2.8,5.1c-3.3,6.6-1.4,12.3,1.6,18.3c4.3,8.6,8.5,17.3,12.8,25.9
				c3.6,7.3,7.2,14.6,10.9,21.9c3.6,7.3,13.9,9.3,20.5,5.4c7.4-4.3,9-13.2,5.4-20.5c-8.4-17-16.8-34-25.2-51c0,5,0,10.1,0,15.1
				c9.2-16.6,18.5-33.1,27.7-49.7c2.9-5.3,2.6-11.9-1.2-16.7c-4.1-5.1-9.5-6.3-15.8-5.4c-18.8,2.8-37.5,5.5-56.3,8.3
				c4.9,1.3,9.7,2.6,14.6,3.9c-12.9-13.9-25.8-27.8-38.7-41.7c-7.2-7.7-23.2-4.5-25.1,6.6c-3.2,18.7-6.4,37.4-9.5,56.1
				c2.3-3,4.6-6,6.9-9c-17.2,8-34.4,16-51.6,23.9c-10.2,4.7-9.4,21,0,25.9c16.8,8.8,33.6,17.6,50.4,26.4c-2.5-4.3-5-8.6-7.4-13
				c2.3,18.8,4.5,37.6,6.8,56.5c0.7,6.1,3.2,11.3,9.2,13.7c5.6,2.3,12,1.2,16.4-3.1c13.6-13.2,27.1-26.5,40.7-39.7
				c-4.9,1.3-9.7,2.6-14.6,3.9c18.6,3.7,37.2,7.3,55.8,11c7.7,1.5,16.6-2.2,18.5-10.5C1270.6,495.6,1266.6,486.2,1258.4,484.6z"/>
		</g>
	</g>
	<polygon class="st18" points="878,1547 860.6,1536.3 841.9,1544.6 846.7,1524.8 833.1,1509.6 853.4,1508 863.6,1490.4 
		871.4,1509.2 891.4,1513.5 875.9,1526.7 	"/>
	<g>
		<polygon class="st18" points="1149.2,1673 1173.2,1637.4 1157.6,1597.4 1198.8,1609.3 1232,1582.1 1233.5,1625 1269.7,1648.2 
			1229.3,1662.8 1218.4,1704.4 1192,1670.5 		"/>
		<g>
			<path class="st18" d="M1162.1,1680.6c7.2-10.6,14.4-21.3,21.6-31.9c3.6-5.4,5.6-11.2,3.1-17.6c-2.7-6.8-5.3-13.6-8-20.4
				c-2.3-5.7-4.5-11.5-6.8-17.2c-6.2,6.2-12.3,12.3-18.5,18.5c12.3,3.6,24.7,7.1,37,10.7c1.4,0.4,2.8,0.9,4.3,1.2
				c6.7,1.4,11.5-1.3,16.3-5.3c5.7-4.7,11.4-9.4,17.2-14.1c4.8-3.9,9.5-7.8,14.3-11.7c-8.5-3.5-17.1-7.1-25.6-10.6
				c0.4,12.8,0.9,25.6,1.3,38.5c0,1.5,0,3,0.1,4.5c0.6,6.7,4.1,10.8,9.3,14.2c6.2,4,12.5,8,18.7,12c5.2,3.3,10.4,6.7,15.6,10
				c1.2-9.1,2.4-18.3,3.6-27.4c-12.1,4.4-24.1,8.7-36.2,13.1c-1.4,0.5-2.8,1-4.2,1.5c-6.1,2.3-9.5,6.6-11,12.6
				c-1.9,7.2-3.7,14.3-5.6,21.5c-1.6,6-3.1,11.9-4.7,17.9c8.4-2.2,16.7-4.4,25.1-6.6c-7.9-10.1-15.8-20.2-23.7-30.4
				c-4-5.2-9-8.2-15.8-7.8c-7.3,0.4-14.6,0.9-21.9,1.3c-6.2,0.4-12.3,0.7-18.5,1.1c-7.8,0.5-15.4,6.6-15,15c0.3,7.7,6.6,15.5,15,15
				c14.3-0.8,28.6-1.7,42.9-2.5c-3.5-1.5-7.1-2.9-10.6-4.4c8.8,11.3,17.6,22.6,26.4,33.9c7.1,9.1,22.5,3.3,25.1-6.6
				c3.6-13.9,7.2-27.7,10.8-41.6c-3.5,3.5-7,7-10.5,10.5c13.5-4.9,26.9-9.8,40.4-14.6c12.1-4.4,14.9-20.2,3.6-27.4
				c-12.1-7.7-24.1-15.4-36.2-23.2c2.5,4.3,5,8.6,7.4,13c-0.5-14.3-1-28.6-1.4-42.9c-0.2-6-3.6-11.4-9.2-13.7
				c-6-2.4-11.5-0.9-16.4,3.1c-11.1,9.1-22.1,18.2-33.2,27.3c4.9-1.3,9.7-2.6,14.6-3.9c-13.8-4-27.5-7.9-41.3-11.9
				c-10.2-2.9-22.7,7.6-18.5,18.5c5.2,13.3,10.4,26.7,15.7,40c0.5-3.9,1-7.7,1.5-11.6c-8,11.9-16,23.7-24.1,35.6
				c-4.5,6.7-1.3,16.6,5.4,20.5C1149,1690.3,1157.6,1687.3,1162.1,1680.6z"/>
		</g>
	</g>
	<g>
		<polygon class="st18" points="716.7,574.4 653.6,507.7 562.9,521.9 606.8,441.3 565.3,359.5 655.5,376.3 720.5,311.5 732.4,402.5 
			814.1,444.3 731.2,483.7 		"/>
		<g>
			<path class="st18" d="M727.3,563.8c-18.6-19.7-37.3-39.4-55.9-59.1c-2.4-2.5-4.6-5.2-7.2-7.6c-6.2-5.8-13.5-4.1-20.8-2.9
				c-15.5,2.4-31,4.9-46.5,7.3c-12.7,2-25.3,4-38,5.9c5.6,7.3,11.3,14.7,16.9,22c13-23.8,25.9-47.6,38.9-71.4c1.7-3,3.4-6,5-9.2
				c4-8,0.6-14-2.8-20.8c-7.1-14-14.2-28-21.3-42c-5.8-11.4-11.6-22.9-17.4-34.3c-5.6,7.3-11.3,14.7-16.9,22
				c26.6,5,53.3,9.9,79.9,14.9c3.4,0.6,6.8,1.4,10.2,1.9c9.1,1.5,13.5-2.8,19.1-8.3c11.1-11.1,22.2-22.2,33.4-33.2
				c9.1-9,18.1-18.1,27.2-27.1c-8.5-3.5-17.1-7.1-25.6-10.6c3.5,26.9,7,53.8,10.5,80.6c0.4,3.4,0.9,6.9,1.3,10.3
				c1.2,9.4,6,12.2,13,15.8c14,7.1,27.9,14.3,41.9,21.4c11.4,5.8,22.8,11.7,34.2,17.5c0-8.6,0-17.3,0-25.9
				c-24.5,11.6-49,23.3-73.4,34.9c-3.1,1.5-6.4,2.8-9.4,4.5c-6.4,3.7-7,9-7.9,15.2c-2.5,15.5-5,31-7.4,46.5c-2,12.7-4.1,25.3-6.1,38
				c-1.2,7.7,2,16.5,10.5,18.5c7.2,1.6,17.1-2.2,18.5-10.5c4.2-26.4,8.5-52.9,12.7-79.3c0.6-3.8,1.2-7.6,1.8-11.3
				c-2.3,3-4.6,6-6.9,9c24.2-11.5,48.3-23,72.5-34.5c3.5-1.6,6.9-3.3,10.4-4.9c10-4.8,9.6-21,0-25.9c-23.8-12.2-47.7-24.4-71.5-36.6
				c-3.4-1.7-6.8-3.5-10.2-5.2c2.5,4.3,5,8.6,7.4,13c-3.5-26.5-6.9-53.1-10.4-79.6c-0.5-3.8-1-7.6-1.5-11.4
				c-0.8-6.1-3.1-11.3-9.2-13.7c-5.6-2.2-12-1.2-16.4,3.1c-19,18.9-37.9,37.8-56.9,56.7c-2.7,2.7-5.4,5.4-8.1,8.1
				c4.9-1.3,9.7-2.6,14.6-3.9c-26.3-4.9-52.6-9.8-79-14.7c-3.8-0.7-7.5-1.4-11.3-2.1c-13-2.4-23.1,9.9-16.9,22
				c12.1,23.9,24.2,47.7,36.3,71.6c1.7,3.4,3.5,6.8,5.2,10.2c0-5,0-10.1,0-15.1c-12.8,23.5-25.6,47-38.4,70.5
				c-1.8,3.4-3.7,6.7-5.5,10.1c-2.9,5.3-2.6,11.9,1.2,16.7c4,5.1,9.5,6.4,15.8,5.4c26.4-4.1,52.9-8.3,79.3-12.4
				c3.8-0.6,7.6-1.2,11.3-1.8c-4.9-1.3-9.7-2.6-14.6-3.9c18.4,19.4,36.8,38.9,55.2,58.3c2.6,2.8,5.3,5.6,7.9,8.3
				c5.6,5.9,15.6,5.6,21.2,0C733.2,579.1,732.9,569.7,727.3,563.8z"/>
		</g>
	</g>
</g>
<g id="text">
	<g>
		<g>
			<g>
				<path class="st30" d="M724.7,1241.9c-0.8,0.2-1.7-0.4-1.8-0.9c-7.1-34.1-14.3-68.3-21.4-102.4c-0.1-0.7,0.3-1.5,1.4-1.7
					c18.6-3.8,37.1-7.3,55.8-10.5c1-0.2,2,0.2,2.3,1.1c3.7,9,7.3,18,10.9,27.1c0.4,1,0.8,1.3,1.3,1.2c0.4-0.1,0.7-0.7,0.6-1.7
					c0.1-9.5,0.3-19.1,0.5-28.6c0.1-0.9,0.8-1.7,2.1-1.9c19.4-3,38.8-5.7,58.2-8c1.5-0.2,2.4,0.3,2.5,1.3c4,34.6,8,69.1,12,103.7
					c0.1,0.9-0.8,1.5-2,1.7c-11.8,1.4-23.5,2.9-35.2,4.6c-1.2,0.2-2.2-0.3-2.4-1.3c-2.1-14.8-4.3-29.6-6.4-44.3
					c-0.2-1.1-0.4-1.5-0.8-1.5c-0.4,0.1-0.7,0.7-1,3c-1.3,15-2.6,30-3.8,45c-0.1,0.9-1,1.3-2,1.5c-8.8,1.4-13.2,2.1-21.9,3.6
					c-1,0.2-1.8-0.3-2.4-1.2c-5.3-12.9-10.7-25.8-16.2-38.7c-1-2.3-1.9-2.6-2.5-2.5c-0.6,0.1-0.9,0.9-0.7,2
					c2.5,13.8,5,27.5,7.5,41.3c0.2,1-0.3,1.7-1.7,1.9C746.5,1237.6,735.6,1239.7,724.7,1241.9z"/>
				<path class="st30" d="M859.4,1220.7c-1.4,0.1-2.6-0.7-2.8-1.9c-3.8-34.4-7.6-68.8-11.4-103.2c-0.1-0.7,0.7-1.5,1.7-1.6
					c12-1.3,23.9-2.5,35.9-3.5c1.5-0.1,2.6,0.4,2.6,1.2c2.9,34.6,5.8,69.1,8.6,103.7c0.1,0.9-0.8,1.9-2.2,2.1
					C881.1,1218.5,870.2,1219.5,859.4,1220.7z"/>
				<path class="st30" d="M950.6,1141c-1.2,0.1-2.1-0.3-2.5-1.5c-1.4-3.4-3.5-5-6.4-4.9c-2.1,0.1-3,1.3-3,2.7
					c0.2,4.6,10.2,9.4,22.6,14.7c10.9,4.7,23.2,14,23.8,26.6c1,21.6-20.7,34.9-40.7,35.9c-23.5,1.1-44.6-10.6-46.4-35.8
					c-0.1-0.7,0.7-1.5,2.3-1.6c11.1-1.3,16.6-1.8,27.7-2.9c1.4-0.1,2.3,0.5,2.5,1.7c1.2,5.6,4.9,11.6,9.6,11.4
					c2.8-0.1,5.2-2.7,4.4-4.8c-2.4-6.5-16.8-11.9-25.7-16.1c-10.7-5-21.4-14.6-22.4-26.7c-1.9-22.2,25.4-32.4,41.9-33.2
					c17.5-0.9,45.8,6.5,46.3,30.5c0,1-0.8,1.9-2.4,1.9C971.6,1139.5,961.1,1140.2,950.6,1141z"/>
				<path class="st30" d="M1045.8,1140.1c-1.2,0-2-0.5-2.4-1.6c-1.2-3.5-3.2-5.2-6.1-5.3c-2.1,0-3.1,1.1-3.1,2.5
					c-0.1,4.6,9.6,10,21.6,16.1c10.6,5.4,22.3,15.5,22,28.1c-0.4,21.7-22.9,33.5-42.9,33.2c-23.5-0.4-43.8-13.5-44-38.7
					c0-0.7,0.8-1.4,2.4-1.5c11.1-0.5,16.7-0.8,27.8-1.1c1.4,0,2.2,0.6,2.4,1.9c0.8,5.7,4.1,11.9,8.9,12c2.8,0,5.3-2.3,4.7-4.5
					c-2-6.6-16-12.9-24.6-17.7c-10.4-5.7-20.4-15.9-20.6-28.1c-0.4-22.3,27.4-30.7,43.9-30.4c17.5,0.2,45.3,9.4,44.3,33.5
					c0,1-0.9,1.8-2.6,1.7C1066.9,1140.1,1056.3,1140,1045.8,1140.1z"/>
				<path class="st30" d="M1085.6,1214.4c-1.4-0.1-2.5-1.1-2.4-2.3c1.8-34.6,3.5-69.1,5.3-103.7c0-0.7,0.9-1.4,2-1.3
					c12,0.6,24,1.4,36,2.3c1.5,0.1,2.5,0.8,2.4,1.6c-2.7,34.6-5.4,69.2-8.1,103.8c-0.1,0.9-1.1,1.8-2.5,1.7
					C1107.4,1215.7,1096.5,1215,1085.6,1214.4z"/>
				<path class="st30" d="M1133.5,1142.8c1.6-23.4,26.6-30.8,46.4-28.6c19.8,2.2,42.6,14.9,39,38.1c-2,14-4,28-5.9,42
					c-2.9,22-25.9,29.5-45.1,27.3c-19.3-2.2-40-14.5-37.9-36.6C1131.1,1170.9,1132.3,1156.8,1133.5,1142.8z M1168.4,1188.2
					c-0.2,2.1,0.6,3.8,2.8,4.1c2.2,0.2,3.4-1.2,3.6-3.3c1.6-13.7,3.1-27.5,4.7-41.2c0.2-1.8-0.6-4-2.9-4.2c-2.3-0.3-3.5,1.5-3.7,3.5
					C1171.4,1160.7,1169.9,1174.5,1168.4,1188.2z"/>
				<path class="st30" d="M1230.3,1122.9c0.1-1,1.3-1.7,2.6-1.5c11.8,1.7,23.6,3.6,35.3,5.6c1.5,0.3,2.4,1,2.6,2.2
					c2.3,11.3,4.5,22.6,6.7,33.9c0.2,1.2,0.7,1.9,1.1,1.9c0.6,0.1,1.3-0.3,1.6-1.6c1.9-10.5,3.9-20.9,5.8-31.4
					c0.2-1,1.4-1.6,2.8-1.4c10.4,1.9,20.8,4,31.2,6.1c1.7,0.3,2.5,1.5,2.3,2.5c-7.1,33.8-14.2,67.5-21.3,101.3
					c-0.2,1-1.2,1.7-2.5,1.4c-12-2.5-24.1-4.9-36.1-7c-0.8-0.1-1.8-0.9-1.9-1.8c-1.6-10.8-2.4-16.1-4.1-26.9
					c-0.2-1.5-0.8-2.2-1.4-2.3s-1.1,0.4-1.3,1.8c-1.7,10-2.6,15-4.3,25c-0.2,1-1.5,1.6-2.8,1.4c-9.8-1.7-19.7-3.2-29.5-4.7
					c-1.2-0.2-1.8-1.1-1.7-2.3C1220.3,1191.1,1225.3,1157,1230.3,1122.9z"/>
				<path class="st30" d="M664.6,1334.8c-6.9-24.1,6.9-44.7,30.7-50.3c21.9-5.2,44.8,5,49.5,28.4c0.8,3.8,0.9,4.2-0.8,4.5
					c-11.2,2.7-22.3,5.5-33.4,8.3c-1.6,0.4-3.5-0.4-3.9-2c-0.8-3.5-1.2-5.3-2.1-8.8c-0.5-2-2.1-2.3-3.6-2s-2.7,1.7-2.3,3.2
					c3.5,14.4,6.9,28.9,10.4,43.3c0.3,1.4,1.8,2.1,3.4,1.7c1.8-0.4,2.6-1.8,2.2-3.2c-1.3-5.6-2-8.4-3.3-14.1
					c-0.2-0.8,0.2-2.3,1.7-2.5c11.4-2.3,22.7-4.4,34.1-6.5c0.9-0.2,1.6,0.3,1.7,0.8c5.2,24.7-3.7,47.9-29.6,54
					c-20.9,5-41.7-6.5-47.3-27.6C669.6,1353.1,667.1,1343.9,664.6,1334.8z"/>
				<path class="st30" d="M748.9,1306.5c-4.6-21.5,13.5-36.3,32.8-39.5c19.3-3.3,41.2,4.7,44,26.5c2,14,3.9,28,5.9,42
					c3.1,20.4-13,34.9-31.7,38.1c-18.8,3.2-38.8-5.1-42.6-25.5C754.4,1334.2,751.7,1320.3,748.9,1306.5z M791.4,1341.3
					c0.4,2.1,1.5,3.5,3.5,3.2c2-0.3,2.6-2,2.2-4.2c-2.3-13.6-4.6-27.3-6.9-40.9c-0.3-1.8-1.6-3.7-3.6-3.3c-2,0.3-2.6,2.3-2.3,4.3
					C786.7,1314,789,1327.6,791.4,1341.3z"/>
				<path class="st30" d="M843.4,1366.5c-0.7,0.1-1.5-0.5-1.6-1.1c-4.7-34.6-9.3-69.1-14-103.7c-0.1-0.7,0.4-1.5,1.3-1.6
					c17-2.2,33.9-4.2,50.9-5.9c1-0.1,1.8,0.4,2,1.2c2.8,9.3,5.6,18.6,8.3,27.8c0.3,1,0.7,1.4,1.1,1.3c0.4,0,0.7-0.6,0.6-1.6
					c0.7-9.5,1.3-19,2.1-28.5c0.1-0.9,0.8-1.7,2-1.7c17.7-1.4,35.3-2.6,53-3.4c1.3-0.1,2.1,0.5,2.2,1.5c1.5,34.8,3,69.5,4.6,104.3
					c0,0.9-0.8,1.5-1.9,1.5c-10.6,0.5-21.2,1.1-31.8,1.8c-1.1,0.1-2-0.4-2-1.4c-1.1-14.9-2.2-29.8-3.2-44.7
					c-0.1-1.1-0.3-1.6-0.7-1.5c-0.4,0-0.7,0.6-1.1,2.9c-2,14.8-4,29.7-5.9,44.5c-0.1,0.9-1,1.2-1.8,1.3c-7.9,0.7-11.9,1-19.8,1.8
					c-0.9,0.1-1.6-0.4-2.1-1.4c-4.1-13.3-8.2-26.6-12.4-39.9c-0.8-2.4-1.6-2.7-2.1-2.7c-0.5,0.1-0.8,0.8-0.7,1.9
					c1.5,13.9,3,27.8,4.5,41.7c0.1,1-0.4,1.6-1.6,1.8C863.2,1363.9,853.3,1365.2,843.4,1366.5z"/>
				<path class="st30" d="M958.9,1251.4c-0.1-1.4,0.9-2.5,2.6-2.5c14.8-0.5,29.7-0.8,44.5-0.9c18.4,0.3,37.5,12.1,36.3,32.1
					c-0.9,15.9-18.6,26-33.3,26.1c-8.9,0.1-9.9,0.1-9.9,1.8c0.1,15.1,0.3,30.3,0.4,45.4c0,1.1-1,2-3,2c-10.3,0.1-20.5,0.4-30.8,0.7
					c-1.6,0.1-2.9-1-2.9-2.5C961.5,1319.5,960.2,1285.4,958.9,1251.4z M998.9,1287.8c0,0.6,0.6,1.6,1.9,1.6c2.8,0,3.9-1.9,3.9-4.8
					c0-2.3,0-3.5,0-5.9c0-2.3-1.5-3.9-4-3.8c-0.6,0-0.9,0-1.3,0.2c-0.4,0.1-0.6,0.7-0.6,1.2C998.8,1280.8,998.8,1283.1,998.9,1287.8
					z"/>
				<path class="st30" d="M1112.1,1329.6c1.3,0.1,1.9,0.9,1.9,1.6c-0.8,10.6-1.3,15.9-2.1,26.5c-0.1,0.9-1,1.5-2.1,1.4
					c-21-1.5-41.9-2.7-63-3.3c-1.1,0-1.9-0.9-1.9-1.9c0.9-34.5,1.8-69,2.8-103.5c0-0.9,1.2-2,2.5-1.9c10.8,0.3,21.5,0.8,32.3,1.3
					c1.1,0.1,1.9,0.8,1.8,1.7c-1.3,25-2.7,50-4,75.1c0,0.6,0.5,1,1,1.1C1091.6,1328.1,1101.9,1328.8,1112.1,1329.6z"/>
				<path class="st30" d="M1127,1254.7c0.1-0.9,1.3-1.8,2.6-1.6c22.6,2.1,45,4.6,67.5,7.5c1.1,0.2,1.8,1,1.7,1.8
					c-1.4,10.2-2.1,15.3-3.5,25.5c-0.1,0.9-1.1,1.3-2.2,1.1c-10.3-1.4-20.7-2.7-31.1-3.9c-0.7-0.1-1.3,0.3-1.4,0.9
					c-0.4,3.2-0.5,4.8-0.9,8c-0.1,0.6,0.6,1.1,1.2,1.1c5.8,0.7,8.8,1,14.6,1.7c0.7,0.1,1.2,0.6,1.2,1.2c-1.3,10.3-1.9,15.5-3.2,25.9
					c-0.1,0.7-0.9,1.2-1.6,1.1c-5.9-0.7-8.8-1.1-14.6-1.7c-0.7-0.1-1.3,0.3-1.4,1c-0.4,3.4-0.6,5-0.9,8.4c-0.1,0.6,0.4,1.1,1,1.1
					c10.3,1.2,20.7,2.4,31,3.9c1.3,0.2,1.9,1,1.8,1.7c-1.5,10.6-2.2,15.8-3.6,26.4c-0.1,0.9-1.1,1.4-2.1,1.3
					c-20.9-2.8-41.8-5.1-62.8-7c-1.1-0.1-1.9-1-1.8-2C1121.2,1323.5,1124.1,1289.1,1127,1254.7z"/>
				<path class="st30" d="M1215.2,1371.8c-1.2-0.2-2.3-1.2-2.1-2.4c4-24.6,7.9-49.2,11.9-73.8c0.2-1-0.8-1.9-2.1-2.1
					c-7.4-1.2-11.1-1.7-18.5-2.8c-1.1-0.2-2.3-1.5-2.1-2.3c1.4-10.1,2.2-15.1,3.6-25.2c0.1-0.9,0.8-1.3,1.9-1.2
					c27.1,4,54,8.8,80.8,14.2c1.3,0.3,2.3,1.1,2.1,2.2c-2.1,9.9-3.1,14.8-5.1,24.7c-0.2,1.1-1.5,1.7-3,1.4
					c-7.4-1.5-11.1-2.3-18.4-3.7c-1.3-0.2-2.3,0.3-2.6,1.5c-4.6,24.4-9.3,48.9-13.9,73.3c-0.2,1-1.4,1.6-2.8,1.4
					C1235,1375.2,1225.1,1373.4,1215.2,1371.8z"/>
				<path class="st30" d="M1297.2,1279.9c0.2-0.8,1.5-1.6,2.8-1.3c22.2,4.9,44.4,10.2,66.4,16c1.1,0.3,1.7,1.2,1.5,2
					c-2.7,10-4,14.9-6.7,24.9c-0.2,0.8-1.3,1.1-2.4,0.8c-10.1-2.7-20.3-5.3-30.5-7.8c-0.7-0.2-1.4,0.1-1.5,0.7
					c-0.8,3.1-1.1,4.7-1.9,7.8c-0.1,0.6,0.5,1.2,1,1.3c5.7,1.4,8.6,2.1,14.3,3.6c0.7,0.2,1.2,0.7,1,1.3c-2.6,10.1-3.9,15.1-6.4,25.2
					c-0.2,0.7-1,1.1-1.7,0.9c-5.8-1.5-8.6-2.2-14.4-3.6c-0.7-0.2-1.3,0.1-1.5,0.8c-0.8,3.3-1.2,4.9-2,8.2c-0.1,0.6,0.3,1.1,0.8,1.2
					c10.2,2.5,20.3,5.1,30.5,7.8c1.2,0.3,1.7,1.2,1.6,1.9c-2.8,10.3-4.2,15.4-6.9,25.7c-0.2,0.8-1.3,1.3-2.3,1
					c-20.5-5.4-41-10.3-61.7-14.9c-1-0.2-1.7-1.2-1.5-2.2C1282.8,1347.5,1290,1313.7,1297.2,1279.9z"/>
			</g>
		</g>
	</g>
</g>
<g id="cat">
	<g>
		<g>
			<path class="st14" d="M771.9,912.1c3.3,17.1,26.3,23.3,26.4,38.1c0.1,19.3,32.7,13.5,59.5,18.8c32.7-1.7,46.6,19.1,35.9,23
				c6.2,10.6-23.6,31.4-63,25c-42.4-0.4-93.2-27.5-100.8-46.9c-5.5-14-26.4-27.3-29.7-44.7c-1.9-10.2-20.7-59-21.5-68.5
				c-1.8-21.3,25.7-78.1,29.1-92.9c1.4-29.9,83-54.4,96.2-38.4c15.8-1.5,16.8,36.8,17.4,51.2c8.5,12.7-51.9,71.1-45.8,91.6
				C778.2,877,770.1,902.4,771.9,912.1z"/>
			<path class="st24" d="M823.4,760.2c5,26-23.4,86.1-50.9,91.4c-27.5,5.3-80-6.6-85-32.5c-2.5-13,1.8-29.4,9.2-39.7
				c7.4-10.2,32.6-46.1,46.3-48.7c13.8-2.6,42.3-15.3,53-8.5S820.9,747.2,823.4,760.2z"/>
			<g>
				<g>
					<path class="st7" d="M763.1,843.4c15.2-18,26.9-40.5,27.8-64.4c0.7-17.6-6-36.2-23-43.7c-11-4.9-23.3-4.3-34.8-1.9
						c-3.1,0.7-1.8,5.5,1.3,4.8c17.1-3.6,36.7-1.6,46.1,15c9,15.9,5.7,36.4-0.4,52.7c-4.7,12.4-11.9,23.8-20.5,34
						C757.5,842.4,761.1,845.9,763.1,843.4L763.1,843.4z"/>
				</g>
			</g>
			<g>
				<g>
					<path class="st7" d="M725.8,842.5c17.8-6.4,24.7-29.4,26.1-46.4c0.6-8.1,0.3-17.3-3.7-24.6c-3.8-6.9-10.2-8-17.5-8.6
						c-5.8-0.5-11.7-0.7-17.6-0.2c-2.9,0.2-7.8,0.3-9.5,3.3c-1.6,2.8,2.7,5.3,4.3,2.5c0.7-1.1,9.1-1,11.3-1.1
						c5.3,0,10.7,0.1,15.9,0.9c8.4,1.3,10.9,8.7,11.7,16.5c1.1,10.2-0.7,20.9-4.2,30.5c-3.2,8.9-8.8,18.9-18.2,22.3
						C721.5,838.7,722.8,843.6,725.8,842.5L725.8,842.5z"/>
				</g>
			</g>
			<path class="st27" d="M789.9,1008c-18.3,3.3,42,11.1,68,6.2c42.3-2,60.3-33.2,45.7-50.7C866.6,954.6,815.9,1003.3,789.9,1008z"/>
			<path class="st28" d="M717,909.4c1.9,10.2,43.5,20.3,59.5,17.2c-9.9,1.4-5.7-62.8,1.7-63.8C762.2,865.9,715.1,899.2,717,909.4z"
				/>
			<g>
				<g>
					<g>
						<path d="M920.8,959.2c-4.8-8.3-17.9-10.6-26.6-10.6c-2.7,0-5,2.3-5,5c0,3.4-8.7,5.5-11,6.3c-4.3,1.5-8.8,2.6-13.3,3.3
							c-9.2,1.5-18.9,1.4-28.1-0.4c-16.9-3.3-32.4-12.1-44.1-24.8c-12.4-13.4-20.7-32.2-17.7-50.7c2.9-18.2,14.1-33.7,23.6-49
							c10-16,19.4-32.7,25-50.8c5-15.9,7.7-34.4-0.3-49.8c-7.5-14.3-23.5-21.4-39-23c-16.6-1.6-33.5,3.5-47.5,12.2
							c-34.1,21.2-50.6,62.8-58.6,100.5c-0.5,2.5,0.7,5.5,3.5,6.2c29.6,6.5,59.2,13,88.8,19.5c4.3,0.9,8.6,1.9,12.9,2.8
							c0-3.2,0-6.4,0-9.6c-7.6,2.2-16,1.5-23.7,0.8c-10.4-0.9-20.8-2.8-31-5.2c-9.5-2.2-19.1-4.8-28.2-8.3c-3.2-1.2-6.5-2.6-9.4-4.4
							c-2.1-1.3-3.1-1.9-3.6-3c-1.7-3.9-8.3-2.8-9.1,1.2c-2.8,14.1-4,28.3-1.9,42.6c2,13.9,6.5,27.2,11.8,40.1
							c5.3,12.8,11,25.7,18.1,37.5c6.7,11.2,15.2,21.2,24.7,30.2c18.2,17.3,39.4,34,64.1,40.5c25.9,6.9,55.2,3.4,81-2.4
							c12.8-2.9,24.6-8.5,32.5-19.3c3.9-5.4,6.6-11.5,8.9-17.7c2.1-5.8,5.4-12.5,3.9-18.7c-1.5-6.3-11.1-3.6-9.6,2.7
							c0.5,2.2-1.2,5.3-1.9,7.4c-0.8,2.5-1.7,5-2.6,7.4c-1.9,4.8-4.2,9.7-7.4,13.8c-6.7,8.7-16.9,12.6-27.3,14.9
							c-23.6,5.2-50.3,8.5-74,2.5c-22.4-5.7-41.4-20.4-58-35.8c-8.7-8-16.8-16.7-23.2-26.7c-6.8-10.5-12.1-22-17.2-33.5
							c-5.4-12.4-10.3-25.2-13-38.5c-3-14.8-2.3-29.7,0.7-44.4c-3,0.4-6.1,0.8-9.1,1.2c2.4,5.6,10.6,8.5,15.7,10.7
							c9.8,4,20.1,6.9,30.4,9.4c11.3,2.7,22.7,4.7,34.3,5.8c8.8,0.8,18.3,1.4,26.9-1.1c4.5-1.3,5-8.5,0-9.6
							c-29.6-6.5-59.2-13-88.8-19.5c-4.3-0.9-8.6-1.9-12.9-2.8c1.2,2.1,2.3,4.1,3.5,6.2c7.2-34,21.3-72.5,51.4-92.7
							c14.2-9.6,32.1-15.3,49.3-12c8.1,1.6,15.9,4.9,21.7,11c6.1,6.4,8.2,15.1,8.3,23.7c0.1,18.6-8,37-16.6,53.1
							c-8.9,16.6-20.4,31.7-28.6,48.7c-8,16.4-11.4,34-6,51.7c5,16.6,15.8,31.1,29.4,41.6c15.3,11.9,34,18.6,53.4,19.1
							c10.1,0.2,20.4-1.3,30.1-4.4c7.9-2.6,19-6.3,19.2-16.2c-1.7,1.7-3.3,3.3-5,5c4.8,0,15.2,0.9,18,5.7
							C915.3,969.8,924,964.8,920.8,959.2z"/>
					</g>
				</g>
				<g>
					<g>
						<path d="M889,951.1c-0.1,0.4-0.2,0.7-0.3,1.1c-0.8,3.1,1.6,6.4,4.8,6.3c0.2,0,0.4,0,0.6,0c1.6,0,3-0.7,3.9-2
							c0.4-0.5,0.7-1,0.9-1.7c0.2-0.9,0.2-1.8,0-2.7c-0.1-0.4-0.2-0.8-0.3-1.1c-0.2-0.7-0.5-1.2-0.9-1.7c-0.4-0.5-0.8-1-1.4-1.3
							c-1.1-0.6-2.7-0.9-3.9-0.5c-1.2,0.4-2.4,1.1-3,2.3c-0.6,1.1-1,2.6-0.5,3.9c0.1,0.4,0.2,0.7,0.3,1.1c1.6-2.1,3.2-4.2,4.8-6.3
							c-0.2,0-0.4,0-0.6,0c1.6,2.1,3.2,4.2,4.8,6.3c0.1-0.4,0.2-0.7,0.3-1.1c0.3-1.3,0.2-2.7-0.5-3.9c-0.6-1-1.8-2-3-2.3
							c-1.3-0.3-2.7-0.2-3.9,0.5C890.3,948.8,889.4,949.8,889,951.1z"/>
					</g>
				</g>
			</g>
			
				<ellipse transform="matrix(0.9823 -0.1873 0.1873 0.9823 -143.2489 239.6976)" class="st23" cx="1196.5" cy="877.7" rx="40.6" ry="80.2"/>
			<path class="st16" d="M1234.1,883.3l-31.7,29.1l0.3-28.2l21.1-42.2C1228.2,852.7,1232.3,867.3,1234.1,883.3z"/>
			<path class="st2" d="M1225,946l-23.7,17.2l0.3-28.2l36.7-22.2C1242.8,923.5,1236.9,940.6,1225,946z"/>
			<path class="st3" d="M880.8,957.5c11,57.7,103,103.7,191.6,86.8c88.6-16.9,156.3-98.8,145.3-156.5c-6-31.7-9.1-85.3-47.1-97.9
				c-18.2-6.1-56.1-113.8-78.2-114c-12.9-0.1-31.6-22.7-45.2-20.5c-2.8,0.4,9.3,93.3,6.5,93.8c-13.1,2.5-51.9,7-63.7,11.3
				c-14.4,5.2-37.9-90.5-49.9-83.2c-30.7,6.4-58.9,159.6-57.7,177.9C866,876.3,876.4,934.2,880.8,957.5z"/>
			<path class="st13" d="M1170.6,1003.5c-76.2,86-284.6,59.7-268.4-44.2c-45.6-76.2,175.3-151.1,293.3-138.6
				C1228.9,819.8,1237.1,957.4,1170.6,1003.5z"/>
			<path class="st32" d="M1130.9,810.3c39.2-0.9,50,19,83.6,54c-10.8-18.4-2.1-23.7-42.3-70.9c-30.7-68.3-103.1-148.4-117.2-141.6
				c-3.9,1.9-17.3,12.4-12.2,21.1C1072.5,640.7,1124.9,746.9,1130.9,810.3z"/>
			<path class="st6" d="M974.9,733.6c2.3,12-36.5-43.7-50.6-41c-14.1,2.7,9.3-13.4,23.4-16C956.6,685.4,972.6,721.6,974.9,733.6z"/>
			<path class="st10" d="M1132.9,764.1c8.5,10.4-45-5.2-52.3-12.5c-10.6-25.7-17.5-68.7-12-71
				C1074.2,678.3,1122.3,738.5,1132.9,764.1z"/>
			<g>
				<g>
					<path d="M1177.3,793.4c-0.3-2.8-2.2-5.6-3.5-8.1c-2.8-5.3-5.6-10.6-8.6-15.8c-9.3-16.6-19.2-32.8-30-48.5
						c-12-17.5-25-34.7-40.2-49.5c-11.8-11.5-26.5-23.4-43.4-25.4c-18.8-2.2-13.8,30.7-11.7,41.4c4.1,21.4,9.2,42.8,14.5,64
						c1.6-2.1,3.2-4.2,4.8-6.3c-25.4-0.6-50.8,3.5-74.7,12c2.1,1.2,4.1,2.3,6.2,3.5c-7.6-21.3-16.3-42.1-26.2-62.4
						c-2.3-4.8-4.7-9.5-7.1-14.2c-2.4-4.5-4.6-11.1-8.7-14.3c-3.9-3.1-9.9-0.1-13.5,2.3c-8.4,5.4-14.3,14.3-18.9,23
						c-6.2,11.9-10.7,24.7-14.5,37.5c-8.3,28.1-13.3,57.3-16.4,86.4c-0.6,6-1.2,12-1.6,17.9c-0.1,1.3,0,2.7-0.2,4
						c-0.3,1.6-1,2.6-1.9,4.4c-2.3,4.6-4.4,9.4-6.2,14.2c-7.6,20-10.8,41.8-8.7,63c6.7,67.5,62,117,126.1,131
						c67.8,14.8,143.6-7.4,190-59.7c20.9-23.6,35.2-52.7,39-84.1c4.2-35-5.8-71-27.1-99.1c-5.7-7.5-12-14.4-18.9-20.7
						c-4.7-4.3-11.8,2.7-7.1,7.1c24.3,22.1,40.6,52.1,43.6,85c2.4,27.1-4,54.2-17.4,77.9c-29.5,52.4-87.9,83.9-147,87.8
						c-56.4,3.7-116.9-18.1-149.5-66.1c-17.5-25.8-25.3-57.2-21.3-88.2c1.2-9.2,3.4-18.2,6.4-27c1.5-4.3,3.2-8.6,5.2-12.8
						c1.8-3.8,4.5-7.5,4.8-11.8c0.7-10.6,1.6-21.1,2.9-31.6c3.1-25.3,7.9-50.5,15-74.9c3.3-11.1,7-22.1,12.2-32.5
						c3.7-7.5,8.2-15.6,14.9-20.8c2.5-1.9,5-3.2,8-3.8c-1.6-0.4-3.2-0.9-4.9-1.3c2.6,2.3,4.2,6.7,5.8,9.8c1.9,3.6,3.7,7.2,5.5,10.8
						c3.5,7,6.8,14,10,21.1c6.6,14.7,12.6,29.6,18,44.8c0.9,2.4,3.4,4.4,6.2,3.5c23.2-8.2,47.5-12.2,72.1-11.6
						c3.3,0.1,5.6-3.2,4.8-6.3c-4-16-7.7-32-11.1-48.1c-1.7-7.8-3.6-15.7-4.6-23.7c-0.8-6.1-2.2-18.3,3.2-22.7
						c-1.2,0.5-2.4,1-3.5,1.5c11.4,0.3,21.9,7.2,30.4,14.1c12,9.8,22.4,21.6,32,33.7c18.2,23.1,33.9,48.3,48.1,74
						c2.3,4.2,4.6,8.4,6.8,12.6c0.7,1.3,1.3,2.6,2,3.9c1.1,2.1,0.3,1,0.1-0.8C1167.9,799.7,1177.9,799.8,1177.3,793.4z"/>
				</g>
			</g>
			<g>
				<g>
					<path d="M1110,967.1c0-0.3,0-0.5,0-0.8c-0.5,1.2-1,2.4-1.5,3.5c0.2-0.2,0.4-0.4,0.6-0.6c-1.2,0.5-2.4,1-3.5,1.5
						c0.3,0,0.5-0.1,0.8-0.1c-1.6-2.1-3.2-4.2-4.8-6.3c-4.8,21.9-16.8,41.1-34.2,55.2c-5,4,2.1,11.1,7.1,7.1
						c18.7-15,31.7-36.2,36.8-59.6c0.6-2.9-1.4-6.7-4.8-6.3c-3.8,0.4-6.2,2.5-6.4,6.5C1099.7,973.5,1109.7,973.5,1110,967.1
						L1110,967.1z"/>
				</g>
			</g>
			<g>
				<g>
					<path d="M1107.3,972.2c5.8,14.4,21.7,26.3,37,16.7c5.4-3.4,0.4-12.1-5-8.6c-9.3,5.9-18.8-2-22.3-10.7
						C1114.6,963.7,1104.9,966.2,1107.3,972.2L1107.3,972.2z"/>
				</g>
			</g>
			<g>
				<path d="M1110.5,964.1c3.5-4.3,5.5-11.6,6.8-16.2c-1.4-1.5-20.1,4.3-24,8.3C1095.7,958.6,1105.2,963.2,1110.5,964.1"/>
				<g>
					<path class="st11" d="M1114.8,966.7c3.8-5.1,5.6-11.3,7.3-17.4c0.6-2.2-0.4-4.4-2.3-5.6c-3.9-2.5-10.5,0.2-14.4,1.4
						c-5.4,1.7-11.4,3.8-15.7,7.7c-1.9,1.7-2,5.4,0,7.1c5.3,4.5,12.7,7.8,19.5,9.2c6.3,1.3,9-8.4,2.7-9.6c-5-1-11.1-3.3-15.1-6.6
						c0,2.4,0,4.7,0,7.1c2.6-2.4,6.9-3.6,10.2-4.7c1.9-0.7,3.9-1.3,5.9-1.7c0.7-0.2,1.8-0.2,2.4-0.5c1.2-0.6,1.8,1.1-0.6-0.5
						c-0.8-1.9-1.5-3.8-2.3-5.6c-1.4,5.3-2.9,10.5-6.3,15C1102.3,966.8,1111,971.8,1114.8,966.7L1114.8,966.7z"/>
				</g>
			</g>
			<circle class="st25" cx="1057.2" cy="970.9" r="5.9"/>
			<circle class="st25" cx="1147.6" cy="940.6" r="5.9"/>
			<circle class="st25" cx="1165.2" cy="957.9" r="5.9"/>
			<circle class="st25" cx="1165.4" cy="976.5" r="5.9"/>
			<circle class="st25" cx="1036.7" cy="991.1" r="5.9"/>
			<circle class="st25" cx="1034.2" cy="1023.4" r="5.9"/>
			<path class="st15" d="M1074.3,831.5c2.9-1.6,14.3,37.1,8,50.6c-6.3,13.5-43-41.7-46.3-41.3C1032.4,841,1074,831.3,1074.3,831.5z"
				/>
			<path class="st15" d="M1028.8,842.6c1.5-0.9,8,19.9,4.7,27.1s-21.8-22.1-23.8-21.1L1028.8,842.6z"/>
			<path class="st15" d="M1101.6,826.5c1.8,0.5,7.5,19.3,4.2,26.5c-3.3,7.2-23.9-22.5-25.6-22.5
				C1088.4,828.8,1100.3,826.5,1101.6,826.5z"/>
			<g>
				<g>
					<path d="M980,966.9c-1.7-8.7-1.3-18.9-1-28c0.3-12.2,1.2-24.5,3.7-36.4c0.9-4.3,1.9-8.9,4-12.9c0.4-0.7,0.8-1.4,1.3-2.1
						c-0.5,0.7,1.1-1.2,0.3-0.4c0.7-0.7,0.6-0.5,1.6-0.1c8.4,3.3,15.2,15.3,19.8,22.7c6.9,10.9,13.4,22.6,17.9,34.7
						c2.2,6,11.9,3.4,9.6-2.7c-4.7-12.4-11-24.3-18-35.6c-6-9.8-13.6-22.8-24.5-27.9c-23.3-11-24.7,40.6-25.4,52.1
						c-0.7,12.8-1.4,26.4,1,39.1C971.5,975.9,981.2,973.2,980,966.9L980,966.9z"/>
				</g>
			</g>
			<g>
				<g>
					<path d="M1186.5,914.9c-3.8-10.8-9.7-21.1-15.4-31c-6.6-11.6-13.7-23.2-22.5-33.3c-4.8-5.6-14-14.5-21-6.7
						c-3.2,3.6-4,9-4.6,13.7c-0.8,6.3-0.8,12.7-0.6,19c0.4,14.6,1.8,29.4,4.8,43.7c1.3,6.3,10.9,3.6,9.6-2.7
						c-2.2-10.6-3.3-21.5-4-32.4c-0.7-10.3-2-22.4,1.3-32.4c0.3-0.8,1.1-2.7,1.2-2.5c0.3,0.6-2.2-0.2-1,0.6c2.9,2,5.5,4.5,7.9,7.4
						c7.6,9.1,13.8,19.4,19.8,29.7c5.5,9.4,11.3,19.3,14.9,29.6C1179,923.6,1188.7,921,1186.5,914.9L1186.5,914.9z"/>
				</g>
			</g>
			<path class="st4" d="M1107.5,1044.2c-61.4,27.6-184,4.1-213.8-57.7c-21-34.2-38.8-77.7,0.8-153.8
				C852.5,976.4,1019.3,1062.3,1107.5,1044.2z"/>
			<path class="st17" d="M1170.6,1017.4c-76.6,47.1-199.7,57.9-250.2-2.9c-41.9-50.5-13.3-112.3-13.3-112.3
				c31.4-54.3,253.5-104,304.7-79.4C1270.5,940.8,1207.1,993.5,1170.6,1017.4z"/>
			
				<ellipse transform="matrix(0.9823 -0.1873 0.1873 0.9823 -161.7051 186.9045)" class="st8" cx="908" cy="949" rx="40.6" ry="80.2"/>
			<g>
				<g>
					<path class="st24" d="M756.4,834.5c3.2,0,3.2-5,0-5C753.2,829.5,753.2,834.5,756.4,834.5L756.4,834.5z"/>
				</g>
			</g>
			<path class="st10" d="M915.9,812.2c2.8,19.4,58-29.1,56.3-44.9c-5.2-27.3-27.4-66.3-36-64.6C927.5,704.3,910.7,785,915.9,812.2z"
				/>
			
				<ellipse transform="matrix(0.937 -0.3494 0.3494 0.937 -261.2758 448.1359)" class="st22" cx="1111.5" cy="948.2" rx="8.3" ry="3.8"/>
			<path class="st31" d="M1213.5,839c29.2,104.9-18.6,152.4-12.9,135.4c29.6-38.1-19.9-154.4-82.1-141.3
				C1086.8,839.8,1203.8,812.4,1213.5,839z"/>
			<path class="st31" d="M946.3,974.8c-2.1,34.3-15,51-29.5,49c-18-24.5-21.8-50.3-21.5-77C895.4,946.8,902.1,969.5,946.3,974.8z"/>
			<path class="st31" d="M923.7,892.8c6.1,8,8,13.1,10.3,17.7c-27.6-6.3-13,23.4-35.1,8.9C899,919.4,901.6,906.5,923.7,892.8z"/>
			
				<ellipse transform="matrix(0.9823 -0.1873 0.1873 0.9823 -161.3754 185.0069)" class="st20" cx="898.1" cy="946.2" rx="20.1" ry="44.8"/>
			<path class="st21" d="M878.3,950c4.2,22.2,24.7,57.1,37.7,27.7c-20.3,13-35.5-78.9-16-70.2C885.2,895.1,868.2,918.2,878.3,950z"
				/>
			<path class="st0" d="M896.6,957.9l-18.4,3.7c-1.3-4-2.5-9.2-3.4-14.8l18.2-3.3C893.6,947.6,894.9,952.6,896.6,957.9z"/>
			<polygon class="st29" points="892.5,940.4 874.4,943.7 874,940.3 892,937.3 			"/>
			<path class="st9" d="M811.4,745.7c4.4,9.2,5.4,25.5-0.5,28.4s-31.8-40.5-25.9-43.3S806.9,736.5,811.4,745.7z"/>
			<path class="st12" d="M1062.1,756.5c-58.1,12-71,27-71,27s-10.8-1.7-9.1-17.9C1011.8,758.9,1039.6,754.6,1062.1,756.5z"/>
			
				<rect x="676.8" y="658.9" transform="matrix(0.9823 -0.1873 0.1873 0.9823 -146.4136 195.242)" class="st19" width="565.9" height="426.6"/>
		</g>
	</g>
</g>
<g id="button">
	<circle class="st26" cx="1006.7" cy="1583.3" r="170.8"/>
	<path class="st5" d="M1038.9,1627.4l-29.5,28c-6.1,3.5-144-82.1-60.5-143.6c76.9-56.6,125.4,21.2,125.4,21.2l-19.5,32.3
		c0,0-25.9-89.7-89.3-33.8S1038.9,1627.4,1038.9,1627.4z"/>
	<polygon class="st5" points="995.2,1531.8 1051,1518.1 1106.9,1504.3 1090.9,1559.5 1074.8,1614.8 1035,1573.3 	"/>
</g>
</svg>
