<?xml version="1.0" encoding="utf-8"?>
<!-- Generator: Adobe Illustrator 15.0.0, SVG Export Plug-In . SVG Version: 6.00 Build 0)  -->
<!DOCTYPE svg PUBLIC "-//W3C//DTD SVG 1.1//EN" "http://www.w3.org/Graphics/SVG/1.1/DTD/svg11.dtd">
<svg version="1.1" xmlns="http://www.w3.org/2000/svg" xmlns:xlink="http://www.w3.org/1999/xlink" x="0px" y="0px" width="2000px"
	 height="2000px" viewBox="0 0 2000 2000" style="enable-background:new 0 0 2000 2000;" xml:space="preserve">
<style type="text/css">
<![CDATA[
	.st0{fill:#DBED1D;stroke:#787225;stroke-width:3;stroke-miterlimit:10;}
	.st1{fill:#AFAAA3;}
	.st2{opacity:0.33;fill:#FFFFFF;}
	.st3{fill:#080738;stroke:#FFFFFF;stroke-width:59;stroke-miterlimit:10;}
	.st4{opacity:0.19;fill:#3F3A38;}
	.st5{fill:#DBDD37;stroke:#686218;stroke-width:3;stroke-miterlimit:10;}
	.st6{fill:#FFFFFF;stroke:#FFFFFF;stroke-width:4;stroke-linecap:round;stroke-linejoin:round;stroke-miterlimit:10;}
	.st7{opacity:0.38;fill:#FFFFFF;}
	.st8{fill:#DBED1D;stroke:#96860B;stroke-width:3;stroke-miterlimit:10;}
	.st9{fill:#8C8780;}
	.st10{fill:#BFAE7C;}
	.st11{opacity:0.45;fill:#FDFEFB;}
	.st12{fill:#262325;}
	.st13{fill:#F5A6D1;}
	.st14{opacity:0.38;fill:#010103;}
	.st15{opacity:0.5;fill:#79C7D1;stroke:#254298;stroke-width:3;stroke-miterlimit:10;}
	.st16{fill:#949087;}
	.st17{fill:#2C1E0C;}
	.st18{fill:#FAFCC6;}
	.st19{fill:#FFFFFF;}
	.st20{fill:none;}
	.st21{fill:#686218;}
	.st22{opacity:0.38;fill:#0D0C0D;}
	.st23{opacity:0.47;fill:#FFFFFF;}
	.st24{fill:#383433;}
	.st25{fill:#010103;}
	.st26{fill:#FEBA3E;stroke:#FFFFFF;stroke-width:59;stroke-miterlimit:10;}
	.st27{opacity:0.38;fill:#181518;}
	.st28{fill:#706C69;}
	.st29{opacity:0.39;fill:#FDFEFB;}
	.st30{opacity:0.39;fill:#FFFFFF;}
	.st31{fill:#0D0C0D;}
	.st32{fill:#575351;stroke:#FFFFFF;stroke-width:9;stroke-miterlimit:10;}
	.st33{opacity:0.26;fill:#FFFFFF;}
]]>
</style>
<g id="bg">
	<polygon class="st3" points="1732.7,1779.9 306.7,1779.9 -184.9,307.2 2184.9,307.2 	"/>
	<g>
		<polygon class="st19" points="1346.2,1114.6 1084.2,1081 907.9,1277.8 858.9,1018.2 617.3,911.5 849,784.6 875.9,521.8 
			1068.1,703 1326.4,647.4 1213.5,886.2 		"/>
		<g>
			<path class="st19" d="M1346.2,1084.6c-29.9-3.8-59.7-7.7-89.6-11.5c-47-6-93.9-12-140.9-18.1c-10.4-1.3-20.8-3.2-31.2-4
				c-15.9-1.2-25.7,13.4-34.9,23.7c-30.1,33.6-60.2,67.2-90.3,100.9c-23.8,26.6-48,52.8-71.4,79.7c-0.4,0.4-0.8,0.9-1.2,1.3
				c16.7,4.4,33.4,8.8,50.1,13.2c-5.6-29.6-11.2-59.2-16.8-88.7c-8.8-46.5-17.6-93-26.4-139.6c-1.9-10.3-3.5-20.8-5.8-31
				c-3.8-16.5-19-20.5-32.2-26.3c-41.3-18.2-82.6-36.5-123.8-54.7c-32.6-14.4-65-29.3-97.9-43.2c-0.5-0.2-1.1-0.5-1.6-0.7
				c0,17.3,0,34.5,0,51.8c26.4-14.5,52.8-28.9,79.2-43.4c41.7-22.8,83.5-45.7,125.2-68.5c9-4.9,18.2-9.6,27.1-14.8
				c10.1-6,13.9-15.3,15.1-26.4c0.1-1.1,0.2-2.2,0.3-3.3c0.5-5.3,1.1-10.7,1.6-16c4.6-45,9.2-90,13.8-135
				c3.6-35.5,7.8-70.9,10.9-106.4c0.1-0.6,0.1-1.2,0.2-1.7c-17.1,7.1-34.1,14.1-51.2,21.2c21.9,20.6,43.8,41.3,65.7,61.9
				c34.6,32.6,69.2,65.3,103.9,97.9c7.5,7.1,14.8,14.3,22.5,21.2c8.7,7.9,18.4,10,29.7,7.8c1.1-0.2,2.2-0.5,3.2-0.7
				c5.3-1.1,10.5-2.3,15.8-3.4c44.2-9.5,88.4-19.1,132.6-28.6c34.8-7.5,69.8-14.5,104.6-22.5c0.6-0.1,1.1-0.2,1.7-0.4
				c-11.3-14.7-22.6-29.4-33.9-44.1c-12.9,27.2-25.7,54.4-38.6,81.6c-20.3,43-40.7,86-61,129c-4.4,9.3-8.9,18.6-13.2,27.9
				c-4.9,10.5-5.4,20.5,0,30.8c0.5,1,1.1,1.9,1.7,2.9c2.7,4.6,5.4,9.3,8.1,13.9c22.7,39.1,45.4,78.2,68.2,117.3
				c17.9,30.8,35.5,61.9,53.7,92.5c0.3,0.5,0.6,1,0.9,1.5c7.9,13.6,27.5,19.5,41,10.8c13.7-8.8,19.2-26.5,10.8-41
				c-15-25.8-29.9-51.5-44.9-77.3c-23.8-41-47.7-82-71.5-123c-5.4-9.4-10.9-18.7-16.3-28.1c0,10.1,0,20.2,0,30.3
				c12.7-26.9,25.5-53.9,38.2-80.8c20.3-42.9,40.6-85.8,60.8-128.7c4.6-9.8,9.3-19.6,13.9-29.4c5.3-11.2,5.5-23.1-2.3-33.3
				c-7.6-9.8-19.5-13.3-31.5-10.8c-29.1,6.3-58.2,12.5-87.4,18.8c-46.4,10-92.7,20-139.1,30c-10.6,2.3-21.2,4.6-31.8,6.8
				c9.7,2.6,19.5,5.1,29.2,7.7c-21.7-20.4-43.4-40.9-65-61.3c-34.5-32.5-69-65.1-103.6-97.6c-7.9-7.4-15.8-14.9-23.6-22.3
				c-8.9-8.4-21.5-11-32.8-6.2c-11.7,5-17.2,15.1-18.4,27.4c-3,29.6-6.1,59.3-9.1,88.9c-4.8,47.2-9.7,94.4-14.5,141.6
				c-1.1,10.8-2.2,21.6-3.3,32.3c5-8.6,9.9-17.3,14.9-25.9c-26.1,14.3-52.3,28.6-78.4,42.9c-41.6,22.8-83.2,45.6-124.8,68.3
				c-9.5,5.2-19,10.4-28.5,15.6c-9.2,5-14.9,15.6-14.9,25.9c0,9.6,5.5,21.8,14.9,25.9c27.2,12,54.5,24.1,81.7,36.1
				c43.4,19.2,86.8,38.3,130.2,57.5c9.9,4.4,19.8,8.8,29.7,13.1c-4.6-6-9.2-12-13.8-17.9c5.5,29.3,11.1,58.5,16.6,87.8
				c8.8,46.6,17.6,93.2,26.4,139.8c2,10.6,4,21.3,6,31.9c4.1,21.8,35.7,29.3,50.1,13.2c19.9-22.2,39.7-44.4,59.6-66.6
				c31.6-35.3,63.3-70.7,94.9-106c7.2-8.1,14.5-16.1,21.7-24.2c-7.1,2.9-14.1,5.9-21.2,8.8c29.5,3.8,59.1,7.6,88.6,11.4
				c47.1,6,94.1,12.1,141.2,18.1c10.7,1.4,21.5,2.8,32.2,4.1c7.1,0.9,16.4-4,21.2-8.8c5.2-5.2,9.1-13.7,8.8-21.2
				c-0.3-7.8-2.9-15.8-8.8-21.2C1361.1,1087.6,1354.5,1085.7,1346.2,1084.6z"/>
		</g>
	</g>
	<g>
		<polygon class="st19" points="178.7,817.2 193.7,747.6 144.8,695.8 215.7,688.5 249.8,626.1 278.6,691.2 348.6,704.4 295.5,751.9 
			304.6,822.5 243,786.8 		"/>
		<g>
			<path class="st19" d="M193.1,821.2c4.5-20.7,8.9-41.3,13.4-62c0.5-2.5,1.2-5.1,1.6-7.6c1.5-8.1-2.2-12.9-7.2-18.1
				c-8.3-8.8-16.6-17.6-24.9-26.4c-6.9-7.3-13.8-14.6-20.7-21.9c-3.5,8.5-7.1,17.1-10.6,25.6c21-2.2,42.1-4.3,63.1-6.5
				c2.6-0.3,5.2-0.5,7.7-0.8c8.3-0.9,11.8-5.3,15.3-11.7c5.8-10.6,11.6-21.2,17.4-31.8c4.8-8.8,9.6-17.6,14.5-26.4
				c-8.6,0-17.3,0-25.9,0c8.5,19.3,17.1,38.7,25.6,58c1,2.3,1.9,4.9,3.1,7.1c3.1,5.6,8.2,6.8,13.7,7.8c11.9,2.2,23.7,4.5,35.6,6.7
				c9.9,1.9,19.7,3.7,29.6,5.6c-2.2-8.4-4.4-16.7-6.6-25.1c-15.7,14.1-31.5,28.2-47.2,42.3c-1.9,1.7-4,3.3-5.8,5.2
				c-4.6,4.7-4.5,9.7-3.8,15.4c1.5,12,3.1,24,4.6,36c1.3,10,2.6,19.9,3.8,29.9c7.5-4.3,15-8.6,22.6-13
				c-18.3-10.6-36.6-21.2-54.8-31.9c-2.2-1.3-4.4-2.7-6.7-3.9c-7.2-3.7-13.1-1-19.5,2.1c-10.9,5.2-21.8,10.3-32.8,15.5
				c-9.1,4.3-18.2,8.6-27.2,12.9c-7.3,3.5-9.2,14-5.4,20.5c4.4,7.5,13.2,8.9,20.5,5.4c21.5-10.1,42.9-20.3,64.4-30.4
				c-5,0-10.1,0-15.1,0c20.5,11.9,41,23.8,61.6,35.8c8.9,5.2,24.1-1.2,22.6-13c-3-23.5-6-47.1-9.1-70.6c-1.5,3.5-2.9,7.1-4.4,10.6
				c17.7-15.8,35.4-31.7,53-47.5c8-7.2,4.3-23-6.6-25.1c-23.3-4.4-46.6-8.8-70-13.2c3,2.3,6,4.6,9,6.9
				c-9.6-21.7-19.2-43.4-28.8-65.1c-4.6-10.4-20.9-9.1-25.9,0c-11.4,20.8-22.8,41.6-34.2,62.5c4.3-2.5,8.6-5,13-7.4
				c-23.6,2.4-47.2,4.8-70.8,7.2c-6,0.6-11.3,3.3-13.7,9.2c-2.3,5.7-1.1,11.9,3.1,16.4c16.3,17.3,32.6,34.5,48.8,51.8
				c-1.3-4.9-2.6-9.7-3.9-14.6c-5,23.2-10,46.4-15,69.6c-1.6,7.7,2.3,16.6,10.5,18.5C182.2,833.4,191.4,829.4,193.1,821.2z"/>
		</g>
	</g>
	<g>
		<polygon class="st19" points="347.2,1389.9 362.2,1320.3 313.4,1268.4 384.2,1261.2 418.4,1198.7 447.2,1263.9 517.1,1277.1 
			464.1,1324.6 473.1,1395.2 411.6,1359.4 		"/>
		<g>
			<path class="st19" d="M361.7,1393.9c4.5-20.7,8.9-41.3,13.4-62c0.5-2.5,1.2-5.1,1.6-7.6c1.5-8.1-2.2-12.9-7.2-18.1
				c-8.3-8.8-16.6-17.6-24.9-26.4c-6.9-7.3-13.8-14.6-20.7-21.9c-3.5,8.5-7.1,17.1-10.6,25.6c21-2.2,42.1-4.3,63.1-6.5
				c2.6-0.3,5.2-0.5,7.7-0.8c8.3-0.9,11.8-5.3,15.3-11.7c5.8-10.6,11.6-21.2,17.4-31.8c4.8-8.8,9.6-17.6,14.5-26.4
				c-8.6,0-17.3,0-25.9,0c8.5,19.3,17.1,38.7,25.6,58c1,2.3,1.9,4.9,3.1,7.1c3.1,5.6,8.2,6.8,13.7,7.8c11.9,2.2,23.7,4.5,35.6,6.7
				c9.9,1.9,19.7,3.7,29.6,5.6c-2.2-8.4-4.4-16.7-6.6-25.1c-15.7,14.1-31.5,28.2-47.2,42.3c-1.9,1.7-4,3.3-5.8,5.2
				c-4.6,4.7-4.5,9.7-3.8,15.4c1.5,12,3.1,24,4.6,36c1.3,10,2.6,19.9,3.8,29.9c7.5-4.3,15-8.6,22.6-13
				c-18.3-10.6-36.6-21.2-54.8-31.9c-2.2-1.3-4.4-2.7-6.7-3.9c-7.2-3.7-13.1-1-19.5,2.1c-10.9,5.2-21.8,10.3-32.8,15.5
				c-9.1,4.3-18.2,8.6-27.2,12.9c-7.3,3.5-9.2,14-5.4,20.5c4.4,7.5,13.2,8.9,20.5,5.4c21.5-10.1,42.9-20.3,64.4-30.4
				c-5,0-10.1,0-15.1,0c20.5,11.9,41,23.8,61.6,35.8c8.9,5.2,24.1-1.2,22.6-13c-3-23.5-6-47.1-9.1-70.6c-1.5,3.5-2.9,7.1-4.4,10.6
				c17.7-15.8,35.4-31.7,53-47.5c8-7.2,4.3-23-6.6-25.1c-23.3-4.4-46.6-8.8-70-13.2c3,2.3,6,4.6,9,6.9
				c-9.6-21.7-19.2-43.4-28.8-65.1c-4.6-10.4-20.9-9.1-25.9,0c-11.4,20.8-22.8,41.6-34.2,62.5c4.3-2.5,8.6-5,13-7.4
				c-23.6,2.4-47.2,4.8-70.8,7.2c-6,0.6-11.3,3.3-13.7,9.2c-2.3,5.7-1.1,11.9,3.1,16.4c16.3,17.3,32.6,34.5,48.8,51.8
				c-1.3-4.9-2.6-9.7-3.9-14.6c-5,23.2-10,46.4-15,69.6c-1.6,7.7,2.3,16.6,10.5,18.5C350.8,1406.1,359.9,1402.1,361.7,1393.9z"/>
		</g>
	</g>
	<g>
		<polygon class="st19" points="1598.1,854.3 1580.3,823 1544.3,819.9 1568.6,793.3 1560.4,758.1 1593.3,773 1624.1,754.3 
			1620.2,790.2 1647.4,813.7 1612.1,821.1 		"/>
		<g>
			<path class="st19" d="M1611.1,846.7c-3.2-5.6-6.4-11.3-9.7-16.9c-3.5-6.1-7.2-16-13.6-19.8c-6.1-3.6-17.2-2.9-24.1-3.4
				c-6.5-0.5-13-1.1-19.4-1.6c3.5,8.5,7.1,17.1,10.6,25.6c4.4-4.8,8.8-9.6,13.1-14.4c4.7-5.1,13.1-11.9,15-18.9
				c1.9-7-2.2-17.3-3.8-24.1c-1.5-6.3-3-12.7-4.4-19c-7.3,5.6-14.7,11.3-22,16.9c5.9,2.7,11.9,5.4,17.8,8c6.3,2.8,15.6,8.9,22.7,8.9
				c7.5,0,15.7-6.9,21.7-10.6c5.6-3.4,11.1-6.7,16.7-10.1c-7.5-4.3-15-8.6-22.6-13c-0.7,6.1-1.4,12.3-2,18.4
				c-0.8,7-3.5,16.4-0.6,23.2c2.8,6.6,10.8,11.5,16,16c4.8,4.1,9.6,8.3,14.4,12.4c2.2-8.4,4.4-16.7,6.6-25.1
				c-6.4,1.3-12.7,2.6-19.1,4c-7,1.4-17.5,1.9-22.8,7.2c-2.8,2.8-4,7.1-5.6,10.7c-1.6,3.7-3.1,7.5-4.7,11.2c-2.5,6-5,12-7.6,18
				c-3.1,7.3,3.3,16.8,10.5,18.5c8.8,2,15.2-2.7,18.5-10.5c4.7-11.1,9.3-22.2,14-33.2c-3.5,3.5-7,7-10.5,10.5
				c11.8-2.4,23.5-4.9,35.3-7.3c10.7-2.2,14.9-17.9,6.6-25.1c-9.1-7.9-18.2-15.7-27.3-23.6c1.5,3.5,2.9,7.1,4.4,10.6
				c1.3-11.9,2.6-23.9,4-35.8c1.3-11.6-13.6-18.4-22.6-13c-10.3,6.2-20.6,12.4-30.9,18.7c5,0,10.1,0,15.1,0
				c-11-4.9-21.9-9.9-32.9-14.8c-5.6-2.5-11.6-2.9-16.7,1.2c-4.8,3.8-6.8,9.7-5.4,15.8c2.7,11.7,5.5,23.4,8.2,35.1
				c1.3-4.9,2.6-9.7,3.9-14.6c-8.1,8.9-16.2,17.8-24.3,26.7c-9.2,10.1-2.4,24.5,10.6,25.6c12,1,24,2,35.9,3c-4.3-2.5-8.6-5-13-7.4
				c6,10.4,11.9,20.9,17.9,31.3c4,7,13.6,9.4,20.5,5.4C1612.8,863.1,1615.1,853.8,1611.1,846.7z"/>
		</g>
	</g>
	<g>
		<polygon class="st19" points="1495.1,1335.7 1512.1,1303.9 1495.6,1271.8 1531.1,1278.2 1556.5,1252.6 1561.4,1288.3 
			1593.6,1304.5 1561.1,1320.2 1555.6,1355.9 1530.7,1329.8 		"/>
		<g>
			<path class="st19" d="M1508,1343.2c3.1-5.7,6.1-11.5,9.2-17.2c3.3-6.2,9.9-14.9,9.9-22.2c0-7.2-6.4-16.1-9.6-22.3
				c-3-5.8-6-11.6-8.9-17.3c-5.6,7.3-11.3,14.7-16.9,22c6.4,1.2,12.8,2.3,19.2,3.5c6.8,1.2,17.4,4.8,24.3,2.9
				c7.1-2,13.3-10.6,18.3-15.6c4.6-4.6,9.2-9.2,13.7-13.9c-8.4-2.2-16.7-4.4-25.1-6.6c0.8,6.1,1.7,12.2,2.5,18.4
				c1,7,0.6,16.7,5.1,22.5c4.4,5.6,13.3,8.4,19.4,11.5c5.7,2.9,11.3,5.7,17,8.6c0-8.6,0-17.3,0-25.9c-5.6,2.7-11.1,5.4-16.7,8.1
				c-6.3,3.1-15.6,5.7-20,11.5c-4.4,5.7-4.2,15.1-5.3,22c-1,6.3-1.9,12.5-2.9,18.8c8.4-2.2,16.7-4.4,25.1-6.6
				c-4.5-4.7-9-9.4-13.5-14.1c-4.9-5.1-10.9-13.8-18.1-15.8c-6.8-1.9-17.5,1.6-24.3,2.7c-6.4,1-12.8,2.1-19.3,3.1
				c-8,1.3-12.5,11.2-10.5,18.5c2.3,8.5,10.4,11.8,18.5,10.5c11.9-1.9,23.7-3.9,35.6-5.8c-4.9-1.3-9.7-2.6-14.6-3.9
				c8.3,8.7,16.6,17.4,25,26c7.2,7.5,23.3,4.8,25.1-6.6c1.8-11.9,3.6-23.8,5.5-35.6c-2.3,3-4.6,6-6.9,9
				c10.8-5.2,21.6-10.5,32.5-15.7c9.9-4.8,9.7-21,0-25.9c-10.7-5.4-21.5-10.8-32.2-16.2c2.3,3,4.6,6,6.9,9
				c-1.6-11.9-3.3-23.8-4.9-35.7c-1.6-11.6-17.9-13.8-25.1-6.6c-8.5,8.5-16.9,17.1-25.4,25.6c4.9-1.3,9.7-2.6,14.6-3.9
				c-11.8-2.1-23.7-4.3-35.5-6.4c-12.9-2.3-23.2,9.9-16.9,22c5.5,10.7,11,21.4,16.5,32.1c0-5,0-10.1,0-15.1
				c-5.7,10.6-11.4,21.2-17,31.8c-3.8,7.1-1.8,16.3,5.4,20.5C1494.3,1352.6,1504.2,1350.4,1508,1343.2z"/>
		</g>
	</g>
	<g>
		<polygon class="st19" points="1254.4,499 1198.6,488 1157.9,527.8 1151.1,471.3 1100.7,444.9 1152.3,421 1161.9,365 1200.6,406.6 
			1256.8,398.4 1229.2,448.1 		"/>
		<g>
			<path class="st19" d="M1258.4,484.6c-16.7-3.3-33.4-6.6-50.1-9.9c-1.9-0.4-3.8-0.8-5.7-1.1c-7.3-1.2-12.3,1.6-17.1,6.3
				c-6.9,6.7-13.8,13.5-20.7,20.2c-5.8,5.7-11.7,11.4-17.5,17.1c8.5,3.5,17.1,7.1,25.6,10.6c-2-16.9-4.1-33.8-6.1-50.7
				c-0.2-1.9-0.4-3.8-0.7-5.7c-0.9-7.3-4.5-11.4-10.5-14.6c-8.5-4.5-17.1-8.9-25.6-13.4c-7.2-3.8-14.5-7.6-21.7-11.4
				c0,8.6,0,17.3,0,25.9c15.3-7.1,30.5-14.1,45.8-21.2c1.9-0.9,4-1.7,5.8-2.7c5-2.8,6.6-7.4,7.5-12.4c1.6-9.7,3.3-19.3,4.9-29
				c1.3-7.9,2.7-15.8,4-23.6c-8.4,2.2-16.7,4.4-25.1,6.6c11.6,12.5,23.2,25,34.8,37.4c1.3,1.4,2.5,2.9,3.9,4.2
				c5.4,5.1,11.6,4.3,18.1,3.3c9.5-1.4,19.1-2.8,28.6-4.2c8.1-1.2,16.1-2.4,24.2-3.6c-5.6-7.3-11.3-14.7-16.9-22
				c-8.3,14.9-16.6,29.7-24.9,44.6c-0.9,1.7-2,3.3-2.8,5.1c-3.3,6.6-1.4,12.3,1.6,18.3c4.3,8.6,8.5,17.3,12.8,25.9
				c3.6,7.3,7.2,14.6,10.9,21.9c3.6,7.3,13.9,9.3,20.5,5.4c7.4-4.3,9-13.2,5.4-20.5c-8.4-17-16.8-34-25.2-51c0,5,0,10.1,0,15.1
				c9.2-16.6,18.5-33.1,27.7-49.7c2.9-5.3,2.6-11.9-1.2-16.7c-4.1-5.1-9.5-6.3-15.8-5.4c-18.8,2.8-37.5,5.5-56.3,8.3
				c4.9,1.3,9.7,2.6,14.6,3.9c-12.9-13.9-25.8-27.8-38.7-41.7c-7.2-7.7-23.2-4.5-25.1,6.6c-3.2,18.7-6.4,37.4-9.5,56.1
				c2.3-3,4.6-6,6.9-9c-17.2,8-34.4,16-51.6,23.9c-10.2,4.7-9.4,21,0,25.9c16.8,8.8,33.6,17.6,50.4,26.4c-2.5-4.3-5-8.6-7.4-13
				c2.3,18.8,4.5,37.6,6.8,56.5c0.7,6.1,3.2,11.3,9.2,13.7c5.6,2.3,12,1.2,16.4-3.1c13.6-13.2,27.1-26.5,40.7-39.7
				c-4.9,1.3-9.7,2.6-14.6,3.9c18.6,3.7,37.2,7.3,55.8,11c7.7,1.5,16.6-2.2,18.5-10.5C1270.6,495.6,1266.6,486.2,1258.4,484.6z"/>
		</g>
	</g>
	<polygon class="st19" points="878,1547 860.6,1536.3 841.9,1544.6 846.7,1524.8 833.1,1509.6 853.4,1508 863.6,1490.4 
		871.4,1509.2 891.4,1513.5 875.9,1526.7 	"/>
	<g>
		<polygon class="st19" points="1149.2,1673 1173.2,1637.4 1157.6,1597.4 1198.8,1609.3 1232,1582.1 1233.5,1625 1269.7,1648.2 
			1229.3,1662.8 1218.4,1704.4 1192,1670.5 		"/>
		<g>
			<path class="st19" d="M1162.1,1680.6c7.2-10.6,14.4-21.3,21.6-31.9c3.6-5.4,5.6-11.2,3.1-17.6c-2.7-6.8-5.3-13.6-8-20.4
				c-2.3-5.7-4.5-11.5-6.8-17.2c-6.2,6.2-12.3,12.3-18.5,18.5c12.3,3.6,24.7,7.1,37,10.7c1.4,0.4,2.8,0.9,4.3,1.2
				c6.7,1.4,11.5-1.3,16.3-5.3c5.7-4.7,11.4-9.4,17.2-14.1c4.8-3.9,9.5-7.8,14.3-11.7c-8.5-3.5-17.1-7.1-25.6-10.6
				c0.4,12.8,0.9,25.6,1.3,38.5c0,1.5,0,3,0.1,4.5c0.6,6.7,4.1,10.8,9.3,14.2c6.2,4,12.5,8,18.7,12c5.2,3.3,10.4,6.7,15.6,10
				c1.2-9.1,2.4-18.3,3.6-27.4c-12.1,4.4-24.1,8.7-36.2,13.1c-1.4,0.5-2.8,1-4.2,1.5c-6.1,2.3-9.5,6.6-11,12.6
				c-1.9,7.2-3.7,14.3-5.6,21.5c-1.6,6-3.1,11.9-4.7,17.9c8.4-2.2,16.7-4.4,25.1-6.6c-7.9-10.1-15.8-20.2-23.7-30.4
				c-4-5.2-9-8.2-15.8-7.8c-7.3,0.4-14.6,0.9-21.9,1.3c-6.2,0.4-12.3,0.7-18.5,1.1c-7.8,0.5-15.4,6.6-15,15c0.3,7.7,6.6,15.5,15,15
				c14.3-0.8,28.6-1.7,42.9-2.5c-3.5-1.5-7.1-2.9-10.6-4.4c8.8,11.3,17.6,22.6,26.4,33.9c7.1,9.1,22.5,3.3,25.1-6.6
				c3.6-13.9,7.2-27.7,10.8-41.6c-3.5,3.5-7,7-10.5,10.5c13.5-4.9,26.9-9.8,40.4-14.6c12.1-4.4,14.9-20.2,3.6-27.4
				c-12.1-7.7-24.1-15.4-36.2-23.2c2.5,4.3,5,8.6,7.4,13c-0.5-14.3-1-28.6-1.4-42.9c-0.2-6-3.6-11.4-9.2-13.7
				c-6-2.4-11.5-0.9-16.4,3.1c-11.1,9.1-22.1,18.2-33.2,27.3c4.9-1.3,9.7-2.6,14.6-3.9c-13.8-4-27.5-7.9-41.3-11.9
				c-10.2-2.9-22.7,7.6-18.5,18.5c5.2,13.3,10.4,26.7,15.7,40c0.5-3.9,1-7.7,1.5-11.6c-8,11.9-16,23.7-24.1,35.6
				c-4.5,6.7-1.3,16.6,5.4,20.5C1149,1690.3,1157.6,1687.3,1162.1,1680.6z"/>
		</g>
	</g>
	<g>
		<polygon class="st19" points="716.7,574.4 653.6,507.7 562.9,521.9 606.8,441.3 565.3,359.5 655.5,376.3 720.5,311.5 732.4,402.5 
			814.1,444.3 731.2,483.7 		"/>
		<g>
			<path class="st19" d="M727.3,563.8c-18.6-19.7-37.3-39.4-55.9-59.1c-2.4-2.5-4.6-5.2-7.2-7.6c-6.2-5.8-13.5-4.1-20.8-2.9
				c-15.5,2.4-31,4.9-46.5,7.3c-12.7,2-25.3,4-38,5.9c5.6,7.3,11.3,14.7,16.9,22c13-23.8,25.9-47.6,38.9-71.4c1.7-3,3.4-6,5-9.2
				c4-8,0.6-14-2.8-20.8c-7.1-14-14.2-28-21.3-42c-5.8-11.4-11.6-22.9-17.4-34.3c-5.6,7.3-11.3,14.7-16.9,22
				c26.6,5,53.3,9.9,79.9,14.9c3.4,0.6,6.8,1.4,10.2,1.9c9.1,1.5,13.5-2.8,19.1-8.3c11.1-11.1,22.2-22.2,33.4-33.2
				c9.1-9,18.1-18.1,27.2-27.1c-8.5-3.5-17.1-7.1-25.6-10.6c3.5,26.9,7,53.8,10.5,80.6c0.4,3.4,0.9,6.9,1.3,10.3
				c1.2,9.4,6,12.2,13,15.8c14,7.1,27.9,14.3,41.9,21.4c11.4,5.8,22.8,11.7,34.2,17.5c0-8.6,0-17.3,0-25.9
				c-24.5,11.6-49,23.3-73.4,34.9c-3.1,1.5-6.4,2.8-9.4,4.5c-6.4,3.7-7,9-7.9,15.2c-2.5,15.5-5,31-7.4,46.5c-2,12.7-4.1,25.3-6.1,38
				c-1.2,7.7,2,16.5,10.5,18.5c7.2,1.6,17.1-2.2,18.5-10.5c4.2-26.4,8.5-52.9,12.7-79.3c0.6-3.8,1.2-7.6,1.8-11.3
				c-2.3,3-4.6,6-6.9,9c24.2-11.5,48.3-23,72.5-34.5c3.5-1.6,6.9-3.3,10.4-4.9c10-4.8,9.6-21,0-25.9c-23.8-12.2-47.7-24.4-71.5-36.6
				c-3.4-1.7-6.8-3.5-10.2-5.2c2.5,4.3,5,8.6,7.4,13c-3.5-26.5-6.9-53.1-10.4-79.6c-0.5-3.8-1-7.6-1.5-11.4
				c-0.8-6.1-3.1-11.3-9.2-13.7c-5.6-2.2-12-1.2-16.4,3.1c-19,18.9-37.9,37.8-56.9,56.7c-2.7,2.7-5.4,5.4-8.1,8.1
				c4.9-1.3,9.7-2.6,14.6-3.9c-26.3-4.9-52.6-9.8-79-14.7c-3.8-0.7-7.5-1.4-11.3-2.1c-13-2.4-23.1,9.9-16.9,22
				c12.1,23.9,24.2,47.7,36.3,71.6c1.7,3.4,3.5,6.8,5.2,10.2c0-5,0-10.1,0-15.1c-12.8,23.5-25.6,47-38.4,70.5
				c-1.8,3.4-3.7,6.7-5.5,10.1c-2.9,5.3-2.6,11.9,1.2,16.7c4,5.1,9.5,6.4,15.8,5.4c26.4-4.1,52.9-8.3,79.3-12.4
				c3.8-0.6,7.6-1.2,11.3-1.8c-4.9-1.3-9.7-2.6-14.6-3.9c18.4,19.4,36.8,38.9,55.2,58.3c2.6,2.8,5.3,5.6,7.9,8.3
				c5.6,5.9,15.6,5.6,21.2,0C733.2,579.1,732.9,569.7,727.3,563.8z"/>
		</g>
	</g>
</g>
<g id="text">
	<g>
		<g>
			<g>
				<path class="st32" d="M648,1260.3c-1,0.3-2.1-0.2-2.3-0.7c-9.1-33.7-18.1-67.5-27.2-101.2c-0.2-0.7,0.4-1.6,1.7-1.9
					c23.3-6.1,46.7-11.8,70.2-17c1.3-0.3,2.5,0.1,2.9,0.8c4.6,8.7,9.2,17.5,13.7,26.3c0.5,0.9,1.1,1.2,1.6,1.1
					c0.5-0.1,0.9-0.8,0.7-1.8c0.2-9.7,0.3-19.3,0.6-29c0.1-0.9,1-1.8,2.6-2.1c24.4-4.8,48.9-9.1,73.6-12.9c1.9-0.3,3,0.1,3.1,1.1
					c5.1,34.5,10.2,68.9,15.3,103.4c0.1,0.9-1,1.6-2.5,1.8c-14.9,2.3-29.7,4.8-44.5,7.4c-1.5,0.3-2.8-0.1-3-1.1
					c-2.7-14.7-5.4-29.4-8.2-44.1c-0.2-1.1-0.5-1.5-1-1.4c-0.5,0.1-0.9,0.8-1.3,3.1c-1.7,15.2-3.2,30.5-4.7,45.7
					c-0.1,0.9-1.2,1.4-2.5,1.7c-9.2,1.8-18.5,3.8-27.7,5.8c-1.2,0.3-2.3-0.1-3-0.9c-6.7-12.5-13.6-25-20.4-37.4
					c-1.3-2.2-2.4-2.4-3.2-2.2c-0.8,0.2-1.1,1-0.8,2.1c3.2,13.6,6.4,27.3,9.5,40.9c0.2,1-0.4,1.7-2.1,2.1
					C675.5,1253.2,661.8,1256.7,648,1260.3z"/>
				<path class="st32" d="M818,1226c-1.7,0.2-3.3-0.5-3.5-1.7c-4.8-34.3-9.7-68.6-14.5-102.9c-0.1-0.7,0.9-1.6,2.2-1.8
					c15.2-2,30.3-3.9,45.5-5.6c1.9-0.2,3.3,0.2,3.4,1.1c3.7,34.6,7.4,69.1,11,103.7c0.1,0.9-1,2-2.8,2.2
					C845.5,1222.4,831.7,1224.1,818,1226z"/>
				<path class="st32" d="M933.6,1141.8c-1.6,0.1-2.6-0.3-3.2-1.4c-1.8-3.4-4.5-4.9-8.2-4.7c-2.6,0.2-4.1,1.7-3.8,2.8
					c2,7.6,21,11.2,28.7,14.1c11.9,4.5,29.2,11.7,30.2,26.2c1.8,25.4-31.4,34.9-51.6,36.8c-23.8,2.2-56.1-4.7-58.9-34.1
					c-0.1-0.7,0.9-1.5,2.9-1.7c11.7-1.5,23.4-2.8,35.1-4c1.8-0.1,2.9,0.4,3.2,1.6c1.5,5.6,6.2,11.5,12.2,11.1
					c3.5-0.2,6.3-2.7,5.5-4.9c-2.6-7.3-23.8-11.7-32.6-15.2c-11.6-4.7-26.8-11.7-28.4-25.8c-2.8-24.5,35.9-33.8,53.1-34.9
					c18.1-1.2,58,2.7,58.8,29.6c0,1-1,1.9-3.1,1.9C960.2,1139.9,946.9,1140.8,933.6,1141.8z"/>
				<path class="st32" d="M1054.3,1140.4c-1.6,0-2.6-0.5-3.1-1.7c-1.5-3.5-4.1-5.3-7.7-5.3c-2.6-0.1-4.3,1.5-4,2.5
					c2.1,7.3,18.3,12.1,27.5,16.4c11.5,5.4,28.1,14,28,28.6c-0.3,25.4-34.1,32.2-54.4,32.4c-23.9,0.3-55.5-9.3-55.9-38.8
					c0-0.7,1-1.5,3-1.5c11.8-0.5,23.5-0.9,35.3-1.1c1.8,0,2.8,0.6,3,1.9c1,5.7,5.2,12,11.3,12.1c3.5,0.1,6.5-2.2,5.9-4.5
					c-2-7.5-22.8-13.6-31.3-17.8c-11.1-5.6-25.8-13.9-26.2-28c-0.8-24.6,38.5-30.7,55.7-30.5c18.2,0.3,57.6,7.4,56.2,34.3
					c-0.1,1-1.2,1.8-3.2,1.7C1081,1140.7,1067.7,1140.5,1054.3,1140.4z"/>
				<path class="st32" d="M1104.9,1215.7c-1.7-0.1-3.2-1.2-3.1-2.4c2.2-34.6,4.4-69.2,6.7-103.7c0-0.7,1.2-1.4,2.5-1.3
					c15.2,1.1,30.4,2.3,45.6,3.7c1.9,0.2,3.1,0.9,3.1,1.7c-3.4,34.6-6.8,69.2-10.2,103.8c-0.1,0.9-1.4,1.7-3.2,1.6
					C1132.5,1217.8,1118.7,1216.7,1104.9,1215.7z"/>
				<path class="st32" d="M1165.5,1145.8c2.6-27,38.7-28.8,58.8-26c20.1,2.9,54.3,14.7,49.3,41.3c-2.5,13.9-5,27.9-7.5,41.8
					c-4.5,25.2-37.3,26.9-57,24.1c-19.8-2.8-50.8-13.5-48-39C1162.5,1174,1164,1159.9,1165.5,1145.8z M1209.7,1193.5
					c-0.3,2.1,0.7,3.9,3.5,4.3c2.8,0.4,4.3-1,4.6-3.1c2-13.7,4-27.4,6-41.2c0.3-1.8-0.7-4-3.6-4.4c-2.9-0.4-4.4,1.3-4.7,3.3
					C1213.5,1166,1211.6,1179.8,1209.7,1193.5z"/>
				<path class="st32" d="M1288,1132.4c0.2-1,1.7-1.6,3.2-1.3c14.9,2.9,29.7,5.9,44.5,9.1c1.8,0.4,3,1.3,3.3,2.5
					c2.9,11.6,5.7,23.3,8.4,35c0.3,1.2,0.9,2,1.4,2.1c0.8,0.2,1.7-0.2,2-1.5c2.4-10.4,4.9-20.8,7.3-31.1c0.2-1,1.7-1.5,3.6-1.1
					c13.1,3.1,26.2,6.4,39.2,9.9c2.1,0.6,3.1,1.9,2.9,2.8c-9,33.4-17.9,66.8-26.9,100.1c-0.3,1-1.5,1.5-3.2,1.1
					c-15.1-4-30.2-7.8-45.5-11.3c-1-0.2-2.3-1.1-2.4-2c-1.7-9.2-3.4-18.4-5.2-27.6c-0.2-1.5-1.1-2.3-1.8-2.4s-1.4,0.3-1.7,1.7
					c-2.2,9.9-3.2,14.9-5.4,24.8c-0.2,1-1.9,1.5-3.6,1.1c-12.4-2.7-24.8-5.2-37.2-7.5c-1.5-0.3-2.3-1.3-2.1-2.4
					C1275.4,1200.4,1281.7,1166.4,1288,1132.4z"/>
				<path class="st32" d="M730.3,1279.3c-0.2-1,0.8-2.2,2.5-2.6c28.6-5.8,57.4-10.8,86.3-15c1.7-0.2,3,0.3,3.1,1.2
					c1.4,9.9,2.1,14.8,3.4,24.7c0.1,1-1.2,2-2.8,2.3c-12.7,1.8-25.4,3.8-38.1,6c-1.4,0.2-2.5,1-2.3,2c0.6,3.4,0.9,5.1,1.5,8.5
					c0.1,0.7,0.9,1.1,2.5,0.9c7.1-1.2,10.6-1.8,17.7-2.9c1.2-0.2,2.7,0.3,2.8,1c1.6,10.3,2.4,15.4,4,25.6c0.1,0.9-0.9,1.7-2.5,2
					c-6.8,1.1-10.3,1.6-17.1,2.8c-1.1,0.2-2.1,1.4-2,2.2c2,11.4,4,22.9,5.9,34.3c0.2,1.3-0.8,2.2-2.5,2.5
					c-12.8,2.3-25.6,4.7-38.3,7.3c-1.1,0.2-2.6-0.3-2.8-1.3C744.4,1346.9,737.4,1313.1,730.3,1279.3z"/>
				<path class="st32" d="M887.7,1253.7c1.7-0.2,3,0.6,3.3,1.6c13.9,33,27.1,66.3,39.6,99.8c0.5,1.5-0.5,3.2-2.9,3.3
					c-12,0.8-24.1,1.8-36.1,2.9c-1.3,0.1-2.7-0.3-3-1.1c-2.6-8.4-3.9-12.6-6.6-21c-0.3-0.7-1.2-1-2.4-0.9c-4.9,0.5-7.3,0.8-12.2,1.3
					c-0.9,0.1-1.7,0.8-1.9,1.7c-0.8,8.6-1.1,12.9-1.8,21.4c-0.1,1-1.6,1.8-2.7,1.9c-12.2,1.5-24.4,3.1-36.6,4.9c-2,0.3-3.3-0.5-3-2
					c4.9-35.7,10.4-71.2,16.7-106.7c0.1-0.7,1.2-1.9,2.7-2.1C856.3,1256.8,872,1255.2,887.7,1253.7z M872.2,1309.6
					c-0.7-1.9-1.3-3.2-2-3.1c-0.7,0.1-1.1,1.1-1.3,3.5c-0.6,5.5-0.9,8.3-1.5,13.9c-0.2,0.7,0.4,1.4,1.5,1.3c7.3-0.8,8-0.9,7.7-2.1
					C874.9,1317.6,874,1314.9,872.2,1309.6z"/>
				<path class="st32" d="M938.4,1357.8c-1.6,0.1-3-0.8-3-2c-2.1-34.6-4.2-69.2-6.2-103.8c0-0.7,0.9-1.5,2.1-1.6
					c13.8-0.8,27.6-1.4,41.4-1.8c1.7,0,2.9,0.5,2.9,1.4c0.9,34.7,1.8,69.5,2.7,104.2c0,0.9-1.1,1.9-2.6,1.9
					C963.3,1356.6,950.8,1357.1,938.4,1357.8z"/>
				<path class="st32" d="M1071.1,1327.4c1.6,0.1,2.5,0.8,2.4,1.6c-0.5,10.7-0.8,16-1.3,26.6c0,0.9-1.2,1.5-2.5,1.5
					c-26.7-1.1-53.3-1.5-79.9-1.2c-1.3,0-2.5-0.8-2.5-1.8c-0.7-34.6-1.3-69.1-2-103.7c0-0.9,1.4-2,3.1-2.1c13.6-0.2,27.3-0.3,41-0.1
					c1.5,0,2.4,0.8,2.4,1.6c-0.4,25.1-0.8,50.2-1.1,75.3c0,0.6,0.7,1,1.4,1C1045,1326.4,1058.1,1326.8,1071.1,1327.4z"/>
				<path class="st32" d="M1085.9,1252.1c0-0.9,1.6-1.8,3.2-1.7c28.7,1.8,57.2,4.3,85.8,7.6c1.4,0.2,2.3,1,2.2,1.9
					c-1.2,10.2-1.9,15.4-3.1,25.6c-0.1,0.9-1.4,1.3-2.8,1.1c-13.1-1.6-26.3-3-39.5-4.1c-0.9-0.1-1.7,0.3-1.7,0.8
					c-0.3,3.2-0.4,4.8-0.7,8c-0.1,0.6,0.8,1.1,1.6,1.2c7.4,0.7,11.1,1,18.5,1.8c0.9,0.1,1.6,0.6,1.5,1.2c-1.1,10.4-1.6,15.6-2.7,26
					c-0.1,0.7-1.1,1.2-2,1.1c-7.4-0.8-11.2-1.1-18.6-1.8c-0.9-0.1-1.6,0.3-1.7,1c-0.3,3.4-0.4,5.1-0.7,8.4c-0.1,0.6,0.6,1.1,1.3,1.1
					c13.2,1.2,26.3,2.5,39.4,4.1c1.6,0.2,2.4,1,2.3,1.7c-1.3,10.6-1.9,15.9-3.2,26.5c-0.1,0.9-1.3,1.4-2.6,1.3
					c-26.5-3.1-53.1-5.4-79.7-7c-1.3-0.1-2.4-1-2.4-2C1082.2,1321.2,1084.1,1286.6,1085.9,1252.1z"/>
				<path class="st32" d="M1176.4,1366.5c-1.8-0.2-2.6-1.1-2.4-2.1c4.4-34.3,8.9-68.5,13.3-102.8c0.1-1.1,1.5-2,3.4-1.7
					c14.4,2,28.7,4.1,43,6.4c25.6,4,59.2,19.4,52.2,51.1c-2.2,10.4-3.3,15.7-5.5,26.1c-5.9,28.3-38.6,33.4-62.5,29.2
					C1204,1370.5,1190.2,1368.4,1176.4,1366.5z M1240.6,1300.2c0.2-1.4-0.3-2.7-1.5-3.6c-0.8-0.6-2.7-1.3-3.8-1.5
					c-0.9-0.2-1.5,0.2-1.6,1c-2.6,15.7-5.3,31.3-7.9,47c-0.1,0.8,0.3,1.2,1.2,1.4c1.4,0.2,5.9,1,6.6-3.1
					C1235.9,1327.6,1238.2,1313.9,1240.6,1300.2z"/>
			</g>
		</g>
	</g>
</g>
<g id="cat">
	<g>
		<g>
			<path class="st16" d="M749.4,801.4c-2.6,17.7,17.6,31.5,12.6,45.9c-6.4,18.7,27,24.1,51.2,38.4c32.2,9.4,38.6,34.3,26.9,34.4
				c2.4,12.3-33.4,22.5-69.3,3c-40.9-14.7-80.8-58.2-81.6-79.6c-0.6-15.4-16.3-35.4-13.7-53.4c1.6-10.5-0.1-64.3,2.3-73.8
				c5.5-21.3,51.2-67.2,59.5-80.3c11.5-28.6,98.7-24.8,106-4.8c15.7,3.9,3.8,41.4-0.4,55.5c4,15.2-74.1,51.5-75.2,73.5
				C767.2,769.6,750.8,791.5,749.4,801.4z"/>
			<path class="st24" d="M850.4,671.4c-4,26.9-51.7,75.7-80.1,71.5s-75.2-33.4-71.2-60.3c2-13.4,11.6-28,22.3-35.4
				c10.6-7.4,47.1-33.7,61.3-31.6s46.1-0.6,54.1,9.6C844.7,635.4,852.4,658,850.4,671.4z"/>
			<g>
				<g>
					<path class="st9" d="M766.7,736c21.9-13,41.3-32,50.7-56.1c7.2-18.4,6.4-40.8-8.8-55c-10.1-9.4-23.3-13.2-36.6-14.9
						c-4-0.5-7.5,3.8-7.5,7.5c0,4.5,3.5,7,7.5,7.5c16.5,2.1,32,10.3,34.7,27c2.5,15.8-6.9,33.8-17.4,46.1c-8.5,10-18.7,18.2-30,24.9
						C750.8,728,758.3,741,766.7,736L766.7,736z"/>
				</g>
			</g>
			<g>
				<g>
					<path class="st9" d="M728.4,723.3c21.9-0.3,38.1-22.2,45.7-40.4c3.7-8.8,6.6-19.2,4.1-28.8c-2.4-9-9.7-12.9-17.6-16.3
						c-8.1-3.5-23.6-11.5-31.7-4.5c-7.3,6.4,3.4,16.9,10.6,10.6c-1,1-2.2,1.6-3.6,1.7c0.4,0,0.8,0,1.1,0.1c-1.5-0.6,1.3,0.3,1.8,0.4
						c2.3,0.5,4.5,1.2,6.7,1.9c4.7,1.6,9.4,3.4,13.8,5.7c0.7,0.4,1.4,0.8,2.1,1.2c0.5,0.3,2.4,2,0.9,0.5c1.1,1.1,0.9,0.9,1.2,1.8
						c0.9,2.8,0.8,6.6,0,10.1c-2,9.7-6.9,19.1-13,26.8c-5.5,6.9-13.6,14.2-22,14.3C718.7,708.4,718.7,723.4,728.4,723.3L728.4,723.3
						z"/>
				</g>
			</g>
			<path class="st27" d="M734.4,900.6c-18.8-3,36.9,25,63.6,28.9c41.6,12.4,69.5-11.8,61.3-33.7C826.5,874.7,761,904.9,734.4,900.6z
				"/>
			<path class="st28" d="M697.1,780.4c-1.6,10.6,35.2,34.4,51.7,36.8c-10.1-2,15.7-62.8,23.1-61.4
				C755.5,753.4,698.7,769.8,697.1,780.4z"/>
			<path class="st11" d="M843.6,653.3c1.2,10.4-3.4,26.6-10.1,27.4c-6.7,0.8-17.1-50-10.4-50.8S842.4,642.9,843.6,653.3z"/>
			<g>
				<g>
					<g>
						<path class="st31" d="M879.5,896.4c-2-10.4-15-17.5-24-20.7c-4-1.4-8,1.6-9.2,5.2c0.6-1.7-0.2-0.4-1.9,0
							c-2.2,0.4-4.6,0.3-6.8,0.4c-5,0.1-10-0.3-15-1.2c-8.9-1.6-17.5-4.6-25.4-9c-15.3-8.6-27.4-22.3-34.4-38.3
							c-7.2-16.8-8.8-37,0.1-53.5c8.5-15.5,23.3-26.4,36.9-37.2c14.6-11.7,28.9-24.1,40.6-38.9c11.3-14.4,22.2-32.5,20.1-51.6
							c-4.2-38.5-50.3-50.9-82.5-44c-41.3,8.8-72.1,44.7-93,79.3c-2.1,3.5-0.7,8.2,2.7,10.3c26.4,16.3,52.9,32.7,79.3,49
							c3.8,2.4,7.6,4.7,11.4,7.1c1.3-4.7,2.5-9.3,3.8-14c-2.3-0.1-1.2,0-3.6-0.5c-1.9-0.4-3.8-0.9-5.6-1.5
							c-4.1-1.3-8.1-2.9-12.1-4.7c-9.8-4.5-19.3-9.8-28.5-15.6c-8.3-5.2-16.4-10.7-23.8-17.1c-2.8-2.4-5.4-4.9-8-7.6
							c-0.3-0.3-1.4-1.8-0.4-0.4c-0.4-0.5-0.7-1-1-1.5c-0.3-0.4-0.4-1-0.8-1.4c0.5,1.2,0.6,1.4,0.4,0.7c-0.2-0.8-0.1-0.4,0.1,1
							c-0.5-7.2-10-10.5-14-3.8c-7.3,12.4-13.2,25.7-16.1,39.9c-2.8,14.2-3.2,28.6-2.5,43c0.8,15,2.1,30.3,5.1,45.1
							c2.8,13.6,8,26.6,14.4,39c11.9,23,27,45.9,48.7,60.8c21.8,14.9,49.4,20.9,75.2,24.6c14.9,2.1,30.5,1.9,43.4-6.9
							c5.8-4,10.8-8.9,15.2-14.3c4.8-5.8,10.6-11.8,11.4-19.5c0.4-4-3.8-7.5-7.5-7.5c-4.4,0-7.1,3.5-7.5,7.5
							c-0.1,1.3-3.2,4.2-4.2,5.4c-1.6,2-3.2,4.1-4.9,6c-3.7,4.3-7.8,8.3-12.8,11.2c-10.4,6-23,4.8-34.4,2.9
							c-22.4-3.8-45.7-8.6-65-21.3c-19.3-12.7-32.3-33.2-43-53.2c-5.6-10.5-10.4-21.4-13.3-33c-3.2-12.8-4.4-26-5.4-39.1
							c-1-14.2-1.6-28.8,0.8-42.9c2.4-14.4,7.9-27.5,15.2-40c-4.7-1.3-9.3-2.5-14-3.8c0.6,7.5,6.7,13.3,12.1,18
							c8.3,7.4,17.5,13.9,26.9,19.9c10.1,6.5,20.5,12.4,31.4,17.3c8.8,4,18.1,7.8,27.9,8.3c7.7,0.4,9.8-10.2,3.8-14
							c-26.4-16.3-52.9-32.7-79.3-49c-3.8-2.4-7.6-4.7-11.4-7.1c0.9,3.4,1.8,6.8,2.7,10.3c18.4-30.4,44.9-62.6,80.9-71.7
							c16.4-4.1,34.6-3.1,49.3,5.8c6.7,4.1,12.8,9.9,15.7,17.3c3.3,8.4,1.7,17.7-1.6,25.9c-14.2,35.3-50.5,54-76.3,79.5
							c-13.5,13.3-22.7,29.4-24.1,48.6c-1.3,18.7,4.7,38,15,53.5c11.3,17.1,27.6,30.1,46.9,37.2c10.2,3.8,21.2,5.7,32.1,5.8
							c9.6,0.1,21.3-0.8,24.9-11.4c-3.1,1.7-6.2,3.5-9.2,5.2c4.1,1.5,12.6,5.4,13.5,10.2C866.9,909.9,881.3,905.9,879.5,896.4z"/>
					</g>
				</g>
				<g>
					<g>
						<path class="st31" d="M847.2,878c-0.2,0.3-0.4,0.7-0.7,1c-0.7,1.2-1,2.4-1,3.8c0,1,0.2,2,0.6,2.9c0.3,0.9,0.8,1.7,1.6,2.4
							c0.9,0.9,2,1.6,3.3,1.9c0.2,0.1,0.4,0.1,0.6,0.2c1,0.3,2,0.4,3,0.1c1,0,1.9-0.3,2.8-0.9c1.6-1,3.1-2.6,3.4-4.5
							c0.2-1,0.4-2.1,0.4-3.2c-0.1-2-0.8-3.9-2.2-5.3c-0.7-0.7-1.5-1.2-2.4-1.6c-0.9-0.5-1.9-0.7-2.9-0.6c-1.9,0.1-4,0.7-5.3,2.2
							c-1.3,1.4-2.3,3.3-2.2,5.3c0,0.3,0,0.6,0,0.9c0.1-0.7,0.2-1.3,0.3-2c0,0.1,0,0.2-0.1,0.3c3.1-1.7,6.2-3.5,9.2-5.2
							c-0.2-0.1-0.4-0.1-0.6-0.2c1.5,3.7,3,7.3,4.5,11c0.2-0.3,0.4-0.7,0.7-1c0.5-0.9,0.8-1.8,0.9-2.8c0.2-1,0.2-2-0.1-3
							c-0.2-1-0.7-1.8-1.3-2.6c-0.5-0.8-1.2-1.5-2.1-1.9c-1.7-0.9-3.8-1.4-5.8-0.8c-0.6,0.3-1.2,0.5-1.8,0.8
							C848.7,876,847.8,876.9,847.2,878z"/>
					</g>
				</g>
			</g>
			
				<ellipse transform="matrix(0.9892 0.1463 -0.1463 0.9892 145.9878 -161.6105)" class="st8" cx="1171.4" cy="911.4" rx="41.6" ry="82.4"/>
			<path class="st18" d="M1205.9,929.6l-40.5,17.5l9.8-27.3l34.6-33.8C1210.5,897.9,1209.6,913.4,1205.9,929.6z"/>
			<path class="st4" d="M1175.9,987.4l-28.7,8.7l9.8-27.3l43-9.2C1200.8,971.6,1189.3,986.2,1175.9,987.4z"/>
			<path class="st1" d="M839.3,882.3c-8.8,59.7,64.6,135.5,156,149c91.3,13.5,184.5-43.1,193.3-102.8c4.9-32.8,19.9-85.9-12.5-110.9
				c-15.6-12-15.9-129.4-37.1-137.1c-12.4-4.5-22.9-32.7-36.8-35.2c-2.8-0.5-22.5,93.7-25.4,93.2c-13.5-2-52.6-10.7-65.4-10.6
				c-15.7,0.2-6.1-100.6-20.1-97.6c-31.8-4.1-110.8,135.1-115.8,153.2C852.4,798.5,842.8,858.2,839.3,882.3z"/>
			<path class="st10" d="M1103.9,1024.8c-102.7,57.8-295.3-38.1-244.6-133.6c-18.3-89.4,220.5-87.5,330.4-35.5
				C1222.3,866.2,1183.8,1002.5,1103.9,1024.8z"/>
			<path class="st33" d="M1130.8,823.9c38.2,12.4,42,35.3,62.6,80.6c-4.2-21.5,6-23.7-16.9-83.1c-6.6-76.7-49.6-178.9-65.5-177
				c-4.4,0.5-20.9,6.2-18.9,16.3C1131.5,639.6,1146.4,760.3,1130.8,823.9z"/>
			<path class="st7" d="M1005.8,696.8c-1.8,12.4-20.5-54.7-35-56.9c-14.5-2.1,13.5-9.8,28-7.7
				C1004.3,643.8,1007.7,684.3,1005.8,696.8z"/>
			<path class="st12" d="M1148.3,779.7c4.7,13-41.7-20.2-46.3-29.8c-1.5-28.5,6.2-72.6,12.4-73
				C1120.5,676.6,1146.7,751.3,1148.3,779.7z"/>
			<g>
				<g>
					<path class="st31" d="M1183.7,823.4c0.8-3.3-0.3-7.2-0.8-10.4c-0.9-6-1.8-12-2.9-17.9c-3.4-19.2-7.5-38.2-12.6-57
						c-5.7-21.1-12.6-42.2-22.3-61.8c-7.5-15.2-17.9-32.4-33.8-40.2c-3.2-1.6-6.1-3-9.7-1.9c-4.6,1.4-7.8,5.4-10.3,9.3
						c-5.4,8.3-7.7,18.2-9.1,27.8c-3.5,23.2-5.9,46.7-8,70.1c3.2-2.4,6.3-4.8,9.5-7.2c-24.6-9.2-50.7-13.7-77-13.6
						c2.5,2.5,5,5,7.5,7.5c-0.2-24.2-1.7-48.4-4.6-72.4c-0.7-5.9-1.5-11.7-2.4-17.5c-0.8-5.3-0.8-13.3-6.1-16.4
						c-4.2-2.4-11.1-1.2-15.4,0.1c-10.8,3.2-20.1,10.9-28,18.7c-10.3,10.2-19.2,21.9-27.4,33.8c-17.3,25.1-32.1,52.1-44.7,79.8
						c-1.3,2.8-2.5,5.5-3.7,8.3c-0.7,1.6-1.4,3.2-2,4.8c-0.2,0.6-0.5,1.1-0.7,1.7c-0.4,0.9-1.6,2.2-0.6,1.3c1.7-1.5-2.1,1.5-2.1,1.5
						c-0.8,0.7-1.5,1.5-2.3,2.2c-1.7,1.7-3.3,3.4-4.9,5.2c-3.4,3.8-6.6,7.8-9.7,11.9c-11.7,15.7-20.3,33.9-24.7,53
						c-7.7,32.7-3.4,66.7,10.9,97c14.2,30,38,55.1,65.9,72.9c60.3,38.5,141,43.2,204.6,9.9c28.6-15,53.4-38.1,68.6-66.7
						c17.9-33.7,21.7-73.8,10.4-110.4c-3.1-10.1-7.3-19.8-12.3-29c-4.6-8.5-17.5-0.9-13,7.6c16.8,31.3,21.5,67.7,11.1,101.8
						c-8,26.1-24.4,48.8-45.4,66c-46.5,38.1-112.5,46.5-169.1,29.5c-54.5-16.4-103.1-58.4-116.9-115c-7-28.6-3.9-59.6,9-86.2
						c7.5-15.4,17.7-29.1,30.1-40.8c4.1-3.9,5.6-9.8,7.9-14.8c2.3-5.3,4.8-10.6,7.3-15.8c11.8-24.4,25.2-48.2,40.7-70.4
						c6.9-9.9,14.4-19.4,22.9-28c6-6,14-12.8,20.8-15.1c0.9-0.3,1.8-0.6,2.7-0.8c0.5-0.1,2.9-0.5,1.3-0.3c1.7-0.2,3.4-0.1,5.1,0.1
						c-2.2-1.2-4.3-2.5-6.5-3.7c1.7,2.9,1.5,7.9,2,11.1c0.6,3.9,1.1,7.7,1.6,11.6c1,8.1,1.9,16.2,2.6,24.4c1.4,16.3,2.1,32.6,2.2,49
						c0,4,3.4,7.5,7.5,7.5c25-0.1,49.6,4.3,73,13c5,1.9,9.1-2.8,9.5-7.2c1.6-17.5,3.5-35,5.7-52.4c0.9-7.5,1.8-15.2,3.4-22.6
						c0.7-3.3,1.6-6.6,2.9-9.8c0.8-1.9,3.1-7.5,5.1-8.2c-1.3,0-2.7,0-4,0c1.8,0.7-1-0.9,0.6,0.2c0.5,0.4,1.2,0.6,1.8,0.9
						c1.2,0.6,2.3,1.3,3.5,2.1c0.6,0.4,1.1,0.8,1.7,1.2c-1.2-0.9,0.6,0.5,0.7,0.6c1.3,1.1,2.6,2.3,3.8,3.5c4.6,4.7,7.7,9,11.2,14.8
						c8.1,13.2,13.9,27.6,18.9,42.2c9.8,28.7,16.5,58.5,21.7,88.4c0.8,4.9,1.6,9.8,2.3,14.8c0.1,0.7,0.5,3.9,0.1,0.9
						c0,0.3,0,1.6,0.2,1.8c0.7,0.6-0.7,4.2,0.4-0.3C1166.9,828.8,1181.4,832.8,1183.7,823.4z"/>
				</g>
			</g>
			<g>
				<g>
					<path class="st31" d="M1060.1,969.3c0.1-0.2,0.2-0.5,0.3-0.7c-1.1,1.5-2.3,3-3.4,4.5c0.2-0.1,0.5-0.3,0.7-0.4
						c-1.9,0.3-3.9,0.5-5.8,0.8c0.3,0.1,0.5,0.1,0.8,0.2c-1.5-3.7-3-7.3-4.5-11c-11.3,18.5-28.7,32.9-49.2,40.2
						c-9,3.2-5.1,17.7,4,14.5c24.3-8.7,44.7-25.1,58.2-47.1c2.5-4,0.2-9.9-4.5-11c-5.4-1.3-9.1,1.4-11.1,6.2
						c-1.5,3.8,1.7,8.2,5.2,9.2C1055.1,975.8,1058.5,973.1,1060.1,969.3L1060.1,969.3z"/>
				</g>
			</g>
			<g>
				<g>
					<path class="st31" d="M1051,973.4c0.9,17.8,14,35.2,33.6,30.6c9.4-2.2,5.4-16.7-4-14.5c-9.4,2.2-14.2-8.5-14.6-16.1
						C1065.5,963.8,1050.5,963.7,1051,973.4L1051,973.4z"/>
				</g>
			</g>
			<g>
				<path class="st31" d="M1059.1,966.3c4.9-3,9.3-9.4,12-13.4c-0.8-1.9-20.8-2.6-26-0.1C1046.7,955.9,1054.3,963.7,1059.1,966.3"/>
				<g>
					<path class="st13" d="M1062.9,972.8c6.2-4.2,10.5-10,14.7-16.1c1.3-2,1.5-5.6,0-7.6c-4-5.2-10.7-5.2-16.8-5.4
						c-6.6-0.2-13.4,0-19.5,2.6c-3.7,1.6-4.5,7.1-2.7,10.3c3.8,6.4,10.3,12.4,16.7,16.2c8.3,4.9,15.9-8,7.6-13
						c-4.2-2.5-8.9-6.6-11.3-10.8c-0.9,3.4-1.8,6.8-2.7,10.3c-1.6,0.7,0.9-0.1,1.3-0.2c0.5-0.1,1.1-0.2,1.8-0.2
						c2.4-0.2,4.8-0.3,7.2-0.2c2.1,0,4.2,0.1,6.3,0.3c1.8,0.2-0.2,0.1,1.3,0.2c0.4,0.1,0.8,0.2,1.2,0.3c-1.4-0.5-2.5-1.4-3.3-2.8
						c0-2.5,0-5,0-7.6c-2.6,3.8-5.4,8.1-9.3,10.7C1047.3,965.2,1054.8,978.2,1062.9,972.8L1062.9,972.8z"/>
				</g>
			</g>
			
				<ellipse transform="matrix(0.9892 0.1463 -0.1463 0.9892 150.574 -136.8394)" class="st25" cx="1005.3" cy="954.9" rx="6.1" ry="6.1"/>
			
				<ellipse transform="matrix(0.9892 0.1463 -0.1463 0.9892 151.7391 -151.0894)" class="st25" cx="1103" cy="956" rx="6.1" ry="6.1"/>
			
				<ellipse transform="matrix(0.9892 0.1463 -0.1463 0.9892 155.2317 -152.5056)" class="st25" cx="1114.1" cy="978.7" rx="6.1" ry="6.1"/>
			
				<ellipse transform="matrix(0.9892 0.1463 -0.1463 0.9892 157.8228 -151.4319)" class="st25" cx="1108.1" cy="996.9" rx="6.1" ry="6.1"/>
			
				<ellipse transform="matrix(0.9892 0.1463 -0.1463 0.9892 152.1387 -132.8097)" class="st25" cx="978.7" cy="967.6" rx="6.1" ry="6.1"/>
			
				<ellipse transform="matrix(0.9892 0.1463 -0.1463 0.9892 156.4254 -130.504)" class="st25" cx="965.4" cy="998.1" rx="6.1" ry="6.1"/>
			<path class="st17" d="M1068.8,825.3c3.3-0.6,1.3,40.9-9.3,51.8c-10.6,11-27.5-55-30.8-55.8
				C1025.2,820.4,1068.7,825.1,1068.8,825.3z"/>
			<path class="st17" d="M1021.2,820.8c1.8-0.3,1,22-4.6,27.9c-5.7,5.8-13.6-28.8-15.9-28.5L1021.2,820.8z"/>
			<path class="st17" d="M1097,829.7c1.6,1.1,0.7,21.3-4.9,27.1c-5.7,5.8-15.5-29.9-17.2-30.5C1083.4,827.5,1095.7,829.3,1097,829.7
				z"/>
			<path class="st22" d="M1029.2,1043.1c-68.7,6-179.2-58.2-187.2-128.2c-8.8-40.3-11.3-88.5,52.7-149
				C805.5,891.1,937.8,1030.8,1029.2,1043.1z"/>
			<g>
				<g>
					<path class="st31" d="M1029.2,861.5c1.2-3.9,2.4-7.7,3.6-11.6c1.7-5.5-6.2-8.5-9.1-3.9c-22.3,35.5-44.7,71-67,106.5
						c-3.4,5.5,5.2,10.5,8.6,5c22.3-35.5,44.7-71,67-106.5c-3-1.3-6.1-2.6-9.1-3.9c-1.2,3.9-2.4,7.7-3.6,11.6
						C1017.6,865,1027.3,867.6,1029.2,861.5L1029.2,861.5z"/>
				</g>
			</g>
			<g>
				<g>
					<path class="st31" d="M998.1,851.1c-0.1-1.8-0.3-3.6-0.4-5.4c-3.3,0.4-6.5,0.9-9.8,1.3c7.2,29.3,12.6,59,16.3,88.9
						c0.8,6.3,10.8,6.4,10,0c-3.8-30.8-9.2-61.4-16.6-91.5c-1.3-5.4-10.3-4.4-9.8,1.3c0.1,1.8,0.3,3.6,0.4,5.4
						C988.6,857.5,998.6,857.6,998.1,851.1L998.1,851.1z"/>
				</g>
			</g>
			<g>
				<g>
					<path class="st31" d="M1130.2,870.5c1-5.1,1.7-10.3,1.9-15.5c0.3-5.6-8.6-6.8-9.8-1.3c-8.1,35.6-19.2,70.6-33.8,104.1
						c-2.6,5.8,6.1,10.9,8.6,5c15-34.3,26.6-70,34.8-106.5c-3.3-0.4-6.5-0.9-9.8-1.3c-0.2,4.4-0.7,8.6-1.5,12.9
						C1119.3,874.1,1129,876.8,1130.2,870.5L1130.2,870.5z"/>
				</g>
			</g>
			<g>
				<g>
					<path class="st31" d="M1110.5,867.6c-0.4-1.7-0.3-3.1-0.2-4.8c-3.3,0.4-6.5,0.9-9.8,1.3c5.1,17.1,7.5,34.9,10.4,52.5
						c2.9,18.3,5.9,36.7,8.8,55c1,6.3,10.7,3.6,9.6-2.7c-2.9-18.3-5.9-36.7-8.8-55c-2.8-17.6-5.2-35.4-10.4-52.5
						c-1.7-5.7-9.3-4.1-9.8,1.3c-0.3,2.6-0.1,5,0.5,7.5C1102.3,876.5,1112,873.9,1110.5,867.6L1110.5,867.6z"/>
				</g>
			</g>
			<path class="st15" d="M1099.3,1038.4c-90,19.8-212.6-11.2-240.9-87.3c-23.5-63.1,25-113.5,25-113.5
				c48.6-42.1,280.2-15.3,321.4,25.8C1221.7,997.7,1142.6,1027.4,1099.3,1038.4z"/>
			
				<ellipse transform="matrix(0.9892 0.1463 -0.1463 0.9892 138.5956 -117.5765)" class="st0" cx="868.4" cy="883.2" rx="41.6" ry="82.4"/>
			<path class="st12" d="M922.2,753.1c-3.8,19.8,65.9-8.7,69.6-24.6c4.2-28.2-4.1-73.6-13-74.9C969.9,652.3,926.4,724.9,922.2,753.1
				z"/>
			<path class="st23" d="M1073.9,951c0,2.2-3.7,4-8.4,4.1c-4.7,0.1-8.5-1.6-8.6-3.7c0-2.2,3.7-4,8.4-4.1
				C1070,947.2,1073.9,948.9,1073.9,951z"/>
			<path class="st30" d="M1200.9,879.6c-7.1,111.7-69.4,141.6-58.2,127.1c41.4-27,32.8-156.6-31.7-164.9
				C1078.2,837.6,1200.6,850.5,1200.9,879.6z"/>
			<path class="st30" d="M896.8,921.3c-13.6,32.6-31.7,44.5-45,37.6c-9.1-29.9-4.1-56.2,5.2-82C857,876.8,855.8,901.1,896.8,921.3z"
				/>
			<path class="st30" d="M902.6,834c3.2,9.8,3.4,15.4,4,20.7c-24.6-15.4-20.5,18.3-37-3.2C869.7,851.5,876.5,839.9,902.6,834z"/>
			
				<ellipse transform="matrix(0.9892 0.1463 -0.1463 0.9892 137.6292 -116.376)" class="st5" cx="859.8" cy="877.2" rx="20.6" ry="46.1"/>
			<path class="st21" d="M839.4,874.2c-3.4,22.9,4.6,63.8,27.1,39.6c-24,5.8-7.7-88.6,8.2-73.5C864.6,823.2,840.4,839.9,839.4,874.2
				z"/>
			<path class="st2" d="M854.4,888l-19-2.6c0.1-4.3,0.7-9.8,1.7-15.5l18.7,2.9C855,877,854.6,882.3,854.4,888z"/>
			<polygon class="st29" points="856.3,869.6 837.7,866.8 838.5,863.3 856.9,866.5 			"/>
			<path class="st14" d="M1082.4,748.5c-60.2-8-77.7,2.2-77.7,2.2s-9.9-5.3-2.8-20.4C1032.9,733.8,1061.3,738.9,1082.4,748.5z"/>
			<g>
				<g>
					<path class="st19" d="M745,1072.5c3.2,0,3.2-5,0-5C741.7,1067.5,741.7,1072.5,745,1072.5L745,1072.5z"/>
				</g>
			</g>
			<g>
				<g>
					
						<rect x="644" y="609.1" transform="matrix(0.9892 0.1463 -0.1463 0.9892 130.7463 -128.6094)" class="st20" width="591" height="430.6"/>
				</g>
			</g>
		</g>
	</g>
</g>
<g id="button">
	<circle class="st26" cx="1006.7" cy="1583.3" r="170.8"/>
	<path class="st6" d="M1038.9,1627.4l-29.5,28c-6.1,3.5-144-82.1-60.5-143.6c76.9-56.6,125.4,21.2,125.4,21.2l-19.5,32.3
		c0,0-25.9-89.7-89.3-33.8S1038.9,1627.4,1038.9,1627.4z"/>
	<polygon class="st6" points="995.2,1531.8 1051,1518.1 1106.9,1504.3 1090.9,1559.5 1074.8,1614.8 1035,1573.3 	"/>
</g>
</svg>
